<svg style="background-color:#ffffff00" xmlns="http://www.w3.org/2000/svg" width="110" height="110"><path d="M45.443 32.575l9.588 2.245 1.267-5.854 4.834 1.043-1.347 6.014 10.697 2.166s1.267.882.95 2.647c-.317 1.764-8.082 36.569-8.082 36.569s.238.963-2.139.722l-24.959-5.534s-1.585 0-1.189-2.646l8.083-35.848s-.238-2.165 2.297-1.524z" fill="#fff"/><path d="M75.473 46.846c-1.634-3.471-5.118-7.19-12.062-10.896l.043.072c-1.852-1.445-5.793-4.707-4.263-8.256 0 0 1.16.384 2.059 1.039 1.98 1.443 2.993 3.573 4.118 5.194 2.06 2.967 6.904 3.332 8.647 7.582.517 1.26 1.513 3.18 1.54 4.696l-.082.57zM71.48 64.894l.1-.104c1.171-3.57 2.366-6.066 3.18-7.966.333-.776.631-2.43.894-3.271 0 0-1.495 8.504-4.074 11.237l-.035.104h-.065zm-2.029 1.996l.057-.17a25.528 25.528 0 0 1-2.83 2.024c-4.04 2.486-8.874 7.057-9.983 8.901-1.11 1.845-2.06 5.856 3.328 7.219 5.388 1.363 8.082-7.94 8.082-7.94.47-2.25 1.414-5.6 2.484-9.035l.305-.573c2.426-2.152 4.64-5.362 5.292-8.918.422-2.295.93-4.725.414-7.89l.18-1.904c.265-1.83.272-3.202.12-4.16-.397-2.486-2.457-6.255-4.596-7.538-2.14-1.284-5.626-3.289-6.497-4.893-.65-1.196-2.298-4.09-4.12-5.373-1.823-1.283-4.041-.24-4.041-.24l.064.107c-.461.328-1.596 1.474-.302 4.224 1.585 3.368 2.218 5.854 9.825 9.222 0 0 4.992 3.93 6.576 7.138 1.217 2.462 1.18 2.407 1.249 2.706 0 0-.211 2.076-.298 2.346-.733 2.284-3.472 9.275-5.252 14.577l.108-.09-.165.26zm-9.436 16.24c-5.86-2.561 2.306-9.545 6.426-11.87.712-.404.278-.32.986-.803 0 0-1.236 15.374-7.412 12.673z" fill="#fcfcfc"/></svg>