<svg style="background-color:#ffffff00" xmlns="http://www.w3.org/2000/svg" width="110" height="110"><g fill="#fff"><path d="M53.18 63.105c-1.433-1.742-3.287-4.434-5.314-7.41-1.78 3.457-4.03 6.714-7.15 9.128-1.676-2.324-2.816-5.048-3.943-7.404-.332-.696-1.391-2.135-1.74-2.602-.479.262-1.971 3.353-7.033 4.85 1.034 1.362 2.375 1.895 3.25 3.708.51 1.055 1.102 2.882 3.149 5.082 2.914-1.403 6.663-3.771 6.663-3.771 1.111 2.22 1.822 5.234 2.254 7.676 3.482-1.202 7.021-4.736 7.021-4.736s1.162-2.02 2.842-4.521zm-18.247-8.452c.268-.316 4.62-5.484 5.692-8.982a30.346 30.346 0 0 0-7.258-5.85 44.412 44.412 0 0 0-1.066 2.833c-1.16 3.417-1.98 5.153-4.134 6.513 3.155 1.593 5.093 3.697 5.817 4.476.486.523.778.832.949 1.01zm5.83-9.464c-.044.162-.089.323-.138.482.737.811 1.463 1.7 2.16 2.673 1.722 2.405 3.457 4.97 5.08 7.352.42-.816.815-1.644 1.187-2.474.947-2.108 3.145-4.555 5.366-6.674-1.853-2.92-3.52-5.494-3.994-6.469-.444-.91-2.108-2.899-4.005-5.019-2.066 1.62-4.401 5.455-5.656 10.129zm16.801-1.45a68.425 68.425 0 0 0-3.146 2.809c1.897 2.99 3.988 6.343 5.194 8.714 1.343-1.15 2.613-1.801 3.63-1.524l-5.678-10zm-16.3-14.225a244.365 244.365 0 0 1 5.154 5.546c.764-.598 1.49-.895 2.112-.82.736.09 2.138.118 3.707.116l-3.357-5.913s-3.484-1.332-7.617 1.07z"/><path d="M48.113 27.823L78.767 82 80 80.463 50.542 27l-2.43.823z"/></g></svg>