<svg style="background-color:#ffffff00" xmlns="http://www.w3.org/2000/svg" width="110" height="110"><path d="M69.848 64.457c1.257-2.349 2.234-5.161 2.46-8.406 1.522.274 5.446 1.334 2.961 4.77a9.25 9.25 0 0 1-5.421 3.636zm-10.76-13.956H40.714c-2.182 0-3.274 1.913-3.274 1.913-1.364 13.117 9.821 20.496 9.821 20.496h15.161s2.692-1.776 5.273-5.133c2.7-.477 6.845-1.94 9.971-6.345 4.39-6.185-3.288-7.814-5.35-8.133a21.636 21.636 0 0 0-.073-.885s-1.091-1.913-3.273-1.913h-9.882zm.704 23.908H37.06C36.52 76.504 39.767 78 39.767 78h30.716s3.248-1.496 2.706-3.591H59.792zm-7.339-44.13s-3.981 3.826-3.716 6.559c.266 2.732 6.636 4.372 4.778 6.558-1.858 2.186-3.716 5.466-3.716 5.466s5.308-2.46 6.9-5.466c1.593-3.006-1.592-4.099-3.715-6.558-2.123-2.46-1.593-3.006-.531-6.559zM59.876 27s-4.525 4.388-4.224 7.523c.302 3.134 7.543 5.016 5.43 7.523-2.111 2.508-4.223 6.269-4.223 6.269s6.034-2.821 7.844-6.269c1.81-3.448-1.81-4.702-4.224-7.523-2.413-2.821-1.81-3.448-.603-7.523z" fill="#fff"/></svg>