<svg style="background-color:#ffffff00" xmlns="http://www.w3.org/2000/svg" width="110" height="110"><g fill="#fff"><path d="M37.006 27.815v16.339c0 2.156 1.59 3.63 2.727 4.538 1.136.908 1.818 1.93 1.818 3.631v30.862s.681.907 2.727.907V26.908s-1.819-.681-1.819.907v12.708c0 .794-.909.908-.909.908s-1.817-.114-1.817-1.816v-11.8s-.568-.68-.91-.907c-.34-.227-1.93-.34-1.817.907z"/><path d="M50.634 27.815v16.339c0 2.156-1.59 3.63-2.727 4.538-1.136.908-1.817 1.93-1.817 3.631v30.862s-.682.907-2.727.907V26.908s1.818-.681 1.818.907v12.708c0 .794.909.908.909.908s1.817-.114 1.817-1.816v-11.8s.569-.68.91-.907c.34-.227 1.931-.34 1.817.907zm17.171-1.605c-1.4.64-1.713 2.513-1.713 2.513v30.862s-5.794 4.765-5.453 14.523c.264 7.564 5.034 9.948 7.166 10.637l1.015-.005c2.131-.688 6.901-3.067 7.166-10.632.34-9.758-5.454-14.523-5.454-14.523V28.723s-.311-1.868-1.712-2.508l-1.015-.005z"/></g></svg>