<?xml version="1.0" standalone="no"?><!-- Generator: Adobe Fireworks CS5, Export SVG Extension by Aaron Beall (http://fireworks.abeall.com) . Version: 0.6.1  --><!DOCTYPE svg PUBLIC "-//W3C//DTD SVG 1.1//EN" "http://www.w3.org/Graphics/SVG/1.1/DTD/svg11.dtd"><svg id="Untitled-Page%201" viewBox="0 0 180 120" style="background-color:#ffffff00" version="1.1"	xmlns="http://www.w3.org/2000/svg" xmlns:xlink="http://www.w3.org/1999/xlink" xml:space="preserve"	x="0px" y="0px" width="180px" height="120px">	<g id="Layer%201">		<path d="M 45.1668 92.461 C 44.9924 98.568 49.3997 99.9737 51.4943 99.9737 C 53.6325 99.9737 55.6398 98.7875 56.9489 97.8649 C 57.6472 97.3378 57.7344 97.2497 57.9963 97.2497 C 58.3454 97.2497 58.3889 98.9193 58.3889 99.1389 C 58.3889 99.7982 57.4289 100.4131 56.7744 100.8526 C 54.0688 102.6099 51.887 102.8736 50.4034 102.8736 C 44.905 102.8736 40.8468 98.3921 40.8468 93.5153 C 40.8468 88.7266 44.8178 83.4104 51.4506 83.4104 C 52.3671 83.4104 56.2509 83.4544 57.9963 87.1888 C 58.6945 88.7266 58.8254 90.2204 58.8254 91.0112 C 58.8254 92.3292 58.6945 92.5487 57.0798 92.5487 C 55.989 92.5487 51.2325 92.461 50.2725 92.461 L 45.1668 92.461 L 45.1668 92.461 ZM 51.1888 85.5227 C 50.6653 85.5227 46.9996 85.8268 45.6032 90.1323 C 46.825 90.1764 54.1562 90.0886 55.3344 90.0005 C 55.2907 89.2098 55.0289 85.5227 51.1888 85.5227 L 51.1888 85.5227 Z" fill="#ffffff"/>		<path d="M 66.1431 86.9692 C 66.754 85.8708 67.234 85.08 68.674 84.377 C 69.8959 83.8058 71.4232 83.5422 72.1213 83.5422 C 72.5578 83.5422 72.7323 83.5422 72.7323 85.5195 C 72.7323 86.5298 72.5141 86.5738 70.245 87.0133 C 66.6666 87.6722 66.5357 89.6492 66.4048 91.0552 C 66.1868 93.8667 66.1431 95.6681 66.0994 100.325 C 66.0558 101.9069 66.0558 102.0824 65.4884 102.1705 C 65.1394 102.2583 63.9175 102.2583 63.5684 102.2583 C 62.1719 102.2583 61.9538 102.2583 61.9538 101.1161 C 61.9538 96.0635 62.2593 84.9482 62.3465 84.5088 C 62.4338 84.1575 62.5647 84.1575 63.6121 84.1575 C 63.9175 84.1575 65.314 84.0697 65.5757 84.0697 C 66.1431 84.0697 66.1431 84.4651 66.1431 85.2996 L 66.1431 86.9692 L 66.1431 86.9692 Z" fill="#ffffff"/>		<path d="M 78.9047 86.9692 C 79.5156 85.8708 79.9956 85.08 81.4357 84.377 C 82.6575 83.8058 84.1848 83.5422 84.8829 83.5422 C 85.3194 83.5422 85.4939 83.5422 85.4939 85.5195 C 85.4939 86.5298 85.2757 86.5738 83.0065 87.0133 C 79.4284 87.6722 79.2973 89.6492 79.1665 91.0552 C 78.9482 93.8667 78.9047 95.6681 78.861 100.325 C 78.8173 101.9069 78.8173 102.0824 78.2501 102.1705 C 77.901 102.2583 76.6791 102.2583 76.33 102.2583 C 74.9337 102.2583 74.7156 102.2583 74.7156 101.1161 C 74.7156 96.0635 75.0209 84.9482 75.1082 84.5088 C 75.1956 84.1575 75.3263 84.1575 76.3737 84.1575 C 76.6791 84.1575 78.0754 84.0697 78.3375 84.0697 C 78.9047 84.0697 78.9047 84.4651 78.9047 85.2996 L 78.9047 86.9692 L 78.9047 86.9692 Z" fill="#ffffff"/>		<path d="M 91.1922 85.9905 C 90.4158 86.0271 89.2293 86.3654 88.7713 86.4571 C 88.3224 86.5471 87.9454 86.3024 87.7648 85.9129 C 87.5444 85.4379 87.522 85.0986 87.5117 84.7561 C 87.5 84.3711 87.665 84.0609 88.1877 83.874 C 88.783 83.6609 90.6802 83.4818 91.6822 83.4551 C 95.4118 83.3566 97.7127 84.38 99.1534 86.1484 C 100.5621 87.8768 100.9802 89.6433 100.943 93.8794 C 100.93 95.3315 100.8654 97.7243 100.72 99.8693 C 100.6743 100.5403 100.5765 100.9883 99.7423 100.9596 C 99.1241 100.9383 98.4451 100.971 97.9593 100.971 C 97.4584 100.971 96.9934 101.3788 95.8821 101.8564 C 94.1631 102.5949 92.529 103.022 90.7794 102.9991 C 88.7491 102.973 87.577 102.5897 86.4216 101.5262 C 85.1807 100.3841 84.8789 98.8263 84.98 97.5377 C 85.2443 94.1697 88.4388 92.5233 91.4064 91.8923 C 92.9891 91.556 95.4066 91.3051 96.9451 91.3384 C 96.8055 87.4798 94.5816 85.8304 91.1922 85.9905 L 91.1922 85.9905 ZM 89.1562 97.6209 C 89.0757 99.578 89.9816 100.6248 92.1714 100.6454 C 93.9156 100.662 95.6323 99.7652 96.6549 99.195 C 96.8649 97.4099 96.9855 95.3602 96.9353 93.4227 C 92.595 93.6158 89.2607 95.0783 89.1562 97.6209 L 89.1562 97.6209 Z" fill="#ffffff"/>		<path d="M 40.4571 100.6317 C 40.4025 100.2774 40.2763 99.8908 40.1297 99.5685 C 40.0055 99.2958 39.7886 99.3196 39.4333 99.5029 C 38.7775 99.8412 37.8653 100.3156 36.4975 100.3322 C 33.5811 100.3674 32.8521 98.2796 32.7828 94.7345 C 32.7399 92.5399 32.9395 89.8671 33.1518 87.1317 C 35.5579 87.0485 37.9573 86.9771 39.0529 86.963 C 39.3228 86.9598 39.5685 86.8159 39.5978 86.3817 C 39.6197 86.0594 39.6498 85.3139 39.6471 84.9185 C 39.643 84.345 39.5931 84.1346 39.0857 84.1349 C 38.1878 84.1359 35.8052 84.2566 33.3854 84.3966 C 33.5284 82.9315 33.7321 80.8997 33.752 80.3546 C 33.7727 79.7837 33.6395 79.4976 32.8665 79.6288 C 32.5748 79.678 31.2055 80.0206 30.4074 80.3011 C 29.5889 80.5885 29.4893 80.7673 29.3765 82.1945 C 29.3214 82.8914 29.2346 83.7308 29.1352 84.6585 C 28.2079 84.7192 27.4897 84.7695 27.1511 84.7972 C 26.6298 84.8399 26.3485 84.8876 26.23 85.3528 C 26.1416 85.6986 26.0097 86.2923 26.0003 86.7634 C 25.9923 87.1558 26.1607 87.4393 26.8263 87.394 C 27.1959 87.3685 27.9244 87.3336 28.8541 87.2945 C 28.6106 89.6577 28.3855 92.2421 28.3939 94.4464 C 28.414 99.7218 30.3252 102.5858 34.5326 102.8713 C 37.0783 103.0438 39.0567 102.1337 39.9665 101.4799 C 40.3438 101.2088 40.5098 100.9733 40.4571 100.6317 L 40.4571 100.6317 Z" fill="#ffffff"/>		<path d="M 91.2775 57.8265 C 93.7964 63.5441 97.3669 68.7786 103.7775 70.3783 C 104.7427 70.6191 107.3927 71.0676 108.3067 70.9042 C 110.7475 70.4676 113.3134 69.4908 115.705 68.79 C 113.6526 65.3325 112.0003 61.6617 110.6195 57.8885 C 104.1559 58.1134 97.7396 58.1526 91.2775 57.8265 Z" fill="#ffffff"/>		<path d="M 90.513 55.984 C 97.0054 56.3311 103.496 56.3694 109.9925 56.116 C 108.3085 51.195 106.9918 46.0804 106.5862 40.8817 C 106.2305 36.3238 107.5665 34.5707 107.5665 31.2767 C 107.5665 29.9012 106.0092 15.2511 105.8455 15.058 L 105.7196 15.0571 L 103.1538 15.0403 C 96.5366 14.9823 91.1546 14.3562 87.9617 21.3173 C 83.6268 30.7682 86.8546 46.5925 90.513 55.984 Z" fill="#ffffff"/>		<path d="M 116.1475 55.7835 C 111.8648 50.7496 109.6465 42.1949 108.3715 35.7995 C 107.7896 42.2638 109.7541 49.9543 111.873 56.0465 C 113.2998 55.9958 114.7237 55.8855 116.1475 55.7835 Z" fill="#ffffff"/>		<path d="M 112.5145 57.822 C 113.8667 61.4373 115.4772 64.9604 117.4885 68.259 C 123.9073 66.2984 130.2287 63.974 136.234 60.961 C 131.4305 60.7459 121.7797 60.2392 117.876 57.4725 C 116.0883 57.5796 114.3038 57.7418 112.5145 57.822 Z" fill="#ffffff"/>		<path d="M 121.481 57.2075 C 126.9932 58.9408 133.6638 59.0955 139.42 59.2745 C 142.1632 57.6813 143.5607 56.1592 143.853 52.906 C 139.0463 55.4023 127.1204 56.7123 121.481 57.2075 Z" fill="#ffffff"/>		<path d="M 142.5155 59.322 C 143.9883 59.3434 149.4058 59.5223 150.4896 59.1856 C 150.7694 59.0986 153.485 57.1886 153.923 56.8728 C 156.1603 55.2594 158.3975 53.4229 159.6509 50.9077 C 163.3317 43.5211 159.666 27.5538 156.3555 20.235 C 154.0885 20.2641 151.822 20.3301 149.5575 20.4395 C 151.6847 30.123 152.4647 43.2698 145.7435 51.4225 C 145.7274 54.6411 145.0731 57.1889 142.5155 59.322 Z" fill="#ffffff"/>		<path d="M 135.591 19.821 C 129.8008 16.0202 114.6558 15.1915 107.6435 15.075 C 107.9355 19.6673 108.3261 24.2571 108.991 28.812 C 114.3407 22.8071 127.871 20.7113 135.591 19.821 Z" fill="#ffffff"/>		<path d="M 146.4765 10.6695 C 147.5271 13.2751 148.4692 15.9277 149.144 18.6575 C 151.2578 18.5499 153.3732 18.4746 155.4895 18.443 C 153.2765 14.1136 151.193 12.0585 146.4765 10.6695 Z" fill="#ffffff"/>		<path d="M 99.868 13.353 C 108.2224 13.0003 132.2343 13.3428 138.034 19.5615 C 141.1184 19.2537 144.2044 18.9547 147.2985 18.761 C 146.5114 15.8163 145.485 12.9432 144.3055 10.134 C 131.8332 7.4629 111.9679 9.2041 99.868 13.353 Z" fill="#ffffff"/>		<path d="M 147.033 61.108 C 144.6438 61.1638 142.2538 61.1604 139.865 61.0885 C 132.0235 65.4051 123.5133 68.3358 114.9515 70.8545 C 125.609 70.0423 137.6088 66.1161 147.033 61.108 Z" fill="#ffffff"/>		<path d="M 145.789 48.17 C 150.5754 40.0991 149.692 29.3233 147.733 20.5375 C 144.8927 20.7084 142.0588 20.97 139.2275 21.251 C 143.5864 28.2355 145.6596 40.0071 145.789 48.17 Z" fill="#ffffff"/>	</g></svg>