<?xml version="1.0" standalone="no"?>
<!-- Generator: Adobe Fireworks CS5, Export SVG Extension by Aaron Beall (http://fireworks.abeall.com) . Version: 0.6.1  -->
<!DOCTYPE svg PUBLIC "-//W3C//DTD SVG 1.1//EN" "http://www.w3.org/Graphics/SVG/1.1/DTD/svg11.dtd">
<svg id="Untitled-Page%201" viewBox="0 0 110 110" style="background-color:#ffffff00" version="1.1"
	xmlns="http://www.w3.org/2000/svg" xmlns:xlink="http://www.w3.org/1999/xlink" xml:space="preserve"
	x="0px" y="0px" width="110px" height="110px"
>
	<g id="Layer%201">
		<path d="M 53.1794 63.1047 C 51.7466 61.3628 49.8933 58.6709 47.8657 55.6956 C 46.0864 59.1519 43.8361 62.4089 40.7166 64.823 C 39.0399 62.4988 37.9003 59.7751 36.7735 57.4187 C 36.4409 56.7229 35.3817 55.2844 35.0327 54.8174 C 34.554 55.0786 33.0617 58.1697 28 59.6667 C 29.0342 61.0291 30.375 61.5625 31.25 63.375 C 31.7593 64.4299 32.3515 66.2568 34.399 68.4568 C 37.3127 67.0537 41.0615 64.686 41.0615 64.686 C 42.1732 66.9058 42.8837 69.9199 43.3156 72.3616 C 46.7977 71.1604 50.3371 67.6257 50.3371 67.6257 C 50.3371 67.6257 51.4987 65.6069 53.1794 63.1047 ZM 34.933 54.6533 C 35.2013 54.3367 39.5525 49.1692 40.6249 45.6714 C 38.0381 42.8257 35.3291 40.9504 33.3667 39.8218 C 32.9999 40.7002 32.6441 41.6431 32.3008 42.6541 C 31.1406 46.071 30.3212 47.8066 28.1667 49.1667 C 31.3225 50.7603 33.2599 52.8645 33.9843 53.6433 C 34.4705 54.1658 34.7621 54.4749 34.933 54.6533 ZM 40.7629 45.189 C 40.7195 45.3506 40.674 45.512 40.6249 45.6714 C 41.3617 46.4822 42.0879 47.3708 42.7849 48.344 C 44.5068 50.7493 46.2422 53.3137 47.8657 55.6956 C 48.2857 54.8796 48.6797 54.052 49.0524 53.2222 C 49.9994 51.1135 52.1974 48.6667 54.4177 46.5479 C 52.5649 43.6272 50.8985 41.0537 50.4236 40.0791 C 49.9802 39.1687 48.3157 37.1802 46.4185 35.0605 C 44.3528 36.6807 42.0178 40.5151 40.7629 45.189 ZM 57.5643 43.7385 C 56.608 44.5435 55.5101 45.5054 54.4177 46.5479 C 56.3145 49.5378 58.4063 52.8906 59.6122 55.2617 C 60.9551 54.1111 62.2246 53.4607 63.2427 53.7383 L 57.5643 43.7385 ZM 41.2635 29.5139 C 42.6371 30.9512 44.631 33.0635 46.4185 35.0605 C 47.1819 34.4619 47.9081 34.165 48.53 34.2405 C 49.2656 34.3301 50.668 34.3582 52.237 34.356 L 48.8798 28.4429 C 48.8798 28.4429 45.3961 27.1113 41.2635 29.5139 Z" fill="#ffffff"/>
		<path d="M 48.1127 27.8225 L 78.7675 82 L 80 80.4626 L 50.5424 27 L 48.1127 27.8225 Z" fill="#ffffff"/>
	</g>
</svg>