<?xml version="1.0" encoding="UTF-8" standalone="no"?>
<!-- Created with Inkscape (http://www.inkscape.org/) -->

<svg
   xmlns:dc="http://purl.org/dc/elements/1.1/"
   xmlns:cc="http://creativecommons.org/ns#"
   xmlns:rdf="http://www.w3.org/1999/02/22-rdf-syntax-ns#"
   xmlns:svg="http://www.w3.org/2000/svg"
   xmlns="http://www.w3.org/2000/svg"
   version="1.1"
   width="180"
   height="120"
   id="svg3422">
  <defs
     id="defs3424" />
  <metadata
     id="metadata3427">
    <rdf:RDF>
      <cc:Work
         rdf:about="">
        <dc:format>image/svg+xml</dc:format>
        <dc:type
           rdf:resource="http://purl.org/dc/dcmitype/StillImage" />
        <dc:title></dc:title>
      </cc:Work>
    </rdf:RDF>
  </metadata>
  <g
     transform="translate(-268.67678,-369.06077)"
     id="layer1">
    <g
       transform="matrix(1.25,0,0,-1.25,-12.89022,890.99977)"
       id="g3335">
      <g
         transform="translate(304.6445,371.3525)"
         id="g98">
        <path
           d="M 0,0 -1.608,4.125 C -1.716,4.402 -1.943,4.618 -2.224,4.712 -2.509,4.805 -2.817,4.768 -3.072,4.61 -3.54,4.318 -4.777,3.639 -6.18,3.639 c -1.359,0 -2.479,0.242 -2.479,3.228 l 0,13.082 6.14,0 c 0.001,0 0.004,0.002 0.006,0.002 l 0.02,0 c 0.542,0 0.983,0.444 0.983,0.984 l 0,4.533 c 0,0.542 -0.441,0.984 -0.983,0.984 l -0.047,0 -4.325,0 -1.794,0 0,4.675 c 0,0.555 -0.449,1.002 -1.002,1.002 l -3.481,0 c -0.422,0 -0.796,-0.262 -0.941,-0.654 -1.112,-3.02 -2.749,-5.35 -5.843,-5.616 -0.47,-0.039 -0.846,-0.398 -0.907,-0.863 l 0.003,-3.908 c -0.038,-0.287 0.048,-0.576 0.24,-0.794 0.187,-0.22 0.464,-0.345 0.753,-0.345 l 2.799,0 0,-13.367 c 0,-1.938 0,-4.353 1.179,-6.326 1.406,-2.353 4.062,-3.494 8.124,-3.494 2.696,0 5.593,0.805 7.376,2.054 C 0.02,-0.92 0.168,-0.429 0,0"
           id="path100"
           style="fill:#ffffff;fill-opacity:1;fill-rule:nonzero;stroke:none" />
      </g>
      <g
         transform="translate(245.8682,391.9453)"
         id="g102">
        <path
           d="m 0,0 c 1.158,0 2.316,-0.138 3.285,-0.386 l 0,-10.769 c 0,-2.934 -2.244,-4.247 -4.463,-4.247 -3.2,0 -4.566,2.231 -4.566,7.46 C -5.744,-4.976 -4.999,0 0,0 m 11.502,-17.309 c 0,0.378 -0.003,0.751 -0.003,1.121 l 0,19.869 c 0,0.4 -0.24,0.764 -0.609,0.922 -3.343,1.416 -7.682,2.061 -10.302,2.061 -9.346,0 -14.925,-5.7 -14.925,-15.249 0,-6.543 3.021,-13.533 11.5,-13.533 2.333,0 4.44,0.615 6.122,1.765 l 0,-0.71 c 0,-4.879 -1.513,-7.219 -5.213,-7.219 -1.501,0 -2.568,0.146 -3.439,0.469 -0.497,0.193 -0.593,0.29 -0.593,0.994 l 0,1.106 c 0,0.28 -0.116,0.548 -0.325,0.738 -0.204,0.189 -0.478,0.281 -0.761,0.261 l -5.087,-0.006 c -0.522,-0.044 -0.92,-0.478 -0.92,-1 l 0,-6.401 c 0,-0.38 0.216,-0.726 0.554,-0.897 2.46,-1.229 7.153,-1.872 10.518,-1.872 8.427,0 12.883,4.285 13.37,12.78 0.09,1.594 0.124,3.224 0.113,4.801"
           id="path104"
           style="fill:#ffffff;fill-opacity:1;fill-rule:nonzero;stroke:none" />
      </g>
      <g
         transform="translate(267.4204,386.0088)"
         id="g106">
        <path
           d="m 0,0 c 0.391,2.99 1.934,6.045 5.281,6.045 1.468,0 2.21,-0.672 2.21,-1.998 C 7.491,0.908 2.884,0.16 0,0 m 15.4,-13.416 -2.037,4.338 c -0.124,0.269 -0.365,0.468 -0.649,0.543 -0.289,0.076 -0.592,0.019 -0.834,-0.151 -1.317,-0.933 -3.39,-2.171 -6.17,-2.171 -3.132,0 -4.966,1.457 -5.469,4.338 12.48,0.415 15.147,5.993 15.147,10.673 0,5.209 -3.731,8.446 -9.734,8.446 -9.829,0 -14.229,-7.981 -14.229,-15.89 0,-9.386 4.846,-14.552 13.642,-14.552 5.042,0 8.803,2.124 10.085,3.247 0.336,0.294 0.435,0.776 0.248,1.179"
           id="path108"
           style="fill:#ffffff;fill-opacity:1;fill-rule:nonzero;stroke:none" />
      </g>
      <g
         transform="translate(349.707,375.1514)"
         id="g110">
        <path
           d="m 0,0 c -1.041,0 -2.523,0.285 -3.711,0.908 l 0,11.746 c 0,1.989 1.977,3.605 4.408,3.605 1.088,0 4.405,0 4.405,-7.943 C 5.102,5.816 4.605,0 0,0 m 3.053,23.457 c -3.141,0 -5.727,-1.129 -7.461,-2.574 l 0,0.767 c 0,0.555 -0.447,1.004 -1.001,1.004 l -3.232,0 -0.959,0 -4.323,0 -0.015,0 -0.031,0 c -0.541,0 -0.984,-0.443 -0.984,-0.985 l 0,-4.533 c 0,-0.542 0.443,-0.984 0.984,-0.984 l 0.02,0 c 0.002,0 0.004,-0.002 0.004,-0.002 l 2.072,0 0,-0.605 0,-0.555 0,-25.364 c 0,-0.132 -0.003,-0.235 -0.01,-0.321 l 0,-0.176 -1.084,0 -0.956,0 -0.003,0 -0.043,0 c -0.541,0 -0.984,-0.444 -0.984,-0.986 l 0,-4.533 c 0,-0.542 0.443,-0.985 0.984,-0.985 l 0.024,0 0.275,0 4.07,0 0.959,0 2.457,0 1.48,0 3.051,0 0.019,0 0.019,0 c 0.501,0 0.914,0.383 0.972,0.871 0,0.004 0.002,0.008 0.002,0.013 l 0,0.013 c 0.003,0.031 0.009,0.059 0.009,0.088 l 0,4.533 c 0,0.542 -0.443,0.986 -0.983,0.986 l -0.038,0 -0.003,0 -2.055,0 0,4.723 c 1.471,-0.591 3.19,-0.944 4.729,-0.944 7.97,0 12.73,5.961 12.73,15.944 0,12.072 -5.815,14.605 -10.695,14.605"
           id="path112"
           style="fill:#ffffff;fill-opacity:1;fill-rule:nonzero;stroke:none" />
      </g>
      <g
         transform="translate(335.7578,374.3799)"
         id="g114">
        <path
           d="m 0,0 c 0,0.543 -0.442,0.986 -0.984,0.986 l -2.077,0 0,2.682 0,18.754 c 0,0.555 -0.449,1.004 -1.002,1.004 l -3.621,0 -1.206,0 -0.262,0 -0.698,0 -0.559,0 -0.015,0 -0.031,0 c -0.543,0 -0.986,-0.444 -0.986,-0.986 l 0,-4.533 c 0,-0.007 0.003,-0.015 0.003,-0.022 l 0,-0.963 0,-0.604 0,-0.773 0,-5.699 0,-4.828 c 0,-2.141 -1.462,-4.301 -4.73,-4.301 -2.27,0 -2.959,1.105 -2.959,4.729 l 0,16.976 c 0,0.555 -0.449,1.004 -1.004,1.004 l -3.617,0 -1.468,0 -4.339,0 -0.002,0 -0.03,0 c -0.54,0 -0.985,-0.444 -0.985,-0.986 l 0,-4.533 c 0,-0.001 0.002,-0.001 0.002,-0.005 l -0.002,-0.095 c 0.005,-0.034 0.014,-0.063 0.021,-0.093 l 0.002,-0.009 c 0.011,-0.055 0.028,-0.107 0.047,-0.157 0.006,-0.013 0.014,-0.028 0.02,-0.042 0.017,-0.039 0.036,-0.076 0.06,-0.111 0.012,-0.02 0.024,-0.041 0.037,-0.059 0.02,-0.027 0.041,-0.052 0.066,-0.076 0.018,-0.024 0.038,-0.047 0.063,-0.068 0.016,-0.018 0.037,-0.033 0.059,-0.049 0.029,-0.022 0.055,-0.045 0.09,-0.067 0.013,-0.01 0.032,-0.017 0.047,-0.026 0.039,-0.021 0.077,-0.041 0.117,-0.058 0.014,-0.006 0.031,-0.009 0.048,-0.013 0.04,-0.016 0.083,-0.03 0.125,-0.036 0.04,-0.007 0.079,-0.011 0.117,-0.013 0.022,-0.002 0.044,-0.006 0.066,-0.006 l 0.007,0 c 0.002,0 0.002,-0.002 0.003,-0.002 l 2.069,0 0,-0.496 0,-1.436 0,-10.936 c 0,-8.486 5.062,-10.267 9.306,-10.267 2.928,0 5.643,0.956 7.675,2.637 l 0,-0.94 c 0,-0.551 0.448,-1.002 1.002,-1.002 l 2.877,0 5.654,0 c 0.066,0 0.131,0.007 0.195,0.021 0.032,0.005 0.058,0.017 0.087,0.024 0.031,0.01 0.061,0.017 0.091,0.029 0.029,0.012 0.06,0.028 0.088,0.044 0.025,0.012 0.053,0.025 0.075,0.041 0.026,0.015 0.05,0.035 0.073,0.052 0.028,0.022 0.053,0.04 0.076,0.065 0.016,0.015 0.034,0.034 0.05,0.053 0.027,0.029 0.051,0.06 0.076,0.09 0.01,0.015 0.02,0.032 0.03,0.046 0.025,0.041 0.049,0.081 0.067,0.124 0.006,0.011 0.011,0.023 0.014,0.033 0.021,0.052 0.039,0.108 0.052,0.166 l 0,0.002 c 0.008,0.031 0.016,0.061 0.02,0.094 L 0,-4.535 0,-4.532 0,0 z"
           id="path116"
           style="fill:#ffffff;fill-opacity:1;fill-rule:nonzero;stroke:none" />
      </g>
      <g
         transform="translate(233.9912,335.6211)"
         id="g118">
        <path
           d="m 0,0 c -0.98,0 -1.721,0.313 -2.225,0.939 -0.476,0.625 -0.714,1.524 -0.714,2.694 l 0,6.512 c 0,1.183 0.238,2.074 0.714,2.672 0.504,0.626 1.245,0.939 2.225,0.939 0.98,0 1.715,-0.313 2.205,-0.939 0.488,-0.598 0.734,-1.489 0.734,-2.672 l 0,-0.328 -0.654,0 0,0.328 c 0,0.666 -0.074,1.197 -0.224,1.591 C 1.912,12.131 1.725,12.43 1.5,12.634 1.275,12.838 1.031,12.971 0.766,13.031 0.5,13.094 0.244,13.123 0,13.123 c -0.244,0 -0.504,-0.029 -0.775,-0.092 -0.274,-0.06 -0.522,-0.193 -0.746,-0.397 -0.223,-0.204 -0.411,-0.503 -0.561,-0.898 -0.149,-0.394 -0.225,-0.925 -0.225,-1.591 l 0,-6.512 c 0,-1.02 0.198,-1.782 0.592,-2.285 0.367,-0.477 0.94,-0.715 1.715,-0.715 0.762,0 1.326,0.238 1.693,0.715 0.395,0.503 0.592,1.265 0.592,2.285 l 0,1.797 -2.978,0 0,0.652 3.632,0 0,-2.449 C 2.939,2.449 2.693,1.552 2.205,0.939 1.715,0.313 0.98,0 0,0"
           id="path120"
           style="fill:#ffffff;fill-opacity:1;fill-rule:nonzero;stroke:none" />
      </g>
      <g
         transform="translate(241.9102,342.7246)"
         id="g122">
        <path
           d="M 0,0 C 0.911,0 1.558,0.23 1.938,0.693 2.347,1.184 2.551,1.959 2.551,3.02 2.551,4.095 2.354,4.863 1.959,5.326 1.564,5.789 0.911,6.02 0,6.02 l -1.837,0 0,-6.02 1.53,0 L 0,0 z m 2.306,-0.838 c 0.612,-0.584 0.919,-1.394 0.919,-2.428 l 0,-3.816 -0.654,0 0,3.816 c 0,0.83 -0.224,1.473 -0.674,1.928 C 1.449,-0.882 0.816,-0.654 0,-0.654 l -0.307,0 -1.53,0 0,-6.428 -0.633,0 0,13.756 2.47,0 C 1.102,6.674 1.908,6.377 2.418,5.785 2.929,5.193 3.184,4.271 3.184,3.02 3.184,1.795 2.932,0.884 2.429,0.285 2.211,0.026 1.938,-0.184 1.612,-0.348 1.87,-0.47 2.102,-0.633 2.306,-0.838"
           id="path124"
           style="fill:#ffffff;fill-opacity:1;fill-rule:nonzero;stroke:none" />
      </g>
      <g
         transform="translate(250.625,348.7441)"
         id="g126">
        <path
           d="M 0,0 C -0.776,0 -1.341,-0.237 -1.694,-0.713 -2.089,-1.217 -2.286,-1.979 -2.286,-3 l 0,-6.469 c 0,-1.035 0.197,-1.803 0.592,-2.306 0.367,-0.477 0.931,-0.715 1.694,-0.715 0.748,0 1.319,0.238 1.714,0.715 0.381,0.476 0.571,1.244 0.571,2.306 l 0,6.469 c 0,1.049 -0.19,1.811 -0.571,2.287 C 1.333,-0.237 0.762,0 0,0 m 0,-13.123 c -0.327,0 -0.664,0.048 -1.011,0.144 -0.346,0.094 -0.663,0.278 -0.949,0.55 -0.285,0.273 -0.517,0.644 -0.693,1.113 -0.178,0.469 -0.266,1.085 -0.266,1.847 l 0,6.469 c 0,1.17 0.238,2.068 0.714,2.694 C -1.701,0.32 -0.967,0.633 0,0.633 0.979,0.633 1.714,0.32 2.204,-0.306 2.693,-0.918 2.938,-1.816 2.938,-3 l 0,-6.469 c 0,-0.762 -0.088,-1.378 -0.265,-1.847 -0.177,-0.469 -0.408,-0.84 -0.694,-1.113 C 1.693,-12.701 1.377,-12.885 1.03,-12.979 0.684,-13.075 0.34,-13.123 0,-13.123"
           id="path128"
           style="fill:#ffffff;fill-opacity:1;fill-rule:nonzero;stroke:none" />
      </g>
      <g
         transform="translate(268.2988,349.377)"
         id="g130">
        <path
           d="m 0,0 -3,-13.756 -0.531,0 -2.633,11.94 -2.633,-11.94 -0.51,0 L -12.348,0 -11.694,0 -9.041,-11.939 -6.408,0 -5.898,0 -3.266,-11.939 -0.674,0 0,0 z"
           id="path132"
           style="fill:#ffffff;fill-opacity:1;fill-rule:nonzero;stroke:none" />
      </g>
      <path
         d="m 276.361,349.377 0.633,0 0,-13.756 -0.633,0 0,13.756 z"
         id="path134"
         style="fill:#ffffff;fill-opacity:1;fill-rule:nonzero;stroke:none" />
      <g
         transform="translate(280.1367,335.6211)"
         id="g136">
        <path
           d="m 0,0 -0.653,0 0,13.756 0.55,0 4.736,-11.776 0,11.776 0.653,0 L 5.286,0 4.755,0 0,11.777 0,0 z"
           id="path138"
           style="fill:#ffffff;fill-opacity:1;fill-rule:nonzero;stroke:none" />
      </g>
      <g
         transform="translate(300.627,348.7441)"
         id="g140">
        <path
           d="m 0,0 -3.307,0 0,-13.102 -0.632,0 0,13.102 -3.287,0 0,0.654 L 0,0.654 0,0 z"
           id="path142"
           style="fill:#ffffff;fill-opacity:1;fill-rule:nonzero;stroke:none" />
      </g>
      <g
         transform="translate(308.3408,349.377)"
         id="g144">
        <path
           d="m 0,0 0,-13.756 -0.653,0 0,6.552 -4.163,0 0,-6.552 -0.654,0 0,13.756 0.654,0 0,-6.571 4.163,0 0,6.571 L 0,0 z"
           id="path146"
           style="fill:#ffffff;fill-opacity:1;fill-rule:nonzero;stroke:none" />
      </g>
      <g
         transform="translate(311.709,348.7441)"
         id="g148">
        <path
           d="m 0,0 0,-5.918 4.307,0 0,-0.633 -4.307,0 0,-5.939 4.307,0 0,-0.633 -4.94,0 0,13.756 4.94,0 L 4.307,0 0,0 z"
           id="path150"
           style="fill:#ffffff;fill-opacity:1;fill-rule:nonzero;stroke:none" />
      </g>
      <g
         transform="translate(326.8115,335.6211)"
         id="g152">
        <path
           d="m 0,0 c -0.341,0 -0.684,0.048 -1.031,0.144 -0.347,0.094 -0.663,0.278 -0.949,0.55 -0.286,0.273 -0.517,0.644 -0.694,1.113 -0.177,0.469 -0.265,1.085 -0.265,1.847 l 0,6.469 c 0,0.748 0.088,1.361 0.265,1.838 0.177,0.476 0.408,0.847 0.694,1.111 0.286,0.266 0.602,0.446 0.949,0.541 0.347,0.096 0.69,0.143 1.031,0.143 0.326,0 0.663,-0.047 1.01,-0.143 0.346,-0.095 0.663,-0.275 0.949,-0.541 0.286,-0.264 0.517,-0.635 0.694,-1.111 0.177,-0.477 0.265,-1.09 0.265,-1.838 l 0,-0.326 -0.652,0 0,0.326 c 0,1.049 -0.192,1.811 -0.573,2.287 -0.394,0.476 -0.959,0.713 -1.693,0.713 -0.749,0 -1.32,-0.237 -1.715,-0.713 -0.381,-0.476 -0.571,-1.238 -0.571,-2.287 l 0,-6.469 c 0,-1.049 0.197,-1.816 0.592,-2.306 C -1.327,0.871 -0.763,0.633 0,0.633 c 0.734,0 1.299,0.238 1.693,0.715 0.381,0.503 0.573,1.271 0.573,2.306 l 0,0.326 0.652,0 0,-0.326 C 2.918,2.892 2.83,2.276 2.653,1.807 2.476,1.338 2.245,0.967 1.959,0.694 1.673,0.422 1.356,0.238 1.01,0.144 0.663,0.048 0.326,0 0,0"
           id="path154"
           style="fill:#ffffff;fill-opacity:1;fill-rule:nonzero;stroke:none" />
      </g>
      <g
         transform="translate(331.9951,335.6211)"
         id="g156">
        <path
           d="m 0,0 0,13.756 0.652,0 0,-13.123 4.614,0 L 5.266,0 0,0 z"
           id="path158"
           style="fill:#ffffff;fill-opacity:1;fill-rule:nonzero;stroke:none" />
      </g>
      <g
         transform="translate(342.2402,348.7441)"
         id="g160">
        <path
           d="M 0,0 C -0.776,0 -1.341,-0.237 -1.694,-0.713 -2.089,-1.217 -2.286,-1.979 -2.286,-3 l 0,-6.469 c 0,-1.035 0.197,-1.803 0.592,-2.306 0.367,-0.477 0.931,-0.715 1.694,-0.715 0.748,0 1.319,0.238 1.714,0.715 0.381,0.476 0.571,1.244 0.571,2.306 l 0,6.469 c 0,1.049 -0.19,1.811 -0.571,2.287 C 1.333,-0.237 0.762,0 0,0 m 0,-13.123 c -0.327,0 -0.664,0.048 -1.011,0.144 -0.346,0.094 -0.663,0.278 -0.949,0.55 -0.285,0.273 -0.517,0.644 -0.693,1.113 -0.178,0.469 -0.266,1.085 -0.266,1.847 l 0,6.469 c 0,1.17 0.238,2.068 0.714,2.694 C -1.701,0.32 -0.967,0.633 0,0.633 0.979,0.633 1.714,0.32 2.204,-0.306 2.693,-0.918 2.938,-1.816 2.938,-3 l 0,-6.469 c 0,-0.762 -0.088,-1.378 -0.265,-1.847 -0.177,-0.469 -0.408,-0.84 -0.694,-1.113 C 1.693,-12.701 1.377,-12.885 1.03,-12.979 0.684,-13.075 0.34,-13.123 0,-13.123"
           id="path162"
           style="fill:#ffffff;fill-opacity:1;fill-rule:nonzero;stroke:none" />
      </g>
      <g
         transform="translate(350.4443,335.6426)"
         id="g164">
        <path
           d="M 0,0 C -0.313,0 -0.63,0.043 -0.949,0.132 -1.27,0.221 -1.562,0.387 -1.827,0.633 -2.092,0.877 -2.31,1.221 -2.479,1.662 -2.65,2.105 -2.735,2.673 -2.735,3.367 l 0,10.389 0.632,0 0,-10.389 c 0,-0.612 0.069,-1.099 0.205,-1.459 0.135,-0.361 0.306,-0.637 0.51,-0.827 0.204,-0.19 0.429,-0.313 0.673,-0.367 C -0.47,0.659 -0.231,0.633 0,0.633 c 0.218,0 0.449,0.026 0.693,0.081 0.245,0.054 0.47,0.177 0.674,0.367 0.204,0.19 0.374,0.466 0.511,0.827 0.136,0.36 0.204,0.847 0.204,1.459 l 0,10.389 0.632,0 0,-10.389 C 2.714,2.673 2.629,2.105 2.459,1.662 2.289,1.221 2.074,0.877 1.816,0.633 1.558,0.387 1.266,0.221 0.938,0.132 0.612,0.043 0.299,0 0,0"
           id="path166"
           style="fill:#ffffff;fill-opacity:1;fill-rule:nonzero;stroke:none" />
      </g>
      <g
         transform="translate(356.7314,336.2539)"
         id="g168">
        <path
           d="m 0,0 1.714,0 c 0.885,0 1.527,0.248 1.929,0.745 0.401,0.497 0.602,1.276 0.602,2.337 l 0,6.327 c 0,1.062 -0.201,1.84 -0.602,2.337 C 3.241,12.242 2.599,12.49 1.714,12.49 L 0,12.49 0,0 z m 1.714,-0.633 -2.347,0 0,13.756 2.347,0 c 1.089,0 1.898,-0.326 2.429,-0.978 0.503,-0.6 0.754,-1.511 0.754,-2.736 l 0,-6.327 C 4.897,1.857 4.646,0.945 4.143,0.348 3.612,-0.306 2.803,-0.633 1.714,-0.633"
           id="path170"
           style="fill:#ffffff;fill-opacity:1;fill-rule:nonzero;stroke:none" />
      </g>
    </g>
  </g>
</svg>
