<?xml version="1.0" encoding="UTF-8" standalone="no"?>
<svg id="svg2" xmlns:rdf="http://www.w3.org/1999/02/22-rdf-syntax-ns#" xmlns="http://www.w3.org/2000/svg" height="100%" width="100%" version="1.1" xmlns:cc="http://creativecommons.org/ns#" xmlns:dc="http://purl.org/dc/elements/1.1/" viewBox="0 0 192 128">
 <metadata id="metadata10">
  <rdf:RDF>
   <cc:Work rdf:about="">
    <dc:format>image/svg+xml</dc:format>
    <dc:type rdf:resource="http://purl.org/dc/dcmitype/StillImage"/>
    <dc:title/>
   </cc:Work>
  </rdf:RDF>
 </metadata>
 <path id="path4" fill="#FFF" d="M6.4,34c-3.538,0-6.4,2.86-6.4,6.4v27.2c0,3.54,2.862,6.4,6.4,6.4h27.2c3.54,0,6.4-2.86,6.4-6.4v-27.2c0-3.54-2.86-6.4-6.4-6.4zm116.4,0c-1.362,0-2,0.3532-2,1.05v28.39c0,2.441,0.6232,4.146,1.875,5.112,1.2,0.97,2.7,1.45,4.2,1.45,2.313,0,3.462-0.474,3.462-1.425,0-0.3164-0.0972-0.7632-0.2876-1.35-0.1904-0.5864-0.4272-0.8876-0.7124-0.8876-0.0635,0-0.282,0.04596-0.6624,0.1252-0.3804,0.07959-0.8364,0.1124-1.375,0.1124-1.711,0-2.562-1.166-2.562-3.512v-28.01c0.1-0.71-0.5-1.06-1.9-1.06zm-115,4,1,2.6,2.792,0.15-2.167,1.76,0.717,2.69-2.342-1.51-2.338,1.51,0.712-2.69-2.162-1.76,2.788-0.15zm24.74,0c2.35,0,3.47,1.29,3.47,3.64v24.72c0,2.347-1.12,3.637-3.47,3.637h-24.73c-2.352,0-3.8-1.29-3.8-3.64,0.043-14.45,13.51-28.4,28.53-28.36zm25.94,6.562c-3.011,0-5.558,0.8448-7.65,2.525-1.11,0.92-1.988,2.239-2.638,3.95-0.65,1.72-0.98,3.76-0.98,6.13,0,4.501,0.9668,7.772,2.9,9.8s4.87,3.037,8.8,3.037c1.996,0,3.735-0.264,5.225-0.7872,1.489-0.5228,2.238-1.067,2.238-1.638,0-0.3804-0.1944-0.882-0.5752-1.5-0.3804-0.6184-0.7336-0.9252-1.05-0.9252-0.032,0-0.1016,0.02758-0.2124,0.07517-0.1112,0.04724-0.2048,0.08122-0.3,0.1124-1.648,0.8244-3.442,1.238-5.375,1.238-2.662,0-4.563-0.7476-5.688-2.238-1.11-1.48-1.95-3.89-1.95-7.25,0-6.053,2.579-9.088,7.175-9.088,1.743,0,3.464,0.3772,5.175,1.138,0.06318,0.03235,0.1276,0.05876,0.1752,0.07517l0.1876,0.07517c0.07878,0.032,0.1304,0.05004,0.1624,0.05004,0.2852,0,0.6096-0.3252,0.9752-0.9752,0.364-0.6496,0.55-1.188,0.55-1.6,0-0.5704-0.73-1.068-2.188-1.512-1.458-0.4432-3.112-0.6752-4.95-0.6752zm23.09,0c-2.599,0-4.821,0.3432-6.675,1.025-1.854,0.6816-2.788,1.36-2.788,2.025,0,0.3164,0.2028,0.7904,0.6,1.425,0.3956,0.6344,0.7448,0.95,1.062,0.95,0.06319,0,0.4344-0.1764,1.1-0.5252,1.933-0.982,4.043-1.475,6.325-1.475,3.486,0,5.225,1.326,5.225,3.988v2.238c-2.757,0.06365-5.219,0.2312-7.375,0.5-2.156,0.27-4.085,1.036-5.812,2.288-1.728,1.252-2.6,3.122-2.6,5.625,0,2.504,0.7476,4.358,2.238,5.562,1.489,1.206,3.46,1.812,5.9,1.812,3.008,0,5.554-1.07,7.65-3.212v2.19c0,0.6968,0.6384,1.052,2,1.05,1.362-0.0023,2-0.3524,2-1.05v-16.92c0.000407-2.346-0.8268-4.172-2.475-5.488-1.648-1.315-3.776-1.975-6.375-1.975zm24.84,0c-3.455,0-6.118,1.101-7.988,3.288-1.88,2.19-2.81,5.39-2.81,9.63,0,4.231,0.9488,7.378,2.85,9.438,1.902,2.061,4.838,3.087,8.8,3.087,2.25,0,4.235-0.352,5.962-1.05,1.727-0.6968,2.588-1.353,2.588-1.988,0-0.3168-0.1916-0.8032-0.5876-1.438-0.3968-0.6336-0.7588-0.95-1.075-0.95-0.064,0-0.3984,0.1588-1,0.4752-1.806,1.015-3.783,1.525-5.938,1.525-2.346,0-4.103-0.614-5.275-1.85-1.1-1.24-1.8-2.9-2.03-5.53h15.03c1.11-0.3632,1.512-1.05,1.575-2.225,0-8.272-3.369-12.41-10.09-12.41zm29.21,0.1624c-1.362,0-2,0.3536-2,1.05v16.5c0,2.41,1.084,4.288,2.463,5.65,1.379,1.364,3.385,2.05,6,2.05,2.485,0,4.696-1.079,6.737-3.225v2.21c0,0.6964,0.6864,1.05,2.013,1.05,1.326,0,1.987-0.3124,1.987-0.938v-23.29c0-0.6964-0.6124-1.05-1.975-1.05-1.362,0-2.025,0.3536-2.025,1.05v17.4c-1.711,2.22-3.68,3.325-5.962,3.325-1.553,0-2.748-0.4044-3.588-1.212-0.84-0.8084-1.65-1.941-1.65-3.4v-16.12c0-0.6964-0.6384-1.05-2-1.05zm25.6,0.03758c-1.362,0-2,0.3404-2,1.038v23.15c0,0.6976,0.638,1.05,2,1.05s2-0.352,2-1.05v-17.44l0.7128-0.8124c0.4436-0.5704,1.146-1.123,2.112-1.662,0.9672-0.5384,2.073-0.8124,3.325-0.8124s2.261,0.4132,3.038,1.238c0.776,0.8248,1.212,1.948,1.212,3.375v16.11c0,0.6976,0.638,1.05,2,1.05s2-0.3516,2-1.05c-0.0468-5.794,0.0632-11.67,0-17.44,1.933-2.186,3.784-3.288,5.75-3.288,1.489,0,2.622,0.4132,3.4,1.238,0.776,0.8248,1.25,1.948,1.25,3.375v16.11c0,0.6976,0.5448,1.05,1.913,1.05s2.087-0.3516,2.087-1.05v-16.49c0-1.521-0.3244-2.822-0.7996-3.9-0.4756-1.077-1.12-1.885-1.912-2.425-1.426-0.9192-3.03-1.375-4.838-1.375-2.821,0-5.344,1.307-7.562,3.938-1.078-2.63-3.346-3.938-6.8-3.938-2.611,0-4.903,1.057-6.888,3.188v-2.15c0-0.6972-0.6384-1.038-2-1.038zm-54.66,3.225c3.803,0,5.7,2.605,5.7,7.612h-12.32c0.3244-5,2.524-7.6,6.624-7.6zm-20.14,9.65-0.000407,5.612c-1.173,1.046-2.325,1.854-3.45,2.425-1.125,0.5704-2.46,0.85-4.012,0.85-2.694,0-4.038-1.3-4.038-3.9,0-1.647,0.65-2.796,1.95-3.462,0.666-0.3476,1.298-0.6408,1.9-0.8624,1.141-0.4436,3.687-0.6624,7.65-0.6624zm9,21.96c-0.47,0.01-0.56,0.14-0.56,0.36v0.9c0,0.2228,0.09321,0.35,0.6,0.35,0.51,0,0.6-0.13,0.6-0.35v-0.9c0-0.2228-0.09321-0.35-0.6-0.35zm37.2,0c-0.5068,0-0.6004,0.1272-0.6004,0.35v0.9c0,0.2228,0.0936,0.35,0.6004,0.35s0.5996-0.1272,0.5996-0.35v-0.9c0-0.2228-0.0929-0.35-0.5996-0.35zm46.71,0.1624c-0.3516,0-0.6984,0.09123-1.05,0.2876-0.3516,0.186-0.5252,0.3784-0.5252,0.5752,0,0.09321,0.0445,0.1988,0.1376,0.3124,0.0932,0.1036,0.1988,0.15,0.3124,0.15s0.2616-0.0256,0.4376-0.08762c0.1756-0.07238,0.328-0.1124,0.4624-0.1124s0.4136,0.04678,0.8376,0.15c0.424,0.1036,0.8108,0.1624,1.162,0.1624,0.3516,0,0.6984-0.08879,1.05-0.2752,0.3516-0.1964,0.5248-0.4036,0.5252-0.6,0-0.08285-0.0468-0.1736-0.15-0.2876-0.0932-0.1136-0.1968-0.1748-0.3-0.1752-0.0932,0-0.222,0.04003-0.3876,0.1124-0.1552,0.06202-0.3096,0.08762-0.4752,0.08762s-0.4636-0.04643-0.8876-0.15c-0.4136-0.1032-0.7984-0.15-1.15-0.15zm-105,3.05c-1.127,0-2.002,0.3372-2.612,1.025-0.61,0.688-0.9128,1.702-0.9128,3.038,0,1.326,0.3052,2.314,0.9256,2.962s1.582,0.9748,2.875,0.9748c0.734,0,1.379-0.1052,1.938-0.3248,0.5688-0.2192,0.85-0.438,0.85-0.6376,0-0.0996-0.06563-0.2508-0.2-0.45-0.124-0.1992-0.234-0.2876-0.3376-0.2876-0.02083,0-0.1284,0.0381-0.3252,0.1376-0.5892,0.3188-1.234,0.4876-1.938,0.4876-0.7652,0-1.342-0.1988-1.725-0.5876-0.4-0.38-0.62-0.7-0.68-1.53h4.9c0.3816-0.1332,0.446-0.5068,0.5124-0.9,0-2.602-1.096-3.9-3.288-3.9zm5.875,0c-0.4448,0-0.6004,0.104-0.6004,0.3252v7.35c0,0.2208,0.1552,0.3248,0.6,0.3248s0.6-0.1036,0.6-0.3248v-5.512c0.5584-0.7028,1.318-1.062,2.063-1.062,0.5068,0,0.8936,0.1264,1.162,0.3876,0.2792,0.2512,0.3748,0.6132,0.3748,1.075v5.112c0,0.2208,0.1548,0.3244,0.6,0.3244,0.4448,0,0.5996-0.1032,0.6-0.3244v-5.238c0-0.7632-0.08157-1.368-0.5368-1.8-0.4448-0.4316-1.092-0.6376-1.95-0.6376-0.8084,0-1.646,0.3404-2.313,1.025v-0.7c0-0.2208-0.1552-0.3252-0.6-0.3256zm10.14,0c-0.7652,0-1.387,0.2036-1.862,0.6124-0.4756,0.3988-0.7124,0.902-0.7124,1.5s0.1524,1.038,0.4624,1.338c0.31,0.2892,0.8072,0.5356,1.5,0.7252s1.16,0.3932,1.388,0.6124c0.238,0.2092,0.35,0.4988,0.35,0.8876,0,0.3788-0.1312,0.6832-0.4,0.9124-0.2584,0.2192-0.5988,0.3376-1.012,0.3376-0.4032,0-0.748-0.0476-1.038-0.1376-0.2896-0.0996-0.5076-0.1976-0.6624-0.2876-0.1552-0.0996-0.2396-0.15-0.25-0.15-0.1036,0-0.228,0.1008-0.3624,0.3-0.124,0.1992-0.1876,0.3504-0.1876,0.45,0,0.1896,0.2704,0.3908,0.7876,0.6,0.5168,0.1992,1.124,0.3,1.838,0.3,0.7136,0,1.331-0.2264,1.838-0.6752,0.5168-0.4484,0.7748-1.012,0.7752-1.7,0-0.698-0.186-1.224-0.5376-1.562-0.3412-0.3488-0.9904-0.6608-1.962-0.95-0.4344-0.1296-0.7512-0.278-0.9376-0.4376-0.1756-0.1596-0.2624-0.3832-0.2624-0.6624s0.1248-0.4932,0.3624-0.6624c0.248-0.1796,0.5908-0.2748,1.025-0.2752,0.4444,0,0.836,0.0955,1.188,0.2752,0.124,0.06,0.1896,0.0876,0.2,0.0876,0.09321,0,0.1988-0.1008,0.3124-0.3,0.124-0.2092,0.1876-0.3828,0.1876-0.5124,0-0.1596-0.2116-0.308-0.6252-0.4376s-0.8728-0.1876-1.4-0.1876zm5.062,0c-0.4448,0-0.6,0.1149-0.6,0.3376v7.325c0,0.2228,0.1556,0.3372,0.6,0.3372,0.4448,0,0.6-0.1144,0.6-0.3372v-7.325c0-0.2228-0.1552-0.3376-0.6-0.3376zm4.001,0c-0.4448,0-0.6008,0.104-0.6008,0.3252v7.35c0,0.2208,0.1552,0.3248,0.6,0.3248s0.6-0.1036,0.6-0.3248v-5.512c0.5584-0.7028,1.319-1.062,2.064-1.062,0.5068,0,0.8936,0.1264,1.162,0.3876,0.2792,0.2512,0.3744,0.6132,0.3744,1.075v5.112c0,0.2208,0.1548,0.3244,0.6,0.3244,0.4448,0,0.5996-0.1032,0.6-0.3244v-5.238c0-0.7632-0.0812-1.368-0.5364-1.8-0.4448-0.4316-1.092-0.6376-1.95-0.6376-0.8084,0-1.646,0.3404-2.314,1.025v-0.7c0-0.2208-0.1556-0.3252-0.6-0.3256zm11.25,0c-1.106,0-1.952,0.352-2.55,1.05s-0.9008,1.692-0.9008,2.988c0,1.286,0.3,2.272,0.8884,2.95,0.598,0.678,1.446,1.012,2.562,1.012,1.126,0,1.982-0.332,2.55-1,0.578-0.678,0.7992-1.666,0.7992-2.962,0-1.306-0.2236-2.3-0.8116-2.988-0.5784-0.698-1.431-1.05-2.538-1.05zm12.48,0c-1.127,0-2.002,0.3372-2.612,1.025-0.61,0.688-0.9124,1.702-0.9124,3.038,0,1.326,0.3048,2.314,0.9252,2.962s1.582,0.9748,2.875,0.9748c0.734,0,1.379-0.1052,1.938-0.3248,0.5688-0.2192,0.85-0.438,0.85-0.6376,0-0.0996-0.0656-0.2508-0.2-0.45-0.124-0.1992-0.234-0.2876-0.3376-0.2876-0.0208,0-0.1284,0.0381-0.3252,0.1376-0.5892,0.3188-1.234,0.4876-1.938,0.4876-0.7652,0-1.342-0.1988-1.725-0.5876-0.3824-0.3888-0.6004-0.71-0.6624-1.538h4.9c0.3816-0.1332,0.446-0.5068,0.5124-0.9,0-2.602-1.096-3.9-3.288-3.9zm9.474,0c-0.4448,0-0.6,0.1149-0.6,0.3376v7.325c0,0.2228,0.1556,0.3372,0.6,0.3372,0.4448,0,0.6-0.1144,0.6-0.3372v-7.325c0-0.2228-0.1552-0.3376-0.6-0.3376zm3.994,0c-0.4448,0-0.5936,0.104-0.5936,0.3252v7.35c0,0.2208,0.1616,0.3248,0.6064,0.3248s0.5936-0.1036,0.5936-0.3248v-5.512c0.5584-0.7028,1.319-1.062,2.064-1.062,0.5068,0,0.8936,0.1264,1.162,0.3876,0.2792,0.2512,0.374,0.6132,0.374,1.075v5.112c0,0.2208,0.1812,0.3244,0.6264,0.3244,0.4448,0,0.5732-0.1032,0.5736-0.3244v-5.238c0-0.7632-0.0808-1.368-0.536-1.8-0.4448-0.4316-1.092-0.6376-1.95-0.6376-0.8084,0-1.645,0.3404-2.312,1.025v-0.7c0-0.2208-0.1624-0.3252-0.6072-0.3256zm11.26,0c-1.106,0-1.952,0.352-2.55,1.05s-0.9012,1.692-0.9012,2.988c0,1.286,0.3004,2.272,0.8888,2.95,0.598,0.678,1.446,1.012,2.562,1.012,1.126,0,1.982-0.332,2.55-1,0.578-0.678,0.7988-1.666,0.7988-2.962,0-1.306-0.2232-2.3-0.8112-2.988-0.5784-0.698-1.431-1.05-2.538-1.05zm5.625,0c-0.4556,0-0.6752,0.0904-0.6752,0.2624,0,0.0404,0.0196,0.0964,0.05,0.1876l2.438,7.3c0.0508,0.162,0.2584,0.25,0.6124,0.25h0.5252c0.3544,0,0.562-0.088,0.6124-0.25l2.438-7.275c0.0304-0.0912,0.05-0.162,0.05-0.2124,0-0.172-0.2076-0.2624-0.6124-0.2624-0.3948,0-0.612,0.0756-0.6624,0.2376l-2.038,6.15-2.025-6.15c-0.0508-0.162-0.2572-0.2376-0.7124-0.2376zm10.86,0c-0.8404,0-1.558,0.106-2.162,0.3252-0.5944,0.2088-0.8876,0.4284-0.8876,0.6376,0,0.0996,0.0645,0.2508,0.1876,0.45,0.1332,0.1992,0.2352,0.3,0.3376,0.3,0.0204,0,0.1472-0.0656,0.3624-0.1752,0.6252-0.3084,1.312-0.4624,2.05-0.4624,1.127,0,1.774,0.4268,1.774,1.262v0.6876c-0.8916,0.02-1.776,0.0856-2.474,0.1752-0.6968,0.0796-1.336,0.3144-1.9,0.7124-0.5532,0.388-0.8252,0.9764-0.8252,1.762,0,0.786,0.2432,1.372,0.7252,1.75,0.4816,0.378,1.124,0.5624,1.912,0.5624,0.9724,0,1.884-0.3404,2.562-1.012v0.7c0,0.2188,0.1104,0.3248,0.5508,0.3248,0.4408,0,0.6488-0.1057,0.6488-0.3248v-5.325c0-0.7364-0.266-1.317-0.7988-1.725-0.5328-0.418-1.222-0.6248-2.062-0.6252zm8.538,0c-0.9824,0-1.818,0.2592-2.5,0.7876-0.362,0.2892-0.6452,0.7116-0.8624,1.25-0.2068,0.5384-0.314,1.177-0.314,1.925,0,1.276,0.2576,2.24,0.764,2.888,0.5168,0.638,1.293,1,2.338,1.1l-0.25,0.95c-0.0208,0.0996-0.0251,0.1552-0.0251,0.1752,0,0.1096,0.0844,0.1876,0.25,0.2376,0.1756,0.05,0.3472,0.1228,0.5124,0.2124,0.1756,0.0896,0.2624,0.2232,0.2624,0.4124,0,0.3488-0.298,0.5252-0.8876,0.5252-0.2276,0-0.4856-0.0504-0.7752-0.15s-0.4608-0.15-0.5124-0.15c-0.1964,0-0.3,0.1284-0.3,0.3876,0,0.1892,0.2072,0.3552,0.6,0.4752,0.3928,0.1196,0.7844,0.1736,1.188,0.174,1.189,0,1.788-0.4492,1.788-1.336,0-0.2992-0.1012-0.5332-0.2876-0.7124-0.186-0.1696-0.3616-0.2728-0.5376-0.3124-0.1656-0.03-0.3344-0.05-0.5-0.05h-0.0624l0.1876-0.7876h0.0624c0.6512,0,1.226-0.078,1.712-0.2376,0.486-0.1696,0.7248-0.3456,0.7252-0.5252,0-0.1196-0.0636-0.2732-0.1876-0.4624-0.124-0.1992-0.234-0.3-0.3376-0.3-0.0701,0.0192-0.0784,0.0216-0.1752,0.0624-0.5376,0.2592-1.119,0.3876-1.75,0.3876-0.8684,0-1.49-0.2316-1.862-0.7-0.362-0.4684-0.7384-1.231-0.7384-2.288,0-1.904,0.9516-2.862,2.451-2.862,0.5688,0,1.129,0.1232,1.688,0.3624l0.1124,0.0376,0.05,0.0251c0.0932,0,0.1988-0.1008,0.3124-0.3,0.124-0.2092,0.1876-0.3828,0.1876-0.5124,0-0.1796-0.2368-0.3356-0.7124-0.4752s-1.013-0.2124-1.612-0.2124zm7.462,0c-0.8404,0-1.558,0.106-2.162,0.3252-0.5944,0.2088-0.8876,0.4284-0.8876,0.6376,0,0.0996,0.0645,0.2508,0.1876,0.45,0.1332,0.1992,0.2352,0.3,0.3376,0.3,0.0204,0,0.1472-0.0656,0.3624-0.1752,0.6252-0.3084,1.312-0.4624,2.05-0.4624,1.127,0,1.774,0.4268,1.774,1.262v0.6876c-0.8916,0.02-1.776,0.0856-2.474,0.1752-0.6968,0.0796-1.336,0.3144-1.9,0.7124-0.5532,0.388-0.8252,0.9764-0.8252,1.762,0,0.786,0.2432,1.372,0.7252,1.75,0.4816,0.378,1.124,0.5624,1.912,0.5624,0.9724,0,1.884-0.3404,2.561-1.012v0.7c0,0.2188,0.1104,0.3248,0.5512,0.3248s0.6488-0.1057,0.6488-0.3248v-5.325c0-0.7364-0.266-1.317-0.7988-1.725-0.5328-0.418-1.222-0.6248-2.062-0.6252zm8.312,0c-1.106,0-1.952,0.352-2.55,1.05s-0.9012,1.692-0.9012,2.988c0,1.286,0.3004,2.272,0.8888,2.95,0.598,0.678,1.446,1.012,2.562,1.012,1.126,0,1.982-0.332,2.55-1,0.578-0.678,0.7988-1.666,0.7988-2.962,0-1.306-0.2232-2.3-0.8112-2.988-0.5784-0.698-1.431-1.05-2.538-1.05zm-114.3,1.075c1.241,0,1.862,0.7248,1.862,2.3v0.2248h-4.026c0.1136-1.575,0.8296-2.524,2.163-2.525zm36.26,0c0.7276,0,1.264,0.234,1.612,0.7124,0.3488,0.4784,0.5616,1.228,0.5616,2.225,0,0.9968-0.2128,1.734-0.5616,2.212-0.3488,0.4684-0.8848,0.7-1.612,0.7-0.7276,0-1.261-0.2316-1.6-0.7-0.3388-0.4784-0.626-1.216-0.626-2.212,0-1.007,0.2868-1.756,0.626-2.225,0.3388-0.4784,0.8724-0.7124,1.6-0.7124zm12.54,0c1.241,0,1.862,0.7248,1.862,2.3v0.2248h-4.025c0.1136-1.575,0.8288-2.524,2.162-2.525zm24.66,0c0.7276,0,1.264,0.234,1.612,0.7124,0.3488,0.4784,0.5616,1.228,0.5616,2.225,0,0.9968-0.2128,1.734-0.5616,2.212-0.3488,0.4684-0.8848,0.7-1.612,0.7-0.7276,0-1.261-0.2316-1.6-0.7-0.3388-0.4784-0.626-1.216-0.626-2.212,0-1.007,0.2868-1.756,0.626-2.225,0.3388-0.4784,0.8724-0.7124,1.6-0.7124zm40.8,0c0.7276,0,1.264,0.234,1.612,0.7124,0.3488,0.4784,0.5616,1.228,0.5616,2.225,0,0.9968-0.2128,1.734-0.5616,2.212-0.3488,0.4684-0.8848,0.7-1.612,0.7-0.7276,0-1.261-0.2316-1.6-0.7-0.3388-0.4784-0.626-1.216-0.626-2.212,0-1.007,0.2868-1.756,0.626-2.225,0.3388-0.4784,0.8724-0.7124,1.6-0.7124zm-22.63,3.025v1.775c-0.3792,0.3284-0.8428,0.5708-1.212,0.75-0.3588,0.1792-0.7852,0.2624-1.288,0.2624-0.8712,0-1.312-0.3964-1.312-1.212,0-0.5176,0.2172-0.8784,0.6376-1.088,0.2152-0.1096,0.4176-0.2052,0.6124-0.2752,0.3688-0.1392,1.28-0.2124,2.562-0.2124zm16,0v1.775c-0.3792,0.3284-0.8428,0.5708-1.212,0.75-0.3588,0.1792-0.7852,0.2624-1.288,0.2624-0.8712,0-1.312-0.3964-1.312-1.212,0-0.5176,0.2172-0.8784,0.6376-1.088,0.2152-0.1096,0.4176-0.2052,0.6124-0.2752,0.3688-0.1392,1.281-0.2124,2.562-0.2124z"/>
</svg>
