<?xml version="1.0" encoding="UTF-8" standalone="no"?>
<svg id="svg2" xmlns:rdf="http://www.w3.org/1999/02/22-rdf-syntax-ns#" xmlns="http://www.w3.org/2000/svg" height="100%" width="100%" version="1.1" xmlns:cc="http://creativecommons.org/ns#" xmlns:dc="http://purl.org/dc/elements/1.1/" viewBox="-1 0 192 128">
 <metadata id="metadata10">
  <rdf:RDF>
   <cc:Work rdf:about="">
    <dc:format>image/svg+xml</dc:format>
    <dc:type rdf:resource="http://purl.org/dc/dcmitype/StillImage"/>
    <dc:title/>
   </cc:Work>
  </rdf:RDF>
 </metadata>
 <path id="path4" fill="#FFF" d="m156.5,55.85c0-2.152,1.352-3.588,3.231-3.588,1.657,0,2.731,0.899,2.955,2.421,1.579-1.704,3.637-2.692,6.009-2.692,2.697,0,4.985,1.123,6.683,3.275,1.793-2.061,4.615-3.275,6.816-3.275,5.243,0,8.828,3.051,8.828,8.698v12.38c0,2.15-1.345,3.583-3.228,3.583-1.884,0-3.228-1.433-3.228-3.583v-11.25c0-2.6-1.433-4.44-3.763-4.44-2.379,0-3.812,1.84-3.812,4.44v11.25c0,2.15-1.342,3.583-3.223,3.583-1.886,0-3.231-1.433-3.231-3.583v-11.25c0-2.6-1.433-4.44-3.765-4.44-2.645,0-3.809,1.84-3.809,4.44v11.25c0,2.15-1.347,3.583-3.231,3.583-1.879,0-3.231-1.433-3.231-3.583v-17.21zm-134.5,18.64c0,7.76-5.063,11.66-12.42,11.66-2.645,0-10.17-1.298-10.17-4.836,0-1.212,1.347-2.83,2.6-2.83,2.061,0,4.349,2.022,8.07,2.022,3.137,0,5.472-1.834,5.472-5.115v-1.512h-0.09792c-1.342,1.972-3.542,3.052-6.501,3.052-6.767,0-9.951-5.97-9.951-12.38,0-6.5,4.127-12.55,10.63-12.55,2.194,0,4.703,0.9875,5.917,2.963,0.3987-1.704,1.431-2.692,3.226-2.692,1.884,0,3.226,1.436,3.226,3.588v18.64zm-11.52-16.58c-3.361,0-5.021,3.497-5.021,6.501,0,3.452,1.66,6.592,5.021,6.592,3.45,0,5.068-3.226,5.068-6.366s-1.527-6.728-5.068-6.728zm13.5-12.47c0-2.147,1.342-3.588,3.226-3.588s3.231,1.441,3.231,3.588v27.62c0,2.15-1.35,3.583-3.231,3.583s-3.226-1.433-3.226-3.583v-27.62zm30.87,19.06c0,6.725-4.615,12.42-11.56,12.42-6.947,0-11.57-5.696-11.57-12.42,0-6.545,4.753-12.51,11.57-12.51,6.814,0,11.56,5.964,11.56,12.51zm-16.68,0c0,3.096,1.613,6.501,5.11,6.501s5.11-3.408,5.11-6.501-1.569-6.59-5.11-6.59c-3.544,0-5.11,3.497-5.11,6.59zm17.91-19.06c0-2.147,1.345-3.588,3.228-3.588,1.884,0,3.223,1.441,3.223,3.588v8.789c1.707-1.477,3.903-2.243,6.144-2.243,6.949,0,10.4,6.506,10.4,12.78,0,6.1-4.125,12.16-10.62,12.16-2.191,0-4.706-0.9875-5.917-2.96-0.4013,1.704-1.43,2.686-3.223,2.686-1.884,0-3.228-1.433-3.228-3.583v-27.64zm11.52,25.56c3.364,0,5.026-3.494,5.026-6.501,0-3.049-1.662-6.59-5.026-6.59-3.45,0-5.065,3.226-5.065,6.366,0,3.135,1.524,6.725,5.065,6.725zm35.29-6.504c0,6.725-4.617,12.42-11.57,12.42-6.947,0-11.56-5.696-11.56-12.42,0-6.545,4.75-12.51,11.56-12.51,6.814,0,11.57,5.964,11.57,12.51zm-16.68,0c0,3.096,1.61,6.501,5.107,6.501,3.499,0,5.11-3.408,5.11-6.501s-1.569-6.59-5.11-6.59c-3.544,0-5.107,3.497-5.107,6.59zm21.98,5.422c1.926,0,3.499,1.574,3.499,3.505,0,1.923-1.574,3.494-3.499,3.494-1.926,0-3.497-1.571-3.497-3.494,0-1.931,1.571-3.505,3.497-3.505zm22.29-10.76c-1.621,0-3.051-1.253-5.115-1.253-3.671,0-5.422,3.27-5.422,6.59,0,3.182,1.928,6.501,5.422,6.501,1.616,0,4.036-1.345,4.797-1.345,1.524,0,2.78,1.298,2.78,2.819,0,3.325-5.558,4.443-7.89,4.443-6.952,0-11.57-5.696-11.57-12.42,0-6.545,4.75-12.51,11.57-12.51,2.554,0,7.89,0.9432,7.89,4.083,0,1.345-0.9406,3.093-2.462,3.093zm24.77,5.334c0,6.725-4.62,12.42-11.57,12.42-6.947,0-11.56-5.696-11.56-12.42,0-6.545,4.753-12.51,11.56-12.51,6.816,0,11.57,5.964,11.57,12.51zm-16.68,0c0,3.096,1.613,6.501,5.104,6.501,3.499,0,5.11-3.408,5.11-6.501s-1.566-6.59-5.11-6.59c-3.538,0-5.104,3.497-5.104,6.59z"/>
</svg>
