<?xml version="1.0" encoding="UTF-8" standalone="no"?>

<svg width="102px" height="68px" viewBox="0 0 102 68" version="1.1" xmlns="http://www.w3.org/2000/svg" xmlns:xlink="http://www.w3.org/1999/xlink" xmlns:sketch="http://www.bohemiancoding.com/sketch/ns">
    <!-- Generator: Sketch 3.0.4 (8054) - http://www.bohemiancoding.com/sketch -->
    <title>Artboard 1</title>
    <desc>Created with Sketch.</desc>
    <defs></defs>
    <g id="Page-1" stroke="none" stroke-width="1" fill="none" fill-rule="evenodd" sketch:type="MSPage">
        <g id="Artboard-1" sketch:type="MSArtboardGroup" fill="#FFFFFF">
            <path d="M81.5880405,33.9507059 C81.5880405,32.8817647 82.2543243,32.1687059 83.1799324,32.1687059 C83.9964189,32.1687059 84.5253378,32.6151765 84.6357432,33.3709412 C85.4137162,32.5245882 86.4279054,32.0341176 87.5961486,32.0341176 C88.9248649,32.0341176 90.052027,32.5918824 90.8890541,33.6608235 C91.7722973,32.6371765 93.1626351,32.0341176 94.2474324,32.0341176 C96.8304054,32.0341176 98.5968919,33.5495294 98.5968919,36.3538824 L98.5968919,42.5009412 C98.5968919,43.5685882 97.9344595,44.2803529 97.0062838,44.2803529 C96.0781081,44.2803529 95.4156757,43.5685882 95.4156757,42.5009412 L95.4156757,36.9103529 C95.4156757,35.6188235 94.7095946,34.7051765 93.5618919,34.7051765 C92.3897973,34.7051765 91.6837162,35.6188235 91.6837162,36.9103529 L91.6837162,42.4996471 C91.6837162,43.5672941 91.0225676,44.2790588 90.0956757,44.2790588 C89.1662162,44.2790588 88.5037838,43.5672941 88.5037838,42.4996471 L88.5037838,36.9103529 C88.5037838,35.6188235 87.7977027,34.7051765 86.6487162,34.7051765 C85.3456757,34.7051765 84.7718243,35.6188235 84.7718243,36.9103529 L84.7718243,42.4996471 C84.7718243,43.5672941 84.1081081,44.2790588 83.1799324,44.2790588 C82.2543243,44.2790588 81.5880405,43.5672941 81.5880405,42.4996471 L81.5880405,33.9507059 L81.5880405,33.9507059 Z M15.3306757,43.2101176 C15.3306757,47.064 12.8362838,49 9.21216216,49 C7.90912162,49 4.20027027,48.3555294 4.20027027,46.5981176 C4.20027027,45.9963529 4.86398649,45.1927059 5.48148649,45.1927059 C6.49695946,45.1927059 7.62412162,46.1969412 9.45736486,46.1969412 C11.0030405,46.1969412 12.1533108,45.2858824 12.1533108,43.6565882 L12.1533108,42.9008235 L12.1058108,42.9008235 C11.4433784,43.8804706 10.3624324,44.4162353 8.90277027,44.4162353 C5.56878378,44.4149412 4,41.4514118 4,38.2678824 C4,35.0403529 6.03351351,32.0328235 9.23527027,32.0328235 C10.3162162,32.0328235 11.5525,32.5232941 12.1507432,33.5042353 C12.3471622,32.6578824 12.8555405,32.1674118 13.7400676,32.1674118 C14.6682432,32.1674118 15.3293919,32.8804706 15.3293919,33.9494118 L15.3293919,43.2101176 L15.3306757,43.2101176 Z M9.65506757,34.9730588 C7.99898649,34.9730588 7.18121622,36.7097647 7.18121622,38.2018824 C7.18121622,39.9165882 7.99898649,41.476 9.65506757,41.476 C11.3547973,41.476 12.152027,39.8738824 12.152027,38.3144706 C12.152027,36.7550588 11.3997297,34.9730588 9.65506757,34.9730588 L9.65506757,34.9730588 Z M16.3063514,28.782 C16.3063514,27.7156471 16.9675,27 17.8956757,27 C18.8238514,27 19.4875676,27.7156471 19.4875676,28.782 L19.4875676,42.4996471 C19.4875676,43.5672941 18.8225676,44.2790588 17.8956757,44.2790588 C16.9687838,44.2790588 16.3063514,43.5672941 16.3063514,42.4996471 L16.3063514,28.782 L16.3063514,28.782 Z M31.5153378,38.2458824 C31.5153378,41.586 29.2417568,44.4149412 25.8179054,44.4149412 C22.3953378,44.4149412 20.1191892,41.586 20.1191892,38.2458824 C20.1191892,34.9950588 22.4608108,32.0328235 25.8179054,32.0328235 C29.175,32.0328235 31.5153378,34.9950588 31.5153378,38.2458824 L31.5153378,38.2458824 Z M23.2991216,38.2458824 C23.2991216,39.7832941 24.0937838,41.4747059 25.8166216,41.4747059 C27.5394595,41.4747059 28.3341216,39.782 28.3341216,38.2458824 C28.3341216,36.7097647 27.5612838,34.9730588 25.8166216,34.9730588 C24.0706757,34.9730588 23.2991216,36.7097647 23.2991216,38.2458824 L23.2991216,38.2458824 Z M32.1238514,28.782 C32.1238514,27.7156471 32.7862838,27 33.7144595,27 C34.6426351,27 35.3025,27.7156471 35.3025,28.782 L35.3025,33.1470588 C36.1433784,32.4132941 37.2256081,32.0328235 38.3296622,32.0328235 C41.7535135,32.0328235 43.4532432,35.2642353 43.4532432,38.3778824 C43.4532432,41.4074118 41.4210135,44.4149412 38.2192568,44.4149412 C37.1395946,44.4149412 35.9007432,43.9244706 35.3037838,42.9448235 C35.1060811,43.7911765 34.5989865,44.2790588 33.7157432,44.2790588 C32.7875676,44.2790588 32.1251351,43.5672941 32.1251351,42.4996471 L32.1251351,28.782 L32.1238514,28.782 Z M37.7981757,41.476 C39.4555405,41.476 40.2745946,39.7405882 40.2745946,38.2471765 C40.2745946,36.7330588 39.4555405,34.9743529 37.7981757,34.9743529 C36.0984459,34.9743529 35.3025,36.5764706 35.3025,38.1358824 C35.3025,39.6927059 36.0535135,41.476 37.7981757,41.476 L37.7981757,41.476 Z M55.1831757,38.2458824 C55.1831757,41.586 52.9083108,44.4149412 49.4831757,44.4149412 C46.0606081,44.4149412 43.7857432,41.586 43.7857432,38.2458824 C43.7857432,34.9950588 46.1260811,32.0328235 49.4831757,32.0328235 C52.8402703,32.0328235 55.1831757,34.9950588 55.1831757,38.2458824 L55.1831757,38.2458824 Z M46.9669595,38.2458824 C46.9669595,39.7832941 47.7603378,41.4747059 49.4831757,41.4747059 C51.2072973,41.4747059 52.0006757,39.782 52.0006757,38.2458824 C52.0006757,36.7097647 51.2278378,34.9730588 49.4831757,34.9730588 C47.7372297,34.9730588 46.9669595,36.7097647 46.9669595,38.2458824 L46.9669595,38.2458824 Z M57.7943919,40.9389412 C58.7431081,40.9389412 59.5185135,41.7205882 59.5185135,42.6795294 C59.5185135,43.6345882 58.7431081,44.4149412 57.7943919,44.4149412 C56.8456757,44.4149412 56.0715541,43.6345882 56.0715541,42.6795294 C56.0715541,41.7205882 56.8456757,40.9389412 57.7943919,40.9389412 L57.7943919,40.9389412 Z M68.7784459,35.5968235 C67.9799324,35.5968235 67.2751351,34.9743529 66.2583784,34.9743529 C64.449527,34.9743529 63.5868243,36.5984706 63.5868243,38.2471765 C63.5868243,39.8272941 64.5368243,41.476 66.2583784,41.476 C67.0543243,41.476 68.2469595,40.8082353 68.6218243,40.8082353 C69.3728378,40.8082353 69.9916216,41.4527059 69.9916216,42.2084706 C69.9916216,43.8597647 67.2533108,44.4149412 66.1043243,44.4149412 C62.6791892,44.4149412 60.4056081,41.586 60.4056081,38.2458824 C60.4056081,34.9950588 62.7459459,32.0328235 66.1043243,32.0328235 C67.3624324,32.0328235 69.9916216,32.5012941 69.9916216,34.0607059 C69.9916216,34.7284706 69.5281757,35.5968235 68.7784459,35.5968235 L68.7784459,35.5968235 Z M80.9833784,38.2458824 C80.9833784,41.586 78.7072297,44.4149412 75.2820946,44.4149412 C71.859527,44.4149412 69.5846622,41.586 69.5846622,38.2458824 C69.5846622,34.9950588 71.9262838,32.0328235 75.2820946,32.0328235 C78.640473,32.0328235 80.9833784,34.9950588 80.9833784,38.2458824 L80.9833784,38.2458824 Z M72.7658784,38.2458824 C72.7658784,39.7832941 73.5605405,41.4747059 75.2808108,41.4747059 C77.0049324,41.4747059 77.7983108,39.782 77.7983108,38.2458824 C77.7983108,36.7097647 77.0267568,34.9730588 75.2808108,34.9730588 C73.5374324,34.9730588 72.7658784,36.7097647 72.7658784,38.2458824 L72.7658784,38.2458824 Z" id="Shape" sketch:type="MSShapeGroup"></path>
        </g>
    </g>
</svg>
