<?xml version="1.0" encoding="utf-8"?>
<!-- Generator: Adobe Illustrator 15.0.0, SVG Export Plug-In . SVG Version: 6.00 Build 0)  -->
<!DOCTYPE svg PUBLIC "-//W3C//DTD SVG 1.1//EN" "http://www.w3.org/Graphics/SVG/1.1/DTD/svg11.dtd">
<svg version="1.1" id="Layer_1" xmlns="http://www.w3.org/2000/svg" xmlns:xlink="http://www.w3.org/1999/xlink" x="0px" y="0px"
	 width="180px" height="120px" viewBox="0 0 180 120" enable-background="new 0 0 180 120" xml:space="preserve">
<path fill="none" stroke="#000000" d="M165.585,70.514c-2.993,3.71-7.915,4.613-12.405,4.845h-22.743
	c-3.338-0.128-6.342-0.257-9.062-2.925c-0.309,1.77-2.67,2.898-4.646,2.925h-55.14c-2.414,0.025-6.06-0.435-8.087-2.591
	c-2.336,2.283-10.91,2.591-12.528,2.616h-12.63c-5.776-0.052-10.499-1.104-13.76-6.314c-1.616-3.079-1.744-5.802-1.179-9.138
	c0.77-4.569,2.952-13.657,2.952-13.657c1.104-2.978,3.669-4.466,7.751-4.441h6.648c4.185,0,4.39,2.182,4.185,3.029
	c5.057-3.826,17.328-4.082,22.591-0.591c3.207-2.361,7.7-2.387,11.243-2.438h86.535c10.774-0.267,14.342,3.797,14.626,9.289
	c0,0,0.569,4.491-1.711,8.414C168.438,62.672,168.154,67.021,165.585,70.514z"/>
<g>
	<path fill-rule="evenodd" clip-rule="evenodd" fill="#231F20" d="M45.262,62.756c0.462-0.13,0.873-0.387,1.207-0.746
		c0.666-0.641,1.206-1.746,1.564-3.183c0.36-1.334,0.462-2.335,0.283-3.053c-0.179-0.874-0.823-1.362-1.874-1.439
		c-0.281-0.025-0.514-0.052-0.796-0.025c-0.128,0.025-0.257,0.052-0.385,0.103v-8.214c5.416-0.668,10.216,1.181,11.783,5.16
		c2.335-3.44,6.006-5.16,11.038-5.108h6.623c1.796,0,2.772,1.515,2.438,3.388l-0.617,3.056c-0.488,1.848-1.513,2.155-3.698,2.155
		l-3.72,0.025c-4.673,0-4.595,1.286-5.212,3.672c-0.257,0.949-0.307,1.848-0.281,2.72c-0.026,0.898,0.77,1.053,1.384,1.078
		c1.234,0.104,3.107,0.053,5.571-0.025c0.874,0,1.797,0.181,1.977,0.387l8.778-14.094c1.003-1.618,1.389-2.362,3.363-2.362h4.134
		c1.565,0.052,2.361,0.643,2.85,2.644l3.183,15.686L93.111,49.74c-0.309-1.796,0.616-3.465,2.438-3.491h4.082
		c1.617-0.025,2.593,0.925,2.875,2.849l0.461,5.083l2.646-5.52c0.769-1.616,1.771-2.412,3.029-2.412h4.31
		c1.645,0,2.568,0.899,2.747,2.695l0.335,5.211l2.721-5.443c0.718-1.643,1.591-2.463,3.594-2.463h3.209
		c1.488,0,2.412,0.744,2.748,2.233c2.464-1.771,5.03-2.233,8.982-2.233h5.469c0.642,0,1.232,0.206,1.771,0.591
		c0.462-0.385,1.104-0.591,1.924-0.591h11.732c6.906,0,9.422,7.138,4.337,12.707c1.953,4.416-0.076,12.142-10.189,11.911h-10.19
		c-0.873,0-1.463-0.205-1.771-0.591c-0.413,0.413-1.054,0.617-1.979,0.591h-6.441c-6.625-0.025-9.884-3.26-9.807-9.729l-3.825,7.24
		c-0.798,1.644-1.411,2.464-2.695,2.489H110.9c-1.669-0.025-2.591-0.871-2.772-2.541l-0.359-4.646l-2.388,4.799
		c-0.617,1.566-1.668,2.389-3.208,2.389h-4.082c-1.437,0-2.338-0.564-2.696-1.721c-0.385,1.156-1.282,1.721-2.695,1.721h-4.312
		c-1.59,0-2.541-0.744-2.873-2.285l-0.438-2.259h-3.85l-1.515,2.284c-1.181,1.875-1.412,2.26-3.466,2.26H62.23
		c-3.903-0.076-6.496-1.721-7.778-4.902c-2.027,2.797-4.955,4.492-9.19,5.005V62.756z M44.851,62.833
		c0.154,0,0.282-0.052,0.411-0.077v8.213c-0.36,0.024-0.745,0.077-1.13,0.103c-3.901,0.258-6.853-0.744-8.882-2.646
		c-0.308,1.618-1.334,2.415-3.133,2.44h-6.056c-5.7,0-9.14-3.671-7.958-9.344l2.593-12.81c0.36-1.692,1.412-2.515,3.107-2.463h3.669
		c1.438,0,2.824,1.309,2.49,3.002l-2.643,12.99l5.288,0.053c0.179-8.55,3.542-13.913,10.217-15.634
		c0.82-0.205,1.642-0.359,2.438-0.462v8.214c-0.54,0.182-1.001,0.488-1.413,0.951c-0.512,0.564-0.975,1.591-1.335,2.953
		c-0.435,1.487-0.486,2.618-0.256,3.361c0.256,0.746,0.9,1.131,1.848,1.207C44.363,62.909,44.593,62.909,44.851,62.833z"/>
	<path fill-rule="evenodd" clip-rule="evenodd" fill="#FFFFFF" d="M23.313,48.815h4.132l-2.284,11.014
		c-0.282,1.36-0.437,2.285-0.437,2.72c-0.052,0.926,0.232,1.489,0.951,1.85c0.642,0.307,1.848,0.514,3.644,0.514h4.006l-0.72,3.439
		h-4.441c-2.079,0.074-3.568-0.079-4.492-0.359c-2.028-0.566-3.081-1.926-3.235-4.082c0-0.797,0.154-2.155,0.565-4.082
		L23.313,48.815z"/>
	<path fill-rule="evenodd" clip-rule="evenodd" fill="#FFFFFF" d="M71.292,64.912l-0.72,3.439h-6.801
		c-1.284,0-2.286-0.079-2.927-0.154c-2.31-0.487-3.747-1.848-4.312-4.081c-0.36-1.437-0.283-3.286,0.153-5.444
		c0.565-2.617,1.566-4.773,2.927-6.417c1-1.208,2.156-2.081,3.516-2.567c1.361-0.591,3.004-0.874,4.929-0.874h6.674l-0.719,3.518
		h-6.16c-1.873,0-3.363,0.486-4.441,1.488c-0.848,0.795-1.566,2.311-2.003,4.416c-0.64,2.875-0.436,4.8,0.437,5.751
		c0.718,0.564,1.849,0.924,3.491,0.924H71.292z"/>
	<polygon fill-rule="evenodd" clip-rule="evenodd" fill="#FFFFFF" points="99.939,48.815 101.224,63.551 108.46,48.815 
		113.107,48.815 114.109,63.551 121.604,48.815 125.841,48.815 115.471,68.352 110.669,68.352 109.617,54.257 102.583,68.352 
		97.86,68.352 95.627,48.815 	"/>
	<path fill-rule="evenodd" clip-rule="evenodd" fill="#FFFFFF" d="M142.887,48.815l-0.721,3.518h-5.442
		c-1.437,0-2.514,0.077-3.156,0.282c-0.718,0.204-1.283,0.564-1.847,1.155c-0.361,0.359-0.668,0.77-0.875,1.129
		c-0.127,0.438-0.436,1.078-0.641,2.002h10.961l-0.719,3.492h-11.039c-0.205,1.644,0.077,2.875,0.719,3.517
		c0.719,0.643,2.08,1.002,4.083,1.002h5.313l-0.797,3.439h-5.363c-1.516,0-2.8-0.079-3.878-0.231
		c-1.72-0.282-2.925-1.053-3.721-2.363c-1.078-1.769-1.283-4.208-0.645-7.29c0.721-3.335,2.286-6.005,4.802-7.931
		c0.849-0.643,1.72-1.078,2.567-1.285c0.874-0.281,2.002-0.437,3.361-0.437H142.887z"/>
	<path fill-rule="evenodd" clip-rule="evenodd" fill="#FFFFFF" d="M84.178,60.393h2.799l-1.361-6.855l-1.438,2.363v-7.008
		l4.878-0.078l3.927,19.537h-4.852l-0.949-4.52h-3.004V60.393z M84.178,60.393L84.178,60.393v3.439l0,0h-4.44l-2.85,4.52H72.01
		l12.167-19.458l0,0v7.008l0,0l-2.798,4.492H84.178z"/>
	<path fill-rule="evenodd" clip-rule="evenodd" fill="#FFFFFF" d="M153.282,56.901h1.053c0.591,0,1.002-0.051,1.282-0.128
		c0.308-0.075,0.591-0.153,0.875-0.358c0.718-0.513,1.155-1.155,1.359-1.925c0.129-0.797,0-1.361-0.513-1.721
		c-0.361-0.307-1.002-0.436-2.002-0.436h-2.055v-3.518h4.004c1.721,0,2.928,0.231,3.646,0.591c0.796,0.488,1.361,1.283,1.566,2.285
		c0.23,0.719,0.23,1.489,0,2.284c-0.205,1.002-0.645,1.927-1.361,2.875c-0.719,0.822-1.566,1.387-2.44,1.746
		c1.722,0.873,2.311,2.439,1.876,4.595c-0.284,1.283-0.795,2.363-1.566,3.234c-0.719,0.692-1.515,1.284-2.388,1.566
		c-0.771,0.205-1.897,0.359-3.337,0.359v-3.439c0.281-0.078,0.487-0.078,0.618-0.078c0.356-0.076,0.588-0.205,0.871-0.436
		c0.72-0.41,1.153-1.054,1.361-1.926c0.153-0.797,0-1.361-0.516-1.721c-0.357-0.282-1-0.436-1.925-0.436h-0.41V56.901z
		 M153.256,56.901h0.026v3.415h-0.026h-5.364l-0.925,4.596h5.648h0.641c0.026,0,0.026,0,0.026,0v3.439c0,0,0,0-0.026,0h-0.411
		h-10.832l4.159-19.537h7.084h0.026v3.518h-0.026h-3.646l-0.922,4.568H153.256z"/>
	<path fill-rule="evenodd" clip-rule="evenodd" fill="#FFFFFF" d="M45.185,65.04c1.13-0.206,2.054-0.72,2.746-1.412
		c1.081-1.079,1.874-2.798,2.311-5.032c0.411-2.027,0.411-3.542,0-4.622c-0.512-1.282-1.72-1.924-3.669-1.924
		c-0.489,0-0.9,0-1.387,0.051v-3.286c0.693-0.077,1.335-0.077,2.105-0.127c1.951,0,3.593,0.358,4.954,1.001
		c1.565,0.848,2.489,2.131,2.798,4.004c0.282,1.516,0.128,3.209-0.309,5.211c-0.357,2.002-1.051,3.722-2.052,5.134
		c-1.233,1.797-2.748,3.029-4.674,3.672c-0.847,0.358-1.77,0.562-2.823,0.691V65.04z M45.159,65.065c0-0.025,0-0.025,0.025-0.025
		v3.361c-0.025,0.024-0.025,0.024-0.025,0.024c-0.591,0.052-1.156,0.052-1.796,0.052c-2.157,0-4.006-0.409-5.443-1.205
		c-1.233-0.718-2.081-1.797-2.515-3.234c-0.36-1.489-0.36-3.286,0.076-5.366c0.796-3.696,2.285-6.339,4.518-7.907
		c1.361-1.025,3.081-1.667,5.16-1.95c0,0,0,0,0.025,0v3.286c-0.025,0-0.025,0-0.025,0.026c-1.232,0.283-2.31,0.849-3.081,1.772
		c-0.873,0.948-1.514,2.515-1.951,4.646c-0.489,2.285-0.413,4.003,0.153,5.083c0.566,1.077,1.797,1.565,3.517,1.565
		C44.287,65.193,44.722,65.193,45.159,65.065z"/>
</g>
</svg>
