<?xml version="1.0" encoding="UTF-8" standalone="no"?>
<svg width="102px" height="68px" viewBox="0 0 102 68" version="1.1" xmlns="http://www.w3.org/2000/svg" xmlns:xlink="http://www.w3.org/1999/xlink" xmlns:sketch="http://www.bohemiancoding.com/sketch/ns">
    <!-- Generator: Sketch 3.0.4 (8054) - http://www.bohemiancoding.com/sketch -->
    <title>Artboard 1</title>
    <desc>Created with Sketch.</desc>
    <defs></defs>
    <g id="Page-1" stroke="none" stroke-width="1" fill="none" fill-rule="evenodd" sketch:type="MSPage">
        <g id="Artboard-1" sketch:type="MSArtboardGroup">
            <path d="M96.3003822,41.6115882 C94.4702675,43.9030588 91.4606369,44.4607941 88.7151592,44.6040882 L74.8086115,44.6040882 C72.7675414,44.5250294 70.9307006,44.4453529 69.2675159,42.7974706 C69.0785732,43.8907059 67.6349045,44.5874118 66.4266497,44.6040882 L32.7104713,44.6040882 C31.2343949,44.6195294 29.0049936,44.3354118 27.7655541,43.0037647 C26.337172,44.4138529 21.0944713,44.6040882 20.105121,44.6195294 L12.3823185,44.6195294 C8.85049682,44.5874118 5.96254777,43.9376471 3.96856051,40.7197059 C2.98043312,38.8179706 2.90216561,37.1361176 3.24764331,35.0756471 C3.71847134,32.2536176 5.0526879,26.6404412 5.0526879,26.6404412 C5.72774522,24.8010882 7.29615287,23.8820294 9.79215287,23.8974706 L13.857172,23.8974706 C16.4161529,23.8974706 16.5415032,25.2451765 16.4161529,25.7683235 C19.5083312,23.4052059 27.0116178,23.2470882 30.229758,25.4032941 C32.1907261,23.9450294 34.9380382,23.9289706 37.1044586,23.8974706 L90.0175796,23.8974706 C96.6055032,23.7325588 98.7872102,26.2426765 98.9608662,29.6347941 C98.9608662,29.6347941 99.3087898,32.4086471 97.9146497,34.8316765 C98.0448917,36.768 97.8712357,39.4541471 96.3003822,41.6115882 L96.3003822,41.6115882 Z" id="Shape" stroke="#FFFFFF" stroke-width="2" sketch:type="MSShapeGroup"></path>
            <path d="M9.30603822,28.2092647 L11.8326115,28.2092647 L10.4360255,35.0120294 C10.2635924,35.8520294 10.1688153,36.4233529 10.1688153,36.6920294 C10.1370191,37.2639706 10.3106752,37.6117059 10.7503185,37.8346765 C11.142879,38.0242941 11.8803057,38.1521471 12.9784968,38.1521471 L15.4280255,38.1521471 L14.9877707,40.2762353 L12.2722548,40.2762353 C11.0010191,40.3219412 10.0905478,40.2274412 9.52555414,40.0545 C8.28550318,39.7049118 7.64163057,38.8649118 7.54746497,37.5332647 C7.54746497,37.041 7.64163057,36.2022353 7.89294268,35.0120294 L9.30603822,28.2092647 L9.30603822,28.2092647 Z" id="Shape" fill="#FFFFFF" sketch:type="MSShapeGroup"></path>
            <path d="M38.6435159,38.1515294 L38.2032611,40.2756176 L34.0446879,40.2756176 C33.2595669,40.2756176 32.646879,40.2268235 32.2549299,40.1805 C30.8424459,39.8797059 29.9637707,39.0390882 29.618293,37.6598824 C29.3981656,36.7723235 29.4452484,35.6302941 29.7118471,34.2974118 C30.0573248,32.6810294 30.6694013,31.3493824 31.5016051,30.3339706 C32.1130701,29.5878529 32.8199236,29.0486471 33.6515159,28.7484706 C34.4837197,28.3834412 35.4883567,28.2086471 36.6654268,28.2086471 L40.7463439,28.2086471 L40.3067006,30.3815294 L36.5400764,30.3815294 C35.3948025,30.3815294 34.4837197,30.6817059 33.8245605,31.3005882 C33.3060382,31.7916176 32.8670064,32.7279706 32.5997962,34.0281176 C32.2084586,35.8038529 32.3331975,36.9928235 32.8670064,37.5802059 C33.3060382,37.9285588 33.9976051,38.1509118 35.0016306,38.1509118 L38.6435159,38.1509118 L38.6435159,38.1515294 Z" id="Shape" fill="#FFFFFF" sketch:type="MSShapeGroup"></path>
            <path d="M56.1601529,28.2092647 L56.9458854,37.3109118 L61.3704459,28.2092647 L64.2119236,28.2092647 L64.8246115,37.3109118 L69.4075414,28.2092647 L71.9983185,28.2092647 L65.6574268,40.2762353 L62.721172,40.2762353 L62.0779108,31.5705 L57.7768662,40.2762353 L54.8889172,40.2762353 L53.5235159,28.2092647 L56.1601529,28.2092647 Z" id="Shape" fill="#FFFFFF" sketch:type="MSShapeGroup"></path>
            <path d="M82.4213503,28.2092647 L81.9804841,30.3821471 L78.6528917,30.3821471 C77.7742166,30.3821471 77.1156688,30.4297059 76.7231083,30.5563235 C76.2840764,30.6823235 75.9385987,30.9046765 75.5937325,31.2697059 C75.3729936,31.4914412 75.1852739,31.7452941 75.0587006,31.9670294 C74.9810446,32.2375588 74.7921019,32.6328529 74.6667516,33.2035588 L81.3690191,33.2035588 L80.9293758,35.3603824 L74.179414,35.3603824 C74.0540637,36.3757941 74.2264968,37.1361176 74.6190573,37.5326471 C75.0587006,37.9297941 75.8909045,38.1515294 77.1156688,38.1515294 L80.3643822,38.1515294 L79.8770446,40.2756176 L76.597758,40.2756176 C75.6707771,40.2756176 74.8856561,40.2268235 74.2264968,40.1329412 C73.1747771,39.9587647 72.4379618,39.4825588 71.9512357,38.6734412 C71.2920764,37.5808235 71.1667261,36.0743824 71.5568408,34.1707941 C71.997707,32.1109412 72.9546497,30.4618235 74.4930955,29.2722353 C75.0122293,28.8750882 75.5448153,28.6064118 76.0627261,28.4785588 C76.5971465,28.305 77.286879,28.2086471 78.1178599,28.2086471 L82.4213503,28.2086471 L82.4213503,28.2092647 Z" id="Shape" fill="#FFFFFF" sketch:type="MSShapeGroup"></path>
            <path d="M46.5228535,35.3603824 L48.2343439,35.3603824 L47.4021401,31.1264118 L46.5228535,32.5859118 L46.5228535,28.2574412 L49.5055796,28.2092647 L51.9068025,40.2762353 L48.9399745,40.2762353 L48.3596943,37.4844706 L46.5228535,37.4844706 L46.5228535,35.3603824 L46.5228535,35.3603824 Z M46.5228535,35.3603824 L46.5228535,35.3603824 L46.5228535,37.4844706 L43.807949,37.4844706 L42.0652739,40.2762353 L39.0825478,40.2762353 L46.522242,28.2580588 L46.522242,32.5865294 L44.8113631,35.361 L46.5228535,35.361 L46.5228535,35.3603824 Z" id="Shape" fill="#FFFFFF" sketch:type="MSShapeGroup"></path>
            <path d="M88.7775287,33.2035588 L89.4214013,33.2035588 C89.7827771,33.2035588 90.0340892,33.1720588 90.2052994,33.1245 C90.3936306,33.0781765 90.5666752,33.03 90.7403312,32.9033824 C91.1793631,32.5865294 91.4465732,32.19 91.5713121,31.7144118 C91.6501911,31.2221471 91.5713121,30.8737941 91.2576306,30.6514412 C91.0368917,30.4618235 90.6449427,30.3821471 90.0334777,30.3821471 L88.7769172,30.3821471 L88.7769172,28.2092647 L91.2252229,28.2092647 C92.2775541,28.2092647 93.0155924,28.3519412 93.4546242,28.5742941 C93.9413503,28.8757059 94.286828,29.3667353 94.4121783,29.9856176 C94.5528153,30.4297059 94.5528153,30.9052941 94.4121783,31.3963235 C94.286828,32.0152059 94.0177834,32.5865294 93.5799745,33.1720588 C93.1403312,33.6797647 92.6224204,34.0287353 92.088,34.2504706 C93.1409427,34.7896765 93.5010955,35.7569118 93.2351083,37.0885588 C93.0614522,37.881 92.7489936,38.5480588 92.2775541,39.0860294 C91.8379108,39.5134412 91.3511847,39.8790882 90.8173758,40.0532647 C90.3459363,40.1798824 89.6574268,40.275 88.7769172,40.275 L88.7769172,38.1509118 C88.9487389,38.1027353 89.0747006,38.1027353 89.1548025,38.1027353 C89.3724841,38.0557941 89.5143439,37.9761176 89.6873885,37.8334412 C90.1276433,37.5802059 90.3924076,37.1824412 90.5195924,36.6438529 C90.6131465,36.1515882 90.5195924,35.8032353 90.2040764,35.5808824 C89.9857834,35.4067059 89.5926115,35.3115882 89.0270064,35.3115882 L88.7763057,35.3115882 L88.7763057,33.2035588 L88.7775287,33.2035588 Z M88.7616306,33.2035588 L88.7775287,33.2035588 L88.7775287,35.3128235 L88.7616306,35.3128235 L85.4817325,35.3128235 L84.9161274,38.1515294 L88.3696815,38.1515294 L88.7616306,38.1515294 L88.7775287,38.1515294 L88.7775287,40.2756176 C88.7775287,40.2756176 88.7775287,40.2756176 88.7616306,40.2756176 L88.5103185,40.2756176 L81.8869299,40.2756176 L84.4300127,28.2086471 L88.7616306,28.2086471 L88.7775287,28.2086471 L88.7775287,30.3815294 L88.7616306,30.3815294 L86.5322293,30.3815294 L85.9684586,33.2029412 L88.7616306,33.2029412 L88.7616306,33.2035588 Z" id="Shape" fill="#FFFFFF" sketch:type="MSShapeGroup"></path>
            <path d="M22.68,38.2305882 C23.3709554,38.1033529 23.935949,37.7858824 24.3590828,37.3584706 C25.0200764,36.6920294 25.5049682,35.6302941 25.7721783,34.2504706 C26.0234904,32.9985 26.0234904,32.0627647 25.7721783,31.3957059 C25.4591083,30.6038824 24.7204586,30.2073529 23.5287134,30.2073529 C23.229707,30.2073529 22.9783949,30.2073529 22.6806115,30.2388529 L22.6806115,28.2092647 C23.1043567,28.1617059 23.4969172,28.1617059 23.9677452,28.1308235 C25.1607134,28.1308235 26.1647389,28.3519412 26.9969427,28.7490882 C27.9538854,29.2728529 28.518879,30.0652941 28.7078217,31.2221471 C28.8802548,32.1585 28.7860892,33.2041765 28.518879,34.4407059 C28.300586,35.6772353 27.8762293,36.7395882 27.2641529,37.6117059 C26.5102166,38.7216176 25.5838471,39.4825588 24.4061656,39.8797059 C23.8882548,40.1008235 23.3238726,40.2268235 22.68,40.3065 L22.68,38.2305882 L22.68,38.2305882 Z M22.6641019,38.2460294 C22.6641019,38.2305882 22.6641019,38.2305882 22.6793885,38.2305882 L22.6793885,40.3065 L22.6641019,40.3213235 C22.3027261,40.3534412 21.9572484,40.3534412 21.5659108,40.3534412 C20.2469809,40.3534412 19.1163822,40.1008235 18.237707,39.6091765 C17.4837707,39.1657059 16.9652484,38.4992647 16.6998726,37.6117059 C16.4797452,36.6920294 16.4797452,35.5821176 16.7463439,34.2974118 C17.2330701,32.0145882 18.1435414,30.3821471 19.5089427,29.4136765 C20.3411465,28.7805882 21.3928662,28.3840588 22.6641019,28.2092647 L22.6793885,28.2092647 L22.6793885,30.2388529 C22.6641019,30.2388529 22.6641019,30.2388529 22.6641019,30.2549118 C21.9107771,30.4297059 21.2516178,30.7792941 20.7801783,31.3493824 C20.2463694,31.9349118 19.8544204,32.9027647 19.5872102,34.2189706 C19.2882038,35.6302941 19.3346752,36.6914118 19.6807643,37.3584706 C20.0268535,38.0236765 20.7795669,38.3250882 21.8312866,38.3250882 C22.1309045,38.3250882 22.3968917,38.3250882 22.6641019,38.2460294 L22.6641019,38.2460294 Z" id="Shape" fill="#FFFFFF" sketch:type="MSShapeGroup"></path>
        </g>
    </g>
</svg>