<?xml version="1.0" encoding="UTF-8" standalone="no"?>
<svg width="102px" height="68px" viewBox="0 0 102 68" version="1.1" xmlns="http://www.w3.org/2000/svg" xmlns:xlink="http://www.w3.org/1999/xlink" xmlns:sketch="http://www.bohemiancoding.com/sketch/ns">
    <!-- Generator: Sketch 3.0.4 (8054) - http://www.bohemiancoding.com/sketch -->
    <title>Artboard 1</title>
    <desc>Created with Sketch.</desc>
    <defs></defs>
    <g id="Page-1" stroke="none" stroke-width="1" fill="none" fill-rule="evenodd" sketch:type="MSPage">
        <g id="Artboard-1" sketch:type="MSArtboardGroup" fill="#FFFFFF">
            <g id="treinaweb" sketch:type="MSLayerGroup" transform="translate(6.000000, 14.000000)">
                <g id="Group" sketch:type="MSShapeGroup">
                    <g transform="translate(1.121150, 0.000000)" id="Shape">
                        <path d="M23.8823614,24.909108 L19.3275031,14.8131455 C18.7985072,13.6294836 18.1198378,13.0679812 16.8148193,13.0679812 C15.4529959,13.0679812 14.8315051,13.6922066 14.2756016,14.8131455 L9.47016632,24.909108 L4.63109651,13.538216 L-0.0500780287,13.538216 L6.67906366,29.2067606 C7.11108008,30.2369953 7.7641499,30.8916432 9.16091581,30.8916432 C10.3971704,30.8916432 11.236538,30.2375587 11.7328337,29.2067606 L16.7223244,18.8046948 L21.4688994,29.2067606 C21.9308131,30.1769014 22.7673778,30.8916432 23.977846,30.8916432 C25.2178378,30.8916432 26.0848604,30.1769014 26.5187454,29.2067606 L33.5550821,13.538216 L28.9690185,13.538216 L23.8823614,24.909108 L23.8823614,24.909108 Z"></path>
                        <path d="M47.4420185,26.9040376 L41.9870637,26.9040376 C39.8146489,26.9040376 39.1968953,26.5288263 39.1968953,24.4730516 L39.1968953,23.6938967 L56.4640986,23.6938967 L56.4640986,18.149108 C56.4640986,15.4677934 55.1319856,13.538216 50.326924,13.538216 L42.2038193,13.538216 C36.2837741,13.538216 34.5783183,15.1885446 34.5783183,20.1104225 L34.5783183,24.0067606 C34.5783183,28.4925822 36.6543142,30.4247887 41.9868768,30.4247887 L47.4418316,30.4247887 L47.4418316,26.9040376 L47.4420185,26.9040376 Z M39.1965216,19.7994366 C39.1965216,17.3725822 39.9372279,17.1183099 42.2671643,17.1183099 L49.9535811,17.1183099 C51.347731,17.1183099 51.8451478,17.4007512 51.8451478,18.5228169 L51.8451478,20.7019718 L39.1965216,20.7019718 L39.1965216,19.7994366 L39.1965216,19.7994366 Z"></path>
                        <path d="M27.6922156,2.44413146 L28.4968275,2.44413146 C29.123924,2.44413146 29.3535729,2.21596244 29.3535729,1.68300469 L29.3535729,0.724507042 C29.3535729,0.194553991 29.123924,-0.0184037559 28.4968275,-0.0184037559 L27.6922156,-0.0184037559 C27.0817495,-0.0184037559 26.8522875,0.194366197 26.8522875,0.724507042 L26.8522875,1.68300469 C26.8524743,2.21577465 27.0819363,2.44413146 27.6922156,2.44413146 L27.6922156,2.44413146 Z"></path>
                        <path d="M85.4103203,2.13971831 L64.338308,2.13971831 L60.9311335,2.13971831 L65.572694,6.53502347 L85.4103203,6.53502347 L85.4103203,35.6246009 L56.7524209,35.6246009 L53.4177474,40.0184038 L89.7811232,40.0184038 L89.7811232,38.6846948 L89.7811232,35.6246009 L89.7811232,6.53502347 L89.7811232,2.13971831 L85.4103203,2.13971831 Z"></path>
                    </g>
                    <g transform="translate(0.000000, 0.375587)">
                        <path d="M1.16188501,11.5500469 L3.66186242,11.5500469 L3.66186242,4.58685446 L6.47744353,4.58685446 L6.47744353,2.58478873 L3.66186242,2.58478873 L3.66186242,0.0514553991 L1.16188501,0.0514553991 L1.16188501,2.58478873 L-0.0891314168,2.58478873 L-0.0891314168,4.58685446 L1.16188501,4.58685446 L1.16188501,11.5500469 Z" id="Shape"></path>
                        <path d="M10.1125852,6.37220657 C10.1125852,4.94798122 10.5436674,4.58685446 11.9077331,4.58685446 L13.4388501,4.58685446 L13.4388501,2.58478873 L11.8425195,2.58478873 C8.83017659,2.58478873 7.66025667,3.67474178 7.66025667,6.35342723 L7.66025667,11.5498592 L10.1123984,11.5498592 L10.1125852,6.37220657 L10.1125852,6.37220657 Z" id="Shape"></path>
                        <rect id="Rectangle-path" x="28.0287474" y="2.81690141" width="2.50128542" height="8.73633803"></rect>
                        <path d="M39.4792382,4.70309859 C41.0583778,4.70309859 41.4711478,5.06647887 41.4711478,6.55098592 L41.4711478,11.5500469 L43.922729,11.5500469 L43.922729,6.46910798 C43.922729,3.60920188 42.9544292,2.58478873 39.6279774,2.58478873 L36.6445975,2.58478873 C33.3390739,2.58478873 32.3655421,3.60920188 32.3655421,6.46910798 L32.3655421,11.5500469 L34.8186181,11.5500469 L34.8186181,6.55098592 C34.8186181,5.06647887 35.2646489,4.70309859 36.8109014,4.70309859 L39.4792382,4.70309859 L39.4792382,4.70309859 Z" id="Shape"></path>
                        <path d="M48.8597125,11.5500469 L53.68346,11.5500469 C56.8443552,11.5500469 57.7487495,10.6726761 57.7487495,8.07605634 L57.7487495,5.89239437 C57.7487495,3.60920188 56.6290945,2.58478873 53.7845503,2.58478873 L51.3473573,2.58478873 L51.3473573,4.33971831 L53.7845503,4.33971831 C54.8688891,4.33971831 55.2962341,4.63474178 55.2962341,5.77652582 L55.2962341,5.97408451 L48.6962115,5.97408451 C46.2255708,5.97408451 45.6022115,6.83549296 45.6022115,8.33915493 L45.6022115,9.18460094 C45.6025852,10.6413146 46.2919055,11.5500469 48.8597125,11.5500469 L48.8597125,11.5500469 Z M48.0386571,8.40544601 C48.0386571,7.6942723 48.3852793,7.49652582 48.9598686,7.49652582 L55.2966078,7.49652582 L55.2966078,8.25765258 C55.2966078,9.59868545 54.803115,9.86159624 53.6524415,9.86159624 L49.0418994,9.86159624 C48.4151766,9.86159624 48.0386571,9.64901408 48.0386571,9.01633803 L48.0386571,8.40544601 L48.0386571,8.40544601 Z" id="Shape"></path>
                        <path d="M18.5088768,11.5500469 L21.4057413,11.5500469 L26.1967885,11.5500469 L26.1967885,9.68300469 L21.4057413,9.68300469 L18.5088768,9.68300469 C17.3548398,9.68300469 17.0280246,9.48262911 17.0280246,8.38948357 L17.0280246,7.97258216 L26.1967885,7.97258216 L26.1967885,5.0313615 C26.1967885,3.60920188 25.4904641,2.58478873 22.9376057,2.58478873 L18.6230472,2.58478873 C15.4799035,2.58478873 14.5749487,3.45934272 14.5749487,6.07530516 L14.5749487,8.14122066 C14.5749487,10.5261972 15.6775996,11.5500469 18.5088768,11.5500469 L18.5088768,11.5500469 Z M17.0278378,5.90910798 C17.0278378,4.61765258 17.4241643,4.48319249 18.6591109,4.48319249 L22.7400965,4.48319249 C23.4789343,4.48319249 23.7438994,4.63474178 23.7438994,5.22910798 L23.7438994,6.38760563 L17.0278378,6.38760563 L17.0278378,5.90910798 L17.0278378,5.90910798 Z" id="Shape"></path>
                        <rect id="Rectangle-path" x="50.825462" y="26.4788732" width="6.66859959" height="3.52075117"></rect>
                        <path d="M68.8997064,30.0492019 L74.7877988,30.0492019 C81.0524107,30.0492019 82.8793244,28.1169953 82.8793244,22.7607512 L82.8793244,20.4830047 C82.8793244,15.0922066 81.0527844,13.1626291 74.7877988,13.1626291 L65.4598316,13.1626291 L65.4598316,7.18328638 L60.838078,2.81107981 L60.838078,6.15943662 L60.838078,22.7607512 C60.8377043,28.1169953 62.6664867,30.0492019 68.8997064,30.0492019 L68.8997064,30.0492019 Z M74.6330801,17.1504225 C77.5476961,17.1504225 78.2614949,17.7109859 78.2614949,20.6401878 L78.2614949,22.6347418 C78.2614949,25.4384977 77.5476961,26.1237559 74.6330801,26.1237559 L69.0544251,26.1237559 C66.139809,26.1237559 65.4598316,25.4384977 65.4598316,22.6657277 L65.4598316,22.5541784 L72.432076,22.5541784 L72.432076,20.0339906 L65.4598316,20.0339906 L65.4598316,17.1504225 L74.6330801,17.1504225 L74.6330801,17.1504225 Z" id="Shape"></path>
                        <path d="M5.56464066,36.839061 L5.56464066,37.8858216 C5.56464066,38.7297653 5.85221561,39.0323005 6.83191376,39.0323005 L9.13755852,39.0323005 L9.13755852,38.3953052 L6.87040657,38.3953052 C6.41353799,38.3953052 6.30030185,38.2730516 6.30030185,37.8561502 L6.30030185,36.8768075 C6.30030185,36.4659155 6.41353799,36.3322066 6.86554825,36.3322066 L9.13755852,36.3322066 L9.13755852,35.6920188 L6.83191376,35.6920188 C5.85202875,35.6922066 5.56464066,35.995493 5.56464066,36.839061 L5.56464066,36.839061 Z" id="Shape"></path>
                        <path d="M16.5221992,37.8565258 C16.5221992,38.2732394 16.3717782,38.3956808 15.927616,38.3956808 L14.8115113,38.3956808 C14.3688439,38.3956808 14.2174887,38.2732394 14.2174887,37.8619718 L14.2174887,35.6920188 L13.4721109,35.6920188 L13.4721109,37.8858216 C13.4721109,38.7297653 13.7591253,39.0323005 14.7391971,39.0323005 L15.9864764,39.0323005 C16.9710329,39.0323005 17.2593552,38.7297653 17.2593552,37.8858216 L17.2593552,35.6920188 L16.5220123,35.6920188 L16.5221992,37.8565258 L16.5221992,37.8565258 Z" id="Shape"></path>
                        <path d="M24.2740164,37.9012207 C25.1810267,37.9012207 25.5949179,37.7006573 25.5949179,36.9267606 L25.5949179,36.6959624 C25.5949179,35.8923944 25.2150349,35.6922066 24.2842936,35.6922066 L21.6807967,35.6922066 L21.6807967,39.0324883 L22.4183265,39.0324883 L22.4183265,37.8176526 L24.361653,39.0324883 L25.6384559,39.0324883 L23.6891499,37.9015962 L24.2740164,37.9012207 L24.2740164,37.9012207 Z M22.4183265,36.3192488 L24.2351499,36.3192488 C24.7228501,36.3192488 24.8542115,36.3780282 24.8542115,36.7352113 L24.8542115,36.9168075 C24.8542115,37.2796244 24.7131335,37.3378404 24.2351499,37.3378404 L22.4183265,37.3378404 L22.4183265,36.3192488 L22.4183265,36.3192488 Z" id="Shape"></path>
                        <path d="M32.4496283,37.0537089 L30.8957146,37.0537089 C30.6561622,37.0537089 30.5683388,36.9748357 30.5683388,36.766385 L30.5683388,36.6565258 C30.5683388,36.3919249 30.6761561,36.3239437 30.8998255,36.3239437 L31.8651355,36.3239437 L31.8651355,35.6925822 L30.8314353,35.6925822 C30.1637906,35.6925822 29.8907906,35.94723 29.8907906,36.6330516 L29.8907906,36.8 C29.8907906,37.3722066 30.0858706,37.6476995 30.8314353,37.6476995 L32.415807,37.6476995 C32.6736715,37.6476995 32.7861602,37.7250704 32.7861602,37.9359624 L32.7861602,38.1171831 C32.7861602,38.3419718 32.6734846,38.4011268 32.4111355,38.4011268 L29.8864928,38.4011268 L29.8864928,39.0330516 L32.4494415,39.0330516 C33.1894004,39.0330516 33.4625873,38.78723 33.4625873,38.1656338 L33.4625873,37.9021596 C33.4627741,37.2997183 33.1895873,37.0537089 32.4496283,37.0537089 L32.4496283,37.0537089 Z" id="Shape"></path>
                        <path d="M40.3036571,35.6922066 L39.0404949,35.6922066 C38.061731,35.6922066 37.7739692,35.995493 37.7739692,36.839061 L37.7739692,37.8858216 C37.7739692,38.7297653 38.061731,39.0323005 39.0404949,39.0323005 L40.3036571,39.0323005 C41.2880267,39.0323005 41.5754148,38.7297653 41.5754148,37.8858216 L41.5754148,36.839061 C41.5754148,35.995493 41.2878398,35.6922066 40.3036571,35.6922066 L40.3036571,35.6922066 Z M40.8341478,37.8565258 C40.8341478,38.2933333 40.7076448,38.3956808 40.2741335,38.3956808 L39.0746899,38.3956808 C38.6067967,38.3956808 38.5098172,38.2933333 38.5098172,37.8565258 L38.5098172,36.8724883 C38.5098172,36.4557746 38.6067967,36.3325822 39.0746899,36.3325822 L40.2741335,36.3325822 C40.7076448,36.3325822 40.8341478,36.4557746 40.8341478,36.8724883 L40.8341478,37.8565258 L40.8341478,37.8565258 Z" id="Shape"></path>
                        <path d="M48.4637598,37.0537089 L46.9094723,37.0537089 C46.6708542,37.0537089 46.5824702,36.9748357 46.5824702,36.766385 L46.5824702,36.6565258 C46.5824702,36.3919249 46.6889795,36.3239437 46.9145175,36.3239437 L47.8787064,36.3239437 L47.8787064,35.6925822 L46.8463142,35.6925822 C46.1781088,35.6925822 45.9051088,35.94723 45.9051088,36.6330516 L45.9051088,36.8 C45.9051088,37.3722066 46.1007495,37.6476995 46.8463142,37.6476995 L48.4299384,37.6476995 C48.6887372,37.6476995 48.801039,37.7250704 48.801039,37.9359624 L48.801039,38.1171831 C48.801039,38.3419718 48.6885503,38.4011268 48.4254538,38.4011268 L45.9002505,38.4011268 L45.9002505,39.0330516 L48.4637598,39.0330516 C49.2050267,39.0330516 49.4780267,38.78723 49.4780267,38.1656338 L49.4780267,37.9021596 C49.4780267,37.2997183 49.2050267,37.0537089 48.4637598,37.0537089 L48.4637598,37.0537089 Z" id="Shape"></path>
                    </g>
                </g>
            </g>
        </g>
    </g>
</svg>