<?xml version="1.0" encoding="utf-8"?>
<!-- Generator: Adobe Illustrator 15.0.0, SVG Export Plug-In . SVG Version: 6.00 Build 0)  -->
<!DOCTYPE svg PUBLIC "-//W3C//DTD SVG 1.1//EN" "http://www.w3.org/Graphics/SVG/1.1/DTD/svg11.dtd">
<svg version="1.1" id="Camada_1" xmlns="http://www.w3.org/2000/svg" xmlns:xlink="http://www.w3.org/1999/xlink" x="0px" y="0px"
	 width="500px" height="219px" viewBox="0 0 500 219" enable-background="new 0 0 500 219" xml:space="preserve">
<g>
	<g>
		<path fill="#FFFFFF" d="M140.81,135.641L116.434,81.88c-2.831-6.303-6.463-9.293-13.447-9.293c-7.288,0-10.614,3.324-13.589,9.293
			l-25.717,53.761l-25.897-60.55H12.732l36.012,83.435c2.312,5.486,5.807,8.972,13.282,8.972c6.616,0,11.108-3.483,13.764-8.972
			l26.702-55.391l25.402,55.391c2.472,5.166,6.949,8.972,13.427,8.972c6.636,0,11.276-3.806,13.598-8.972l37.656-83.435h-24.543
			L140.81,135.641z"/>
		<path fill="#FFFFFF" d="M266.893,146.264h-29.193c-11.626,0-14.932-1.998-14.932-12.945v-4.149h92.408V99.644
			c0-14.278-7.129-24.553-32.844-24.553H238.86c-31.682,0-40.809,8.788-40.809,34.997v20.748c0,23.887,11.11,34.176,39.648,34.176
			h29.193V146.264z M222.766,108.432c0-12.923,3.964-14.277,16.433-14.277h41.135c7.461,0,10.123,1.504,10.123,7.479v11.604h-67.691
			V108.432L222.766,108.432z"/>
		<path fill="#FFFFFF" d="M161.199,16.015h4.306c3.356,0,4.585-1.215,4.585-4.053V6.858c0-2.822-1.229-3.956-4.585-3.956h-4.306
			c-3.267,0-4.495,1.133-4.495,3.956v5.104C156.705,14.799,157.933,16.015,161.199,16.015z"/>
		<polygon fill="#FFFFFF" points="470.086,14.394 357.316,14.394 339.082,14.394 363.922,37.799 470.086,37.799 470.086,192.701 
			316.719,192.701 298.873,216.098 493.477,216.098 493.477,208.996 493.477,192.701 493.477,37.799 493.477,14.394 		"/>
	</g>
	<g>
		<polygon fill="#FFFFFF" points="13.218,66.504 26.597,66.504 26.597,29.425 41.665,29.425 41.665,18.764 26.597,18.764 
			26.597,5.274 13.218,5.274 13.218,18.764 6.523,18.764 6.523,29.425 13.218,29.425 		"/>
		<path fill="#FFFFFF" d="M61.119,38.932c0-7.584,2.307-9.507,9.607-9.507h8.194V18.764h-8.543
			c-16.121,0-22.382,5.804-22.382,20.068v27.671h13.123L61.119,38.932L61.119,38.932z"/>
		<rect x="156.705" y="19.982" fill="#FFFFFF" width="13.386" height="46.521"/>
		<path fill="#FFFFFF" d="M218.279,30.044c8.451,0,10.66,1.935,10.66,9.84v26.62h13.12V39.448c0-15.229-5.182-20.684-22.984-20.684
			h-15.966c-17.69,0-22.9,5.455-22.9,20.684v27.056h13.128v-26.62c0-7.905,2.387-9.84,10.662-9.84H218.279z"/>
		<path fill="#FFFFFF" d="M268.48,66.504h25.815c16.916,0,21.756-4.672,21.756-18.499V36.377c0-12.158-5.992-17.613-21.215-17.613
			h-13.043v9.345h13.043c5.803,0,8.09,1.571,8.09,7.651v1.052h-35.321c-13.222,0-16.558,4.587-16.558,12.594v4.502
			C251.049,61.665,254.738,66.504,268.48,66.504z M264.086,49.759c0-3.787,1.855-4.84,4.93-4.84h33.912v4.053
			c0,7.141-2.641,8.541-8.799,8.541h-24.674c-3.354,0-5.369-1.132-5.369-4.501V49.759L264.086,49.759z"/>
		<path fill="#FFFFFF" d="M106.053,66.504h15.503h25.64v-9.942h-25.64h-15.503c-6.176,0-7.925-1.067-7.925-6.888v-2.22h49.068
			V31.792c0-7.573-3.78-13.028-17.442-13.028h-23.09C89.843,18.764,85,23.421,85,37.351v11.001
			C85,61.052,90.901,66.504,106.053,66.504z M98.127,36.466c0-6.877,2.121-7.593,8.73-7.593h21.84c3.954,0,5.372,0.807,5.372,3.972
			v6.169H98.127V36.466z"/>
		<rect x="279.484" y="146.264" fill="#FFFFFF" width="35.688" height="18.748"/>
		<path fill="#FFFFFF" d="M375.727,165.012h31.511c33.526,0,43.303-10.289,43.303-38.811v-12.129
			c0-28.706-9.775-38.981-43.303-38.981h-49.92v-31.84l-24.734-23.282v17.83v88.402
			C332.582,154.723,342.369,165.012,375.727,165.012z M406.41,96.326c15.598,0,19.418,2.985,19.418,18.583v10.621
			c0,14.93-3.82,18.579-19.418,18.579h-29.855c-15.598,0-19.237-3.649-19.237-18.414v-0.594h37.313v-13.42h-37.313V96.326H406.41z"
			/>
		<path fill="#FFFFFF" d="M36.78,201.168v5.574c0,4.494,1.539,6.105,6.782,6.105h12.339v-3.392H43.768
			c-2.445,0-3.051-0.651-3.051-2.871v-5.215c0-2.188,0.606-2.9,3.025-2.9h12.159v-3.409H43.562
			C38.318,195.061,36.78,196.676,36.78,201.168z"/>
		<path fill="#FFFFFF" d="M95.421,206.586c0,2.219-0.805,2.871-3.182,2.871h-5.973c-2.369,0-3.179-0.652-3.179-2.842v-11.555h-3.989
			v11.682c0,4.494,1.536,6.105,6.781,6.105h6.675c5.269,0,6.812-1.611,6.812-6.105v-11.682H95.42L95.421,206.586L95.421,206.586z"/>
		<path fill="#FFFFFF" d="M136.906,206.824c4.854,0,7.069-1.068,7.069-5.189v-1.229c0-4.279-2.033-5.345-7.014-5.345h-13.933v17.787
			h3.947v-6.469l10.4,6.469h6.833l-10.432-6.022L136.906,206.824L136.906,206.824z M126.975,198.4h9.723
			c2.61,0,3.313,0.313,3.313,2.215v0.967c0,1.932-0.755,2.242-3.313,2.242h-9.723V198.4z"/>
		<path fill="#FFFFFF" d="M180.659,202.311h-8.316c-1.282,0-1.752-0.42-1.752-1.53v-0.585c0-1.409,0.577-1.771,1.774-1.771h5.166
			v-3.362h-5.532c-3.573,0-5.034,1.356-5.034,5.008v0.889c0,3.047,1.044,4.514,5.034,4.514h8.479c1.38,0,1.982,0.412,1.982,1.535
			v0.965c0,1.197-0.603,1.512-2.007,1.512h-13.511v3.365h13.716c3.96,0,5.422-1.309,5.422-4.619v-1.403
			C186.081,203.621,184.619,202.311,180.659,202.311z"/>
		<path fill="#FFFFFF" d="M222.691,195.061h-6.76c-5.238,0-6.778,1.615-6.778,6.107v5.574c0,4.494,1.54,6.105,6.778,6.105h6.76
			c5.268,0,6.806-1.611,6.806-6.105v-5.574C229.497,196.676,227.958,195.061,222.691,195.061z M225.53,206.586
			c0,2.326-0.677,2.871-2.997,2.871h-6.419c-2.504,0-3.023-0.545-3.023-2.871v-5.24c0-2.219,0.519-2.875,3.023-2.875h6.419
			c2.32,0,2.997,0.656,2.997,2.875V206.586z"/>
		<path fill="#FFFFFF" d="M266.361,202.311h-8.318c-1.277,0-1.75-0.42-1.75-1.53v-0.585c0-1.409,0.57-1.771,1.777-1.771h5.16v-3.362
			h-5.525c-3.576,0-5.037,1.356-5.037,5.008v0.889c0,3.047,1.047,4.514,5.037,4.514h8.475c1.385,0,1.986,0.412,1.986,1.535v0.965
			c0,1.197-0.602,1.512-2.01,1.512h-13.514v3.365h13.719c3.967,0,5.428-1.309,5.428-4.619v-1.403
			C271.789,203.621,270.328,202.311,266.361,202.311z"/>
	</g>
</g>
</svg>
