<?xml version="1.0" standalone="no"?>
<!-- Generator: Adobe Fireworks CS5, Export SVG Extension by Aaron Beall (http://fireworks.abeall.com) . Version: 0.6.1  -->
<!DOCTYPE svg PUBLIC "-//W3C//DTD SVG 1.1//EN" "http://www.w3.org/Graphics/SVG/1.1/DTD/svg11.dtd">
<svg id="Untitled-Page%201" viewBox="0 0 110 110" style="background-color:#ffffff00" version="1.1"
	xmlns="http://www.w3.org/2000/svg" xmlns:xlink="http://www.w3.org/1999/xlink" xml:space="preserve"
	x="0px" y="0px" width="110px" height="110px"
>
	<g id="Layer%201">
		<g>
			<path d="M 45.4434 32.575 L 55.0308 34.8203 L 56.2985 28.9661 L 61.1319 30.0088 L 59.7849 36.0234 L 70.4817 38.189 C 70.4817 38.189 71.7493 39.071 71.4324 40.8357 C 71.1155 42.5999 63.3505 77.4048 63.3505 77.4048 C 63.3505 77.4048 63.5881 78.3677 61.2112 78.1274 L 36.2521 72.5928 C 36.2521 72.5928 34.6674 72.5928 35.0635 69.9468 L 43.1456 34.0986 C 43.1456 34.0986 42.9078 31.9338 45.4434 32.575 Z" fill="#ffffff"/>
			<path d="M 75.4734 46.8462 C 73.8387 43.3745 70.3547 39.6565 63.4111 35.9502 L 63.4539 36.0215 C 61.6015 34.5769 57.6613 31.3147 59.1912 27.7659 C 59.1912 27.7659 60.3517 28.1499 61.25 28.8047 C 63.2309 30.2483 64.2426 32.3779 65.3676 33.9985 C 67.4278 36.9658 72.2715 37.3311 74.0146 41.5811 C 74.5316 42.8418 75.5279 44.7615 75.5543 46.2773 L 75.4734 46.8462 ZM 71.48 64.894 L 71.5798 64.7896 C 72.7512 61.2192 73.9457 58.7236 74.7603 56.8237 C 75.0928 56.0479 75.3914 54.3936 75.6541 53.5527 C 75.6541 53.5527 74.1587 62.0566 71.5798 64.7896 L 71.5454 64.894 L 71.48 64.894 ZM 69.4512 66.8896 L 69.5082 66.7202 C 68.4643 67.5811 67.4683 68.2573 66.6784 68.7437 C 62.6374 71.23 57.804 75.8013 56.6948 77.6455 C 55.5854 79.4902 54.6346 83.5005 60.0226 84.8638 C 65.4106 86.2266 68.1046 76.9243 68.1046 76.9243 C 68.5759 74.6743 69.5195 71.3247 70.5886 67.8892 L 70.894 67.3164 C 73.3205 65.1641 75.5343 61.9536 76.1865 58.3979 C 76.6077 56.1035 77.1155 53.6729 76.6002 50.5085 L 76.7797 48.604 C 77.0448 46.7739 77.0522 45.4016 76.8997 44.4441 C 76.5035 41.958 74.4434 38.189 72.304 36.9055 C 70.1647 35.6223 66.6784 33.6172 65.8068 32.0134 C 65.1566 30.8171 63.509 27.9236 61.6865 26.6404 C 59.8641 25.3569 57.6456 26.3994 57.6456 26.3994 L 57.7097 26.5073 C 57.249 26.8352 56.1144 27.9812 57.4079 30.7307 C 58.9926 34.0986 59.6264 36.585 67.233 39.9531 C 67.233 39.9531 72.2249 43.8826 73.8095 47.0908 C 75.0258 49.5532 74.9893 49.4976 75.0575 49.7971 C 75.0575 49.7971 74.847 51.873 74.7603 52.1426 C 74.0269 54.4272 71.2883 61.418 69.5082 66.7202 L 69.6164 66.6299 L 69.4512 66.8896 ZM 60.0146 83.1299 C 54.1554 80.5688 62.3205 73.585 66.4407 71.2593 C 67.1527 70.8564 66.7186 70.9399 67.4265 70.4575 C 67.4265 70.4575 66.1912 85.8306 60.0146 83.1299 Z" fill="#fcfcfc"/>
		</g>
	</g>
</svg>