<?xml version="1.0" encoding="UTF-8" standalone="no"?>

<svg width="192px" height="128px" viewBox="0 0 192 128" version="1.1" xmlns="http://www.w3.org/2000/svg" xmlns:xlink="http://www.w3.org/1999/xlink" xmlns:sketch="http://www.bohemiancoding.com/sketch/ns">
    <!-- Generator: Sketch 3.0.4 (8054) - http://www.bohemiancoding.com/sketch -->
    <title>Artboard 1</title>
    <desc>Created with Sketch.</desc>
    <defs></defs>
    <g id="Page-1" stroke="none" stroke-width="1" fill="none" fill-rule="evenodd" sketch:type="MSPage">
        <g id="Artboard-1" sketch:type="MSArtboardGroup" fill="#FFFFFF">
            <path d="M10.1333333,36 C6.74275,36 4,38.71928 4,42.08 L4,67.92 C4,71.2811 6.74275,74 10.1333333,74 L36.2,74 C39.5902,74 42.3333333,71.2811 42.3333333,67.92 L42.3333333,42.08 C42.3333333,38.7189 39.5902,36 36.2,36 L10.1333333,36 Z M121.683333,36 C120.378467,36 119.766667,36.33554 119.766667,36.9975 L119.766667,63.96572 C119.766667,66.28486 120.3639,67.90442 121.563733,68.8225 C122.763183,69.74134 124.129383,70.2 125.648533,70.2 C127.864967,70.2 128.966667,69.7497 128.966667,68.84606 C128.966667,68.54548 128.873517,68.12102 128.69105,67.56356 C128.508583,67.00648 128.28165,66.72034 128.008333,66.72034 C127.947383,66.72034 127.738083,66.76404 127.373533,66.83928 C127.008983,66.9149 126.571983,66.94606 126.055633,66.94606 C124.415733,66.94606 123.6,65.83798 123.6,63.60928 L123.6,36.9975 C123.6,36.33554 122.987817,36 121.683333,36 L121.683333,36 Z M11.4631167,39.8 L12.42145,42.27 L15.0929,42.4125 L13.0206,44.08678 L13.7033167,46.64 L11.4631167,45.20322 L9.22291667,46.64 L9.90563333,44.08678 L7.83333333,42.4125 L10.5047833,42.27 L11.4631167,39.8 Z M35.1699833,39.8 C37.42475,39.8 38.5,41.02132 38.5,43.25572 L38.5,66.74466 C38.5,68.97906 37.4255167,70.2 35.1699833,70.2 L11.475,70.2 C9.22061667,70.2 7.83333333,68.97906 7.83333333,66.74466 C7.87473333,53.01868 20.7808,39.7582 35.1699833,39.80038 L35.1699833,39.8 Z M60.02685,46.03428 C57.1411167,46.03428 54.7004333,46.83684 52.6956,48.43322 C51.6322333,49.30722 50.79005,50.56008 50.1679,52.18572 C49.5453667,53.81174 49.2333333,55.74632 49.2333333,58.00466 C49.2333333,62.28042 50.15985,65.38768 52.0125,67.31466 C53.8647667,69.24164 56.6795833,70.2 60.4458333,70.2 C62.35905,70.2 64.0254,69.9492 65.4533167,69.45216 C66.8804667,68.9555 67.5976833,68.43832 67.5976833,67.89644 C67.5976833,67.53506 67.4113833,67.05854 67.04645,66.47144 C66.6819,65.88396 66.3434167,65.5925 66.0402,65.5925 C66.0095333,65.5925 65.9428333,65.61872 65.83665,65.66394 C65.7300833,65.70878 65.6403833,65.74108 65.54915,65.77072 C63.9698167,66.5539 62.2505667,66.94644 60.3979167,66.94644 C57.84645,66.94644 56.0252333,66.23622 54.9473,64.82072 C53.8686,63.40598 53.0666667,61.11344 53.0666667,57.92144 C53.0666667,52.1709 55.5380167,49.28822 59.9429,49.28822 C61.6130833,49.28822 63.2621833,49.64656 64.9024667,50.36894 C64.9630333,50.39972 65.02475,50.4248 65.0703667,50.44038 L65.25015,50.51182 C65.3256667,50.54222 65.3751167,50.55932 65.4057833,50.55932 C65.6791,50.55932 65.9899833,50.25038 66.34035,49.63288 C66.6891833,49.01576 66.8674333,48.50428 66.8674333,48.11288 C66.8674333,47.571 66.16785,47.0979 64.7709833,46.6761 C63.37335,46.25506 61.7882667,46.03466 60.0272333,46.03466 L60.02685,46.03428 Z M82.1524667,46.03428 C79.66195,46.03428 77.5325333,46.36032 75.7554,47.00822 C73.9782667,47.65574 73.08395,48.30022 73.08395,48.93216 C73.08395,49.23274 73.2783,49.68304 73.65895,50.2861 C74.0380667,50.88878 74.3727167,51.1886 74.6770833,51.1886 C74.73765,51.1886 75.0933833,51.02102 75.73125,50.68966 C77.5835167,49.75676 79.6056,49.28822 81.7929,49.28822 C85.13365,49.28822 86.8,50.54754 86.8,53.07644 L86.8,55.20216 C84.1576833,55.26258 81.7982667,55.4218 79.7324833,55.67716 C77.6667,55.93366 75.8178833,56.66136 74.1622667,57.85038 C72.50665,59.04016 71.6706,60.8159 71.6706,63.19432 C71.6706,65.5735 72.38705,67.3348 73.8149667,68.4786 C75.2421167,69.62392 77.1304167,70.20038 79.4691333,70.20038 C82.3518,70.20038 84.7921,69.18388 86.8,67.1486 L86.8,69.20288 C86.8,69.86484 87.4118,70.20266 88.7166667,70.2 C90.0215333,70.19734 90.6337167,69.86522 90.6333333,69.20288 L90.6333333,53.12394 C90.6337167,50.89562 89.8409833,49.16016 88.26165,47.91072 C86.6819333,46.66166 84.6426,46.03428 82.1520833,46.03428 L82.1524667,46.03428 Z M105.955167,46.03428 C102.643933,46.03428 100.092083,47.08004 98.3003833,49.1575 C96.5079167,51.23496 95.6166667,54.28218 95.6166667,58.30144 C95.6166667,62.3207 96.5259333,65.31016 98.3483,67.26716 C100.170667,69.22492 102.984717,70.19962 106.781633,70.2 C108.937883,70.2 110.839983,69.8656 112.4956,69.20288 C114.150833,68.54092 114.975383,67.91734 114.975383,67.31466 C114.975383,67.0137 114.791767,66.55162 114.412267,65.94894 C114.032,65.34702 113.685083,65.04644 113.381867,65.04644 C113.320533,65.04644 113.000067,65.1973 112.423533,65.49788 C110.6924,66.46194 108.79835,66.94682 106.733333,66.94682 C104.485083,66.94682 102.801483,66.36352 101.677933,65.18932 C100.553617,64.01512 99.8958167,62.44002 99.71335,59.94 L114.1125,59.94 C115.176633,59.59496 115.5615,58.94212 115.622067,57.82644 C115.622067,49.96804 112.393633,46.03466 105.954783,46.03466 L105.955167,46.03428 Z M133.950383,46.18856 C132.645517,46.18856 132.033333,46.52448 132.033333,47.18606 L132.033333,62.86106 C132.033333,65.15018 133.07255,66.93504 134.393517,68.22856 C135.714867,69.52398 137.637667,70.17606 140.143517,70.17606 C142.524783,70.17606 144.644233,69.1512 146.6,67.11212 L146.6,69.20212 C146.6,69.8637 147.2578,70.2 148.528933,70.2 C149.800067,70.2 150.433333,69.90322 150.433333,69.3089 L150.433333,47.18568 C150.433333,46.5241 149.84645,46.18818 148.540817,46.18818 C147.235567,46.18818 146.6,46.5241 146.6,47.18568 L146.6,63.71568 C144.9601,65.8243 143.07295,66.87462 140.886033,66.87462 C139.39755,66.87462 138.25215,66.49044 137.447917,65.72284 C136.642917,64.95486 135.866667,63.8787 135.866667,62.49284 L135.866667,47.18606 C135.866667,46.52448 135.254867,46.18856 133.95,46.18856 L133.950383,46.18856 Z M158.483333,46.22428 C157.178467,46.22428 156.566667,46.54766 156.566667,47.21 L156.566667,69.2025 C156.566667,69.86522 157.178083,70.2 158.483333,70.2 C159.788583,70.2 160.400383,69.8656 160.4,69.2025 L160.4,52.63678 L161.0831,51.865 C161.508217,51.32312 162.180967,50.79834 163.107483,50.28572 C164.034383,49.77424 165.0943,49.51394 166.294133,49.51394 C167.493583,49.51394 168.461117,49.90648 169.205167,50.68966 C169.948833,51.47322 170.366667,52.54026 170.366667,53.8961 L170.366667,69.20288 C170.366667,69.8656 170.978083,70.2 172.283333,70.2 C173.588583,70.2 174.2,69.86598 174.2,69.20288 C174.15515,63.6982 174.260567,58.11448 174.2,52.63716 C176.052267,50.56008 177.826717,49.51394 179.7108,49.51394 C181.13795,49.51394 182.223933,49.90648 182.969133,50.68966 C183.7128,51.47322 184.166667,52.54026 184.166667,53.8961 L184.166667,69.20288 C184.166667,69.8656 184.688767,70.2 185.999767,70.2 C187.310767,70.2 188,69.86598 188,69.20288 L188,53.53966 C188,52.0949 187.689117,50.85876 187.233717,49.83466 C186.777933,48.8117 186.160383,48.04372 185.401,47.53072 C184.034417,46.65748 182.496867,46.22428 180.764967,46.22428 C178.0617,46.22428 175.64325,47.46612 173.517667,49.965 C172.484583,47.46612 170.311467,46.22428 167.001,46.22428 C164.498983,46.22428 162.3021,47.22824 160.4,49.2525 L160.4,47.21 C160.4,46.54766 159.7882,46.22428 158.483333,46.22428 L158.483333,46.22428 Z M106.098917,49.28822 C109.74365,49.28822 111.561417,51.76278 111.561417,56.52 L99.7141167,56.52 C100.048,51.76278 102.180867,49.28822 106.098917,49.28822 L106.098917,49.28822 Z M86.8003833,58.45572 L86.8,63.7875 C85.6760667,64.78158 84.5720667,65.54918 83.4941333,66.09144 C82.4158167,66.63332 81.13625,66.89894 79.6489167,66.89894 C77.0667833,66.89894 75.77955,65.66356 75.77955,63.19394 C75.77955,61.6291 76.4024667,60.53736 77.6483,59.90466 C78.28655,59.57444 78.8918333,59.2959 79.4691333,59.08538 C80.5627833,58.66396 83.0027,58.4561 86.8,58.4561 L86.8003833,58.45572 Z M95.425,79.32 C94.9393167,79.32 94.85,79.44084 94.85,79.6525 L94.85,80.5075 C94.85,80.71916 94.9393167,80.84 95.425,80.84 C95.9106833,80.84 96,80.71916 96,80.5075 L96,79.6525 C96,79.44084 95.9106833,79.32 95.425,79.32 L95.425,79.32 Z M131.075383,79.32 C130.5897,79.32 130.5,79.44084 130.5,79.6525 L130.5,80.5075 C130.5,80.71916 130.5897,80.84 131.075383,80.84 C131.561067,80.84 131.65,80.71916 131.65,80.5075 L131.65,79.6525 C131.65,79.44084 131.561067,79.32 131.075383,79.32 L131.075383,79.32 Z M175.841433,79.47428 C175.504483,79.47428 175.172133,79.56092 174.835183,79.7475 C174.498233,79.9242 174.331867,80.10698 174.331867,80.29394 C174.331867,80.38248 174.374417,80.4828 174.463733,80.59072 C174.55305,80.68914 174.65425,80.73322 174.763117,80.73322 C174.871983,80.73322 175.013817,80.7089 175.182483,80.65 C175.350767,80.58122 175.496817,80.54322 175.625617,80.54322 C175.754417,80.54322 176.021983,80.58768 176.428317,80.68572 C176.83465,80.78414 177.205333,80.84 177.542283,80.84 C177.879233,80.84 178.211583,80.75564 178.548533,80.57856 C178.885483,80.39198 179.051467,80.19514 179.05185,80.00856 C179.05185,79.9299 179.007,79.84364 178.9081,79.73534 C178.818783,79.62742 178.7195,79.56928 178.6206,79.5689 C178.531283,79.5689 178.40785,79.6069 178.24915,79.67568 C178.100417,79.73458 177.95245,79.7589 177.79375,79.7589 C177.63505,79.7589 177.349467,79.71482 176.943133,79.6164 C176.546767,79.51836 176.178,79.4739 175.84105,79.4739 L175.841433,79.47428 Z M75.2283167,82.36 C74.1480833,82.36 73.30935,82.68034 72.7247667,83.33394 C72.1401833,83.98754 71.85,84.95046 71.85,86.21966 C71.85,87.47936 72.1424833,88.41834 72.7370333,89.03394 C73.3315833,89.64954 74.2535,89.96 75.4924333,89.96 C76.19585,89.96 76.8141667,89.86006 77.3493,89.65144 C77.8944,89.4432 78.1638833,89.23534 78.1638833,89.04572 C78.1638833,88.9511 78.1010167,88.80746 77.9722167,88.61822 C77.8533833,88.42898 77.7479667,88.345 77.6486833,88.345 C77.62875,88.345 77.5256333,88.3811 77.3370333,88.47572 C76.7723833,88.77858 76.1540667,88.93894 75.4801667,88.93894 C74.74685,88.93894 74.1937,88.75008 73.82685,88.38072 C73.4603833,88.01136 73.2510833,87.70622 73.1916667,86.92 L77.8878833,86.92 C78.2535833,86.79346 78.3153,86.43854 78.3789333,86.065 C78.3789333,83.5931 77.3289833,82.36 75.2283167,82.36 L75.2283167,82.36 Z M80.8587167,82.36 C80.43245,82.36 80.2833333,82.4588 80.2833333,82.66894 L80.2833333,89.65144 C80.2833333,89.8612 80.4320667,89.96 80.8583333,89.96 C81.2846,89.96 81.4333333,89.86158 81.4333333,89.65144 L81.4333333,84.41466 C81.9684667,83.747 82.6968,83.40538 83.4101833,83.40538 C83.8958667,83.40538 84.26655,83.52546 84.52415,83.7736 C84.7917167,84.01224 84.8833333,84.35614 84.8833333,84.79504 L84.8833333,89.65182 C84.8833333,89.86158 85.0316833,89.96 85.4583333,89.96 C85.8846,89.96 86.03295,89.86196 86.0333333,89.65182 L86.0333333,84.6761 C86.0333333,83.95106 85.9551333,83.37612 85.5189,82.9661 C85.0926333,82.55608 84.4724,82.36038 83.65015,82.36038 C82.8754333,82.36038 82.0727333,82.68376 81.4333333,83.33432 L81.4333333,82.66932 C81.4333333,82.45956 81.2846,82.36038 80.8583333,82.36 L80.8587167,82.36 Z M90.5739167,82.36 C89.8406,82.36 89.2449,82.55342 88.7891167,82.94178 C88.3333333,83.32064 88.1064,83.79868 88.1064,84.36678 C88.1064,84.93488 88.25245,85.35326 88.5495333,85.6375 C88.8466167,85.91224 89.3231,86.14632 89.9870333,86.32644 C90.6509667,86.50656 91.0987,86.69998 91.3168167,86.90822 C91.5449,87.10696 91.6522333,87.38208 91.6522333,87.75144 C91.6522333,88.1113 91.5265,88.40048 91.2689,88.61822 C91.0212667,88.82646 90.69505,88.93894 90.2986833,88.93894 C89.9122833,88.93894 89.58185,88.89372 89.3043167,88.80822 C89.0267833,88.7136 88.8178667,88.6205 88.6695167,88.535 C88.5207833,88.44038 88.4399,88.3925 88.4299333,88.3925 C88.33065,88.3925 88.2114333,88.48826 88.0826333,88.6775 C87.9638,88.86674 87.90285,89.01038 87.90285,89.105 C87.90285,89.28512 88.1619833,89.47626 88.6576333,89.675 C89.1529,89.86424 89.7348,89.96 90.4186667,89.96 C91.1025333,89.96 91.6940167,89.74492 92.1797,89.31856 C92.6749667,88.89258 92.9222167,88.35716 92.9226,87.70356 C92.9226,87.04046 92.74435,86.54114 92.4074,86.21928 C92.0804167,85.88792 91.4582667,85.59152 90.5267667,85.31678 C90.1104667,85.19366 89.8068667,85.05268 89.6282333,84.90106 C89.45995,84.74944 89.3767667,84.53702 89.3767667,84.27178 C89.3767667,84.00654 89.4963667,83.80324 89.7240667,83.6425 C89.9617333,83.47188 90.29025,83.38144 90.70655,83.38106 C91.1324333,83.38106 91.5077167,83.47188 91.8446667,83.6425 C91.9635,83.6995 92.0263667,83.72572 92.0363333,83.72572 C92.12565,83.72572 92.22685,83.62996 92.3357167,83.44072 C92.45455,83.24198 92.5155,83.07706 92.5155,82.95394 C92.5155,82.80232 92.3127167,82.66134 91.91635,82.53822 C91.5199833,82.4151 91.0799167,82.36 90.5746833,82.36 L90.5739167,82.36 Z M95.425,82.36 C94.9987333,82.36 94.85,82.46906 94.85,82.68072 L94.85,89.63966 C94.85,89.85132 94.9991167,89.96 95.425,89.96 C95.8512667,89.96 96,89.85132 96,89.63966 L96,82.68072 C96,82.46906 95.8512667,82.36 95.425,82.36 L95.425,82.36 Z M99.2591,82.36 C98.8328333,82.36 98.6833333,82.4588 98.6833333,82.66894 L98.6833333,89.65144 C98.6833333,89.8612 98.8320667,89.96 99.2583333,89.96 C99.6846,89.96 99.8333333,89.86158 99.8333333,89.65144 L99.8333333,84.41466 C100.368467,83.747 101.097183,83.40538 101.81095,83.40538 C102.296633,83.40538 102.667317,83.52546 102.924917,83.7736 C103.192483,84.01224 103.283717,84.35614 103.283717,84.79504 L103.283717,89.65182 C103.283717,89.86158 103.432067,89.96 103.858717,89.96 C104.284983,89.96 104.433333,89.86196 104.433717,89.65182 L104.433717,84.6761 C104.433717,83.95106 104.3559,83.37612 103.919667,82.9661 C103.4934,82.55608 102.873167,82.36038 102.050917,82.36038 C101.2762,82.36038 100.4735,82.68376 99.8337167,83.33432 L99.8337167,82.66932 C99.8337167,82.45956 99.6846,82.36038 99.2587167,82.36 L99.2591,82.36 Z M110.04035,82.36 C108.98005,82.36 108.169683,82.6944 107.5966,83.3575 C107.023517,84.0206 106.733333,84.96452 106.733333,86.19572 C106.733333,87.41742 107.020833,88.35412 107.584717,88.99822 C108.1578,89.64232 108.970467,89.96 110.04035,89.96 C111.119817,89.96 111.939383,89.6446 112.4841,89.01 C113.038017,88.3659 113.25,87.42692 113.25,86.19572 C113.25,84.95502 113.035717,84.0111 112.472217,83.3575 C111.917917,82.6944 111.101033,82.36 110.04035,82.36 L110.04035,82.36 Z M121.99575,82.36 C120.915517,82.36 120.076783,82.68034 119.4922,83.33394 C118.907617,83.98754 118.617817,84.95046 118.617817,86.21966 C118.617817,87.47936 118.909917,88.41834 119.504467,89.03394 C120.099017,89.64954 121.020933,89.96 122.259867,89.96 C122.963283,89.96 123.5816,89.86006 124.116733,89.65144 C124.661833,89.4432 124.931317,89.23534 124.931317,89.04572 C124.931317,88.9511 124.86845,88.80746 124.73965,88.61822 C124.620817,88.42898 124.5154,88.345 124.416117,88.345 C124.396183,88.345 124.293067,88.3811 124.104467,88.47572 C123.539817,88.77858 122.9215,88.93894 122.2476,88.93894 C121.514283,88.93894 120.961133,88.75008 120.594283,88.38072 C120.227817,88.01136 120.0189,87.70622 119.959483,86.92 L124.655317,86.92 C125.021017,86.79346 125.082733,86.43854 125.146367,86.065 C125.146367,83.5931 124.096417,82.36 121.99575,82.36 L121.99575,82.36 Z M131.075,82.36 C130.648733,82.36 130.5,82.46906 130.5,82.68072 L130.5,89.63966 C130.5,89.85132 130.649117,89.96 131.075,89.96 C131.501267,89.96 131.65,89.85132 131.65,89.63966 L131.65,82.68072 C131.65,82.46906 131.501267,82.36 131.075,82.36 L131.075,82.36 Z M134.902583,82.36 C134.476317,82.36 134.333717,82.4588 134.333717,82.66894 L134.333717,89.65144 C134.333717,89.8612 134.488583,89.96 134.91485,89.96 C135.341117,89.96 135.483717,89.86158 135.483717,89.65144 L135.483717,84.41466 C136.01885,83.747 136.74795,83.40538 137.461333,83.40538 C137.947017,83.40538 138.3177,83.52546 138.5753,83.7736 C138.842867,84.01224 138.933717,84.35614 138.933717,84.79504 L138.933717,89.65182 C138.933717,89.86158 139.107367,89.96 139.534017,89.96 C139.960283,89.96 140.083333,89.86196 140.083717,89.65182 L140.083717,84.6761 C140.083717,83.95106 140.006283,83.37612 139.57005,82.9661 C139.143783,82.55608 138.52355,82.36038 137.7013,82.36038 C136.926583,82.36038 136.12465,82.68376 135.48525,83.33432 L135.48525,82.66932 C135.48525,82.45956 135.329617,82.36038 134.90335,82.36 L134.902583,82.36 Z M145.690733,82.36 C144.630433,82.36 143.820067,82.6944 143.246983,83.3575 C142.6739,84.0206 142.383333,84.96452 142.383333,86.19572 C142.383333,87.41742 142.671217,88.35412 143.2351,88.99822 C143.808183,89.64232 144.62085,89.96 145.690733,89.96 C146.7702,89.96 147.589767,89.6446 148.134483,89.01 C148.6884,88.3659 148.9,87.42692 148.9,86.19572 C148.9,84.95502 148.6861,84.0111 148.1226,83.3575 C147.5683,82.6944 146.751417,82.36 145.690733,82.36 L145.690733,82.36 Z M151.08155,82.36 C150.644933,82.36 150.434483,82.44588 150.434483,82.60928 C150.434483,82.64766 150.453267,82.70086 150.4824,82.7875 L152.818433,89.7225 C152.867117,89.8764 153.066067,89.96 153.405317,89.96 L153.908633,89.96 C154.248267,89.96 154.447217,89.8764 154.495517,89.7225 L156.83155,82.81106 C156.860683,82.72442 156.879467,82.65716 156.879467,82.60928 C156.879467,82.44588 156.680517,82.36 156.292583,82.36 C155.914233,82.36 155.706083,82.43182 155.657783,82.58572 L153.705083,88.42822 L151.764267,82.58572 C151.715583,82.43182 151.517783,82.36 151.08155,82.36 L151.08155,82.36 Z M161.49135,82.36 C160.685967,82.36 159.998267,82.4607 159.41905,82.66894 C158.849417,82.8673 158.568433,83.07592 158.568433,83.27466 C158.568433,83.36928 158.63015,83.51292 158.748217,83.70216 C158.875867,83.8914 158.973617,83.98716 159.07175,83.98716 C159.0913,83.98716 159.212817,83.92484 159.41905,83.82072 C160.0182,83.52774 160.676383,83.38144 161.383633,83.38144 C162.463867,83.38144 163.083333,83.7869 163.083333,84.58072 L163.083333,85.23394 C162.228883,85.25294 161.38095,85.31526 160.7128,85.40038 C160.045033,85.476 159.432083,85.69906 158.891967,86.07716 C158.361817,86.44576 158.10115,87.00474 158.10115,87.75144 C158.10115,88.49814 158.334217,89.05484 158.796133,89.41394 C159.257667,89.77304 159.872917,89.94822 160.62885,89.94822 C161.560733,89.94822 162.43435,89.62484 163.083717,88.98644 L163.083717,89.65144 C163.083717,89.8593 163.189517,89.96 163.611567,89.96 C164.034,89.96 164.233333,89.85968 164.233333,89.65144 L164.233333,84.5925 C164.233333,83.89292 163.978417,83.34116 163.467817,82.95356 C162.957217,82.55646 162.29635,82.36 161.49135,82.35962 L161.49135,82.36 Z M169.673217,82.36 C168.73175,82.36 167.93135,82.60624 167.277383,83.10822 C166.930467,83.38296 166.659067,83.78424 166.450917,84.29572 C166.252733,84.8072 166.15,85.41406 166.15,86.12466 C166.15,87.33686 166.396867,88.25228 166.882167,88.86788 C167.377433,89.47398 168.121483,89.81826 169.122367,89.91288 L168.882783,90.81538 C168.86285,90.91 168.858633,90.96282 168.858633,90.98182 C168.858633,91.08594 168.939517,91.16004 169.098217,91.20754 C169.2665,91.25504 169.43095,91.3242 169.589267,91.40932 C169.75755,91.49444 169.840733,91.62136 169.840733,91.8011 C169.840733,92.13246 169.55515,92.30004 168.990117,92.30004 C168.772,92.30004 168.52475,92.25216 168.247217,92.15754 C167.969683,92.06292 167.805617,92.01504 167.756167,92.01504 C167.56795,92.01504 167.468667,92.13702 167.468667,92.38326 C167.468667,92.563 167.667233,92.7207 168.043667,92.8347 C168.4201,92.94832 168.795383,92.99962 169.181783,93 C170.321433,93 170.8949,92.57326 170.8949,91.73042 C170.8949,91.44618 170.797917,91.22388 170.619283,91.05364 C170.441033,90.89252 170.27275,90.79448 170.104083,90.75686 C169.945383,90.72836 169.783617,90.70936 169.624917,90.70936 L169.565117,90.70936 L169.7449,89.96114 L169.8047,89.96114 C170.428767,89.96114 170.98,89.88704 171.44575,89.73542 C171.9115,89.5743 172.14035,89.4071 172.140733,89.23648 C172.140733,89.12286 172.079783,88.97694 171.96095,88.7972 C171.842117,88.60796 171.7367,88.5122 171.637417,88.5122 C171.570333,88.53044 171.562283,88.53272 171.469517,88.57148 C170.954317,88.81772 170.39695,88.9397 169.792433,88.9397 C168.960217,88.9397 168.364133,88.71968 168.007633,88.2747 C167.660717,87.82972 167.3,87.10544 167.3,86.10148 C167.3,84.29268 168.21195,83.3822 169.648683,83.3822 C170.193783,83.3822 170.730833,83.49924 171.265967,83.72648 L171.373683,83.7622 L171.4216,83.78614 C171.510917,83.78614 171.612117,83.69038 171.720983,83.50114 C171.839817,83.3024 171.900767,83.13748 171.900767,83.01436 C171.900767,82.84374 171.673833,82.69554 171.21805,82.56292 C170.762267,82.4303 170.24745,82.36114 169.672833,82.36114 L169.673217,82.36 Z M176.824683,82.36 C176.0193,82.36 175.3316,82.4607 174.752383,82.66894 C174.18275,82.8673 173.901767,83.07592 173.901767,83.27466 C173.901767,83.36928 173.963483,83.51292 174.08155,83.70216 C174.2092,83.8914 174.30695,83.98716 174.405083,83.98716 C174.424633,83.98716 174.54615,83.92484 174.752383,83.82072 C175.351533,83.52774 176.009717,83.38144 176.716967,83.38144 C177.7972,83.38144 178.416667,83.7869 178.416667,84.58072 L178.416667,85.23394 C177.562217,85.25294 176.714283,85.31526 176.046133,85.40038 C175.378367,85.476 174.765417,85.69906 174.2253,86.07716 C173.69515,86.44576 173.434483,87.00474 173.434483,87.75144 C173.434483,88.49814 173.66755,89.05484 174.129467,89.41394 C174.591,89.77304 175.20625,89.94822 175.962183,89.94822 C176.894067,89.94822 177.767683,89.62484 178.416667,88.98644 L178.416667,89.65144 C178.416667,89.8593 178.522467,89.96 178.9449,89.96 C179.367333,89.96 179.566667,89.85968 179.566667,89.65144 L179.566667,84.5925 C179.566667,83.89292 179.31175,83.34116 178.80115,82.95356 C178.29055,82.55646 177.629683,82.36 176.824683,82.35962 L176.824683,82.36 Z M184.790733,82.36 C183.730433,82.36 182.920067,82.6944 182.346983,83.3575 C181.7739,84.0206 181.483333,84.96452 181.483333,86.19572 C181.483333,87.41742 181.771217,88.35412 182.3351,88.99822 C182.908183,89.64232 183.72085,89.96 184.790733,89.96 C185.8702,89.96 186.689767,89.6446 187.234483,89.01 C187.7884,88.3659 188,87.42692 188,86.19572 C188,84.95502 187.7861,84.0111 187.2226,83.3575 C186.6683,82.6944 185.851417,82.36 184.790733,82.36 L184.790733,82.36 Z M75.2651167,83.38144 C76.4542167,83.38144 77.0499167,84.07 77.0499167,85.56644 L77.0499167,85.78 L73.1916667,85.78 C73.3005333,84.28356 73.9867,83.38182 75.2647333,83.38144 L75.2651167,83.38144 Z M110.016583,83.38144 C110.713867,83.38144 111.227533,83.60374 111.5618,84.05822 C111.896067,84.5127 112.1,85.22482 112.1,86.17216 C112.1,87.11912 111.896067,87.81946 111.5618,88.27394 C111.227533,88.71892 110.713867,88.93894 110.016583,88.93894 C109.3193,88.93894 108.807933,88.71892 108.48325,88.27394 C108.158567,87.81946 107.883333,87.11912 107.883333,86.17216 C107.883333,85.2157 108.158183,84.50358 108.48325,84.05822 C108.807933,83.60374 109.3193,83.38144 110.016583,83.38144 L110.016583,83.38144 Z M122.031783,83.38144 C123.220883,83.38144 123.816583,84.07 123.816583,85.56644 L123.816583,85.78 L119.9591,85.78 C120.067967,84.28356 120.753367,83.38182 122.0314,83.38144 L122.031783,83.38144 Z M145.666583,83.38144 C146.363867,83.38144 146.877533,83.60374 147.2118,84.05822 C147.546067,84.5127 147.75,85.22482 147.75,86.17216 C147.75,87.11912 147.546067,87.81946 147.2118,88.27394 C146.877533,88.71892 146.363867,88.93894 145.666583,88.93894 C144.9693,88.93894 144.457933,88.71892 144.13325,88.27394 C143.808567,87.81946 143.533333,87.11912 143.533333,86.17216 C143.533333,85.2157 143.808183,84.50358 144.13325,84.05822 C144.457933,83.60374 144.9693,83.38144 145.666583,83.38144 L145.666583,83.38144 Z M184.766583,83.38144 C185.463867,83.38144 185.977533,83.60374 186.3118,84.05822 C186.646067,84.5127 186.85,85.22482 186.85,86.17216 C186.85,87.11912 186.646067,87.81946 186.3118,88.27394 C185.977533,88.71892 185.463867,88.93894 184.766583,88.93894 C184.0693,88.93894 183.557933,88.71892 183.23325,88.27394 C182.908567,87.81946 182.633333,87.11912 182.633333,86.17216 C182.633333,85.2157 182.908183,84.50358 183.23325,84.05822 C183.557933,83.60374 184.0693,83.38144 184.766583,83.38144 L184.766583,83.38144 Z M163.08295,86.25538 L163.08295,87.94182 C162.71955,88.2538 162.275267,88.48408 161.921833,88.65432 C161.577983,88.82456 161.16935,88.9036 160.687883,88.9036 C159.852983,88.9036 159.430167,88.52702 159.430167,87.75182 C159.430167,87.2601 159.638317,86.91734 160.0412,86.7186 C160.247433,86.61448 160.4414,86.52366 160.628083,86.45716 C160.981517,86.32492 161.855133,86.25538 163.08295,86.25538 L163.08295,86.25538 Z M178.416667,86.25538 L178.416667,87.94182 C178.053267,88.2538 177.608983,88.48408 177.25555,88.65432 C176.9117,88.82456 176.503067,88.9036 176.0216,88.9036 C175.1867,88.9036 174.763883,88.52702 174.763883,87.75182 C174.763883,87.2601 174.972033,86.91734 175.374917,86.7186 C175.58115,86.61448 175.775117,86.52366 175.9618,86.45716 C176.315233,86.32492 177.189233,86.25538 178.416667,86.25538 L178.416667,86.25538 Z" id="Shape" sketch:type="MSShapeGroup"></path>
        </g>
    </g>
</svg>
