<?xml version="1.0" standalone="no"?>
<!-- Generator: Adobe Fireworks CS5, Export SVG Extension by Aaron Beall (http://fireworks.abeall.com) . Version: 0.6.1  -->
<!DOCTYPE svg PUBLIC "-//W3C//DTD SVG 1.1//EN" "http://www.w3.org/Graphics/SVG/1.1/DTD/svg11.dtd">
<svg id="Untitled-Page%201" viewBox="0 0 180 120" style="background-color:#ffffff00" version="1.1"
	xmlns="http://www.w3.org/2000/svg" xmlns:xlink="http://www.w3.org/1999/xlink" xml:space="preserve"
	x="0px" y="0px" width="180px" height="120px"
>
	<defs>
		<linearGradient id="gradient1" x1="23.7623%" y1="50%" x2="102.614%" y2="50%">
			<stop stop-color="#ffffff" stop-opacity="1" offset="1%"/>
			<stop stop-color="#999999" stop-opacity="1" offset="99%"/>
		</linearGradient>
		<linearGradient id="gradient2" x1="31.1502%" y1="73.8766%" x2="70.9182%" y2="-22.5595%">
			<stop stop-color="#ffffff" stop-opacity="1" offset="1%"/>
			<stop stop-color="#999999" stop-opacity="1" offset="99%"/>
		</linearGradient>
		<linearGradient id="gradient3" x1="41.6233%" y1="89.6432%" x2="66.7984%" y2="-32.7759%">
			<stop stop-color="#ffffff" stop-opacity="1" offset="1%"/>
			<stop stop-color="#999999" stop-opacity="1" offset="99%"/>
		</linearGradient>
		<linearGradient id="gradient4" x1="45.7103%" y1="20.9052%" x2="69.2475%" y2="126.7876%">
			<stop stop-color="#ffffff" stop-opacity="1" offset="1%"/>
			<stop stop-color="#999999" stop-opacity="1" offset="99%"/>
		</linearGradient>
		<linearGradient id="gradient5" x1="23.7652%" y1="50.002%" x2="102.6138%" y2="50.002%">
			<stop stop-color="#ffffff" stop-opacity="1" offset="1%"/>
			<stop stop-color="#999999" stop-opacity="1" offset="99%"/>
		</linearGradient>
		<linearGradient id="gradient6" x1="23.7611%" y1="49.9907%" x2="102.6124%" y2="49.9907%">
			<stop stop-color="#ffffff" stop-opacity="1" offset="1%"/>
			<stop stop-color="#999999" stop-opacity="1" offset="99%"/>
		</linearGradient>
		<linearGradient id="gradient7" x1="23.7614%" y1="50%" x2="102.6115%" y2="50%">
			<stop stop-color="#ffffff" stop-opacity="1" offset="1%"/>
			<stop stop-color="#999999" stop-opacity="1" offset="99%"/>
		</linearGradient>
		<linearGradient id="gradient8" x1="23.7625%" y1="50.0096%" x2="102.6118%" y2="50.0096%">
			<stop stop-color="#ffffff" stop-opacity="1" offset="1%"/>
			<stop stop-color="#999999" stop-opacity="1" offset="99%"/>
		</linearGradient>
		<linearGradient id="gradient9" x1="23.762%" y1="50%" x2="102.6151%" y2="50%">
			<stop stop-color="#ffffff" stop-opacity="1" offset="1%"/>
			<stop stop-color="#999999" stop-opacity="1" offset="99%"/>
		</linearGradient>
		<linearGradient id="gradient10" x1="23.763%" y1="50%" x2="102.6134%" y2="50%">
			<stop stop-color="#ffffff" stop-opacity="1" offset="1%"/>
			<stop stop-color="#999999" stop-opacity="1" offset="99%"/>
		</linearGradient>
		<linearGradient id="gradient11" x1="23.7623%" y1="50.0043%" x2="102.6147%" y2="50.0043%">
			<stop stop-color="#ffffff" stop-opacity="1" offset="1%"/>
			<stop stop-color="#999999" stop-opacity="1" offset="99%"/>
		</linearGradient>
		<linearGradient id="gradient12" x1="23.7622%" y1="50%" x2="102.6143%" y2="50%">
			<stop stop-color="#ffffff" stop-opacity="1" offset="1%"/>
			<stop stop-color="#999999" stop-opacity="1" offset="99%"/>
		</linearGradient>
		<linearGradient id="gradient13" x1="23.762%" y1="49.9932%" x2="102.6145%" y2="49.9932%">
			<stop stop-color="#ffffff" stop-opacity="1" offset="1%"/>
			<stop stop-color="#999999" stop-opacity="1" offset="99%"/>
		</linearGradient>
		<linearGradient id="gradient14" x1="23.7622%" y1="49.9952%" x2="102.6136%" y2="49.9952%">
			<stop stop-color="#ffffff" stop-opacity="1" offset="1%"/>
			<stop stop-color="#999999" stop-opacity="1" offset="99%"/>
		</linearGradient>
		<linearGradient id="gradient15" x1="53.1339%" y1="58.5453%" x2="91.3523%" y2="-6.5968%">
			<stop stop-color="#ffffff" stop-opacity="1" offset="1%"/>
			<stop stop-color="#999999" stop-opacity="1" offset="99%"/>
		</linearGradient>
		<linearGradient id="gradient16" x1="46.98%" y1="16.1478%" x2="63.1677%" y2="130.918%">
			<stop stop-color="#ffffff" stop-opacity="1" offset="1%"/>
			<stop stop-color="#999999" stop-opacity="1" offset="99%"/>
		</linearGradient>
		<linearGradient id="gradient17" x1="38.3368%" y1="77.0906%" x2="77.0254%" y2="0.771%">
			<stop stop-color="#ffffff" stop-opacity="1" offset="1%"/>
			<stop stop-color="#999999" stop-opacity="1" offset="99%"/>
		</linearGradient>
		<linearGradient id="gradient18" x1="47.7571%" y1="81.5838%" x2="93.6996%" y2="-1.242%">
			<stop stop-color="#ffffff" stop-opacity="1" offset="1%"/>
			<stop stop-color="#999999" stop-opacity="1" offset="99%"/>
		</linearGradient>
		<linearGradient id="gradient19" x1="21.0978%" y1="76.4937%" x2="73.8187%" y2="18.8015%">
			<stop stop-color="#ffffff" stop-opacity="1" offset="1%"/>
			<stop stop-color="#999999" stop-opacity="1" offset="99%"/>
		</linearGradient>
		<linearGradient id="gradient20" x1="30.0803%" y1="66.5469%" x2="62.2999%" y2="4.5202%">
			<stop stop-color="#ffffff" stop-opacity="1" offset="1%"/>
			<stop stop-color="#999999" stop-opacity="1" offset="99%"/>
		</linearGradient>
		<linearGradient id="gradient21" x1="34.8281%" y1="66.032%" x2="59.3724%" y2="-5.383%">
			<stop stop-color="#ffffff" stop-opacity="1" offset="1%"/>
			<stop stop-color="#999999" stop-opacity="1" offset="99%"/>
		</linearGradient>
		<linearGradient id="gradient22" x1="46.9358%" y1="81.2754%" x2="70.5876%" y2="8.3655%">
			<stop stop-color="#ffffff" stop-opacity="1" offset="1%"/>
			<stop stop-color="#999999" stop-opacity="1" offset="99%"/>
		</linearGradient>
		<linearGradient id="gradient23" x1="44.7245%" y1="82.9326%" x2="63.0426%" y2="12.7093%">
			<stop stop-color="#ffffff" stop-opacity="1" offset="1%"/>
			<stop stop-color="#999999" stop-opacity="1" offset="99%"/>
		</linearGradient>
		<linearGradient id="gradient24" x1="47.8959%" y1="53.6116%" x2="59.1643%" y2="-19.2327%">
			<stop stop-color="#ffffff" stop-opacity="1" offset="1%"/>
			<stop stop-color="#999999" stop-opacity="1" offset="99%"/>
		</linearGradient>
		<linearGradient id="gradient25" x1="43.4658%" y1="85.0687%" x2="58.8323%" y2="-23.835%">
			<stop stop-color="#ffffff" stop-opacity="1" offset="1%"/>
			<stop stop-color="#999999" stop-opacity="1" offset="99%"/>
		</linearGradient>
		<linearGradient id="gradient26" x1="30.3371%" y1="91.6097%" x2="60.2009%" y2="17.7469%">
			<stop stop-color="#ffffff" stop-opacity="1" offset="1%"/>
			<stop stop-color="#999999" stop-opacity="1" offset="99%"/>
		</linearGradient>
		<linearGradient id="gradient27" x1="23.7618%" y1="50.008%" x2="102.6139%" y2="50.008%">
			<stop stop-color="#ffffff" stop-opacity="1" offset="1%"/>
			<stop stop-color="#999999" stop-opacity="1" offset="99%"/>
		</linearGradient>
		<linearGradient id="gradient28" x1="23.7624%" y1="50%" x2="102.6164%" y2="50%">
			<stop stop-color="#ffffff" stop-opacity="1" offset="1%"/>
			<stop stop-color="#999999" stop-opacity="1" offset="99%"/>
		</linearGradient>
		<linearGradient id="gradient29" x1="23.7621%" y1="50%" x2="102.6141%" y2="50%">
			<stop stop-color="#ffffff" stop-opacity="1" offset="1%"/>
			<stop stop-color="#999999" stop-opacity="1" offset="99%"/>
		</linearGradient>
		<linearGradient id="gradient30" x1="23.7622%" y1="49.9977%" x2="102.6142%" y2="49.9977%">
			<stop stop-color="#ffffff" stop-opacity="1" offset="1%"/>
			<stop stop-color="#999999" stop-opacity="1" offset="99%"/>
		</linearGradient>
		<linearGradient id="gradient31" x1="23.7634%" y1="50.002%" x2="102.6165%" y2="50.002%">
			<stop stop-color="#ffffff" stop-opacity="1" offset="1%"/>
			<stop stop-color="#999999" stop-opacity="1" offset="99%"/>
		</linearGradient>
		<linearGradient id="gradient32" x1="23.7613%" y1="50.0028%" x2="102.6152%" y2="50.0028%">
			<stop stop-color="#ffffff" stop-opacity="1" offset="1%"/>
			<stop stop-color="#999999" stop-opacity="1" offset="99%"/>
		</linearGradient>
		<linearGradient id="gradient33" x1="23.7624%" y1="50%" x2="102.6166%" y2="50%">
			<stop stop-color="#ffffff" stop-opacity="1" offset="1%"/>
			<stop stop-color="#999999" stop-opacity="1" offset="99%"/>
		</linearGradient>
		<linearGradient id="gradient34" x1="23.7621%" y1="49.9969%" x2="102.6166%" y2="49.9969%">
			<stop stop-color="#ffffff" stop-opacity="1" offset="1%"/>
			<stop stop-color="#999999" stop-opacity="1" offset="99%"/>
		</linearGradient>
		<linearGradient id="gradient35" x1="23.763%" y1="50%" x2="102.6179%" y2="50%">
			<stop stop-color="#ffffff" stop-opacity="1" offset="1%"/>
			<stop stop-color="#999999" stop-opacity="1" offset="99%"/>
		</linearGradient>
		<linearGradient id="gradient36" x1="23.7589%" y1="50%" x2="102.6144%" y2="50%">
			<stop stop-color="#ffffff" stop-opacity="1" offset="1%"/>
			<stop stop-color="#999999" stop-opacity="1" offset="99%"/>
		</linearGradient>
		<linearGradient id="gradient37" x1="23.7553%" y1="50%" x2="102.6109%" y2="50%">
			<stop stop-color="#ffffff" stop-opacity="1" offset="1%"/>
			<stop stop-color="#999999" stop-opacity="1" offset="99%"/>
		</linearGradient>
		<linearGradient id="gradient38" x1="23.762%" y1="50%" x2="102.6154%" y2="50%">
			<stop stop-color="#ffffff" stop-opacity="1" offset="1%"/>
			<stop stop-color="#999999" stop-opacity="1" offset="99%"/>
		</linearGradient>
	</defs>
	<g id="Layer%201">
		<g visibility="hidden">
			<g id="Typografia">
				<path d="M 60.642 115 C 58.3463 115 56.6008 114.4204 55.4055 113.2842 C 54.2393 112.1631 53.6597 110.5171 53.6597 108.3623 L 53.6597 96.4634 C 53.6597 94.3013 54.2393 92.6602 55.4055 91.5347 C 56.5717 90.4185 58.3196 89.8608 60.642 89.8608 C 62.9696 89.8608 64.7128 90.4185 65.8761 91.5347 C 67.0399 92.6602 67.6243 94.3013 67.6243 96.4634 C 67.6243 96.8604 67.3613 97.0581 66.845 97.0581 C 66.3293 97.0581 66.0685 96.8604 66.0685 96.4634 C 66.0685 95.2441 65.8933 94.2744 65.5375 93.5479 C 65.1801 92.8384 64.7394 92.2886 64.2063 91.9141 C 63.6708 91.5347 63.0938 91.2993 62.4559 91.1807 C 61.8301 91.0757 61.2239 91.02 60.642 91.02 C 60.0582 91.02 59.4443 91.0757 58.7991 91.1807 C 58.1539 91.2993 57.5598 91.5347 57.0321 91.9141 C 56.494 92.2886 56.0507 92.8384 55.6953 93.5479 C 55.3401 94.2744 55.1666 95.2441 55.1666 96.4634 L 55.1666 108.3623 C 55.1666 110.2212 55.6294 111.6133 56.5717 112.5371 C 57.5094 113.4053 58.865 113.8452 60.642 113.8452 C 62.4192 113.8452 63.775 113.4053 64.7128 112.5371 C 65.6156 111.6665 66.0685 110.271 66.0685 108.3623 L 66.0685 105.0806 L 59.7728 105.0806 C 59.2518 105.0806 58.9893 104.8789 58.9893 104.4829 C 58.9893 104.0864 59.2518 103.8862 59.7728 103.8862 L 66.845 103.8862 C 67.3613 103.8862 67.6243 104.0864 67.6243 104.4829 L 67.6243 108.3623 C 67.6243 110.5171 67.0399 112.1631 65.8761 113.2842 C 64.679 114.4204 62.9326 115 60.642 115 Z" fill="#ffffff"/>
				<path d="M 82.3582 103.5464 C 83.7797 104.5923 84.4906 106.0669 84.4906 107.9868 L 84.4906 114.3623 C 84.4906 114.7607 84.2325 114.96 83.7115 114.96 C 83.5214 114.96 83.3512 114.9043 83.2054 114.7944 C 83.0618 114.6826 82.9858 114.542 82.9858 114.3623 L 82.9858 107.9868 C 82.9858 106.4434 82.4579 105.2568 81.3892 104.4199 C 80.3252 103.5879 78.818 103.1792 76.8805 103.1792 L 72.5198 103.1792 L 72.5198 114.3623 C 72.5198 114.7607 72.2599 114.96 71.7411 114.96 C 71.5461 114.96 71.3807 114.9043 71.2346 114.7944 C 71.0859 114.6826 71.0106 114.542 71.0106 114.3623 L 71.0106 90.3848 C 71.0106 90.23 71.0859 90.1001 71.2346 89.9941 C 71.3807 89.8794 71.5461 89.8247 71.7411 89.8247 L 76.8805 89.8247 C 79.4655 89.8247 81.3698 90.3555 82.6036 91.4229 C 83.8284 92.4956 84.4443 94.1768 84.4443 96.4634 C 84.4443 98.7241 83.8429 100.4092 82.6503 101.4971 C 82.1318 101.9688 81.4667 102.3428 80.6609 102.6177 C 80.9846 102.7397 81.2817 102.8784 81.5571 103.0264 C 81.8348 103.1792 82.0996 103.3472 82.3582 103.5464 ZM 72.5198 102.0244 L 76.8805 102.0244 C 78.9789 102.0244 80.5173 101.5859 81.4889 100.7119 C 82.4211 99.8882 82.8912 98.4785 82.8912 96.4634 C 82.8912 94.5229 82.4211 93.1245 81.4889 92.2637 C 80.549 91.4087 79.0182 90.98 76.8805 90.98 L 72.5198 90.98 L 72.5198 102.0244 Z" fill="#ffffff"/>
				<path d="M 88.9047 115 C 88.3882 115 88.1252 114.7944 88.1252 114.3984 L 88.1252 90.4185 C 88.1252 90.2734 88.2009 90.1445 88.3492 90.0283 C 88.4928 89.9194 88.673 89.8608 88.9047 89.8608 C 89.1257 89.8608 89.3108 89.9194 89.4617 90.0283 C 89.6052 90.1445 89.676 90.2734 89.676 90.4185 L 89.676 114.3984 C 89.676 114.7944 89.4156 115 88.9047 115 Z" fill="#ffffff"/>
				<path d="M 93.7976 113.3931 C 94.024 113.3931 94.2114 113.4512 94.3549 113.5659 C 94.5013 113.6719 94.5718 113.8057 94.5718 113.9512 L 94.5718 114.3984 C 94.5718 114.7944 94.3164 115 93.7976 115 C 93.2765 115 93.026 114.7944 93.026 114.3984 L 93.026 113.9512 C 93.026 113.8057 93.0941 113.6719 93.2399 113.5659 C 93.3864 113.4512 93.5713 113.3931 93.7976 113.3931 Z" fill="#ffffff"/>
				<path d="M 108.7286 102.4229 C 108.7286 102.5791 108.6578 102.7109 108.509 102.8223 C 108.3633 102.9287 108.176 102.9883 107.952 102.9883 L 98.499 102.9883 L 98.499 114.3984 C 98.499 114.5767 98.4231 114.7163 98.2795 114.8315 C 98.136 114.9404 97.9655 115 97.7709 115 C 97.255 115 96.9943 114.7944 96.9943 114.3984 L 96.9943 90.4185 C 96.9943 90.2734 97.0696 90.1445 97.2131 90.0283 C 97.3618 89.9194 97.5446 89.8608 97.7709 89.8608 L 107.952 89.8608 C 108.176 89.8608 108.3633 89.9194 108.509 90.0283 C 108.6578 90.1445 108.7286 90.2734 108.7286 90.4185 C 108.7286 90.8164 108.4683 91.02 107.952 91.02 L 98.499 91.02 L 98.499 101.8325 L 107.952 101.8325 C 108.4683 101.8325 108.7286 102.0298 108.7286 102.4229 Z" fill="#ffffff"/>
				<path d="M 118.6151 115 C 117.8386 115 117.0376 114.9063 116.217 114.7314 C 115.3939 114.5571 114.6396 114.2285 113.96 113.731 C 113.281 113.2349 112.7358 112.5518 112.3124 111.6982 C 111.8934 110.8384 111.6818 109.7207 111.6818 108.3203 L 111.6818 96.5029 C 111.6818 94.3643 112.2465 92.7217 113.3809 91.5742 C 114.5737 90.4355 116.3217 89.8608 118.6151 89.8608 C 120.9446 89.8608 122.6877 90.4355 123.8521 91.5742 C 125.0154 92.6978 125.5974 94.3423 125.5974 96.5029 L 125.5974 108.3203 C 125.5974 109.7207 125.3857 110.8384 124.9622 111.6982 C 124.5432 112.5518 123.9978 113.2349 123.3162 113.731 C 122.6395 114.2285 121.8868 114.5571 121.062 114.7314 C 120.2411 114.9063 119.4209 115 118.6151 115 ZM 118.6151 91.02 C 116.7767 91.02 115.4354 91.4575 114.593 92.3281 C 113.6508 93.2437 113.1887 94.6348 113.1887 96.5029 L 113.1887 108.3203 C 113.1887 110.2061 113.6508 111.6133 114.593 112.5371 C 115.467 113.4053 116.8065 113.8452 118.6151 113.8452 C 120.3921 113.8452 121.7482 113.4053 122.6877 112.5371 C 123.5909 111.6665 124.0438 110.2622 124.0438 108.3203 L 124.0438 96.5029 C 124.0438 94.5879 123.5909 93.1924 122.6877 92.3281 C 121.7825 91.4575 120.4236 91.02 118.6151 91.02 Z" fill="#ffffff"/>
			</g>
			<path d="M 89.1309 64.6523 L 89.1309 70.0444 L 95.504 74.3325 L 92.0376 76.9521 L 100.7654 77.5093 L 100.9016 75.1558 L 99.2411 69.7666 L 101.0403 69.6304 L 103.9443 68.7129 L 106.8541 67.332 L 108.6555 72.3076 L 111.8374 75.4893 L 116.1321 76.1787 L 120.4213 74.7939 L 124.9912 71.4761 L 125.8214 67.7446 L 123.4674 70.3706 L 120.0078 72.3076 L 115.022 73.2725 L 111.8374 69.8179 L 110.0382 65.5337 L 110.8707 56.4136 L 107.6866 56.7734 L 104.6411 56.9072 L 92.5947 59.2583 L 89.1309 64.6523 Z" fill="url(#gradient1)"/>
			<path d="M 89.6418 29.6001 L 104.2269 14.6626 L 145.7573 12.4502 L 138.1913 15.584 L 133.5773 19.0933 L 112.7163 39.5464 L 108.4683 52.8242 L 105.3323 60.189 L 101.272 69.5874 L 92.4126 68.1152 L 90.3795 69.0386 L 85.0261 69.0386 L 83.1782 74.7471 L 78.9351 74.1958 L 78.1947 76.4067 L 76.7222 76.0352 L 75.9795 80.8311 L 73.7645 82.1187 L 71.9161 81.563 L 69.8911 83.7764 L 70.4458 79.7222 L 73.2113 79.5386 L 74.504 78.9858 L 72.1086 68.1152 L 65.2775 67.375 L 56.9684 52.6323 L 66.7506 36.229 L 79.1201 19.0933 L 84.1061 20.0103 L 86.319 23.1396 L 89.6418 29.6001 L 89.6418 29.6001 Z" fill="url(#gradient2)"/>
			<path d="M 144.8395 16.3223 L 140.5935 17.7998 L 137.6383 15.958 L 108.2881 16.1411 L 93.1478 29.9653 L 85.2085 43.9697 L 113.6392 49.6816 L 115.1168 44.7056 L 116.4092 40.2827 L 115.1168 37.332 L 117.5172 38.2578 L 122.5005 36.9673 L 121.3903 27.938 L 129.1494 30.519 L 131.9146 30.3325 L 133.9448 29.0459 L 133.39 29.4102 L 144.8395 26.2734 L 143.1768 22.5933 L 146.3146 25.9111 L 150.1932 25.9111 L 158.4998 23.8818 L 169.3893 20.9336 L 169.3893 20.9336 " fill="url(#gradient3)"/>
			<path d="M 79.3052 66.6411 L 80.7751 72.9028 L 76.9049 72.3511 L 77.6422 76.0376 L 78.1947 73.4619 L 82.8108 74.0103 L 83.1782 68.4868 L 79.3052 66.6411 Z" fill="url(#gradient4)"/>
			<path d="M 77.9176 68.5181 L 74.3215 70.5942 L 74.8741 79.5786 L 75.9795 80.9629 L 77.9176 68.5181 Z" fill="url(#gradient5)"/>
			<path d="M 74.3215 79.3579 L 76.1207 80.7334 L 74.0416 81.9834 L 73.6255 80.0439 L 74.3215 79.3579 Z" fill="url(#gradient6)"/>
			<path d="M 73.2113 79.5386 L 70.4458 79.6816 L 71.4103 81.5649 L 73.7645 82.1187 L 73.2113 79.5386 Z" fill="url(#gradient7)"/>
			<path d="M 70.5848 80.9629 L 71.4103 81.8472 L 70.0269 83.5024 L 70.5848 80.9629 Z" fill="url(#gradient8)"/>
			<path d="M 89.1309 70.0444 L 98.6863 69.4067 L 100.4877 74.6567 L 96.0594 74.5161 L 89.1309 70.0444 Z" fill="url(#gradient9)"/>
			<path d="M 93.1478 76.5923 L 99.9323 77.147 L 100.9016 75.1558 L 95.504 74.3325 L 93.1478 76.5923 Z" fill="url(#gradient10)"/>
			<path d="M 91.0707 70.7886 L 100.2122 69.4067 L 105.749 65.9463 L 105.1936 65.1152 L 99.6575 68.022 L 91.0707 70.7886 Z" fill="url(#gradient11)"/>
			<path d="M 90.3795 69.0386 L 98.6863 67.332 L 108.6555 62.9077 L 107.6866 61.3843 L 98.1338 66.2275 L 90.3795 69.0386 Z" fill="url(#gradient12)"/>
			<path d="M 99.2411 64.5635 L 113.225 57.375 L 113.7804 58.9023 L 99.2411 64.5635 Z" fill="url(#gradient13)"/>
			<path d="M 110.3182 61.3843 L 98.825 68.2969 L 101.272 69.5874 L 106.8541 67.332 L 108.6555 71.6147 L 111.8374 69.8179 L 109.627 65.6743 L 110.3182 61.3843 Z" fill="url(#gradient14)"/>
			<path d="M 57.1508 52.3989 L 68.6396 46.5981 L 67.5339 59.729 L 57.1508 52.3989 Z" fill="url(#gradient15)"/>
			<path d="M 62.733 59.5444 L 70.4896 65.0791 L 65.506 66.9165 L 62.733 59.5444 Z" fill="url(#gradient16)"/>
			<path d="M 79.0275 19.2266 L 62.2736 25.8647 L 61.1655 30.0083 L 53.2755 35.6787 L 53 39.1289 L 55.3517 40.7881 L 55.2158 39.5464 L 58.1223 37.1958 L 61.859 37.0596 L 65.0438 35.8149 L 66.2902 36.3652 L 56.4574 52.9575 L 65.5964 56.2759 L 90.5186 42.3125 L 79.0275 19.2266 Z" fill="url(#gradient17)"/>
			<g>
				<path d="M 80.9653 46.1865 L 83.1782 67.9277 L 66.3824 67.561 L 63.0574 58.1616 L 80.9653 46.1865 Z" fill="url(#gradient18)"/>
				<path d="M 81.7029 47.1055 L 83.7308 65.3506 L 88.3492 59.6362 L 83.9188 66.4565 L 86.6865 66.8247 L 92.78 64.7998 L 81.7029 47.1055 Z" fill="url(#gradient19)"/>
				<path d="M 82.7694 46.0059 L 93.4108 67.3857 L 112.3217 57.3374 L 111.6035 54.4478 L 85.8199 45.5005 L 82.7694 46.0059 Z" fill="url(#gradient20)"/>
				<path d="M 82.4379 45.0811 L 95.9186 64.7998 L 113.2739 52.2656 L 112.1611 49.502 L 85.3965 44.1548 L 82.4379 45.0811 Z" fill="url(#gradient21)"/>
				<path d="M 85.7617 43.6025 L 114.194 49.3169 L 116.9624 39.9155 L 113.4564 34.7529 L 93.7004 29.6001 L 92.9628 31.0679 L 110.1357 35.6787 L 93.1478 32.5464 L 105.8875 37.8906 L 93.1478 33.6538 L 107.3651 40.2827 L 90.9349 34.1997 L 85.7617 43.6025 Z" fill="url(#gradient22)"/>
				<path d="M 93.8881 29.229 L 121.1154 36.0903 L 129.7017 30.1479 L 128.2217 25.9111 L 132.0536 28.4868 L 128.2217 24.9878 L 107.9176 16.6963 L 93.8881 29.229 Z" fill="url(#gradient23)"/>
				<path d="M 108.2881 16.1411 L 130.9923 25.542 L 133.9448 29.0459 L 135.9728 28.8594 L 146.87 25.542 L 146.3146 22.5933 L 149.8209 27.1973 L 151.1132 26.4653 L 140.5935 17.6177 L 136.7155 16.1411 L 108.2881 16.1411 Z" fill="url(#gradient24)"/>
				<path d="M 141.1415 17.4282 L 150.7457 25.542 L 169.574 21.3052 L 174 22.5933 L 172.1593 20.7485 L 144.0995 16.5098 L 141.1415 17.4282 Z" fill="url(#gradient25)"/>
			</g>
			<path d="M 62.5535 25.8647 L 66.9791 27.7993 L 61.718 30.0083 L 62.5535 25.8647 Z" fill="url(#gradient26)"/>
			<path d="M 61.859 30.1479 L 67.1204 28.9082 L 66.9791 31.8101 L 64.7665 33.8779 L 63.1083 32.7744 L 61.859 33.4644 L 56.7344 34.9834 L 61.859 30.1479 Z" fill="url(#gradient27)"/>
			<path d="M 61.4454 34.2915 L 61.859 37.0596 L 55.7659 37.1958 L 56.4574 35.5405 L 61.4454 34.2915 Z" fill="url(#gradient28)"/>
			<path d="M 67.5339 27.3838 L 72.2422 24.3403 L 81.3792 25.5869 L 79.0275 19.2266 L 63.2418 25.4438 L 67.5339 27.3838 Z" fill="url(#gradient29)"/>
			<path d="M 68.0892 36.5083 L 84.5662 35.5405 L 81.3792 45.7656 L 63.1083 57.2407 L 58.5336 52.1265 L 68.0892 36.5083 Z" fill="url(#gradient30)"/>
			<path d="M 81.2401 20.3325 L 88.439 32.7744 L 83.4583 20.4683 L 81.2401 20.3325 Z" fill="url(#gradient31)"/>
			<path d="M 72.2422 10.9336 L 73.6255 16.8794 L 84.0107 17.0156 L 85.6713 11.2109 L 83.0419 12.8662 L 79.0275 8.3091 L 74.8741 12.7324 L 72.2422 10.9336 Z" fill="url(#gradient32)"/>
			<path d="M 79.1661 9.1406 L 79.4417 16.5972 L 82.9034 16.7891 L 83.1782 13.9736 L 79.1661 9.1406 Z" fill="url(#gradient33)"/>
			<path d="M 74.9208 12.9604 L 75.1978 16.646 L 79.1661 16.5098 L 78.9838 8.7227 L 74.9208 12.9604 Z" fill="url(#gradient34)"/>
			<path d="M 72.3351 11.168 L 73.8105 16.5098 L 75.4733 16.4653 L 74.9208 12.9604 L 72.3351 11.168 Z" fill="url(#gradient35)"/>
			<path d="M 72.8905 9.5059 C 72.8905 9.9888 72.4932 10.3853 72.0088 10.3853 C 71.5293 10.3853 71.1349 9.9888 71.1349 9.5059 C 71.1349 9.021 71.5293 8.6274 72.0088 8.6274 C 72.4932 8.6274 72.8905 9.021 72.8905 9.5059 Z" fill="url(#gradient36)"/>
			<path d="M 79.9526 6.8799 C 79.9526 7.3638 79.5559 7.7549 79.0713 7.7549 C 78.5892 7.7549 78.1947 7.3638 78.1947 6.8799 C 78.1947 6.3965 78.5892 6 79.0713 6 C 79.5559 6 79.9526 6.3965 79.9526 6.8799 Z" fill="url(#gradient37)"/>
			<path d="M 86.8712 10.1978 C 86.8712 10.6763 86.4771 11.0703 85.9928 11.0703 C 85.5107 11.0703 85.121 10.6763 85.121 10.1978 C 85.121 9.7163 85.5107 9.3223 85.9928 9.3223 C 86.4771 9.3223 86.8712 9.7163 86.8712 10.1978 Z" fill="url(#gradient38)"/>
		</g>
		<g>
			<g>
				<path d="M 57.2744 60.5879 C 56.5995 59.9346 55.762 59.6025 54.7832 59.6025 C 53.8984 59.6025 52.7725 60.2173 51.2388 61.5356 C 49.9482 62.6455 48.4978 63.3398 46.9255 63.5957 C 46.4187 63.6782 45.9381 63.7158 45.458 63.7158 C 43.4392 63.7158 41.7717 63.0625 40.3577 61.709 C 38.9468 60.3643 38.2625 58.7651 38.2625 56.8203 L 38.2625 47.5073 C 38.2625 46.0601 38.7593 44.8643 39.791 43.8452 C 40.8069 42.8291 42.0317 42.3384 43.5349 42.3384 C 45.0865 42.3384 46.3696 42.8237 47.4492 43.8252 C 48.5056 44.8042 49.0657 46.0498 49.114 47.5073 L 49.114 50.4067 L 57.1393 50.4067 L 57.1393 48.4067 C 57.1393 45.9883 56.5291 43.7827 55.3271 41.853 C 54.7241 40.8867 53.9895 39.9927 53.1421 39.2046 C 50.4969 36.7471 47.2639 35.5 43.5349 35.5 C 41.54 35.5 39.6715 35.8667 37.9922 36.5894 C 37.9102 36.6211 37.8275 36.6587 37.7477 36.6973 L 37.6338 36.748 C 36.2537 37.3892 35.0034 38.2598 33.9175 39.3252 C 33.5818 39.6509 33.2603 39.9985 32.9348 40.3853 C 30.9872 42.7241 30 45.502 30 48.6318 L 30 55.8467 C 30 60.0254 31.5276 63.5859 34.5359 66.437 C 37.2933 69.0283 40.6345 70.4482 44.4761 70.6621 L 44.7412 70.6753 C 44.9773 70.687 45.214 70.6997 45.458 70.6997 C 46.0095 70.6997 46.5427 70.6621 46.9414 70.6294 C 51.0413 70.3027 54.4993 68.564 57.218 65.4683 L 57.3218 65.353 C 57.3999 65.272 57.4766 65.188 57.5305 65.1172 C 57.7623 64.8545 57.9045 64.5698 57.9968 64.3779 C 58.196 63.9409 58.2965 63.4863 58.2965 63.0215 C 58.2965 62.5205 58.1926 62.0479 57.9751 61.5776 C 57.8058 61.2153 57.572 60.8813 57.2744 60.5879 Z" fill="#ffffff"/>
				<path d="M 88.4756 39.2998 C 88.4041 38.2764 88.02 37.4023 87.3318 36.7104 C 86.5547 35.9233 85.5586 35.5229 84.3705 35.5229 C 83.1836 35.5229 82.1923 35.9067 81.4191 36.6587 C 80.636 37.4146 80.2388 38.3828 80.2388 39.5415 L 80.2388 57.4932 C 80.2388 59.2642 79.5969 60.7847 78.333 62.0117 C 77.0444 63.2578 75.5393 63.8643 73.7344 63.8643 C 71.8269 63.8643 70.3 63.2622 69.069 62.019 C 67.8479 60.7944 67.2288 59.272 67.2288 57.4932 L 67.2288 36.3906 L 58.8916 36.3906 L 58.8916 56.3721 C 58.8916 59.2388 59.5795 61.8027 60.9365 63.9927 C 61.563 65.0063 62.2754 65.8892 63.1189 66.688 C 65.9114 69.3496 69.4836 70.6997 73.7344 70.6997 L 73.8372 70.6997 C 75.996 70.6997 77.9744 70.3711 79.7188 69.7275 C 80.2209 69.5439 80.7134 69.3306 81.1824 69.0889 C 86.1589 66.5361 87.7527 61.5908 88.2611 58.8726 C 88.4722 57.7378 88.5002 56.9858 88.5002 56.936 L 88.5002 39.6201 C 88.5002 39.5415 88.4934 39.4688 88.4851 39.397 C 88.48 39.3716 88.479 39.3423 88.4756 39.2998 Z" fill="#ffffff"/>
				<path d="M 140.679 60.5859 C 140.0029 59.9346 139.162 59.6025 138.183 59.6025 C 137.3075 59.6025 136.1426 60.2363 134.6318 61.5337 C 134.3794 61.749 134.0947 61.9644 133.7452 62.2065 C 132.2628 63.2095 130.6066 63.7158 128.8253 63.7158 C 126.8483 63.7158 125.2115 63.0625 123.8175 61.7134 C 122.7355 60.665 122.0886 59.4771 121.8513 58.1055 L 140.7064 58.1055 L 140.7064 48.7065 C 140.7064 44.9766 139.3783 41.8066 136.7554 39.2842 C 134.1356 36.7725 130.8876 35.5 127.0991 35.5 C 125.4572 35.5 123.8834 35.7573 122.4224 36.2656 C 120.5688 36.9087 118.9043 37.9531 117.4755 39.3682 C 114.8798 41.9341 113.5643 45.0757 113.5643 48.7065 L 113.5643 55.8467 C 113.5643 60.1333 115.052 63.7168 117.9835 66.4995 C 120.9061 69.2842 124.5679 70.6997 128.8699 70.6997 C 131.821 70.6997 134.4849 70.0337 136.7891 68.7202 C 138.3505 67.8267 139.7546 66.6406 140.9636 65.1807 C 141.4589 64.5776 141.709 63.8516 141.709 63.0215 C 141.709 62.0728 141.3646 61.2544 140.679 60.5859 ZM 121.7495 47.6582 C 121.7495 46.2144 122.2705 45.0029 123.3369 43.9595 C 124.4093 42.9165 125.6517 42.4111 127.137 42.4111 C 129.7487 42.4111 131.4213 43.4858 132.252 45.6924 C 132.4863 46.332 132.6016 46.9502 132.6016 47.5825 L 132.6016 50.4917 L 121.7495 50.4917 L 121.7495 47.6582 Z" fill="#ffffff"/>
				<path d="M 113.6962 43.1582 C 113.7504 42.7778 113.7754 42.4829 113.7754 42.2651 C 113.7754 40.3467 112.3312 38.7813 109.4822 37.6172 C 107.3798 36.7578 105.2069 36.5747 103.7566 36.5747 C 102.3297 36.5747 101.3689 36.7437 101.3236 36.7524 C 98.061 37.3574 90.473 39.7842 90.473 49.1982 C 90.473 49.856 90.4575 50.418 90.4218 50.9385 C 90.4218 51.0083 90.4155 51.0894 90.4111 51.1548 L 90.4089 67.9585 L 90.4128 67.9585 C 90.4385 70.1084 92.21 71.8438 94.3932 71.8438 C 96.5748 71.8438 98.3469 70.1074 98.3727 67.9556 L 98.3799 67.9556 L 98.3638 49.7339 C 98.3638 48.0708 98.8472 46.7197 99.8375 45.5938 C 100.5845 44.7422 101.547 44.2393 102.7797 44.0513 C 103.0454 44.0122 103.4043 43.9648 103.7866 43.9648 C 105.1697 43.9648 106.6523 44.4155 108.1703 45.293 C 108.734 45.6504 109.4124 45.8325 110.1862 45.8325 C 112.0435 45.8325 113.2533 44.9307 113.6838 43.2197 L 113.6962 43.1582 Z" fill="#ffffff"/>
			</g>
			<g>
				<g>
					<path d="M 100.9951 86.4844 L 101.1743 86.3008 C 101.2791 86.1631 101.3992 86.1475 101.4889 86.271 C 101.6084 86.4082 102.4456 87.4165 103.6558 87.4185 C 105.0613 87.4185 106.2877 86.4248 106.2882 85.1123 C 106.2887 83.981 105.3774 83.4463 104.0465 82.7568 C 102.746 82.084 101.8192 81.4585 101.8197 80.0532 C 101.8204 78.6772 102.7927 77.0586 105.17 77.0596 C 106.4854 77.0596 107.3669 77.8394 107.3669 77.8394 C 107.4124 77.8848 107.5164 77.9766 107.3818 78.1597 L 107.2473 78.3438 C 107.1576 78.4644 107.0524 78.5112 106.9187 78.4209 C 106.8739 78.3892 106.0808 77.7173 105.0791 77.7173 C 103.3312 77.7163 102.5232 78.9839 102.5227 79.9917 C 102.5216 81.0615 103.3138 81.5967 104.4058 82.1313 C 105.9744 82.896 107.0057 83.585 107.0057 85.0352 C 107.0048 86.8374 105.4497 88.0591 103.5958 88.0591 C 102.0708 88.0581 101.1595 86.9893 100.9951 86.8047 C 100.921 86.729 100.8457 86.6538 100.9951 86.4844 Z" fill="#ffffff"/>
					<path d="M 110.043 77.8706 L 107.5018 77.8696 C 107.3519 77.8696 107.3376 77.7783 107.3525 77.6416 L 107.3823 77.4116 C 107.3976 77.2886 107.5018 77.2144 107.5914 77.2144 L 113.3619 77.2153 C 113.4816 77.2153 113.5419 77.3076 113.5264 77.4141 L 113.4965 77.6733 C 113.4816 77.7803 113.392 77.8726 113.2725 77.8726 L 110.7307 77.8706 L 109.3813 87.709 C 109.3671 87.8169 109.2767 87.9082 109.1274 87.9082 L 108.8435 87.9082 C 108.7391 87.9082 108.6637 87.8164 108.6792 87.709 L 110.043 77.8706 Z" fill="#ffffff"/>
					<path d="M 113.6011 77.4141 C 113.6161 77.3076 113.7212 77.2153 113.8109 77.2153 L 114.139 77.2153 C 114.2441 77.2163 114.318 77.3076 114.3038 77.4155 L 113.4044 83.937 C 113.1195 85.9082 113.9866 87.3608 115.7506 87.3618 C 117.5143 87.3618 118.7858 85.9268 119.056 83.9551 L 119.9697 77.417 C 119.9849 77.2944 120.0444 77.2173 120.1945 77.2173 L 120.5082 77.2173 C 120.5978 77.2173 120.6725 77.3096 120.6576 77.417 L 119.7582 84.0176 C 119.4285 86.3545 117.8429 88.064 115.6462 88.064 C 113.5975 88.063 112.3722 86.3516 112.6874 84.0137 L 113.6011 77.4141 Z" fill="#ffffff"/>
					<path d="M 122.1674 77.4175 C 122.1827 77.3096 122.2723 77.2192 122.3618 77.2192 L 125.2477 77.2202 C 127.5348 77.2212 129.2979 79.3145 129.2968 81.8657 C 129.296 85.1978 126.7091 87.9141 123.7783 87.9141 L 120.8931 87.9141 C 120.8036 87.9141 120.7286 87.8213 120.7438 87.7148 L 122.1674 77.4175 ZM 123.734 87.2568 C 126.3049 87.2583 128.5485 84.9229 128.5498 81.8975 C 128.5503 79.6348 127.131 77.877 125.0226 77.877 L 122.7953 77.876 L 121.5063 87.2559 L 123.734 87.2568 Z" fill="#ffffff"/>
					<path d="M 130.8839 77.4204 C 130.8982 77.3145 130.9735 77.2222 131.1079 77.2222 L 131.4366 77.2222 C 131.5417 77.2222 131.616 77.3145 131.6011 77.4219 L 130.1919 87.7168 C 130.1626 87.8408 130.0575 87.9165 129.9528 87.9165 L 129.639 87.9165 C 129.5338 87.9165 129.4594 87.8247 129.4746 87.7168 L 130.8839 77.4204 Z" fill="#ffffff"/>
					<path d="M 138.2405 76.2524 C 140.6029 76.2524 142.3962 78.3926 142.3958 81.0361 C 142.3939 84.4878 139.8218 87.2534 136.7274 87.2524 C 134.3651 87.251 132.5717 85.1431 132.5723 82.5151 C 132.5741 79.062 135.1461 76.252 138.2405 76.2524 ZM 136.8173 86.5786 C 139.3585 86.5806 141.7061 84.1372 141.708 81.1289 C 141.7085 78.8208 140.2437 76.9248 138.151 76.9248 C 135.5948 76.9233 133.2614 79.3965 133.2607 82.4224 C 133.2596 84.7139 134.7238 86.5786 136.8173 86.5786 Z" fill="#ffffff"/>
				</g>
				<g>
					<path d="M 109.1104 89.269 C 109.1245 89.1162 109.2596 88.978 109.394 88.978 L 112.6235 88.979 C 114.9852 88.9805 116.6748 91.1509 116.6735 93.626 C 116.6718 96.9424 114.2938 99.6748 111.1548 99.6748 L 107.9108 99.6733 C 107.7758 99.6733 107.6862 99.5352 107.7161 99.3818 L 109.1104 89.269 ZM 111.2592 97.811 C 113.0836 97.812 114.5939 96.0552 114.595 93.7637 C 114.5958 92.0977 113.6692 90.8286 112.2339 90.8276 L 110.829 90.8276 L 109.8691 97.811 L 111.2592 97.811 Z" fill="#ffffff"/>
					<path d="M 117.8264 89.271 C 117.8413 89.1196 117.9764 88.9814 118.1101 88.9814 L 123.6415 88.9844 C 123.791 88.9844 123.8805 89.1221 123.8657 89.2749 L 123.6865 90.5269 C 123.6709 90.6797 123.5363 90.8179 123.387 90.8179 L 119.5599 90.8169 L 119.2151 93.3203 L 122.3843 93.3218 C 122.5193 93.3218 122.6234 93.4609 122.6083 93.6128 L 122.4285 94.8804 C 122.3992 95.0488 122.264 95.1709 122.1296 95.1709 L 118.9601 95.1699 L 118.5859 97.8442 L 122.4272 97.8447 C 122.5768 97.8447 122.6514 97.9829 122.6365 98.1367 L 122.4716 99.3887 C 122.4572 99.5405 122.3221 99.6782 122.1726 99.6782 L 116.6411 99.6753 C 116.4918 99.6753 116.4022 99.5376 116.432 99.3853 L 117.8264 89.271 Z" fill="#ffffff"/>
					<path d="M 122.6962 98.1821 L 123.28 97.311 C 123.4146 97.0972 123.6244 97.144 123.7432 97.25 C 123.953 97.4331 124.6851 98.0439 125.5969 98.0454 C 126.2699 98.0454 126.9272 97.5117 126.9277 96.748 C 126.9277 96.0752 126.4802 95.6309 125.6429 95.0659 C 124.6569 94.4092 123.4905 93.5366 123.491 92.0098 C 123.4917 90.4805 124.524 88.8315 126.8711 88.8325 C 128.2612 88.8325 129.2777 89.5674 129.5322 89.8271 C 129.7108 90.0103 129.7257 90.2256 129.5765 90.438 L 128.9926 91.2769 C 128.8737 91.4614 128.6788 91.4771 128.4702 91.3086 C 128.2312 91.1104 127.5435 90.6362 126.7816 90.6362 C 126.0189 90.6343 125.5098 91.2305 125.5098 91.8262 C 125.5098 92.438 125.9125 92.7441 126.8102 93.3564 C 127.7968 94.0273 129.1108 94.8682 129.1108 96.5488 C 129.1104 98.3369 127.7489 99.833 125.5366 99.832 C 123.9972 99.832 122.9353 98.9146 122.6962 98.6396 C 122.6072 98.5488 122.5317 98.4121 122.6962 98.1821 Z" fill="#ffffff"/>
					<path d="M 130.5631 90.0957 C 130.5786 89.9443 130.7133 89.8062 130.8475 89.8062 L 132.313 89.8062 C 132.4473 89.8062 132.5519 89.9453 132.5221 90.0977 L 131.1283 100.2104 C 131.1134 100.3647 130.979 100.5 130.844 100.5 L 129.3782 100.5 C 129.2441 100.5 129.1395 100.3633 129.1696 100.2104 L 130.5631 90.0957 Z" fill="#ffffff"/>
					<path d="M 137.8585 88.8374 C 139.2043 88.8374 140.2062 89.3726 140.9688 90.2891 C 141.0577 90.4121 141.0427 90.5952 140.9082 90.7163 L 140.1157 91.5112 C 139.9366 91.6484 139.7566 91.6484 139.6217 91.5112 C 139.2333 91.1289 138.681 90.748 137.7535 90.748 C 135.96 90.7456 134.4047 92.6401 134.4032 94.8257 C 134.4032 96.4438 135.4037 97.8511 136.7197 97.8511 C 137.4219 97.8521 137.9608 97.668 138.2448 97.4839 L 138.4247 96.1392 L 137.4679 96.1392 C 137.3177 96.1392 137.229 96.0176 137.2438 95.8647 L 137.4087 94.6729 C 137.439 94.5044 137.5575 94.3833 137.7075 94.3833 L 140.3536 94.3843 C 140.4882 94.3843 140.5779 94.5215 140.5634 94.6738 L 140.0686 98.3418 C 140.0376 98.5854 139.9335 98.7231 139.8291 98.8145 C 139.6797 98.9375 138.4987 99.8369 136.4799 99.8359 C 134.0436 99.8359 132.2794 97.7119 132.2806 95.0835 C 132.2819 91.4932 134.7351 88.8364 137.8585 88.8374 Z" fill="#ffffff"/>
					<path d="M 141.9858 89.1123 C 142.0009 88.9614 142.1353 88.8374 142.2701 88.8374 L 142.6587 88.8374 L 147.215 95.4409 L 147.2311 95.4409 L 148.0396 89.2837 C 148.0555 89.1318 148.1746 88.9941 148.3241 88.9941 L 149.7744 88.9941 C 149.9089 88.9941 150.0142 89.1318 149.9984 89.2847 L 148.5743 99.5664 C 148.5596 99.7188 148.4242 99.8423 148.2899 99.8408 L 147.8865 99.8408 L 143.3441 93.041 L 143.33 93.041 L 142.52 99.396 C 142.5045 99.5474 142.3707 99.687 142.2213 99.687 L 140.7859 99.6855 C 140.666 99.6855 140.561 99.563 140.5762 99.4268 L 141.9858 89.1123 Z" fill="#ffffff"/>
				</g>
			</g>
		</g>
		<g visibility="hidden">
			<path d="M 112.17 25.2783 C 110.1088 24.7935 108.0294 24.3404 105.8842 24.0277 C 105.8063 24.0158 105.7125 24.0099 105.6346 24 C 102.5825 26.2282 99.7803 28.6938 97.2475 31.3336 C 100.0498 30.9279 102.9041 30.6707 105.8263 30.5638 C 116.009 30.1957 125.6964 31.8481 134.4449 35.0004 C 128.1352 30.6984 120.5251 27.3027 112.17 25.2783 L 112.17 25.2783 Z" fill="#ffffff"/>
			<path d="M 107.63 47.4987 C 119.1589 42.1064 131.2311 39.8287 142.6263 40.3254 C 132.819 36.0333 121.5638 33.7774 109.6653 34.2049 C 103.801 34.4166 98.1364 35.2734 92.7694 36.6804 C 88.3092 37.844 84.0448 39.3914 80.032 41.2812 C 81.9104 43.653 83.9744 45.9259 86.2019 48.0963 C 83.8011 53.8567 82.4928 60.0228 82.4708 66.4223 C 85.9922 62.3241 90.0689 58.5466 94.6489 55.1805 C 98.6138 52.2796 102.9461 49.6912 107.63 47.4987 Z" fill="#ffffff"/>
			<path d="M 152 89.9922 C 151.8582 89.9922 151.7204 89.9962 151.5726 89.9962 C 145.7262 89.9962 141.4877 86.2859 141.4877 81.1726 L 141.4877 81.0598 C 141.4877 76.1681 145.7302 72.3371 151.1591 72.3371 C 151.4467 72.3371 151.7303 72.3489 152 72.3628 L 152 66.4916 C 151.7483 66.4777 151.4907 66.4777 151.229 66.4777 C 140.5989 66.4777 132.5774 72.7922 132.5774 81.1726 L 132.5774 81.2794 C 132.5774 89.454 140.7087 95.8635 151.0932 95.8635 C 151.4107 95.8635 151.6984 95.8556 152 95.8476 L 152 89.9922 Z" fill="#ffffff"/>
			<path d="M 44.5344 77.6779 C 38.2666 76.3541 37.3817 75.7149 37.3817 73.7519 L 37.3817 73.6629 C 37.3817 72.2163 38.9957 71.0627 42.0496 71.0627 C 43.6056 71.0627 45.6449 71.4842 47.0731 72.0066 L 47.0731 65.7436 C 45.7408 65.518 43.7035 65.2528 42.1555 65.2528 C 34.7412 65.2528 29.4561 68.8405 29.4561 74.2684 L 29.4561 74.3495 C 29.4561 80.2861 34.166 81.9483 41.4824 83.4839 C 47.5425 84.7642 48.1177 85.619 48.1177 87.2872 L 48.1177 87.3723 C 48.1177 89.1236 46.1423 90.1921 42.8766 90.1921 C 38.732 90.1921 35.9836 88.7812 32.7239 86.5629 L 28 91.2191 C 32.3583 94.415 37.2259 96 42.7228 96 C 50.5485 96 56.0493 92.6696 56.0493 86.7311 L 56.0493 86.646 C 56.0493 81.4358 51.8988 79.259 44.5344 77.6779 L 44.5344 77.6779 Z" fill="#ffffff"/>
			<path d="M 62.8245 80.3256 C 63.4537 77.1714 65.5949 75.1074 68.8846 75.1074 C 72.2162 75.1074 74.3095 77.2149 74.7829 80.3256 L 62.8245 80.3256 ZM 68.8846 69.535 C 60.7392 69.535 55.0527 75.2954 55.0527 82.2867 L 55.0527 82.3777 C 55.0527 89.8755 61.2625 95.0383 69.6616 95.0383 C 69.9093 95.0383 70.6862 95.0066 70.9259 95.0047 L 70.9259 89.4164 C 70.7282 89.4263 69.9772 89.4599 69.7635 89.4599 C 66.2181 89.4599 63.7134 87.8195 62.9264 84.6633 L 82.2212 84.6633 C 82.2671 84.0182 82.327 83.6085 82.327 82.9179 L 82.327 82.8368 C 82.327 75.8891 78.2204 69.535 68.8846 69.535 L 68.8846 69.535 Z" fill="#ffffff"/>
			<path d="M 107.4902 81.6139 C 107.4902 74.9867 103.3955 69.8121 94.7448 69.8121 C 86.0781 69.8121 81.9855 74.9867 81.9855 81.6139 L 81.9855 94.5851 L 90.007 94.5851 L 90.007 81.135 C 90.1528 78.6812 91.1235 75.7862 94.7448 75.7862 C 98.3521 75.7862 99.4087 78.6812 99.5465 81.135 L 99.5465 94.5851 L 107.4902 94.5851 L 107.4902 81.6139 Z" fill="#ffffff"/>
			<path d="M 120.5251 69.6696 C 120.1736 69.6696 118.9632 69.6775 118.6296 69.6874 L 118.6296 75.614 C 120.1736 75.6299 122.2868 75.8891 123.2276 76.3798 C 124.6198 77.1021 125.3368 78.3171 125.3708 79.9675 C 123.4793 79.7458 121.3361 79.5994 119.4845 79.5539 C 111.9104 79.36 108.1672 81.8394 107.4122 85.813 C 107.3963 85.8822 107.3863 85.9614 107.3723 86.0346 C 107.3683 86.0603 107.3663 86.088 107.3603 86.1117 C 107.3024 86.4917 107.2684 86.8914 107.2684 87.3129 L 107.2684 87.4059 C 107.2684 92.2541 111.5968 94.9057 116.8639 94.9057 C 120.7309 94.9057 123.3913 93.667 125.3188 91.793 L 125.3188 94.6188 L 132.9908 94.6188 L 132.9908 80.2307 C 132.9908 73.5976 129.1798 69.6696 120.5251 69.6696 L 120.5251 69.6696 ZM 125.3948 85.8703 C 124.7037 89.454 120.9725 89.9922 120.1276 90.0318 C 114.0935 90.3465 113.8778 86.2582 115.9112 85.0135 C 118.6356 83.3394 125.4207 84.2833 125.4207 84.2833 C 125.4207 84.5228 125.4827 85.1303 125.3948 85.8703 L 125.3948 85.8703 Z" fill="#ffffff"/>
		</g>
	</g>
</svg>