<?xml version="1.0" encoding="UTF-8"?>
<svg width="194px" height="60px" viewBox="0 0 194 60" version="1.1" xmlns="http://www.w3.org/2000/svg" xmlns:xlink="http://www.w3.org/1999/xlink">
    <!-- Generator: Sketch 64 (93537) - https://sketch.com -->
    <title>faculdade-dom-bosco-black</title>
    <desc>Created with Sketch.</desc>
    <defs>
        <polygon id="path-1" points="0 59.8328333 193.830511 59.8328333 193.830511 0.521505376 0 0.521505376"></polygon>
    </defs>
    <g id="Large" stroke="none" stroke-width="1" fill="none" fill-rule="evenodd">
        <g id="400---Pesquisa_Projetos" transform="translate(-30.000000, -30.000000)">
            <g id="Elements/Logo-colorido" transform="translate(30.000000, 30.000000)">
                <g id="Group-66">
                    <path d="M51.0296661,0.758112366 C55.5177414,0.758112366 59.169322,4.40865 59.169322,8.89724677 L59.169322,43.2519349 L58.8574618,43.3458059 C58.7787145,43.3687522 53.5600102,44.8894618 45.7984457,44.8894618 C41.7228812,44.8894618 36.9469349,44.470693 31.8450478,43.1950909 C12.462779,38.3508274 1.78965,43.3817898 0.636601613,43.9710909 L-0.000156451613,44.2965102 L-0.000156451613,8.89724677 C-0.000156451613,4.40865 3.6519457,0.758112366 8.14054247,0.758112366 L51.0296661,0.758112366 Z" id="Combined-Shape"></path>
                    <path d="M51.1611898,0.662311828 L8.06711452,0.662311828 C3.63431882,0.662311828 0.0286306452,4.268 0.0286306452,8.70027419 L0.0286306452,51.794871 C0.0286306452,56.2266237 3.63431882,59.8328333 8.06711452,59.8328333 L51.1611898,59.8328333 C55.593464,59.8328333 59.1991522,56.2266237 59.1991522,51.794871 L59.1991522,8.70027419 C59.1991522,4.268 55.593464,0.662311828 51.1611898,0.662311828 L51.1611898,0.662311828 Z M58.9003296,42.8917312 C58.9003296,42.8917312 46.9359532,46.4708226 31.9911737,42.7352796 C12.4665339,37.8560753 1.71570054,42.8401022 0.32693172,43.549871 L0.32693172,8.70027419 C0.32693172,4.43227419 3.79963602,0.961134409 8.06711452,0.961134409 L51.1611898,0.961134409 C55.4286683,0.961134409 58.9003296,4.43227419 58.9003296,8.70027419 L58.9003296,42.8917312 Z" id="Fill-4" fill="#2D408F"></path>
                    <polygon id="Fill-6" fill="#FFFFFF" points="9.34960054 47.427472 11.9905038 47.427472 11.9905038 47.710128 10.1840091 47.710128 10.1840091 49.4462194 11.8799446 49.4462194 11.8799446 49.7293968 10.1840091 49.7293968 10.1840091 51.5969075 12.0181435 51.5969075 12.0181435 51.8931226 9.34960054 51.8931226"></polygon>
                    <polygon id="Fill-8" fill="#FFFFFF" points="17.2607849 47.427472 19.9022097 47.427472 19.9022097 47.710128 18.0951935 47.710128 18.0951935 49.4462194 19.791129 49.4462194 19.791129 49.7293968 18.0951935 49.7293968 18.0951935 51.5969075 19.929328 51.5969075 19.929328 51.8931226 17.2607849 51.8931226"></polygon>
                    <path d="M25.7441651,51.8928618 L27.5579608,47.303093 L27.5709984,47.303093 L29.4588478,51.8928618 L28.5848048,51.8928618 L28.1300522,50.7215608 L26.5785737,50.7215608 L26.131122,51.8928618 L25.7441651,51.8928618 Z M26.6964339,50.4394263 L28.0054124,50.4394263 L27.3462296,48.7972059 L26.6964339,50.4394263 Z" id="Fill-10" fill="#FFFFFF"></path>
                    <polygon id="Fill-12" fill="#FFFFFF" points="30.0951887 47.427472 30.9295973 47.427472 30.9295973 51.5431925 32.7199253 51.5431925 32.7199253 51.8931226 30.0951887 51.8931226"></polygon>
                    <polygon id="Fill-14" fill="#FFFFFF" points="33.2280801 47.427472 35.8695048 47.427472 35.8695048 47.710128 34.0624887 47.710128 34.0624887 49.4462194 35.7584242 49.4462194 35.7584242 49.7293968 34.0624887 49.7293968 34.0624887 51.5969075 35.8971446 51.5969075 35.8971446 51.8931226 33.2280801 51.8931226"></polygon>
                    <mask id="mask-2" fill="white">
                        <use xlink:href="#path-1"></use>
                    </mask>
                    <g id="Clip-17"></g>
                    <polygon id="Fill-16" fill="#FFFFFF" mask="url(#mask-2)" points="40.2742957 51.892914 41.1227849 51.892914 41.1227849 47.4272634 40.2742957 47.4272634"></polygon>
                    <path d="M41.7116688,51.8928618 L43.5254645,47.303093 L43.5385022,47.303093 L45.4263516,51.8928618 L44.5523086,51.8928618 L44.0975559,50.7215608 L42.5460774,50.7215608 L42.0986258,51.8928618 L41.7116688,51.8928618 Z M42.6639376,50.4394263 L43.9729161,50.4394263 L43.3137333,48.7972059 L42.6639376,50.4394263 Z" id="Fill-18" fill="#FFFFFF" mask="url(#mask-2)"></path>
                    <polygon id="Fill-19" fill="#FFFFFF" mask="url(#mask-2)" points="45.9919763 47.427472 46.7518097 47.427472 49.0777237 50.4928806 49.0980624 50.4928806 49.0980624 47.427472 49.4542505 47.427472 49.4542505 51.8931226 49.0839817 51.8931226 46.3721538 48.3223753 46.3591161 48.3223753 46.3591161 51.8931226 45.9919763 51.8931226"></polygon>
                    <path d="M50.0165376,51.8928618 L51.8303333,47.303093 L51.843371,47.303093 L53.7312204,51.8928618 L52.8571774,51.8928618 L52.4024247,50.7215608 L50.8509462,50.7215608 L50.4034946,51.8928618 L50.0165376,51.8928618 Z M50.9688065,50.4394263 L52.2777849,50.4394263 L51.6186022,48.7972059 L50.9688065,50.4394263 Z" id="Fill-20" fill="#FFFFFF" mask="url(#mask-2)"></path>
                    <path d="M44.0992247,56.4081597 L45.4765204,52.9224177 L45.486429,52.9224177 L46.9200473,56.4081597 L46.2556495,56.4081597 L45.9104129,55.518993 L44.7333753,55.518993 L44.3928323,56.4081597 L44.0992247,56.4081597 Z M44.8225527,55.3041328 L45.8165419,55.3041328 L45.3153753,54.0572134 L44.8225527,55.3041328 Z" id="Fill-21" fill="#FFFFFF" mask="url(#mask-2)"></path>
                    <polygon id="Fill-22" fill="#FFFFFF" mask="url(#mask-2)" points="49.8845968 56.4081075 50.5286559 56.4081075 50.5286559 53.0183226 49.8845968 53.0183226"></polygon>
                    <polygon id="Fill-23" fill="#FFFFFF" mask="url(#mask-2)" points="51.6778452 53.0173317 52.3119957 53.0173317 52.3119957 56.1427134 53.6710387 56.1427134 53.6710387 56.4081597 51.6778452 56.4081597"></polygon>
                    <path d="M5.46960054,47.427472 L7.37361667,47.427472 C7.62081022,47.427472 7.84349301,47.4843161 8.04218656,47.5990473 C8.2403586,47.7137785 8.39628871,47.8728376 8.50841237,48.0772677 C8.62053602,48.2816978 8.67581559,48.5033376 8.67581559,48.7427086 C8.67581559,49.0483108 8.57412204,49.2918538 8.37073495,49.4733376 C8.16630484,49.655343 7.87686935,49.7648591 7.50138548,49.802929 L8.70345538,51.8931226 L7.75796613,51.8931226 L6.5527672,49.6063215 C6.99500376,49.6063215 7.31781559,49.5207946 7.5222457,49.3492194 C7.72667581,49.1781656 7.82836935,48.9539183 7.82836935,48.6780419 C7.82836935,48.4673538 7.78612742,48.2863914 7.70216505,48.1335903 C7.61768118,47.9813108 7.49825645,47.863972 7.34232634,47.7810527 C7.18639624,47.6981333 7.00230484,47.6564129 6.79161667,47.6564129 L6.31756828,47.6564129 L6.31756828,51.8931226 L5.46960054,51.8931226 L5.46960054,47.427472 Z" id="Fill-24" fill="#FFFFFF" mask="url(#mask-2)"></path>
                    <path d="M36.1668672,7.24172796 C36.1668672,7.24172796 21.2283457,16.2841097 29.6683887,16.2272656 C38.1068672,16.1714645 40.0385231,18.3643946 37.3913618,22.7074914 C34.4902274,27.467271 24.0168349,36.7599753 24.0168349,36.7599753 L13.3927274,36.7599753 C13.3927274,36.7599753 27.8097435,27.178357 31.1374694,22.669943 C31.1374694,22.669943 34.5282973,19.0533032 28.0105231,18.8264484 C21.4927489,18.6006366 18.5916145,18.0859108 24.6196952,12.8369591 C24.6196952,12.8369591 27.897878,10.1240882 33.1337919,7.24172796 L36.1668672,7.24172796 Z" id="Fill-25" fill="#CE3F43" mask="url(#mask-2)"></path>
                    <path d="M34.0902849,11.6995038 C33.3356667,11.3777349 32.5800054,11.095079 31.8259086,10.8437134 C31.7982688,10.8645737 31.7701075,10.8854339 31.7419462,10.9062941 C31.6678925,10.9605306 31.5985323,11.0142457 31.526043,11.0690038 C32.3213387,11.3349715 33.1192419,11.6457887 33.9145376,11.9993694 C42.3895215,15.7729823 47.3558172,23.1074339 45.008,28.3829823 C43.0278441,32.8288156 36.4850376,34.3928102 29.4035161,32.5159124 C28.8455054,33.0561919 28.3078333,33.5693532 27.8030161,34.0460091 C36.2081183,36.6571866 44.2283495,34.8898048 46.4901183,29.5944392 C49.0027312,23.7092511 43.4523495,15.697364 34.0902849,11.6995038" id="Fill-26" fill="#2E4C9A" mask="url(#mask-2)"></path>
                    <path d="M14.3170957,14.7192806 C16.0625742,10.7986032 21.3584613,9.12144194 27.442343,10.0669312 C27.5581172,9.98766237 27.6764989,9.90787204 27.7980097,9.82703871 C20.747257,8.61662473 14.5350849,10.5587108 12.5888269,15.1161462 C10.4736011,20.0683613 14.0704237,26.5266839 20.8416495,30.8322323 C21.3918376,30.4265011 21.9482839,30.0113828 22.5036871,29.590528 C15.8445849,25.5884957 12.2519344,19.358071 14.3170957,14.7192806" id="Fill-27" fill="#2E4C9A" mask="url(#mask-2)"></path>
                    <path d="M46.9771522,55.9762489 L47.2076575,55.7921575 C47.2931844,55.9267059 47.3745392,56.0252704 47.4527651,56.0873296 C47.5299478,56.1499102 47.6238188,56.1905876 47.7333349,56.2114478 C47.7495016,56.2145769 47.7755769,56.2177059 47.8094747,56.2213565 C47.8438941,56.2244855 47.8684048,56.2286575 47.8835285,56.2323081 C48.0514532,56.22605 48.1964317,56.175464 48.3210715,56.078464 C48.4451898,55.981464 48.5108995,55.8552597 48.517679,55.7008941 C48.517679,55.4771683 48.4561414,55.3071575 48.3351522,55.1903403 C48.2131199,55.0724801 48.0405016,54.9770446 47.8167758,54.9040339 C47.6452005,54.8424962 47.495007,54.774179 47.3682812,54.6996038 C47.2399909,54.6250285 47.1362113,54.5217704 47.056421,54.3924371 C46.9761091,54.2620608 46.9364747,54.0977866 46.9364747,53.9006575 C46.9432543,53.6977919 46.9990554,53.5236091 47.104921,53.3755016 C47.2102651,53.2284371 47.35055,53.1168349 47.5242113,53.0386091 C47.6983941,52.9614263 47.8892651,52.9228349 48.0973457,52.9228349 C48.2016468,52.92805 48.3028188,52.9463027 48.4003403,52.9781145 C48.4983833,53.0088833 48.5870392,53.0500823 48.6663081,53.1001468 C48.7460984,53.1507328 48.8191091,53.2127919 48.8853403,53.2878887 C48.952093,53.3629855 49.0042435,53.4422543 49.0412704,53.5251737 L48.8264102,53.6711952 C48.6835177,53.3629855 48.4550984,53.2023618 48.1416737,53.1888027 C47.9857435,53.1888027 47.8538027,53.2373027 47.7474156,53.3327382 C47.6410285,53.4286952 47.5815769,53.5601145 47.5695823,53.7269962 C47.5695823,53.8312973 47.5867919,53.9178672 47.6217328,53.9877489 C47.6566737,54.0571091 47.7114317,54.1191683 47.7854855,54.1739263 C47.8595392,54.2281629 47.9570608,54.283964 48.0775285,54.3402866 C48.1891306,54.3877435 48.3137704,54.4414586 48.4519694,54.5019532 C48.5917328,54.5629694 48.711679,54.6307651 48.8138941,54.7053403 C48.9161091,54.7804371 49.000593,54.8805661 49.0673457,55.0062489 C49.1335769,55.1314102 49.1669532,55.2873403 49.1669532,55.4750823 C49.1648672,55.6742973 49.1075016,55.8526522 48.9969425,56.0101468 C48.8848188,56.1681629 48.7393188,56.2891522 48.559921,56.374679 C48.3815661,56.4602059 48.1938242,56.5024478 47.9972167,56.5024478 C47.7927866,56.5024478 47.5977435,56.4575984 47.4120876,56.3689425 C47.2259102,56.2802866 47.0809317,56.1493887 46.9771522,55.9762489" id="Fill-28" fill="#FFFFFF" mask="url(#mask-2)"></path>
                    <path d="M38.4680618,53.0173317 L39.8756048,53.0173317 C40.0529167,53.0173317 40.2171909,53.0548801 40.3679059,53.1284124 C40.5180995,53.2024661 40.6380457,53.3062457 40.7267016,53.4407941 C40.8153575,53.5742995 40.859164,53.7281435 40.859164,53.9012833 C40.859164,54.0958048 40.8038844,54.2564285 40.6933253,54.3852403 C40.5832876,54.5140522 40.4383091,54.598536 40.2615188,54.6402565 L40.2615188,54.6501651 C40.5102769,54.697622 40.6943683,54.8003586 40.8122285,54.9562887 C40.9311317,55.1132618 40.9895403,55.2858801 40.9895403,55.4751866 C40.9895403,55.6133855 40.9650296,55.7411543 40.9160081,55.8590145 C40.8659435,55.9763532 40.7965833,56.0754392 40.7063629,56.1567941 C40.6161425,56.2371059 40.5066263,56.2996866 40.3778145,56.34245 C40.2495242,56.386778 40.1029812,56.4081597 39.93975,56.4081597 L38.4680618,56.4081597 L38.4680618,53.0173317 Z M39.112121,54.5296973 L39.5314113,54.5296973 C39.9908575,54.5296973 40.2208414,54.3049285 40.2208414,53.8559124 C40.2187554,53.7124984 40.1848575,53.5951597 40.1154973,53.5028532 C40.0477016,53.4105468 39.9595672,53.3443156 39.8516156,53.3036382 C39.7431425,53.2629608 39.6216317,53.242622 39.4876048,53.242622 L39.112121,53.242622 L39.112121,54.5296973 Z M39.112121,56.1833909 L39.6075511,56.1833909 C39.8714328,56.1833909 40.0607392,56.1260253 40.1744274,56.0107726 C40.2891586,55.8960414 40.3454812,55.7448048 40.3454812,55.5596704 C40.3454812,55.4272081 40.3199274,55.2978747 40.2682984,55.1721919 C40.2161478,55.0480737 40.137922,54.9463801 40.032578,54.8702403 C39.9282769,54.7930575 39.8046801,54.7549876 39.6607446,54.7549876 L39.112121,54.7549876 L39.112121,56.1833909 Z" id="Fill-29" fill="#FFFFFF" mask="url(#mask-2)"></path>
                    <path d="M41.498321,53.0173317 L42.9444554,53.0173317 C43.1316758,53.0173317 43.3016866,53.0606167 43.4518801,53.1477081 C43.6025952,53.2347995 43.7204554,53.3552672 43.8059823,53.5101543 C43.8904661,53.6655629 43.9337511,53.8340091 43.9337511,54.0170575 C43.9337511,54.2480844 43.8560468,54.4326973 43.7006382,54.5714177 C43.5462726,54.7090952 43.3261973,54.7920145 43.0414554,54.8212188 L43.9535683,56.4081597 L43.2359769,56.4081597 L42.3212565,54.6715468 C42.6571059,54.6715468 42.9022134,54.6068801 43.0571005,54.4765038 C43.2114661,54.3461274 43.2896919,54.1771597 43.2896919,53.966993 C43.2896919,53.8074124 43.2573586,53.6697349 43.1932134,53.5534392 C43.1295898,53.4381866 43.0388478,53.3484876 42.9204661,53.2853855 C42.8015629,53.2222833 42.6628425,53.190993 42.5027403,53.190993 L42.1423801,53.190993 L42.1423801,56.4081597 L41.498321,56.4081597 L41.498321,53.0173317 Z" id="Fill-30" fill="#FFFFFF" mask="url(#mask-2)"></path>
                    <path d="M36.5834457,51.3244731 L36.8874833,51.0819731 C37.0001285,51.2587634 37.1070371,51.3886183 37.2092522,51.4704946 C37.3119887,51.552371 37.435064,51.6066075 37.578478,51.6342473 C37.6009027,51.6384194 37.635322,51.6420699 37.6801715,51.6472849 C37.7244995,51.651457 37.7578758,51.656672 37.777693,51.6608441 C37.9977683,51.6540645 38.1896823,51.5867903 38.3529134,51.4590215 C38.5166661,51.3312527 38.6037575,51.1648925 38.6121016,50.9615054 C38.6121016,50.6678978 38.5323113,50.4436505 38.3722091,50.2892849 C38.211064,50.1338763 37.9836876,50.0087151 37.6900801,49.9122366 C37.4632253,49.8319247 37.2655747,49.7422258 37.0981715,49.6436613 C36.9302468,49.5445753 36.7930909,49.4095054 36.6877468,49.2384516 C36.5824027,49.0663548 36.5292091,48.8509731 36.5292091,48.5907419 C36.5385962,48.3237312 36.61265,48.0937473 36.7518919,47.8997473 C36.8906124,47.7062688 37.0747038,47.5581613 37.3036446,47.4564677 C37.533107,47.3542527 37.7844726,47.3026237 38.0593059,47.3026237 C38.1959403,47.3094032 38.3289242,47.3333925 38.4582575,47.3751129 C38.5870694,47.4163118 38.7038866,47.4700269 38.8087091,47.5367796 C38.9135317,47.6030108 39.0089672,47.6854086 39.0965801,47.7839731 C39.184193,47.8830591 39.2530317,47.9868387 39.3025747,48.0973978 L39.0193973,48.2887903 C38.8311339,47.8830591 38.5307468,47.671328 38.117193,47.6530753 C37.9106769,47.6530753 37.7380586,47.7161774 37.5977737,47.8429032 C37.4574887,47.9691075 37.3792629,48.1427688 37.3636177,48.3628441 C37.3636177,48.498957 37.3870855,48.6131667 37.4324565,48.7054731 C37.4788704,48.7977796 37.5503167,48.8791344 37.6483597,48.9505806 C37.7458812,49.0225484 37.8741715,49.0955591 38.0332306,49.1696129 C38.1787306,49.231672 38.3430048,49.3031183 38.5265747,49.3829086 C38.7091016,49.4626989 38.8676392,49.5523978 39.0032306,49.6509624 C39.1372575,49.7495269 39.2478167,49.8809462 39.3359511,50.0462634 C39.4230425,50.2115806 39.4668489,50.4170538 39.4668489,50.6637258 C39.4642414,50.927086 39.3896661,51.1617634 39.2431231,51.3693226 C39.0960586,51.5768817 38.9041446,51.7369839 38.6684242,51.8491075 C38.4327038,51.9612312 38.1855102,52.0175538 37.9273651,52.0175538 C37.6582683,52.0175538 37.4006446,51.9586237 37.1560586,51.8418065 C36.9109511,51.7244677 36.7200801,51.5518495 36.5834457,51.3244731" id="Fill-31" fill="#FFFFFF" mask="url(#mask-2)"></path>
                    <path d="M22.5239737,51.3244731 L22.8280113,51.0819731 C22.9406565,51.2587634 23.0475651,51.3886183 23.1497801,51.4704946 C23.2525167,51.552371 23.3755919,51.6066075 23.5195274,51.6342473 C23.5414306,51.6384194 23.57585,51.6420699 23.6206995,51.6472849 C23.6650274,51.651457 23.6984038,51.656672 23.7187425,51.6608441 C23.9382962,51.6540645 24.1302102,51.5867903 24.2939629,51.4590215 C24.4571941,51.3312527 24.543764,51.1648925 24.5526296,50.9615054 C24.5526296,50.6678978 24.4728392,50.4436505 24.3122156,50.2892849 C24.1521134,50.1338763 23.9242156,50.0087151 23.6306081,49.9122366 C23.4037532,49.8319247 23.2066242,49.7422258 23.0386995,49.6436613 C22.8712962,49.5445753 22.7341403,49.4095054 22.6287962,49.2384516 C22.5234522,49.0663548 22.4697371,48.8509731 22.4697371,48.5907419 C22.4791242,48.3237312 22.553178,48.0937473 22.6924199,47.8997473 C22.8311403,47.7062688 23.0152317,47.5581613 23.2452156,47.4564677 C23.4736349,47.3542527 23.7260435,47.3026237 23.9998339,47.3026237 C24.1369898,47.3094032 24.2694522,47.3333925 24.399307,47.3751129 C24.5275973,47.4163118 24.644936,47.4700269 24.7497586,47.5367796 C24.8530167,47.6030108 24.9494952,47.6854086 25.0376296,47.7839731 C25.124721,47.8830591 25.1935597,47.9868387 25.2425812,48.0973978 L24.9604468,48.2887903 C24.7721833,47.8830591 24.4712747,47.671328 24.057721,47.6530753 C23.8522478,47.6530753 23.6785866,47.7161774 23.5383016,47.8429032 C23.3980167,47.9691075 23.3197909,48.1427688 23.3041457,48.3628441 C23.3041457,48.498957 23.3276134,48.6131667 23.3729844,48.7054731 C23.4193984,48.7977796 23.4908446,48.8791344 23.5888876,48.9505806 C23.6864091,49.0225484 23.8146995,49.0955591 23.9742801,49.1696129 C24.1203016,49.231672 24.2845758,49.3031183 24.4671027,49.3829086 C24.6496296,49.4626989 24.8081672,49.5523978 24.9437586,49.6509624 C25.0777855,49.7495269 25.1883446,49.8809462 25.276479,50.0462634 C25.3635704,50.2115806 25.4078984,50.4170538 25.4078984,50.6637258 C25.4052909,50.927086 25.3307156,51.1617634 25.1836511,51.3693226 C25.0365866,51.5768817 24.8446726,51.7369839 24.6094737,51.8491075 C24.3732317,51.9612312 24.1260382,52.0175538 23.867893,52.0175538 C23.5993177,52.0175538 23.3416941,51.9586237 23.0965866,51.8418065 C22.8520005,51.7244677 22.6611296,51.5518495 22.5239737,51.3244731" id="Fill-32" fill="#FFFFFF" mask="url(#mask-2)"></path>
                    <path d="M12.7548742,47.427472 L14.2083097,47.427472 C14.9921323,47.427472 15.6069871,47.6819667 16.0560032,48.1909559 C16.1722989,48.3187247 16.2692989,48.4673538 16.3475247,48.6352785 C16.4247075,48.8037247 16.4825946,48.9852086 16.5217075,49.1802516 C16.5618634,49.3752946 16.5806376,49.5698161 16.5806376,49.7627731 C16.5806376,50.287929 16.4586054,50.719214 16.2140194,51.0581925 C16.0304495,51.3257247 15.7869065,51.5311978 15.4839118,51.6756548 C15.1809172,51.8201118 14.7976108,51.8931226 14.3329495,51.8931226 L12.7548742,51.8931226 L12.7548742,47.427472 Z M13.6028419,51.6104667 L14.1478151,51.6104667 C14.7021753,51.6104667 15.1079065,51.446714 15.3660516,51.1186871 C15.6241968,50.7917032 15.7535301,50.3525957 15.7535301,49.802929 C15.7535301,49.6803753 15.7509226,49.5854613 15.746229,49.5207946 C15.7217183,49.1640849 15.6434925,48.8496172 15.5125946,48.5763484 C15.3811753,48.3041226 15.1991699,48.0913484 14.9655355,47.9385473 C14.7324226,47.7857462 14.4622828,47.710128 14.1545946,47.710128 L13.6028419,47.710128 L13.6028419,51.6104667 Z" id="Fill-33" fill="#FFFFFF" mask="url(#mask-2)"></path>
                    <polygon id="Fill-34" fill="#2D408F" mask="url(#mask-2)" points="67.377243 5.9950172 76.1359258 5.9950172 76.1359258 6.95719462 70.2663828 6.95719462 70.2663828 12.8731516 75.6425817 12.8731516 75.6425817 13.836372 70.2663828 13.836372 70.2663828 21.2078505 67.377243 21.2078505"></polygon>
                    <path d="M79.8841935,16.2547489 L84.3441075,16.2547489 L82.0969409,10.6605608 L79.8841935,16.2547489 Z M76.6404301,21.208007 L82.8192258,5.57014677 L82.8651183,5.57014677 L89.2973656,21.208007 L86.3159194,21.208007 L84.7680914,17.2190124 L79.4836774,17.2190124 L77.9593172,21.208007 L76.6404301,21.208007 Z" id="Fill-35" fill="#2D408F" mask="url(#mask-2)"></path>
                    <path d="M103.249303,9.33056559 C102.545792,8.3908129 101.861577,7.69512473 101.196658,7.24454409 C100.53226,6.79344194 99.8052817,6.55667849 99.0188516,6.53425376 C97.1148355,6.53425376 95.6900828,7.15171613 94.7425075,8.38455484 C93.7949323,9.61947957 93.2984591,11.1996409 93.2525667,13.1250387 C93.2525667,14.1336301 93.3610398,15.0937215 93.5795505,16.0032269 C93.7964968,16.9127323 94.1359968,17.7043774 94.5996151,18.3755548 C95.0611473,19.0488183 95.6363677,19.5614581 96.3242333,19.9129527 C96.974029,20.2336785 97.6921419,20.425071 98.4796151,20.4855656 C99.1914699,20.4631409 99.8824645,20.3150333 100.554685,20.044372 C101.226905,19.7737108 101.828723,19.3846677 102.360137,18.8814151 C102.891551,18.3755548 103.298846,17.7758237 103.582024,17.0801355 L104.590615,17.5974688 C104.140034,18.6284849 103.365077,19.559372 102.265223,20.3880441 C101.165368,21.2167161 99.7833785,21.6318344 98.1187333,21.6318344 C97.7672387,21.6318344 97.262943,21.6015871 96.6063677,21.5400495 C95.3912602,21.3423989 94.2919269,20.8600065 93.3062817,20.0960011 C92.3216796,19.3309527 91.5488086,18.3802484 90.9871473,17.2412806 C90.4260075,16.1028344 90.1417871,14.9054581 90.1339645,13.6528022 C90.179857,12.4919312 90.4338301,11.3811247 90.8958839,10.3214258 C91.3574161,9.2638129 92.0108624,8.35065699 92.8541366,7.58352258 C93.6979323,6.81378065 94.6773194,6.27037204 95.7928194,5.94912473 C96.5479591,5.69723763 97.3390828,5.56999032 98.1635828,5.56999032 C99.2707387,5.56999032 100.332002,5.81822688 101.347895,6.31626452 C102.363787,6.81273763 103.273292,7.60333978 104.074846,8.68859247 L103.249303,9.33056559 Z" id="Fill-36" fill="#2D408F" mask="url(#mask-2)"></path>
                    <path d="M109.27874,5.9950172 L109.27874,16.885614 C109.27874,17.8253667 109.604159,18.5768559 110.252912,19.1385172 C110.902708,19.7001785 111.713127,20.0235118 112.683648,20.1074742 C113.425229,20.0615817 114.113616,19.896786 114.747245,19.6151731 C115.24424,19.3241731 115.603557,18.9685065 115.825197,18.5476516 C116.046837,18.1273183 116.157917,17.5891247 116.157917,16.9315065 L116.157917,5.9950172 L117.407966,5.9950172 L117.407966,17.2188559 C117.407966,17.952614 117.273417,18.5925011 117.005885,19.1385172 C116.738874,19.6845333 116.361826,20.1429366 115.876304,20.5142484 C115.392347,20.8860817 114.81817,21.1640441 114.156901,21.3512645 C113.496154,21.5390065 112.764482,21.6318344 111.962406,21.6318344 C110.754078,21.6318344 109.731928,21.4336624 108.895433,21.0357538 C108.058417,20.6388882 107.431046,20.0647108 107.014885,19.3163505 C106.598724,18.5679903 106.390643,17.6887323 106.390643,16.6796194 L106.390643,5.9950172 L109.27874,5.9950172 Z" id="Fill-37" fill="#2D408F" mask="url(#mask-2)"></path>
                    <polygon id="Fill-38" fill="#2D408F" mask="url(#mask-2)" points="121.018712 5.9950172 123.86196 5.9950172 123.86196 20.0156892 129.960444 20.0156892 129.960444 21.2078505 121.018712 21.2078505"></polygon>
                    <path d="M134.442887,20.2447344 L136.30101,20.2447344 C138.188338,20.2447344 139.571892,19.6867237 140.45115,18.5717452 C141.328844,17.4562452 141.768473,15.9616108 141.768473,14.0894065 C141.768473,13.6685516 141.76065,13.3473043 141.746048,13.125143 C141.662607,11.9100355 141.396118,10.8383419 140.948666,9.91006237 C140.502258,8.9817828 139.881666,8.25689032 139.085849,7.73799247 C138.291075,7.21753011 137.370096,6.95729892 136.322913,6.95729892 L134.442887,6.95729892 L134.442887,20.2447344 Z M131.55479,5.99512151 L136.506483,5.99512151 C139.174505,5.99512151 141.271999,6.86290645 142.801053,8.59691183 C143.197919,9.03289032 143.528032,9.53666452 143.792435,10.1103204 C144.056317,10.6839763 144.25501,11.3030032 144.387994,11.9684441 C144.522542,12.6328419 144.589817,13.2935892 144.589817,13.950686 C144.589817,15.739971 144.172091,17.2100946 143.339247,18.3647075 C142.712397,19.2752559 141.884247,19.9751161 140.851145,20.4684602 C139.820128,20.9618043 138.513758,21.2079548 136.930989,21.2079548 L131.55479,21.2079548 L131.55479,5.99512151 Z" id="Fill-39" fill="#2D408F" mask="url(#mask-2)"></path>
                    <path d="M148.600923,16.2547489 L153.060837,16.2547489 L150.81367,10.6605608 L148.600923,16.2547489 Z M145.356638,21.208007 L151.536477,5.57014677 L151.582369,5.57014677 L158.014095,21.208007 L155.03317,21.208007 L153.484821,17.2190124 L148.200407,17.2190124 L146.676047,21.208007 L145.356638,21.208007 Z" id="Fill-40" fill="#2D408F" mask="url(#mask-2)"></path>
                    <path d="M162.736587,20.2447344 L164.594711,20.2447344 C166.482039,20.2447344 167.865592,19.6867237 168.744851,18.5717452 C169.623066,17.4562452 170.062695,15.9616108 170.062695,14.0894065 C170.062695,13.6685516 170.054351,13.3473043 170.04027,13.125143 C169.956308,11.9100355 169.689818,10.8383419 169.242888,9.91006237 C168.795958,8.9817828 168.175367,8.25689032 167.380071,7.73799247 C166.584775,7.21753011 165.663797,6.95729892 164.617135,6.95729892 L162.736587,6.95729892 L162.736587,20.2447344 Z M159.84849,5.99512151 L164.800705,5.99512151 C167.468205,5.99512151 169.566222,6.86290645 171.094754,8.59691183 C171.492141,9.03289032 171.822254,9.53666452 172.086135,10.1103204 C172.350017,10.6839763 172.548711,11.3030032 172.682216,11.9684441 C172.816243,12.6328419 172.883517,13.2935892 172.883517,13.950686 C172.883517,15.739971 172.466313,17.2100946 171.633469,18.3647075 C171.006619,19.2752559 170.177947,19.9751161 169.145367,20.4684602 C168.114351,20.9618043 166.807458,21.2079548 165.224689,21.2079548 L159.84849,21.2079548 L159.84849,5.99512151 Z" id="Fill-41" fill="#2D408F" mask="url(#mask-2)"></path>
                    <polygon id="Fill-42" fill="#2D408F" mask="url(#mask-2)" points="175.19921 5.9950172 184.198306 5.9950172 184.198306 6.95719462 178.041414 6.95719462 178.041414 12.8731516 183.820215 12.8731516 183.820215 13.836372 178.041414 13.836372 178.041414 20.1987376 184.290091 20.1987376 184.290091 21.2078505 175.19921 21.2078505"></polygon>
                    <path d="M70.0695667,41.6348511 L71.9276903,41.6348511 C73.8144968,41.6348511 75.1980505,41.0763188 76.0778301,39.9613403 C76.9555237,38.8458403 77.3951527,37.3517274 77.3951527,35.4790016 C77.3951527,35.0586683 77.3873301,34.737421 77.372728,34.5147382 C77.2892871,33.3001522 77.0227978,32.2284586 76.5753462,31.300179 C76.1289376,30.371378 75.5083462,29.6464855 74.7130505,29.1275876 C73.9177548,28.6076468 72.9967763,28.3468941 71.9495935,28.3468941 L70.0695667,28.3468941 L70.0695667,41.6348511 Z M67.1814699,27.3847167 L72.1336849,27.3847167 C74.8011849,27.3847167 76.8986796,28.2530231 78.4277333,29.9870285 C78.8251204,30.423007 79.1547118,30.9262597 79.4191151,31.4999156 C79.6829968,32.074093 79.8816903,32.6925984 80.0151957,33.3580392 C80.1492226,34.0224371 80.2164968,34.6837059 80.2164968,35.3402812 C80.2164968,37.1300876 79.7992925,38.6002113 78.9659269,39.7543027 C78.3390774,40.6648511 77.5104054,41.3652328 76.4783462,41.8585769 C75.4468086,42.351921 74.1404376,42.5980715 72.5576688,42.5980715 L67.1814699,42.5980715 L67.1814699,27.3847167 Z" id="Fill-43" fill="#2D408F" mask="url(#mask-2)"></path>
                    <path d="M89.0197161,27.9239532 C88.3016032,27.9239532 87.6653667,28.0491145 87.111528,28.3020446 C86.5576892,28.5539317 86.0779043,28.9575769 85.6732161,29.5114156 C85.2680065,30.0647328 84.9478022,30.7922328 84.7157323,31.689222 C84.4815763,32.5872543 84.3506785,33.7048403 84.3193882,35.0425016 C84.3193882,36.3582597 84.4784473,37.5384263 84.7960441,38.5856091 C85.1125978,39.6322704 85.6002054,40.4713726 86.2567806,41.1013511 C86.9143989,41.7323726 87.7096946,42.0520554 88.6416247,42.0588349 C88.8027699,42.0285876 88.9978129,42.0139855 89.2267538,42.0139855 C89.9526892,41.9222005 90.5769312,41.675007 91.1015656,41.2734478 C91.624114,40.8729317 92.0501839,40.3529909 92.3787323,39.7141468 C92.7078022,39.0763457 92.9471731,38.3639694 93.0958022,37.5764962 C93.2449527,36.7900661 93.3200495,35.9603511 93.3200495,35.0889156 C93.2887591,33.1098027 92.9560387,31.4253403 92.3218882,30.038136 C91.6877376,28.6514532 90.5868398,27.946378 89.0197161,27.9239532 L89.0197161,27.9239532 Z M89.1349688,26.9596898 C90.800657,27.0368726 92.1743022,27.5057059 93.2559043,28.3646253 C94.3375065,29.2240661 95.1208075,30.2284855 95.6058075,31.3737113 C96.0918505,32.5215446 96.3536462,33.5864586 96.3911946,34.5731468 C96.3911946,36.4302274 96.0188398,37.9968296 95.2741301,39.2734747 C94.5288989,40.5495984 93.5959258,41.4903941 92.4762538,42.0932543 C91.3565817,42.6961145 90.2202215,43.0074532 89.0656086,43.0220554 C87.6752753,43.0220554 86.3934151,42.7096737 85.220028,42.0880392 C84.0466409,41.4648403 83.1079312,40.5688941 82.4054634,39.398636 C81.7019527,38.2299425 81.3238613,36.8615124 81.2701462,35.2954317 C81.2701462,34.2253027 81.4365065,33.1880285 81.7692269,32.1825661 C82.1014258,31.1771038 82.5900763,30.2832435 83.236743,29.4988995 C83.8818452,28.7161199 84.6807914,28.0976145 85.6325387,27.6418188 C86.5848075,27.1881091 87.6486785,26.9596898 88.8251946,26.9596898 L89.1349688,26.9596898 Z" id="Fill-44" fill="#2D408F" mask="url(#mask-2)"></path>
                    <polygon id="Fill-45" fill="#2D408F" mask="url(#mask-2)" points="98.5023005 27.3848731 101.677747 27.3848731 106.044833 37.6919054 110.126655 27.3848731 113.084112 27.3848731 113.084112 42.5977065 110.240865 42.5977065 110.240865 30.3647548 110.194973 30.3647548 105.21929 43.0216903 105.173397 43.0216903 99.7971984 30.2286419 99.7518274 30.2286419 99.7518274 42.5977065 98.5023005 42.5977065"></polygon>
                    <path d="M125.614948,41.5888022 L127.838647,41.5888022 C129.022985,41.5888022 129.870953,41.3317 130.383593,40.8148882 C130.895711,40.2991194 131.15177,39.6248129 131.15177,38.7924903 C131.15177,38.1948452 131.035996,37.6164957 130.80184,37.0543129 C130.569249,36.4926516 130.217754,36.0405065 129.748399,35.6963129 C129.276959,35.3515978 128.721034,35.1805441 128.079061,35.1805441 L125.614948,35.1805441 L125.614948,41.5888022 Z M125.614948,34.1714312 L127.494975,34.1714312 C129.55805,34.1714312 130.590109,33.1623183 130.590109,31.145657 C130.582287,30.5036839 130.426356,29.9753989 130.120754,29.5628882 C129.814109,29.1498559 129.41933,28.8525978 128.933808,28.669028 C128.448287,28.4859796 127.903835,28.3936731 127.29941,28.3936731 L125.614948,28.3936731 L125.614948,34.1714312 Z M122.725287,27.3850817 L129.042281,27.3850817 C129.837577,27.3850817 130.572378,27.5503989 131.249292,27.8836409 C131.926206,28.2158398 132.462835,28.6825871 132.860222,29.2817968 C133.257088,29.881528 133.456303,30.5720011 133.456303,31.3516516 C133.456303,32.2230871 133.208066,32.9464151 132.711072,33.5237215 C132.214598,34.101028 131.567932,34.4812054 130.774201,34.6647753 L130.774201,34.7106677 C131.889179,34.9244849 132.712115,35.3828882 133.243528,36.0853559 C133.774942,36.7899097 134.04091,37.5653882 134.04091,38.4133559 C134.04091,39.0318613 133.930351,39.6055172 133.70819,40.1327591 C133.48655,40.6605226 133.173125,41.1058882 132.768437,41.4683344 C132.363227,41.8318237 131.872491,42.1103075 131.295184,42.304829 C130.717878,42.5009151 130.062346,42.5979151 129.328588,42.5979151 L122.725287,42.5979151 L122.725287,27.3850817 Z" id="Fill-46" fill="#2D408F" mask="url(#mask-2)"></path>
                    <path d="M142.9489,27.9239532 C142.230266,27.9239532 141.594029,28.0491145 141.04019,28.3020446 C140.486352,28.5539317 140.006567,28.9575769 139.601878,29.5114156 C139.19719,30.0647328 138.876986,30.7922328 138.644395,31.689222 C138.41076,32.5872543 138.279862,33.7048403 138.248051,35.0425016 C138.248051,36.3582597 138.40711,37.5384263 138.724706,38.5856091 C139.04126,39.6322704 139.528868,40.4713726 140.185443,41.1013511 C140.843583,41.7323726 141.638878,42.0520554 142.570287,42.0588349 C142.731432,42.0285876 142.926475,42.0139855 143.155416,42.0139855 C143.881352,41.9222005 144.505594,41.675007 145.030228,41.2734478 C145.552776,40.8729317 145.979368,40.3529909 146.307395,39.7141468 C146.636465,39.0763457 146.875835,38.3639694 147.024465,37.5764962 C147.173615,36.7900661 147.248712,35.9603511 147.248712,35.0889156 C147.217422,33.1098027 146.885223,31.4253403 146.250551,30.038136 C145.6164,28.6514532 144.516024,27.946378 142.9489,27.9239532 L142.9489,27.9239532 Z M143.064153,26.9596898 C144.729319,27.0368726 146.102965,27.5057059 147.184567,28.3646253 C148.266169,29.2240661 149.04947,30.2284855 149.534991,31.3737113 C150.020513,32.5215446 150.282309,33.5864586 150.320378,34.5731468 C150.320378,36.4302274 149.948024,37.9968296 149.202792,39.2734747 C148.457561,40.5495984 147.524588,41.4903941 146.405438,42.0932543 C145.285244,42.6961145 144.148884,43.0074532 142.994792,43.0220554 C141.603938,43.0220554 140.322077,42.7096737 139.14869,42.0880392 C137.975303,41.4648403 137.036594,40.5688941 136.334126,39.398636 C135.631137,38.2299425 135.252524,36.8615124 135.19933,35.2954317 C135.19933,34.2253027 135.36569,33.1880285 135.697889,32.1825661 C136.030088,31.1771038 136.51926,30.2832435 137.165405,29.4988995 C137.810508,28.7161199 138.609975,28.0976145 139.561723,27.6418188 C140.51347,27.1881091 141.577341,26.9596898 142.753857,26.9596898 L143.064153,26.9596898 Z" id="Fill-47" fill="#2D408F" mask="url(#mask-2)"></path>
                    <path d="M152.257562,40.6603661 L153.294315,39.8348231 C153.6771,40.4392478 154.043197,40.8793984 154.391041,41.1594468 C154.739928,41.4389737 155.159218,41.6235866 155.649433,41.7153715 C155.726095,41.7299737 155.840304,41.7456188 155.993627,41.761264 C156.146949,41.7769091 156.259073,41.7915113 156.32739,41.8071565 C157.076272,41.7836887 157.729718,41.5552694 158.287729,41.1187694 C158.845218,40.6838339 159.14039,40.1190435 159.170638,39.4243984 C159.170638,38.4231081 158.897369,37.6606672 158.350831,37.1334253 C157.804815,36.6067048 157.03038,36.1795919 156.029611,35.850522 C155.255697,35.5751672 154.581912,35.2700866 154.011385,34.9331941 C153.440337,34.5978661 152.974632,34.1378984 152.614794,33.5527694 C152.254433,32.9686833 152.073992,32.2338823 152.073992,31.3483661 C152.10424,30.4383392 152.35717,29.6545167 152.83174,28.9932478 C153.305788,28.3335435 153.933159,27.8297694 154.714374,27.4814038 C155.495068,27.1340812 156.351901,26.9598984 157.284874,26.9598984 C157.752143,26.9833661 158.205331,27.0652425 158.64496,27.2070919 C159.085632,27.3489414 159.482498,27.5314683 159.839729,27.7562371 C160.195396,27.9820489 160.521858,28.2631403 160.820681,28.6000328 C161.118982,28.9353608 161.351573,29.2910274 161.521062,29.6649468 L160.557842,30.3199575 C159.915869,28.9364038 158.891111,28.2135973 157.484611,28.1520597 C156.782665,28.1520597 156.191799,28.3695274 155.7141,28.7997694 C155.236401,29.2315758 154.970433,29.8213984 154.917761,30.5692371 C154.917761,31.0359844 154.995987,31.4255489 155.15296,31.7384522 C155.309412,32.0518769 155.552955,32.3303608 155.886197,32.5754683 C156.218917,32.8190113 156.65646,33.0672478 157.198826,33.3191349 C157.695299,33.5329522 158.255396,33.7764952 158.878595,34.0471565 C159.500751,34.3178177 160.042073,34.6223769 160.500998,34.9587478 C160.959401,35.2956403 161.337492,35.745178 161.634751,36.3068392 C161.933573,36.8685005 162.082202,37.5709683 162.082202,38.4121565 C162.07438,39.3060167 161.820406,40.1075704 161.31924,40.8147317 C160.818073,41.521893 160.166191,42.0663446 159.36203,42.4480866 C158.558912,42.83035 157.717724,43.0217425 156.836901,43.0217425 C155.919052,43.0217425 155.042923,42.8214844 154.209557,42.4230543 C153.375148,42.0241027 152.724831,41.4368876 152.257562,40.6603661" id="Fill-48" fill="#2D408F" mask="url(#mask-2)"></path>
                    <path d="M176.757103,30.7204215 C176.053592,29.7806688 175.369377,29.0849806 174.704458,28.6344 C174.04006,28.1832978 173.313081,27.9465344 172.526651,27.9241097 C170.622635,27.9241097 169.197882,28.541572 168.250307,29.7744108 C167.302732,31.0093355 166.806259,32.5894968 166.760366,34.5148946 C166.760366,35.523486 166.868839,36.4835774 167.086828,37.3930828 C167.303775,38.3025882 167.643796,39.0942333 168.106893,39.7654108 C168.568947,40.4391957 169.143646,40.951314 169.832033,41.3028086 C170.481828,41.6235344 171.199941,41.8149269 171.987415,41.8754215 C172.699269,41.8529968 173.390264,41.7048892 174.062484,41.434228 C174.734705,41.1635667 175.336522,40.7745237 175.867936,40.271271 C176.398828,39.7654108 176.806646,39.1656796 177.089823,38.4699914 L178.098415,38.9873247 C177.647834,40.0183409 176.872877,40.949228 175.772501,41.7779 C174.673167,42.606572 173.291178,43.0216903 171.626011,43.0216903 C171.275038,43.0216903 170.770742,42.991443 170.114167,42.9299054 C168.89906,42.7322548 167.799205,42.2498624 166.814081,41.485857 C165.829479,40.7208086 165.056608,39.7701043 164.494947,38.6311366 C163.933807,37.4926903 163.649587,36.295314 163.641764,35.0426581 C163.687135,33.8817871 163.94163,32.7709806 164.403683,31.7118032 C164.865216,30.6536688 165.518662,29.7405129 166.361936,28.9733785 C167.205732,28.2036366 168.185119,27.660228 169.300619,27.3389806 C170.055759,27.0870935 170.846361,26.9598462 171.670861,26.9598462 C172.778538,26.9598462 173.839802,27.2080828 174.855694,27.7061204 C175.871587,28.2025935 176.78057,28.9931957 177.582646,30.0784484 L176.757103,30.7204215 Z" id="Fill-49" fill="#2D408F" mask="url(#mask-2)"></path>
                    <path d="M186.45898,27.9239532 C185.740867,27.9239532 185.104109,28.0491145 184.550792,28.3020446 C183.996953,28.5539317 183.516647,28.9575769 183.111959,29.5114156 C182.70727,30.0647328 182.387066,30.7922328 182.154475,31.689222 C181.92084,32.5872543 181.789942,33.7048403 181.758652,35.0425016 C181.758652,36.3582597 181.91719,37.5384263 182.234787,38.5856091 C182.551862,39.6322704 183.038948,40.4713726 183.696045,41.1013511 C184.353663,41.7323726 185.148959,42.0520554 186.080889,42.0588349 C186.242034,42.0285876 186.436555,42.0139855 186.665496,42.0139855 C187.391953,41.9222005 188.015674,41.675007 188.540308,41.2734478 C189.062856,40.8729317 189.489448,40.3529909 189.817996,39.7141468 C190.147066,39.0763457 190.386437,38.3639694 190.535066,37.5764962 C190.684217,36.7900661 190.758792,35.9603511 190.758792,35.0889156 C190.727502,33.1098027 190.395303,31.4253403 189.761152,30.038136 C189.12648,28.6514532 188.026104,27.946378 186.45898,27.9239532 L186.45898,27.9239532 Z M186.574233,26.9596898 C188.239921,27.0368726 189.613566,27.5057059 190.695168,28.3646253 C191.77677,29.2240661 192.55955,30.2284855 193.045072,31.3737113 C193.531115,32.5215446 193.79291,33.5864586 193.830459,34.5731468 C193.830459,36.4302274 193.458104,37.9968296 192.712873,39.2734747 C191.967641,40.5495984 191.03519,41.4903941 189.915518,42.0932543 C188.795324,42.6961145 187.659485,43.0074532 186.504873,43.0220554 C185.114539,43.0220554 183.832679,42.7096737 182.659292,42.0880392 C181.485905,41.4648403 180.547195,40.5688941 179.844206,39.398636 C179.141217,38.2299425 178.763125,36.8615124 178.70941,35.2954317 C178.70941,34.2253027 178.87577,33.1880285 179.208491,32.1825661 C179.540168,31.1771038 180.02934,30.2832435 180.675485,29.4988995 C181.321109,28.7161199 182.120055,28.0976145 183.071803,27.6418188 C184.02355,27.1881091 185.087421,26.9596898 186.264459,26.9596898 L186.574233,26.9596898 Z" id="Fill-50" fill="#2D408F" mask="url(#mask-2)"></path>
                    <path d="M68.4604618,52.351943 C68.5042683,52.351943 68.5694565,52.3535075 68.6549833,52.3566366 C68.7415532,52.3602871 68.8046554,52.3623731 68.8448113,52.3623731 C69.6646177,52.3623731 70.2570478,52.2366903 70.6226231,51.9879323 C70.9881984,51.7381312 71.1712468,51.3339645 71.1712468,50.7743892 C71.1712468,50.2852172 71.0085371,49.9274645 70.6831177,49.6995667 C70.3576984,49.4716688 69.8377575,49.3579806 69.1232952,49.3579806 C69.0184726,49.3579806 68.9110425,49.3605882 68.8015263,49.3658032 C68.6920102,49.3704968 68.5788435,49.3783194 68.4604618,49.3887495 L68.4604618,52.351943 Z M67.5911124,48.7869323 L68.5011392,48.7869323 C69.208822,48.7869323 69.7188543,48.8046634 70.0307145,48.8396043 C70.3425747,48.8750667 70.6064565,48.9329538 70.8218382,49.0143086 C71.1764618,49.151986 71.4460801,49.3673677 71.6312145,49.6588892 C71.8168704,49.9509323 71.9091769,50.3086849 71.9091769,50.7337118 C71.9091769,51.4617333 71.6499887,52.0077495 71.1305694,52.3722817 C70.6116715,52.7362925 69.8346285,52.9177763 68.7994403,52.9177763 C68.7624134,52.9177763 68.7060909,52.9167333 68.6299511,52.9130828 C68.5543328,52.9099538 68.4974887,52.9099538 68.4604618,52.9130828 C68.4776715,53.5336742 68.4954027,54.0911634 68.5141769,54.5871151 C68.5324296,55.0825452 68.5517253,55.5795398 68.5715425,56.0791419 L67.5911124,56.0791419 C67.6312683,55.5190452 67.6615156,54.9370452 67.6818543,54.3315774 C67.7016715,53.7266312 67.7121016,53.0966527 67.7121016,52.4426849 C67.7121016,51.7923677 67.7016715,51.1655183 67.6818543,50.5616151 C67.6615156,49.9582333 67.6312683,49.3668462 67.5911124,48.7869323 L67.5911124,48.7869323 Z" id="Fill-51" fill="#2D408F" mask="url(#mask-2)"></path>
                    <path d="M75.7631016,49.2318285 C75.0043113,49.2318285 74.4348274,49.4988392 74.0541285,50.0328608 C73.6729081,50.5674038 73.4820371,51.3668715 73.4820371,52.43335 C73.4820371,53.4914844 73.6734296,54.2893876 74.0562145,54.8270597 C74.438478,55.3652532 75.0074403,55.6338285 75.7631016,55.6338285 C76.5145909,55.6338285 77.0819887,55.3652532 77.4642522,54.8270597 C77.8470371,54.2893876 78.0389511,53.4914844 78.0389511,52.43335 C78.0389511,51.3668715 77.8480801,50.5674038 77.4673812,50.0328608 C77.0861608,49.4988392 76.5182414,49.2318285 75.7631016,49.2318285 M75.7631016,48.6300113 C76.7372737,48.6300113 77.4965855,48.9637747 78.0410371,49.6313016 C78.5854887,50.2988285 78.858236,51.2328446 78.858236,52.43335 C78.858236,53.6302048 78.5854887,54.563178 78.0410371,55.2322694 C77.4965855,55.9013608 76.7372737,56.2356457 75.7631016,56.2356457 C74.7884081,56.2356457 74.0290962,55.9013608 73.4846446,55.2322694 C72.940193,54.563178 72.6679672,53.6302048 72.6679672,52.43335 C72.6679672,51.2328446 72.93915,50.2988285 73.4820371,49.6313016 C74.0249242,48.9637747 74.785279,48.6300113 75.7631016,48.6300113" id="Fill-52" fill="#2D408F" mask="url(#mask-2)"></path>
                    <path d="M81.3152565,52.2052957 C81.4602349,52.2152043 81.566622,52.2214624 81.6344177,52.2225054 C81.7011704,52.2251129 81.7637511,52.2256344 81.8211167,52.2256344 C82.5658263,52.2256344 83.1212296,52.1020376 83.4873263,51.8564086 C83.8534231,51.6102581 84.03595,51.2363387 84.03595,50.7336075 C84.03595,50.2512151 83.8810629,49.9028495 83.5712887,49.6895538 C83.2604715,49.4752151 82.7467887,49.3683065 82.0281543,49.3683065 C81.8497995,49.3683065 81.7105575,49.369871 81.6114715,49.3735215 C81.5113425,49.3766505 81.420079,49.3813441 81.3355952,49.3886452 C81.3324661,49.6577419 81.3288156,50.1109301 81.3256866,50.7461237 C81.322036,51.3818387 81.3183855,51.8684032 81.3152565,52.2052957 L81.3152565,52.2052957 Z M80.445907,56.0790376 C80.4860629,55.5189409 80.5163102,54.9369409 80.5366489,54.3319946 C80.5564661,53.7265269 80.5668962,53.0965484 80.5668962,52.4431022 C80.5668962,51.7891344 80.5564661,51.1575914 80.5366489,50.5489946 C80.5163102,49.9403978 80.4860629,49.3526613 80.445907,48.786828 L81.3559339,48.786828 C82.0636167,48.786828 82.5736489,48.8045591 82.8855091,48.8395 C83.1973694,48.8754839 83.4612511,48.933371 83.6766328,49.0142043 C84.0208263,49.1456237 84.2883586,49.3557903 84.4787081,49.6436613 C84.669579,49.9320538 84.7639715,50.2715538 84.7639715,50.6626828 C84.7639715,51.168543 84.6142995,51.5774032 84.3144339,51.8892634 C84.0140468,52.2011237 83.5671167,52.4144194 82.9741651,52.5291505 C83.1968478,52.6162419 83.401278,52.7455753 83.5884984,52.9161075 C83.7757188,53.0861183 83.9603317,53.3161022 84.1423371,53.6060591 C84.2236919,53.7343495 84.3983962,54.0780215 84.6680145,54.6375968 C84.9381543,55.197172 85.1942134,55.678 85.4367134,56.0790376 L84.4411597,56.0790376 C84.0531597,55.1319839 83.7585091,54.4701935 83.5582511,54.0941882 C83.3574715,53.7181828 83.166079,53.4407419 82.9840737,53.2618656 C82.7989392,53.0798602 82.5950306,52.9458333 82.3718263,52.8603065 C82.1496651,52.7742581 81.8873478,52.7309731 81.5838317,52.7309731 C81.5123855,52.7309731 81.4586704,52.7314946 81.4216435,52.7341022 C81.3846167,52.7351452 81.3491543,52.7393172 81.3152565,52.7460968 L81.3152565,52.9181935 C81.3152565,53.0965484 81.3256866,53.4772473 81.3460253,54.0582043 C81.366364,54.6402043 81.3924392,55.3139892 81.4263371,56.0790376 L80.445907,56.0790376 Z" id="Fill-53" fill="#2D408F" mask="url(#mask-2)"></path>
                    <path d="M85.3729855,48.7869844 L90.3439747,48.7869844 L90.4806091,49.4597263 C90.180222,49.4258285 89.8667973,49.4002747 89.5398134,49.3835866 C89.2128296,49.3668984 88.8738511,49.3580328 88.5233995,49.3580328 L88.2506522,49.3580328 C88.2433511,49.7966188 88.2386575,50.2268608 88.235007,50.6498016 C88.231878,51.073264 88.2297919,51.5457478 88.2297919,52.0688177 C88.2297919,52.965807 88.240222,53.7266833 88.2605608,54.3519683 C88.280378,54.9772532 88.3127113,55.5524737 88.3559962,56.0791941 L87.359921,56.0791941 C87.4042489,55.5556027 87.4365823,54.9824683 87.4563995,54.3571833 C87.4767382,53.7313769 87.4866468,52.968936 87.4866468,52.0688177 C87.4866468,51.7011565 87.4814317,51.0132909 87.4715231,50.0057425 C87.4678726,49.7220435 87.4663081,49.5061403 87.4663081,49.3580328 L87.2034694,49.3580328 C86.8597973,49.3580328 86.5234263,49.3668984 86.194878,49.3835866 C85.8663296,49.4002747 85.5461253,49.4258285 85.2358296,49.4597263 L85.3729855,48.7869844 Z" id="Fill-54" fill="#2D408F" mask="url(#mask-2)"></path>
                    <path d="M94.1968043,49.2318285 C93.438014,49.2318285 92.8690516,49.4988392 92.4878312,50.0328608 C92.1071323,50.5674038 91.9162613,51.3668715 91.9162613,52.43335 C91.9162613,53.4914844 92.1076538,54.2893876 92.4899172,54.8270597 C92.8727022,55.3652532 93.4416645,55.6338285 94.1968043,55.6338285 C94.9482935,55.6338285 95.5156914,55.3652532 95.8984763,54.8270597 C96.2812613,54.2893876 96.4726538,53.4914844 96.4726538,52.43335 C96.4726538,51.3668715 96.2823043,50.5674038 95.9010839,50.0328608 C95.5203849,49.4988392 94.9524656,49.2318285 94.1968043,49.2318285 M94.1968043,48.6300113 C95.1714978,48.6300113 95.9308097,48.9637747 96.4752613,49.6313016 C97.0197129,50.2988285 97.2919387,51.2328446 97.2919387,52.43335 C97.2919387,53.6302048 97.0197129,54.563178 96.4752613,55.2322694 C95.9308097,55.9013608 95.1714978,56.2356457 94.1968043,56.2356457 C93.2226323,56.2356457 92.4633204,55.9013608 91.9188688,55.2322694 C91.3744172,54.563178 91.1016699,53.6302048 91.1016699,52.43335 C91.1016699,51.2328446 91.3733742,50.2988285 91.9162613,49.6313016 C92.4586269,48.9637747 93.2189817,48.6300113 94.1968043,48.6300113" id="Fill-55" fill="#2D408F" mask="url(#mask-2)"></path>
                    <path d="M104.139565,49.676464 C103.943479,50.2063134 103.742178,50.7591091 103.53514,51.3353726 C103.327581,51.9121575 103.112721,52.5233618 102.890038,53.1710715 L105.226382,53.1710715 C105.061587,52.6318349 104.890011,52.0764317 104.713221,51.5043403 C104.536952,50.9332919 104.345038,50.3241737 104.139565,49.676464 M103.846479,48.7059425 C103.943479,48.712722 104.019097,48.7174156 104.071248,48.7205446 C104.123398,48.7241952 104.171898,48.7262812 104.215183,48.7262812 C104.25899,48.7262812 104.308533,48.7241952 104.364334,48.7205446 C104.420135,48.7174156 104.490538,48.712722 104.573979,48.7059425 C104.931732,49.9872812 105.324947,51.2415016 105.755189,52.4706898 C106.185431,53.6993565 106.651135,54.9019478 107.152823,56.0789855 L106.142146,56.0789855 C106.014377,55.6372704 105.889737,55.2237167 105.770312,54.8372812 C105.650366,54.4518887 105.531984,54.0842274 105.414124,53.7379478 L102.67257,53.7379478 C102.531764,54.1149962 102.405038,54.4988242 102.293436,54.8878672 C102.182355,55.2774317 102.083269,55.6742973 101.995656,56.0789855 L101.014183,56.0789855 C101.580538,54.7470608 102.100479,53.4652005 102.574006,52.2328833 C103.047533,51.0010876 103.472038,49.8245715 103.846479,48.7059425" id="Fill-56" fill="#2D408F" mask="url(#mask-2)"></path>
                    <path d="M108.376796,48.7869844 L109.357748,48.7869844 C109.320721,49.3366511 109.293081,50.0474629 109.274307,50.9204629 C109.256054,51.7939844 109.246667,52.8776726 109.246667,54.1725704 L109.246667,55.4971941 L109.918888,55.4971941 C110.286027,55.4971941 110.656296,55.484678 111.029173,55.4591242 C111.401527,55.4340919 111.777011,55.396022 112.154581,55.345436 L111.937113,56.0791941 L108.376796,56.0791941 C108.416952,55.5190973 108.447721,54.9365758 108.467538,54.3316296 C108.487877,53.7266833 108.497785,53.0967048 108.497785,52.4427371 C108.497785,51.7924199 108.487877,51.1655704 108.467538,50.5616672 C108.447721,49.9582855 108.416952,49.3668984 108.376796,48.7869844" id="Fill-57" fill="#2D408F" mask="url(#mask-2)"></path>
                    <path d="M113.358059,48.7869844 L116.867269,48.7869844 L116.994516,49.5045758 C116.724376,49.4576403 116.427118,49.423221 116.101699,49.4007962 C115.77628,49.378893 115.396102,49.3679414 114.961167,49.3679414 L114.22793,49.3679414 L114.22793,51.896721 L116.938194,51.896721 L116.777048,52.57885 C116.47614,52.5355651 116.153328,52.5037532 115.808091,52.482893 C115.462855,52.4630758 115.077462,52.4526457 114.652435,52.4526457 L114.22793,52.4526457 L114.22793,55.4971941 L114.793763,55.4971941 C115.161946,55.4971941 115.529608,55.484678 115.899355,55.4591242 C116.268059,55.4340919 116.643022,55.396022 117.02372,55.345436 L116.817204,56.0791941 L113.358059,56.0791941 C113.398215,55.5190973 113.428984,54.9365758 113.448801,54.3316296 C113.46914,53.7266833 113.479048,53.0967048 113.479048,52.4427371 C113.479048,51.7924199 113.46914,51.1655704 113.448801,50.5616672 C113.428984,49.9582855 113.398215,49.3668984 113.358059,48.7869844" id="Fill-58" fill="#2D408F" mask="url(#mask-2)"></path>
                    <path d="M123.351197,48.8323032 L123.477402,49.6056957 C123.24481,49.5217333 122.998138,49.4596742 122.73895,49.4189968 C122.47924,49.3783194 122.199192,49.3579806 121.899848,49.3579806 C121.019547,49.3579806 120.318644,49.6495022 119.796095,50.2330667 C119.273547,50.8166312 119.012273,51.6014968 119.012273,52.5897495 C119.012273,53.5232441 119.247993,54.2554376 119.719955,54.7863301 C120.191918,55.3177441 120.839106,55.5831903 121.662041,55.5831903 C121.881074,55.5831903 122.095934,55.5581581 122.306622,55.507572 C122.516789,55.456986 122.733735,55.3777172 122.956418,55.2697656 L122.956418,54.7534753 C122.956418,54.3086312 122.947552,53.9143731 122.928256,53.5701796 C122.910004,53.2265075 122.882364,52.9167333 122.844816,52.6403355 L123.745455,52.6403355 C123.721466,52.8525882 123.704256,53.0924806 123.69174,53.3605344 C123.680267,53.6285882 123.674531,53.9383624 123.674531,54.288814 C123.674531,54.5714699 123.678703,54.8124054 123.687568,55.0121419 C123.695391,55.210314 123.707907,55.3891903 123.725117,55.547728 C123.394482,55.7568516 123.040902,55.9127817 122.663332,56.0160398 C122.28524,56.1182548 121.885767,56.1693624 121.464912,56.1693624 C120.466751,56.1693624 119.680842,55.8601097 119.10823,55.2395183 C118.535095,54.6189269 118.248267,53.7693946 118.248267,52.6904 C118.248267,51.4398301 118.592982,50.4646151 119.282412,49.7652763 C119.972364,49.0654161 120.935584,48.7160075 122.172595,48.7160075 C122.341041,48.7160075 122.522525,48.7248731 122.716004,48.7436473 C122.910004,48.7619 123.121735,48.7911043 123.351197,48.8323032" id="Fill-59" fill="#2D408F" mask="url(#mask-2)"></path>
                    <path d="M126.126805,52.2052957 C126.271262,52.2152043 126.377649,52.2214624 126.445445,52.2225054 C126.512198,52.2251129 126.574778,52.2256344 126.632666,52.2256344 C127.377375,52.2256344 127.932778,52.1020376 128.298354,51.8564086 C128.664451,51.6102581 128.847499,51.2363387 128.847499,50.7336075 C128.847499,50.2512151 128.692612,49.9028495 128.382316,49.6895538 C128.071499,49.4752151 127.557816,49.3683065 126.839182,49.3683065 C126.660827,49.3683065 126.521585,49.369871 126.422499,49.3735215 C126.322891,49.3766505 126.231106,49.3813441 126.146623,49.3886452 C126.143494,49.6577419 126.139843,50.1109301 126.137235,50.7461237 C126.133063,51.3818387 126.129934,51.8684032 126.126805,52.2052957 L126.126805,52.2052957 Z M125.256934,56.0790376 C125.29709,55.5189409 125.327859,54.9369409 125.347676,54.3319946 C125.368015,53.7265269 125.377924,53.0965484 125.377924,52.4431022 C125.377924,51.7891344 125.368015,51.1575914 125.347676,50.5489946 C125.327859,49.9403978 125.29709,49.3526613 125.256934,48.786828 L126.166961,48.786828 C126.875166,48.786828 127.385198,48.8045591 127.697058,48.8395 C128.008397,48.8754839 128.272278,48.933371 128.488182,49.0142043 C128.831854,49.1456237 129.099386,49.3557903 129.289735,49.6436613 C129.480606,49.9320538 129.574999,50.2715538 129.574999,50.6626828 C129.574999,51.168543 129.425327,51.5774032 129.125983,51.8892634 C128.825596,52.2011237 128.378144,52.4144194 127.785714,52.5291505 C128.007875,52.6162419 128.212827,52.7455753 128.399526,52.9161075 C128.586746,53.0861183 128.771359,53.3161022 128.953365,53.6060591 C129.034719,53.7343495 129.209424,54.0780215 129.479563,54.6375968 C129.749182,55.197172 130.005241,55.678 130.247741,56.0790376 L129.252187,56.0790376 C128.864187,55.1319839 128.570058,54.4701935 128.369278,54.0941882 C128.168499,53.7181828 127.977628,53.4407419 127.795101,53.2618656 C127.610488,53.0798602 127.406058,52.9458333 127.183375,52.8603065 C126.961214,52.7742581 126.698375,52.7309731 126.394859,52.7309731 C126.323934,52.7309731 126.269698,52.7314946 126.232671,52.7341022 C126.196166,52.7351452 126.160182,52.7393172 126.126805,52.7460968 L126.126805,52.9181935 C126.126805,53.0965484 126.137235,53.4772473 126.157574,54.0582043 C126.177391,54.6402043 126.203988,55.3139892 126.237886,56.0790376 L125.256934,56.0790376 Z" id="Fill-60" fill="#2D408F" mask="url(#mask-2)"></path>
                    <path d="M131.396356,48.7869844 L134.905566,48.7869844 L135.032813,49.5045758 C134.762674,49.4576403 134.465416,49.423221 134.139996,49.4007962 C133.814577,49.378893 133.434399,49.3679414 132.999464,49.3679414 L132.266227,49.3679414 L132.266227,51.896721 L134.976491,51.896721 L134.815346,52.57885 C134.514437,52.5355651 134.191625,52.5037532 133.846389,52.482893 C133.501152,52.4630758 133.11576,52.4526457 132.690733,52.4526457 L132.266227,52.4526457 L132.266227,55.4971941 L132.832061,55.4971941 C133.200244,55.4971941 133.567905,55.484678 133.937652,55.4591242 C134.306356,55.4340919 134.681319,55.396022 135.062018,55.345436 L134.855502,56.0791941 L131.396356,56.0791941 C131.436512,55.5190973 131.467281,54.9365758 131.487098,54.3316296 C131.507437,53.7266833 131.517346,53.0967048 131.517346,52.4427371 C131.517346,51.7924199 131.507437,51.1655704 131.487098,50.5616672 C131.467281,49.9582855 131.436512,49.3668984 131.396356,48.7869844" id="Fill-61" fill="#2D408F" mask="url(#mask-2)"></path>
                    <polygon id="Fill-62" fill="#2D408F" mask="url(#mask-2)" points="136.170269 53.6868925 138.67871 53.6868925 138.67871 53.0245806 136.170269 53.0245806"></polygon>
                    <path d="M141.120606,52.2052957 C141.265585,52.2152043 141.371451,52.2214624 141.439246,52.2225054 C141.50652,52.2251129 141.569101,52.2256344 141.626467,52.2256344 C142.371176,52.2256344 142.92658,52.1020376 143.292155,51.8564086 C143.658773,51.6102581 143.8413,51.2363387 143.8413,50.7336075 C143.8413,50.2512151 143.686413,49.9028495 143.376117,49.6895538 C143.0653,49.4752151 142.551617,49.3683065 141.833504,49.3683065 C141.655149,49.3683065 141.515908,49.369871 141.4163,49.3735215 C141.316692,49.3766505 141.224908,49.3813441 141.140945,49.3886452 C141.137295,49.6577419 141.134166,50.1109301 141.131037,50.7461237 C141.127386,51.3818387 141.123735,51.8684032 141.120606,52.2052957 L141.120606,52.2052957 Z M140.250735,56.0790376 C140.290891,55.5189409 140.32166,54.9369409 140.341999,54.3319946 C140.361816,53.7265269 140.372246,53.0965484 140.372246,52.4431022 C140.372246,51.7891344 140.361816,51.1575914 140.341999,50.5489946 C140.32166,49.9403978 140.290891,49.3526613 140.250735,48.786828 L141.160762,48.786828 C141.868967,48.786828 142.378999,48.8045591 142.690859,48.8395 C143.002198,48.8754839 143.26608,48.933371 143.481983,49.0142043 C143.825655,49.1456237 144.093187,49.3557903 144.283537,49.6436613 C144.474408,49.9320538 144.569322,50.2715538 144.569322,50.6626828 C144.569322,51.168543 144.419128,51.5774032 144.119784,51.8892634 C143.819397,52.2011237 143.372467,52.4144194 142.779515,52.5291505 C143.001676,52.6162419 143.206628,52.7455753 143.393327,52.9161075 C143.580547,53.0861183 143.76516,53.3161022 143.947687,53.6060591 C144.02852,53.7343495 144.203746,54.0780215 144.473365,54.6375968 C144.742983,55.197172 144.999042,55.678 145.241542,56.0790376 L144.245988,56.0790376 C143.857988,55.1319839 143.563859,54.4701935 143.363601,54.0941882 C143.162822,53.7181828 142.971429,53.4407419 142.789424,53.2618656 C142.604289,53.0798602 142.400381,52.9458333 142.177176,52.8603065 C141.955015,52.7742581 141.692176,52.7309731 141.38866,52.7309731 C141.317735,52.7309731 141.263499,52.7314946 141.226994,52.7341022 C141.189967,52.7351452 141.153983,52.7393172 141.120606,52.7460968 L141.120606,52.9181935 C141.120606,53.0965484 141.131037,53.4772473 141.151375,54.0582043 C141.171192,54.6402043 141.197789,55.3139892 141.231687,56.0790376 L140.250735,56.0790376 Z" id="Fill-63" fill="#2D408F" mask="url(#mask-2)"></path>
                    <path d="M145.848783,55.8818043 L145.768471,55.1386591 C146.081374,55.2627774 146.371331,55.3556054 146.635734,55.4161 C146.900659,55.4776376 147.148896,55.5073634 147.381487,55.5073634 C147.904035,55.5073634 148.314982,55.3884602 148.612761,55.1511753 C148.911062,54.9128473 149.060213,54.5869065 149.060213,54.1728312 C149.060213,53.7274656 148.675863,53.2659333 147.907165,52.7866699 C147.890476,52.7762398 147.878482,52.7699817 147.872224,52.7663312 C147.801299,52.7230462 147.701691,52.6620301 147.573401,52.5848473 C147.068062,52.2740301 146.766111,52.0758581 146.668589,51.9877237 C146.412009,51.7551323 146.22896,51.5261914 146.119966,51.2998581 C146.010449,51.0740462 145.95517,50.8195516 145.95517,50.5363742 C145.95517,49.9736699 146.146562,49.5241323 146.529347,49.1888043 C146.911611,48.8534763 147.428423,48.6855516 148.07874,48.6855516 C148.285256,48.6855516 148.491251,48.7001538 148.69881,48.7283151 C148.905847,48.7569978 149.116535,48.8018473 149.328267,48.8623419 L149.414315,49.645643 C149.181724,49.5387344 148.952261,49.4584226 148.726971,49.406272 C148.501159,49.3536 148.27274,49.3275247 148.043799,49.3275247 C147.622423,49.3275247 147.294396,49.4260892 147.06024,49.6211323 C146.826084,49.8166968 146.708745,50.0915301 146.708745,50.4456323 C146.708745,50.9546215 147.21982,51.5173258 148.240928,52.1342667 C148.402595,52.2323097 148.527756,52.3074065 148.615369,52.3621645 C149.053955,52.6317828 149.361643,52.8998366 149.540519,53.1658043 C149.719396,53.4328151 149.809095,53.7441538 149.809095,54.1019065 C149.809095,54.7219763 149.58224,55.220014 149.12853,55.5965409 C148.675342,55.9715032 148.069353,56.1597667 147.310562,56.1597667 C147.071713,56.1597667 146.831299,56.1368204 146.590363,56.090928 C146.348906,56.045557 146.101713,55.9761968 145.848783,55.8818043" id="Fill-64" fill="#2D408F" mask="url(#mask-2)"></path>
                </g>
            </g>
        </g>
    </g>
</svg>