<?xml version="1.0" encoding="utf-8"?>
<!-- Generator: Adobe Illustrator 15.0.0, SVG Export Plug-In . SVG Version: 6.00 Build 0)  -->
<!DOCTYPE svg PUBLIC "-//W3C//DTD SVG 1.1//EN" "http://www.w3.org/Graphics/SVG/1.1/DTD/svg11.dtd">
<svg version="1.1" id="Layer_1" xmlns="http://www.w3.org/2000/svg" xmlns:xlink="http://www.w3.org/1999/xlink" x="0px" y="0px"
	 width="299.104px" height="180px" viewBox="0 0 299.104 180" enable-background="new 0 0 299.104 180" xml:space="preserve">
<g>
	<g>
		<defs>
			<rect id="SVGID_1_" x="190.979" y="79.982" width="0.527" height="43.952"/>
		</defs>
		<use xlink:href="#SVGID_1_"  overflow="visible" fill="#FFFFFF"/>
		<clipPath id="SVGID_2_">
			<use xlink:href="#SVGID_1_"  overflow="visible"/>
		</clipPath>
		<rect x="191.104" y="80.293" clip-path="url(#SVGID_2_)" fill="#FFFFFF" width="0.278" height="43.327"/>
		<path clip-path="url(#SVGID_2_)" fill="#FFFFFF" d="M191.506,123.934h-0.526V79.982h0.526V123.934z M191.227,123.311h0.03V80.606
			h-0.03V123.311z"/>
	</g>
</g>
<path fill="#FFFFFF" d="M159.871,106.671l-0.156-0.451c-0.217-0.637-0.568-1.192-1.043-1.646l-0.428-0.409l0.508-0.306
	c1.658-1.002,2.537-2.578,2.537-4.554v-0.051c0-3.401-2.678-5.599-6.818-5.599h-6.4v16.604h3.273v-4.783v-0.453h0.453h1.041
	c1.91,0,3.215,0.723,3.672,2.037v0.004l1.295,3.195h3.467l-1.383-3.595L159.871,106.671z M157.963,99.381
	c0,1.749-1.408,3.557-3.764,3.557h-2.402h-0.453v-0.453v-6.258v-0.451h0.453h2.322c2.229,0,3.844,1.494,3.844,3.556V99.381z"/>
<path fill="#FFFFFF" d="M170.184,100.557c-3.223-0.744-4.096-1.152-4.096-2.631v-0.051c0-0.861,0.742-1.864,2.838-1.864
	c1.025,0,2.146,0.328,2.852,0.579v-2.905c-0.078-0.015-0.158-0.032-0.238-0.049c-0.715-0.147-1.693-0.354-2.557-0.354
	c-3.869,0-6.467,1.988-6.467,4.948v0.048c0,3.063,1.994,4.062,6.184,5.025c2.865,0.662,3.82,1.125,3.82,2.561v0.051
	c0,1.228-1.205,1.99-3.148,1.99c-2.154,0-3.643-0.734-5.404-2.016l-2.072,2.237c2.207,1.685,4.631,2.507,7.395,2.507
	c4.195,0,6.805-1.953,6.805-5.098v-0.047C176.094,102.907,174.492,101.571,170.184,100.557"/>
<path fill="#FFFFFF" d="M58.553,65.795H33.002c-5.599,0-11.315,3.016-13.961,4.91C6.276,79.829,0,98.278,0,98.278
	c1.773-3.082,14.792-26.933,32.454-26.933h18.663c0,0,0.053,3.086-1.576,5.224C59.677,73.076,58.553,65.795,58.553,65.795"/>
<path fill="#FFFFFF" d="M36.214,78.4c-0.031,0.609-0.162,2.354-0.995,3.9h-0.011v0.009c8.335-0.729,12.36-3.234,14.265-5.718
	C46.283,77.681,42,78.4,36.214,78.4"/>
<path fill="#FFFFFF" d="M30.188,82.542c0,0-1.806-0.02-5.15-0.096C11.634,82.139,5.292,91.887,2.194,96.63
	c3.098-3.233,9.155-9.259,20.136-9.051c8.511,0.162,11.656-2.591,12.92-5.279C33.707,82.44,32.033,82.579,30.188,82.542"/>
<path fill="#FFFFFF" d="M38.154,107.448c-1.329,0.385-1.898,0.422-2.679,0.385c-1.561-0.08-2.836-0.959-3.203-2.496h9.448
	c0.024-0.313,0.049-0.516,0.049-0.852v-0.046c0-3.409-1.903-6.592-6.488-6.592c-3.954,0-6.657,2.879-6.657,6.368
	c0,3.688,2.664,6.283,6.628,6.283c0.604,0,1.472-0.02,2.902-0.373V107.448z M35.328,100.649c1.686,0,2.738,1.033,2.976,2.559h-6.032
	C32.59,101.659,33.668,100.649,35.328,100.649"/>
<path fill="#FFFFFF" d="M87.979,103.735c0-3.316-2.019-5.904-6.287-5.904c-4.275,0-6.293,2.588-6.293,5.904v6.489h3.955v-6.729
	c0.069-1.228,0.551-2.677,2.338-2.677c1.781,0,2.301,1.449,2.369,2.677v6.729h3.918V103.735z"/>
<path fill="#FFFFFF" d="M79.314,103.735c0-3.316-2.019-5.904-6.289-5.904c-4.273,0-6.293,2.588-6.293,5.904v6.489h3.957v-6.729
	c0.07-1.228,0.551-2.677,2.336-2.677c1.783,0,2.301,1.449,2.371,2.677v6.729h3.918V103.735z"/>
<polygon fill="#FFFFFF" points="20.228,96.953 20.228,100.172 27.38,100.172 27.38,103.487 20.228,103.487 20.228,110.213 
	16.273,110.213 16.273,93.639 29.103,93.639 29.103,96.953 "/>
<rect x="121.562" y="98.103" fill="#FFFFFF" width="3.935" height="12.121"/>
<rect x="121.562" y="93.624" fill="#FFFFFF" width="3.935" height="2.688"/>
<path fill="#FFFFFF" d="M51.831,107.771c-0.285,0.05-0.579,0.075-0.879,0.075c-2.458,0-4.455-1.653-4.455-3.688
	c0-2.037,1.997-3.688,4.455-3.688c0.3,0,0.594,0.025,0.879,0.072v-2.578c-0.53-0.075-1.095-0.112-1.708-0.112
	c-4.245,0-7.45,2.712-7.45,6.338c0,2.562,1.57,4.455,3.469,5.44c1.309,0.68,2.71,0.893,3.86,0.9
	c0.677,0.006,1.264-0.047,1.829-0.144V107.771z"/>
<path fill="#FFFFFF" d="M58.916,97.793c-3.685,0-6.671,2.838-6.671,6.338c0,3.502,2.986,6.34,6.671,6.34s6.672-2.838,6.672-6.34
	C65.588,100.631,62.601,97.793,58.916,97.793 M58.912,107.669c-2.346,0-2.85-1.581-2.85-3.534c0-1.951,0.504-3.533,2.85-3.533
	c2.361,0,2.851,1.582,2.851,3.533C61.763,106.088,61.272,107.669,58.912,107.669"/>
<path fill="#FFFFFF" d="M119.824,107.771c-0.285,0.05-0.58,0.075-0.879,0.075c-2.459,0-4.455-1.653-4.455-3.688
	c0-2.037,1.996-3.688,4.455-3.688c0.299,0,0.594,0.025,0.879,0.072v-2.578c-0.529-0.075-1.096-0.112-1.707-0.112
	c-4.246,0-7.451,2.712-7.451,6.338c0,2.562,1.57,4.455,3.47,5.44c1.31,0.68,2.71,0.893,3.86,0.9
	c0.678,0.006,1.265-0.047,1.828-0.144V107.771z"/>
<path fill="#FFFFFF" d="M133.166,97.793c-3.684,0-6.67,2.838-6.67,6.338c0,3.502,2.986,6.34,6.67,6.34
	c3.686,0,6.674-2.838,6.674-6.34C139.84,100.631,136.852,97.793,133.166,97.793 M133.164,107.669c-2.347,0-2.851-1.581-2.851-3.534
	c0-1.951,0.504-3.533,2.851-3.533c2.359,0,2.851,1.582,2.851,3.533C136.015,106.088,135.523,107.669,133.164,107.669"/>
<path fill="#FFFFFF" d="M110.811,97.74c0,0-0.584-0.048-1.047-0.048c-4.091,0-6.604,2.242-6.604,5.238v7.293h3.995l-0.006-7.067
	c0.017-1.519,0.517-1.94,1.373-2.301c0.561-0.239,1.379-0.409,2.289-0.425V97.74z"/>
<path fill="#FFFFFF" d="M98.447,107.448c-1.33,0.383-1.9,0.42-2.681,0.383c-1.562-0.082-2.836-0.959-3.203-2.494h9.447
	c0.026-0.315,0.05-0.517,0.05-0.853v-0.048c0-3.407-1.904-6.591-6.488-6.591c-3.955,0-6.658,2.877-6.658,6.37
	c0,3.688,2.666,6.283,6.629,6.283c0.604,0,1.473-0.022,2.904-0.375V107.448z M95.619,100.647c1.686,0,2.738,1.031,2.977,2.559
	h-6.032C92.881,101.657,93.959,100.647,95.619,100.647"/>
<polygon fill="#FFFFFF" points="93.832,96.357 96.615,92.195 99.845,93.534 96.69,96.357 "/>
<path fill="#FFFFFF" d="M269.324,57.263c-1.543-0.366-3.096-0.708-4.701-0.943c-0.057-0.011-0.127-0.015-0.188-0.022
	c-2.281,1.682-4.375,3.541-6.27,5.535c2.095-0.307,4.23-0.502,6.414-0.582c7.613-0.277,14.855,0.97,21.396,3.348
	C281.26,61.353,275.57,58.79,269.324,57.263"/>
<path fill="#FFFFFF" d="M265.93,74.032c8.619-4.07,17.645-5.789,26.164-5.413c-7.332-3.238-15.748-4.942-24.643-4.619
	c-4.385,0.16-8.621,0.804-12.633,1.866c-2.004,2.685-3.656,5.576-4.91,8.618c1.934,1.903,4.043,3.694,6.316,5.345
	C259.188,77.639,262.426,75.685,265.93,74.032"/>
<path fill="#FFFFFF" d="M254.818,65.866c-3.336,0.88-6.523,2.049-9.523,3.473c3.037,3.87,6.697,7.418,10.924,10.49h0.004
	c-2.271-1.65-4.383-3.442-6.316-5.345C251.162,71.443,252.814,68.554,254.818,65.866"/>
<path fill="#FFFFFF" d="M256.227,79.833c-2.271-1.652-4.387-3.445-6.32-5.349c-1.797,4.345-2.771,8.999-2.787,13.829
	C249.752,85.219,252.801,82.372,256.227,79.833"/>
<path fill="#FFFFFF" d="M299.104,106.098c-0.105,0-0.211,0.004-0.32,0.004c-4.373,0-7.541-2.8-7.541-6.656V99.36
	c0-3.693,3.174-6.582,7.23-6.582c0.215,0,0.43,0.008,0.631,0.019v-4.431c-0.188-0.01-0.383-0.01-0.578-0.01
	c-7.947,0-13.943,4.765-13.943,11.091v0.079c0,6.171,6.078,11.005,13.842,11.005c0.238,0,0.455-0.006,0.68-0.012V106.098z"/>
<path fill="#FFFFFF" d="M218.756,96.807c-4.687-1-5.348-1.48-5.348-2.964v-0.065c0-1.094,1.205-1.964,3.49-1.964
	c1.164,0,2.688,0.318,3.754,0.712V87.8c-0.996-0.17-2.518-0.371-3.676-0.371c-5.543,0-9.494,2.708-9.494,6.806v0.061
	c0,4.48,3.521,5.734,8.99,6.893c4.531,0.969,4.961,1.61,4.961,2.87v0.063c0,1.322-1.475,2.127-3.918,2.127
	c-3.098,0-5.152-1.062-7.59-2.738l-3.533,3.516c3.258,2.411,6.898,3.607,11.008,3.607c5.852,0,9.963-2.514,9.963-6.995v-0.063
	C227.363,99.642,224.262,97.999,218.756,96.807"/>
<path fill="#FFFFFF" d="M232.432,98.805c0.469-2.379,2.07-3.938,4.527-3.938c2.494,0,4.057,1.588,4.41,3.938H232.432z
	 M236.959,90.661c-6.088,0-10.34,4.348-10.34,9.624v0.067c0,5.66,4.643,9.555,10.924,9.555c0.184,0,0.764-0.021,0.945-0.025v-4.216
	c-0.148,0.007-0.711,0.033-0.869,0.033c-2.652,0-4.523-1.238-5.111-3.619h14.426c0.035-0.487,0.076-0.797,0.076-1.317v-0.063
	C247.01,95.455,243.939,90.661,236.959,90.661"/>
<path fill="#FFFFFF" d="M265.824,99.777c0-5.003-3.061-8.906-9.529-8.906c-6.479,0-9.537,3.903-9.537,8.906v9.79h5.996v-10.15
	c0.107-1.853,0.834-4.037,3.541-4.037c2.699,0,3.488,2.185,3.59,4.037v10.15h5.939V99.777z"/>
<path fill="#FFFFFF" d="M275.57,90.763c-0.264,0-1.168,0.005-1.416,0.014v4.474c1.152,0.01,2.732,0.207,3.438,0.577
	c1.039,0.544,1.574,1.461,1.599,2.707c-1.411-0.167-3.013-0.276-4.397-0.313c-5.664-0.145-8.463,1.727-9.027,4.724
	c-0.01,0.056-0.02,0.112-0.031,0.168c0,0.022-0.003,0.04-0.008,0.06c-0.043,0.287-0.066,0.588-0.066,0.905v0.069
	c0,3.66,3.236,5.66,7.172,5.66c2.891,0,4.883-0.934,6.32-2.348v2.133h5.738V98.733C284.891,93.728,282.041,90.763,275.57,90.763
	 M279.211,102.989c-0.516,2.703-3.305,3.109-3.939,3.143c-4.512,0.236-4.672-2.85-3.15-3.789c2.037-1.264,7.109-0.553,7.109-0.553
	C279.23,101.971,279.277,102.43,279.211,102.989"/>
</svg>
