<?xml version="1.0" standalone="no"?><!-- Generator: Adobe Fireworks CS5, Export SVG Extension by Aaron Beall (http://fireworks.abeall.com) . Version: 0.6.1  --><!DOCTYPE svg PUBLIC "-//W3C//DTD SVG 1.1//EN" "http://www.w3.org/Graphics/SVG/1.1/DTD/svg11.dtd"><svg id="Untitled-Page%201" viewBox="0 0 121 65" style="background-color:#ffffff00" version="1.1"	xmlns="http://www.w3.org/2000/svg" xmlns:xlink="http://www.w3.org/1999/xlink" xml:space="preserve"	x="0px" y="0px" width="121px" height="65px">	<g id="Layer%201">		<g>			<g>				<path d="M 27.7744 25.0879 C 27.0995 24.4346 26.262 24.1025 25.2832 24.1025 C 24.3984 24.1025 23.2725 24.7173 21.7388 26.0356 C 20.4482 27.1455 18.9978 27.8398 17.4255 28.0957 C 16.9187 28.1782 16.4381 28.2158 15.958 28.2158 C 13.9392 28.2158 12.2717 27.5625 10.8577 26.209 C 9.4468 24.8643 8.7625 23.2651 8.7625 21.3203 L 8.7625 12.0073 C 8.7625 10.5601 9.2593 9.3643 10.291 8.3452 C 11.3069 7.3291 12.5317 6.8384 14.0349 6.8384 C 15.5865 6.8384 16.8696 7.3237 17.9492 8.3252 C 19.0056 9.3042 19.5657 10.5498 19.614 12.0073 L 19.614 14.9067 L 27.6393 14.9067 L 27.6393 12.9067 C 27.6393 10.4883 27.0291 8.2827 25.8271 6.353 C 25.2241 5.3867 24.4895 4.4927 23.6421 3.7046 C 20.9969 1.2471 17.7639 0 14.0349 0 C 12.04 0 10.1715 0.3667 8.4922 1.0894 C 8.4102 1.1211 8.3275 1.1587 8.2477 1.1973 L 8.1338 1.248 C 6.7537 1.8892 5.5034 2.7598 4.4175 3.8252 C 4.0818 4.1509 3.7603 4.4985 3.4348 4.8853 C 1.4872 7.2241 0.5 10.002 0.5 13.1318 L 0.5 20.3467 C 0.5 24.5254 2.0276 28.0859 5.0359 30.937 C 7.7933 33.5283 11.1345 34.9482 14.9761 35.1621 L 15.2412 35.1753 C 15.4773 35.187 15.714 35.1997 15.958 35.1997 C 16.5095 35.1997 17.0427 35.1621 17.4414 35.1294 C 21.5413 34.8027 24.9993 33.064 27.718 29.9683 L 27.8218 29.853 C 27.8999 29.772 27.9766 29.688 28.0305 29.6172 C 28.2623 29.3545 28.4045 29.0698 28.4968 28.8779 C 28.696 28.4409 28.7965 27.9863 28.7965 27.5215 C 28.7965 27.0205 28.6926 26.5479 28.4751 26.0776 C 28.3058 25.7153 28.072 25.3813 27.7744 25.0879 Z" fill="#ffffff"/>				<path d="M 58.9756 3.7998 C 58.9041 2.7764 58.52 1.9023 57.8318 1.2104 C 57.0547 0.4233 56.0586 0.0229 54.8705 0.0229 C 53.6836 0.0229 52.6923 0.4067 51.9191 1.1587 C 51.136 1.9146 50.7388 2.8828 50.7388 4.0415 L 50.7388 21.9932 C 50.7388 23.7642 50.0969 25.2847 48.833 26.5117 C 47.5444 27.7578 46.0393 28.3643 44.2344 28.3643 C 42.3269 28.3643 40.8 27.7622 39.569 26.519 C 38.3479 25.2944 37.7288 23.772 37.7288 21.9932 L 37.7288 0.8906 L 29.3916 0.8906 L 29.3916 20.8721 C 29.3916 23.7388 30.0795 26.3027 31.4365 28.4927 C 32.063 29.5063 32.7754 30.3892 33.6189 31.188 C 36.4114 33.8496 39.9836 35.1997 44.2344 35.1997 L 44.3372 35.1997 C 46.496 35.1997 48.4744 34.8711 50.2188 34.2275 C 50.7209 34.0439 51.2134 33.8306 51.6824 33.5889 C 56.6589 31.0361 58.2527 26.0908 58.7611 23.3726 C 58.9722 22.2378 59.0002 21.4858 59.0002 21.436 L 59.0002 4.1201 C 59.0002 4.0415 58.9934 3.9688 58.9851 3.897 C 58.98 3.8716 58.979 3.8423 58.9756 3.7998 Z" fill="#ffffff"/>				<path d="M 111.179 25.0859 C 110.5029 24.4346 109.662 24.1025 108.683 24.1025 C 107.8075 24.1025 106.6426 24.7363 105.1318 26.0337 C 104.8794 26.249 104.5947 26.4644 104.2452 26.7065 C 102.7628 27.7095 101.1066 28.2158 99.3253 28.2158 C 97.3483 28.2158 95.7115 27.5625 94.3175 26.2134 C 93.2355 25.165 92.5886 23.9771 92.3513 22.6055 L 111.2064 22.6055 L 111.2064 13.2065 C 111.2064 9.4766 109.8783 6.3066 107.2554 3.7842 C 104.6356 1.2725 101.3876 0 97.5991 0 C 95.9572 0 94.3834 0.2573 92.9224 0.7656 C 91.0688 1.4087 89.4043 2.4531 87.9755 3.8682 C 85.3798 6.4341 84.0643 9.5757 84.0643 13.2065 L 84.0643 20.3467 C 84.0643 24.6333 85.552 28.2168 88.4835 30.9995 C 91.4061 33.7842 95.0679 35.1997 99.3699 35.1997 C 102.321 35.1997 104.9849 34.5337 107.2891 33.2202 C 108.8505 32.3267 110.2546 31.1406 111.4636 29.6807 C 111.9589 29.0776 112.209 28.3516 112.209 27.5215 C 112.209 26.5728 111.8646 25.7544 111.179 25.0859 ZM 92.2495 12.1582 C 92.2495 10.7144 92.7705 9.5029 93.8369 8.4595 C 94.9093 7.4165 96.1517 6.9111 97.637 6.9111 C 100.2487 6.9111 101.9213 7.9858 102.752 10.1924 C 102.9863 10.832 103.1016 11.4502 103.1016 12.0825 L 103.1016 14.9917 L 92.2495 14.9917 L 92.2495 12.1582 Z" fill="#ffffff"/>				<path d="M 84.1962 7.6582 C 84.2504 7.2778 84.2754 6.9829 84.2754 6.7651 C 84.2754 4.8467 82.8312 3.2813 79.9822 2.1172 C 77.8798 1.2578 75.7069 1.0747 74.2566 1.0747 C 72.8297 1.0747 71.8689 1.2437 71.8236 1.2524 C 68.561 1.8574 60.973 4.2842 60.973 13.6982 C 60.973 14.356 60.9575 14.918 60.9218 15.4385 C 60.9218 15.5083 60.9155 15.5894 60.9111 15.6548 L 60.9089 32.4585 L 60.9128 32.4585 C 60.9385 34.6084 62.71 36.3438 64.8932 36.3438 C 67.0748 36.3438 68.8469 34.6074 68.8727 32.4556 L 68.8799 32.4556 L 68.8638 14.2339 C 68.8638 12.5708 69.3472 11.2197 70.3375 10.0938 C 71.0845 9.2422 72.047 8.7393 73.2797 8.5513 C 73.5454 8.5122 73.9043 8.4648 74.2866 8.4648 C 75.6697 8.4648 77.1523 8.9155 78.6703 9.793 C 79.234 10.1504 79.9124 10.3325 80.6862 10.3325 C 82.5435 10.3325 83.7533 9.4307 84.1838 7.7197 L 84.1962 7.6582 Z" fill="#ffffff"/>			</g>			<g>				<g>					<path d="M 71.4951 50.9844 L 71.6743 50.8008 C 71.7791 50.6631 71.8992 50.6475 71.9889 50.771 C 72.1084 50.9082 72.9456 51.9165 74.1558 51.9185 C 75.5613 51.9185 76.7877 50.9248 76.7882 49.6123 C 76.7887 48.481 75.8774 47.9463 74.5465 47.2568 C 73.246 46.584 72.3192 45.9585 72.3197 44.5532 C 72.3204 43.1772 73.2927 41.5586 75.67 41.5596 C 76.9854 41.5596 77.8669 42.3394 77.8669 42.3394 C 77.9124 42.3848 78.0164 42.4766 77.8818 42.6597 L 77.7473 42.8438 C 77.6576 42.9644 77.5524 43.0112 77.4187 42.9209 C 77.3739 42.8892 76.5808 42.2173 75.5791 42.2173 C 73.8312 42.2163 73.0232 43.4839 73.0227 44.4917 C 73.0216 45.5615 73.8138 46.0967 74.9058 46.6313 C 76.4744 47.396 77.5057 48.085 77.5057 49.5352 C 77.5048 51.3374 75.9497 52.5591 74.0958 52.5591 C 72.5708 52.5581 71.6595 51.4893 71.4951 51.3047 C 71.421 51.229 71.3457 51.1538 71.4951 50.9844 Z" fill="#ffffff"/>					<path d="M 80.543 42.3706 L 78.0018 42.3696 C 77.8519 42.3696 77.8376 42.2783 77.8525 42.1416 L 77.8823 41.9116 C 77.8976 41.7886 78.0018 41.7144 78.0914 41.7144 L 83.8619 41.7153 C 83.9816 41.7153 84.0419 41.8076 84.0264 41.9141 L 83.9965 42.1733 C 83.9816 42.2803 83.892 42.3726 83.7725 42.3726 L 81.2307 42.3706 L 79.8813 52.209 C 79.8671 52.3169 79.7767 52.4082 79.6274 52.4082 L 79.3435 52.4082 C 79.2391 52.4082 79.1637 52.3164 79.1792 52.209 L 80.543 42.3706 Z" fill="#ffffff"/>					<path d="M 84.1011 41.9141 C 84.1161 41.8076 84.2212 41.7153 84.3109 41.7153 L 84.639 41.7153 C 84.7441 41.7163 84.818 41.8076 84.8038 41.9155 L 83.9044 48.437 C 83.6195 50.4082 84.4866 51.8608 86.2506 51.8618 C 88.0143 51.8618 89.2858 50.4268 89.556 48.4551 L 90.4697 41.917 C 90.4849 41.7944 90.5444 41.7173 90.6945 41.7173 L 91.0082 41.7173 C 91.0978 41.7173 91.1725 41.8096 91.1576 41.917 L 90.2582 48.5176 C 89.9285 50.8545 88.3429 52.564 86.1462 52.564 C 84.0975 52.563 82.8722 50.8516 83.1874 48.5137 L 84.1011 41.9141 Z" fill="#ffffff"/>					<path d="M 92.6674 41.9175 C 92.6827 41.8096 92.7723 41.7192 92.8618 41.7192 L 95.7477 41.7202 C 98.0348 41.7212 99.7979 43.8145 99.7968 46.3657 C 99.796 49.6978 97.2091 52.4141 94.2783 52.4141 L 91.3931 52.4141 C 91.3036 52.4141 91.2286 52.3213 91.2438 52.2148 L 92.6674 41.9175 ZM 94.234 51.7568 C 96.8049 51.7583 99.0485 49.4229 99.0498 46.3975 C 99.0503 44.1348 97.631 42.377 95.5226 42.377 L 93.2953 42.376 L 92.0063 51.7559 L 94.234 51.7568 Z" fill="#ffffff"/>					<path d="M 101.3839 41.9204 C 101.3982 41.8145 101.4735 41.7222 101.6079 41.7222 L 101.9366 41.7222 C 102.0417 41.7222 102.116 41.8145 102.1011 41.9219 L 100.6919 52.2168 C 100.6626 52.3408 100.5575 52.4165 100.4528 52.4165 L 100.139 52.4165 C 100.0338 52.4165 99.9594 52.3247 99.9746 52.2168 L 101.3839 41.9204 Z" fill="#ffffff"/>					<path d="M 108.7405 40.7524 C 111.1029 40.7524 112.8962 42.8926 112.8958 45.5361 C 112.8939 48.9878 110.3218 51.7534 107.2274 51.7524 C 104.8651 51.751 103.0717 49.6431 103.0723 47.0151 C 103.0741 43.562 105.6461 40.752 108.7405 40.7524 ZM 107.3173 51.0786 C 109.8585 51.0806 112.2061 48.6372 112.208 45.6289 C 112.2085 43.3208 110.7437 41.4248 108.651 41.4248 C 106.0948 41.4233 103.7614 43.8965 103.7607 46.9224 C 103.7596 49.2139 105.2238 51.0786 107.3173 51.0786 Z" fill="#ffffff"/>				</g>				<g>					<path d="M 79.6104 53.769 C 79.6245 53.6162 79.7596 53.478 79.894 53.478 L 83.1235 53.479 C 85.4852 53.4805 87.1748 55.6509 87.1735 58.126 C 87.1718 61.4424 84.7938 64.1748 81.6548 64.1748 L 78.4108 64.1733 C 78.2758 64.1733 78.1862 64.0352 78.2161 63.8818 L 79.6104 53.769 ZM 81.7592 62.311 C 83.5836 62.312 85.0939 60.5552 85.095 58.2637 C 85.0958 56.5977 84.1692 55.3286 82.7339 55.3276 L 81.329 55.3276 L 80.3691 62.311 L 81.7592 62.311 Z" fill="#ffffff"/>					<path d="M 88.3264 53.771 C 88.3413 53.6196 88.4764 53.4814 88.6101 53.4814 L 94.1415 53.4844 C 94.291 53.4844 94.3805 53.6221 94.3657 53.7749 L 94.1865 55.0269 C 94.1709 55.1797 94.0363 55.3179 93.887 55.3179 L 90.0599 55.3169 L 89.7151 57.8203 L 92.8843 57.8218 C 93.0193 57.8218 93.1234 57.9609 93.1083 58.1128 L 92.9285 59.3804 C 92.8992 59.5488 92.764 59.6709 92.6296 59.6709 L 89.4601 59.6699 L 89.0859 62.3442 L 92.9272 62.3447 C 93.0768 62.3447 93.1514 62.4829 93.1365 62.6367 L 92.9716 63.8887 C 92.9572 64.0405 92.8221 64.1782 92.6726 64.1782 L 87.1411 64.1753 C 86.9918 64.1753 86.9022 64.0376 86.932 63.8853 L 88.3264 53.771 Z" fill="#ffffff"/>					<path d="M 93.1962 62.6821 L 93.78 61.811 C 93.9146 61.5972 94.1244 61.644 94.2432 61.75 C 94.453 61.9331 95.1851 62.5439 96.0969 62.5454 C 96.7699 62.5454 97.4272 62.0117 97.4277 61.248 C 97.4277 60.5752 96.9802 60.1309 96.1429 59.5659 C 95.1569 58.9092 93.9905 58.0366 93.991 56.5098 C 93.9917 54.9805 95.024 53.3315 97.3711 53.3325 C 98.7612 53.3325 99.7777 54.0674 100.0322 54.3271 C 100.2108 54.5103 100.2257 54.7256 100.0765 54.938 L 99.4926 55.7769 C 99.3737 55.9614 99.1788 55.9771 98.9702 55.8086 C 98.7312 55.6104 98.0435 55.1362 97.2816 55.1362 C 96.5189 55.1343 96.0098 55.7305 96.0098 56.3262 C 96.0098 56.938 96.4125 57.2441 97.3102 57.8564 C 98.2968 58.5273 99.6108 59.3682 99.6108 61.0488 C 99.6104 62.8369 98.2489 64.333 96.0366 64.332 C 94.4972 64.332 93.4353 63.4146 93.1962 63.1396 C 93.1072 63.0488 93.0317 62.9121 93.1962 62.6821 Z" fill="#ffffff"/>					<path d="M 101.0631 54.5957 C 101.0786 54.4443 101.2133 54.3062 101.3475 54.3062 L 102.813 54.3062 C 102.9473 54.3062 103.0519 54.4453 103.0221 54.5977 L 101.6283 64.7104 C 101.6134 64.8647 101.479 65 101.344 65 L 99.8782 65 C 99.7441 65 99.6395 64.8633 99.6696 64.7104 L 101.0631 54.5957 Z" fill="#ffffff"/>					<path d="M 108.3585 53.3374 C 109.7043 53.3374 110.7062 53.8726 111.4688 54.7891 C 111.5577 54.9121 111.5427 55.0952 111.4082 55.2163 L 110.6157 56.0112 C 110.4366 56.1484 110.2566 56.1484 110.1217 56.0112 C 109.7333 55.6289 109.181 55.248 108.2535 55.248 C 106.46 55.2456 104.9047 57.1401 104.9032 59.3257 C 104.9032 60.9438 105.9037 62.3511 107.2197 62.3511 C 107.9219 62.3521 108.4608 62.168 108.7448 61.9839 L 108.9247 60.6392 L 107.9679 60.6392 C 107.8177 60.6392 107.729 60.5176 107.7438 60.3647 L 107.9087 59.1729 C 107.939 59.0044 108.0575 58.8833 108.2075 58.8833 L 110.8536 58.8843 C 110.9882 58.8843 111.0779 59.0215 111.0634 59.1738 L 110.5686 62.8418 C 110.5376 63.0854 110.4335 63.2231 110.3291 63.3145 C 110.1797 63.4375 108.9987 64.3369 106.9799 64.3359 C 104.5436 64.3359 102.7794 62.2119 102.7806 59.5835 C 102.7819 55.9932 105.2351 53.3364 108.3585 53.3374 Z" fill="#ffffff"/>					<path d="M 112.4858 53.6123 C 112.5009 53.4614 112.6353 53.3374 112.7701 53.3374 L 113.1587 53.3374 L 117.715 59.9409 L 117.7311 59.9409 L 118.5396 53.7837 C 118.5555 53.6318 118.6746 53.4941 118.8241 53.4941 L 120.2744 53.4941 C 120.4089 53.4941 120.5142 53.6318 120.4984 53.7847 L 119.0743 64.0664 C 119.0596 64.2188 118.9242 64.3423 118.7899 64.3408 L 118.3865 64.3408 L 113.8441 57.541 L 113.83 57.541 L 113.02 63.896 C 113.0045 64.0474 112.8707 64.187 112.7213 64.187 L 111.2859 64.1855 C 111.166 64.1855 111.061 64.063 111.0762 63.9268 L 112.4858 53.6123 Z" fill="#ffffff"/>				</g>			</g>		</g>	</g></svg>