<?xml version="1.0" standalone="no"?><!-- Generator: Adobe Fireworks CS5, Export SVG Extension by Aaron Beall (http://fireworks.abeall.com) . Version: 0.6.1  --><!DOCTYPE svg PUBLIC "-//W3C//DTD SVG 1.1//EN" "http://www.w3.org/Graphics/SVG/1.1/DTD/svg11.dtd"><svg id="Untitled-Page%201" viewBox="0 0 320 170" style="background-color:#ffffff00" version="1.1"	xmlns="http://www.w3.org/2000/svg" xmlns:xlink="http://www.w3.org/1999/xlink" xml:space="preserve"	x="0px" y="0px" width="320px" height="170px">	<defs>		<filter id="filter1" x="-100%" y="-100%" width="300%" height="300%">			<!-- Drop Shadow -->			<feOffset result="out" in="SourceGraphic" dx="5.6569" dy="5.6569"/>			<feColorMatrix result="out" in="out" type="matrix" values="0 0 0 0 0  0 0 0 0 0  0 0 0 0 0  0 0 0 0.2902 0"/>			<feGaussianBlur result="out" in="out" stdDeviation="4"/>			<feBlend in="SourceGraphic" in2="out" mode="normal" result="Drop_Shadow1"/>		</filter>		<filter id="filter2" x="-100%" y="-100%" width="300%" height="300%">			<!-- Drop Shadow -->			<feOffset result="out" in="SourceGraphic" dx="5.6569" dy="5.6569"/>			<feColorMatrix result="out" in="out" type="matrix" values="0 0 0 0 0  0 0 0 0 0  0 0 0 0 0  0 0 0 0.2902 0"/>			<feGaussianBlur result="out" in="out" stdDeviation="4"/>			<feBlend in="SourceGraphic" in2="out" mode="normal" result="Drop_Shadow2"/>		</filter>		<filter id="filter3" x="-100%" y="-100%" width="300%" height="300%">			<!-- Drop Shadow -->			<feOffset result="out" in="SourceGraphic" dx="4.9497" dy="4.9497"/>			<feColorMatrix result="out" in="out" type="matrix" values="0 0 0 0 0  0 0 0 0 0  0 0 0 0 0  0 0 0 0.2902 0"/>			<feGaussianBlur result="out" in="out" stdDeviation="4"/>			<feBlend in="SourceGraphic" in2="out" mode="normal" result="Drop_Shadow3"/>		</filter>		<filter id="filter4" x="-100%" y="-100%" width="300%" height="300%">			<!-- Drop Shadow -->			<feOffset result="out" in="SourceGraphic" dx="4.9497" dy="4.9497"/>			<feColorMatrix result="out" in="out" type="matrix" values="0 0 0 0 0  0 0 0 0 0  0 0 0 0 0  0 0 0 0.2902 0"/>			<feGaussianBlur result="out" in="out" stdDeviation="4"/>			<feBlend in="SourceGraphic" in2="out" mode="normal" result="Drop_Shadow4"/>		</filter>		<filter id="filter5" x="-100%" y="-100%" width="300%" height="300%">			<!-- Drop Shadow -->			<feOffset result="out" in="SourceGraphic" dx="4.9497" dy="4.9497"/>			<feColorMatrix result="out" in="out" type="matrix" values="0 0 0 0 0  0 0 0 0 0  0 0 0 0 0  0 0 0 0.2902 0"/>			<feGaussianBlur result="out" in="out" stdDeviation="4"/>			<feBlend in="SourceGraphic" in2="out" mode="normal" result="Drop_Shadow5"/>		</filter>	</defs>	<g id="Layer%201">		<g>			<path d="M 212.5502 0.5 L 214.0428 0.5 L 213.9951 30.4514 L 212.5 30.4476 L 212.5502 0.5 Z" fill="#ffffff"/>			<path d="M 220.1954 0.5112 L 221.5576 0.515 L 244.005 28.015 L 244.0511 0.5487 L 245.5 0.5524 L 245.45 30.5 L 244.2646 30.4962 L 221.6403 2.783 L 221.5959 30.4626 L 220.1475 30.4626 L 220.1954 0.5112 Z" fill="#ffffff"/>		</g>		<g>			<path d="M 50.5996 168.1172 L 61.2692 158.0871 C 65.286 154.3506 66.2295 152.2256 66.2396 150.0599 C 66.2446 146.9285 63.5342 144.4679 59.9551 144.4578 C 56.4397 144.4476 54.0295 146.4252 52.2561 149.3889 L 51.2729 148.7637 C 53.1687 145.5609 55.8018 143.38 60.0339 143.38 C 64.4316 143.3851 67.4976 146.3031 67.4874 149.9583 L 67.4874 150.0142 C 67.4874 152.7188 66.3276 154.8488 62.0583 158.8801 L 52.5896 167.8071 L 67.793 167.8375 L 67.7853 168.9814 L 50.5996 168.956 L 50.5996 168.1172 Z" fill="#ffffff"/>			<path d="M 121.0925 156.4197 L 121.0925 156.3485 C 121.1025 149.455 125.0139 143.3393 131.5125 143.3546 C 138.0581 143.3596 141.907 149.4246 141.8918 156.379 L 141.8918 156.4552 C 141.884 163.3385 137.9856 169.4491 131.4666 169.439 C 124.9349 169.4287 121.0898 163.3741 121.0925 156.4197 ZM 140.6313 156.4857 L 140.6313 156.4094 C 140.6478 150.2023 137.2318 144.478 131.4818 144.473 C 125.7295 144.4679 122.3809 150.0752 122.3683 156.3129 L 122.3683 156.379 C 122.3606 162.5811 125.7754 168.3154 131.5176 168.3256 C 137.2471 168.3307 140.6262 162.6827 140.6313 156.4857 Z" fill="#ffffff"/>			<path d="M 198.9307 144.9661 L 194.1726 146.8724 L 193.7689 145.9015 L 199.1929 143.6342 L 200.1338 143.6342 L 200.0879 169.0475 L 198.9052 169.0475 L 198.9307 144.9661 Z" fill="#ffffff"/>			<path d="M 255.0642 165.0009 L 256.0027 164.1977 C 257.8971 166.7242 260.7236 168.3815 264.2289 168.3866 C 267.9861 168.4019 271.1487 165.9465 271.1641 162.459 L 271.1641 162.3879 C 271.1641 158.2701 267.5342 156.44 262.3649 156.4298 L 261.3107 156.4298 L 260.9503 155.6978 L 270.3695 145.0068 L 256.4318 144.9916 L 256.4368 143.8324 L 272.0313 143.8579 L 272.0313 144.7272 L 262.7277 155.3011 C 268.4 155.4232 272.4069 157.6448 272.394 162.3523 L 272.394 162.4184 C 272.3864 166.6073 268.5909 169.5152 264.1755 169.5 C 260.166 169.4949 257.0441 167.619 255.0642 165.0009 Z" fill="#ffffff"/>		</g>		<path filter="url(#filter1)" d="M 209.5378 46.0682 L 237.6783 46.114 L 273.3311 131.5503 L 242.5116 131.5096 L 238.0426 120.1121 L 208.3092 120.0714 L 203.9331 131.4486 L 173.5986 131.3978 L 209.5378 46.0682 ZM 231.0349 100.001 L 223.3051 79.4019 L 215.5168 99.9756 L 231.0349 100.001 Z" fill="#ffffff"/>		<path filter="url(#filter2)" d="M 119.5 91.6802 L 119.5 91.4401 C 119.5415 73.1357 134.9944 57.4728 156.681 57.5 C 178.2375 57.5383 193.5371 73.0156 193.4999 91.3199 L 193.4999 91.5601 C 193.4818 109.8753 178.019 125.5273 156.3341 125.5 C 134.7552 125.4727 119.4849 109.9954 119.5 91.6802 ZM 167.2236 91.7675 L 167.2236 91.511 C 167.2332 85.093 162.4197 79.9684 156.4102 79.9575 C 150.2523 79.952 145.79 85.0602 145.7803 91.2435 L 145.7803 91.4837 C 145.7709 97.9016 150.5758 103.0153 156.605 103.0317 C 162.7363 103.0426 167.2125 97.9399 167.2236 91.7675 Z" fill="#ffffff"/>		<path filter="url(#filter3)" d="M 52.271 47.207 L 90.4832 47.2679 C 113.0571 47.2985 128.4464 57.3641 128.4185 77.4905 L 128.4185 77.7243 C 128.3842 98.1912 112.7173 109.0601 89.7814 109.0245 L 80.5698 108.9991 L 80.5265 132.0179 L 52.25 132 L 52.271 47.207 ZM 88.2446 88.7966 C 95.516 88.8118 100.3823 85.5532 100.3823 79.4985 L 100.3823 79.2545 C 100.3926 73.0727 95.9058 69.9208 88.3936 69.9106 L 80.6206 69.8954 L 80.6055 88.7864 L 88.2446 88.7966 Z" fill="#ffffff"/>		<g>			<path d="M 60.5 6.5 L 60.5 12.5 L 74.8594 12.5 L 74.8594 18.5 L 60.5 18.5 L 60.5 30.5 L 53.5 30.5 L 53.5 0.5 L 76.7969 0.5 L 76.7969 6.5 L 60.5 6.5 L 60.5 6.5 Z" fill="#5ba2b8"/>			<path d="M 100.5 30.5 L 94.4063 20.5 L 89.5 20.5 L 89.5 30.5 L 82.5 30.5 L 82.5 0.5 L 96.2031 0.5 C 99.7656 0.5 102.5313 1.375 104.5156 3.125 C 106.5 4.875 107.5 7.2969 107.5 10.4063 L 107.5 10.4844 C 107.5 12.9219 106.8438 14.8906 105.5625 16.4219 C 104.2656 17.9531 102.5781 19.0781 100.5 19.7813 L 107.8438 30.5 L 100.5 30.5 L 100.5 30.5 ZM 100.5 10.4844 C 100.5 9.1563 100.0625 8.1563 99.2188 7.5 C 98.3594 6.8438 97.1719 6.5 95.6406 6.5 L 89.5 6.5 L 89.5 14.5 L 95.7656 14.5 C 97.2813 14.5 98.4531 14.1406 99.2656 13.4219 C 100.0781 12.7031 100.5 11.75 100.5 10.5625 L 100.5 10.4844 L 100.5 10.4844 Z" fill="#5ba2b8"/>			<path d="M 143.25 21.3281 C 142.4219 23.1406 141.2813 24.7188 139.8125 26.0938 C 138.3438 27.4688 136.6094 28.5469 134.5781 29.3281 C 132.5469 30.1094 130.3438 30.5 127.9531 30.5 C 125.5469 30.5 123.3438 30.1094 121.3438 29.3281 C 119.3281 28.5469 117.5938 27.4844 116.125 26.1406 C 114.6563 24.7969 113.5313 23.2188 112.7188 21.4063 C 111.9063 19.5938 111.5 17.6563 111.5 15.5781 L 111.5 15.5 C 111.5 13.4375 111.9063 11.5 112.7344 9.6875 C 113.5625 7.875 114.7031 6.2969 116.1719 4.9219 C 117.6406 3.5469 119.375 2.4688 121.4063 1.6875 C 123.4375 0.9063 125.6406 0.5 128.0469 0.5 C 130.4375 0.5 132.6406 0.9063 134.6563 1.6875 C 136.6563 2.4688 138.3906 3.5313 139.8594 4.875 C 141.3281 6.2188 142.4688 7.7813 143.2813 9.5938 C 144.0938 11.4063 144.5 13.3594 144.5 15.4219 L 144.5 15.5 C 144.5 17.5781 144.0781 19.5156 143.25 21.3281 L 143.25 21.3281 ZM 137.5 15.5 C 137.5 14.2813 137.2656 13.125 136.7969 12.0313 C 136.3281 10.9375 135.6719 9.9844 134.8125 9.1719 C 133.9531 8.3594 132.9375 7.7031 131.7813 7.2188 C 130.6094 6.75 129.3281 6.5 127.9531 6.5 C 126.5469 6.5 125.2656 6.7344 124.1094 7.2031 C 122.9531 7.6719 121.9531 8.3125 121.125 9.125 C 120.2969 9.9375 119.6563 10.8906 119.1875 11.9688 C 118.7188 13.0469 118.5 14.2031 118.5 15.4219 L 118.5 15.5 C 118.5 16.7344 118.7188 17.8906 119.1875 18.9844 C 119.6563 20.0781 120.3125 21.0313 121.1719 21.8438 C 122.0313 22.6563 123.0313 23.3125 124.1875 23.7813 C 125.3438 24.2656 126.625 24.5 128.0469 24.5 C 129.4219 24.5 130.6875 24.2813 131.8594 23.8125 C 133.0313 23.3438 134.0313 22.7031 134.8594 21.8906 C 135.6875 21.0781 136.3281 20.125 136.7969 19.0469 C 137.2656 17.9688 137.5 16.8125 137.5 15.5781 L 137.5 15.5 L 137.5 15.5 Z" fill="#5ba2b8"/>			<path d="M 171.2031 30.5 L 157.5 11.4219 L 157.5 30.5 L 150.5 30.5 L 150.5 0.5 L 156.2344 0.5 L 169.5 18.9688 L 169.5 0.5 L 176.5 0.5 L 176.5 30.5 L 171.2031 30.5 L 171.2031 30.5 Z" fill="#5ba2b8"/>			<path d="M 197.5 6.5 L 197.5 30.5 L 190.5 30.5 L 190.5 6.5 L 181.3438 6.5 L 181.3438 0.5 L 206.6563 0.5 L 206.6563 6.5 L 197.5 6.5 L 197.5 6.5 Z" fill="#5ba2b8"/>		</g>		<path filter="url(#filter4)" d="M 7.5 89.7832 L 7.71 90 L 7.5 90.2168 L 31.2808 114.5 L 38.5 107.1283 L 21.725 90 L 38.5 72.8717 L 31.2808 65.5 L 7.5 89.7832 Z" fill="#ffffff"/>		<path filter="url(#filter5)" d="M 306.5 89.7832 L 282.7192 65.5 L 275.5 72.8717 L 292.275 90 L 275.5 107.1283 L 282.7192 114.5 L 306.5 90.2168 L 306.29 90 L 306.5 89.7832 Z" fill="#ffffff"/>	</g></svg>