<?xml version="1.0" encoding="utf-8"?>
<!-- Generator: Adobe Illustrator 15.0.0, SVG Export Plug-In . SVG Version: 6.00 Build 0)  -->
<!DOCTYPE svg PUBLIC "-//W3C//DTD SVG 1.1//EN" "http://www.w3.org/Graphics/SVG/1.1/DTD/svg11.dtd">
<svg version="1.1" id="Gri.fo_Logo" xmlns="http://www.w3.org/2000/svg" xmlns:xlink="http://www.w3.org/1999/xlink" x="0px"
	 y="0px" width="1024px" height="768px" viewBox="0 0 1024 768" enable-background="new 0 0 1024 768" xml:space="preserve">
<g id="Logo_2_">
	<g id="Logo_1_">
		<g id="Logo">
			<g id="Typografia">
				<path fill="#FFFFFF" d="M423.989,541.055c-6.967,0-12.264-1.762-15.892-5.217c-3.539-3.406-5.298-8.41-5.298-14.961v-36.168
					c0-6.572,1.759-11.561,5.298-14.982c3.539-3.393,8.844-5.088,15.892-5.088c7.063,0,12.354,1.695,15.884,5.088
					c3.532,3.422,5.306,8.41,5.306,14.982c0,1.207-0.798,1.807-2.365,1.807c-1.564,0-2.356-0.6-2.356-1.807
					c0-3.707-0.531-6.654-1.611-8.863c-1.085-2.156-2.422-3.828-4.04-4.965c-1.625-1.154-3.376-1.869-5.312-2.23
					c-1.899-0.318-3.739-0.488-5.505-0.488c-1.771,0-3.635,0.17-5.593,0.488c-1.958,0.361-3.761,1.076-5.362,2.23
					c-1.633,1.137-2.979,2.809-4.057,4.965c-1.078,2.209-1.604,5.156-1.604,8.863v36.168c0,5.652,1.404,9.883,4.264,12.691
					c2.846,2.639,6.96,3.977,12.353,3.977c5.394,0,9.508-1.338,12.354-3.977c2.74-2.646,4.114-6.889,4.114-12.691v-9.975h-19.105
					c-1.581,0-2.378-0.613-2.378-1.816c0-1.205,0.797-1.814,2.378-1.814h21.462c1.567,0,2.365,0.609,2.365,1.814v11.791
					c0,6.551-1.773,11.555-5.306,14.961C436.24,539.293,430.94,541.055,423.989,541.055z"/>
				<path fill="#FFFFFF" d="M489.892,506.238c4.314,3.18,6.472,7.662,6.472,13.498v19.381c0,1.211-0.783,1.816-2.364,1.816
					c-0.577,0-1.094-0.17-1.536-0.504c-0.436-0.34-0.666-0.768-0.666-1.312v-19.381c0-4.691-1.603-8.297-4.846-10.842
					c-3.229-2.529-7.803-3.771-13.683-3.771h-13.233v33.994c0,1.211-0.789,1.816-2.363,1.816c-0.592,0-1.094-0.17-1.537-0.504
					c-0.451-0.34-0.68-0.768-0.68-1.312v-72.885c0-0.471,0.229-0.865,0.68-1.188c0.443-0.35,0.945-0.516,1.537-0.516h15.597
					c7.845,0,13.624,1.613,17.368,4.857c3.717,3.262,5.586,8.371,5.586,15.322c0,6.873-1.825,11.994-5.444,15.301
					c-1.573,1.434-3.592,2.57-6.037,3.406c0.982,0.371,1.884,0.793,2.72,1.242C488.304,505.123,489.107,505.633,489.892,506.238z
					 M460.035,501.613h13.233c6.368,0,11.037-1.334,13.985-3.99c2.829-2.504,4.256-6.789,4.256-12.914
					c0-5.898-1.427-10.148-4.256-12.766c-2.853-2.6-7.498-3.902-13.985-3.902h-13.233V501.613z"/>
				<path fill="#FFFFFF" d="M509.759,541.055c-1.567,0-2.365-0.625-2.365-1.828v-72.893c0-0.441,0.229-0.832,0.68-1.186
					c0.436-0.332,0.982-0.51,1.686-0.51c0.671,0,1.232,0.178,1.69,0.51c0.436,0.354,0.65,0.744,0.65,1.186v72.893
					C512.1,540.43,511.31,541.055,509.759,541.055z"/>
				<path fill="#FFFFFF" d="M524.607,536.17c0.688,0,1.256,0.178,1.691,0.525c0.444,0.322,0.658,0.729,0.658,1.172v1.359
					c0,1.203-0.775,1.828-2.35,1.828c-1.581,0-2.342-0.625-2.342-1.828v-1.359c0-0.443,0.207-0.85,0.649-1.172
					C523.359,536.348,523.921,536.17,524.607,536.17z"/>
				<path fill="#FFFFFF" d="M569.919,502.824c0,0.475-0.215,0.875-0.666,1.215c-0.442,0.322-1.011,0.504-1.69,0.504h-28.688v34.684
					c0,0.541-0.23,0.967-0.666,1.316c-0.436,0.33-0.953,0.512-1.544,0.512c-1.565,0-2.356-0.625-2.356-1.828v-72.893
					c0-0.441,0.229-0.832,0.664-1.186c0.451-0.332,1.006-0.51,1.692-0.51h30.897c0.68,0,1.248,0.178,1.69,0.51
					c0.451,0.354,0.666,0.744,0.666,1.186c0,1.209-0.79,1.828-2.356,1.828h-28.688v32.867h28.688
					C569.129,501.029,569.919,501.629,569.919,502.824z"/>
				<path fill="#FFFFFF" d="M599.922,541.055c-2.356,0-4.787-0.285-7.277-0.816c-2.498-0.529-4.787-1.529-6.85-3.041
					c-2.061-1.508-3.715-3.584-5-6.18c-1.271-2.613-1.914-6.012-1.914-10.268v-35.92c0-6.502,1.714-11.494,5.156-14.982
					c3.62-3.461,8.925-5.209,15.885-5.209c7.069,0,12.359,1.748,15.893,5.209c3.53,3.414,5.297,8.414,5.297,14.982v35.92
					c0,4.256-0.643,7.654-1.928,10.268c-1.271,2.596-2.927,4.672-4.995,6.18c-2.054,1.512-4.338,2.512-6.841,3.041
					C604.856,540.77,602.367,541.055,599.922,541.055z M599.922,468.162c-5.579,0-9.649,1.33-12.206,3.977
					c-2.859,2.783-4.262,7.012-4.262,12.691v35.92c0,5.732,1.402,10.01,4.262,12.818c2.652,2.639,6.718,3.977,12.206,3.977
					c5.393,0,9.508-1.338,12.359-3.977c2.741-2.646,4.115-6.916,4.115-12.818v-35.92c0-5.822-1.374-10.064-4.115-12.691
					C609.534,469.492,605.41,468.162,599.922,468.162z"/>
			</g>
			<g id="Ícone">
				<linearGradient id="SVGID_1_" gradientUnits="userSpaceOnUse" x1="536.9033" y1="395.0312" x2="624.7017" y2="395.0312">
					<stop  offset="0" style="stop-color:#FFFFFF"/>
					<stop  offset="1" style="stop-color:#E44145"/>
				</linearGradient>
				<polygon fill="url(#SVGID_1_)" points="510.445,388.014 510.445,404.402 529.786,417.438 519.267,425.4 545.753,427.094 
					546.166,419.939 541.127,403.559 546.587,403.145 555.4,400.355 564.23,396.158 569.697,411.283 579.354,420.953 
					592.387,423.049 605.403,418.84 619.271,408.754 621.791,397.412 614.647,405.395 604.148,411.283 589.018,414.215 
					579.354,403.715 573.894,390.691 576.42,362.969 566.757,364.062 557.515,364.471 520.957,371.615 				"/>
				<linearGradient id="SVGID_2_" gradientUnits="userSpaceOnUse" x1="496.7754" y1="389.5059" x2="603.9302" y2="180.422">
					<stop  offset="0" style="stop-color:#FFFFFF"/>
					<stop  offset="1" style="stop-color:#E44145"/>
				</linearGradient>
				<polyline fill="url(#SVGID_2_)" points="511.996,281.465 556.258,236.059 682.291,229.334 659.33,238.859 645.328,249.525 
					582.021,311.697 569.129,352.059 559.612,374.445 547.29,403.014 520.404,398.539 514.234,401.346 497.988,401.346 
					492.381,418.697 479.504,417.021 477.257,423.742 472.788,422.613 470.534,437.191 463.812,441.105 458.203,439.416 
					452.058,446.145 453.741,433.82 462.134,433.262 466.057,431.582 458.787,398.539 438.057,396.289 412.841,351.475 
					442.527,301.613 480.065,249.525 495.196,252.312 501.912,261.826 511.996,281.465 				"/>
				<linearGradient id="SVGID_3_" gradientUnits="userSpaceOnUse" x1="604.875" y1="331.8887" x2="669.189" y2="206.3972">
					<stop  offset="0" style="stop-color:#FFFFFF"/>
					<stop  offset="1" style="stop-color:#E44145"/>
				</linearGradient>
				<polyline fill="url(#SVGID_3_)" points="679.506,241.104 666.62,245.594 657.652,239.996 568.582,240.553 522.636,282.574 
					498.542,325.143 584.821,342.506 589.306,327.381 593.228,313.936 589.306,304.967 596.59,307.781 611.713,303.857 
					608.344,276.412 631.891,284.258 640.282,283.689 646.443,279.779 644.76,280.887 679.506,271.352 674.46,260.166 
					683.982,270.25 695.753,270.25 720.961,264.082 754.008,255.119 				"/>
				<linearGradient id="SVGID_4_" gradientUnits="userSpaceOnUse" x1="482.0449" y1="400.0283" x2="486.5258" y2="430.2705">
					<stop  offset="0" style="stop-color:#FFFFFF"/>
					<stop  offset="1" style="stop-color:#E44145"/>
				</linearGradient>
				<polygon fill="url(#SVGID_4_)" points="480.627,394.059 485.088,413.092 473.343,411.414 475.58,422.621 477.257,414.791 
					491.266,416.459 492.381,399.668 				"/>
				<linearGradient id="SVGID_5_" gradientUnits="userSpaceOnUse" x1="468.0962" y1="418.6777" x2="476.7014" y2="418.6777">
					<stop  offset="0" style="stop-color:#FFFFFF"/>
					<stop  offset="1" style="stop-color:#E44145"/>
				</linearGradient>
				<polygon fill="url(#SVGID_5_)" points="476.416,399.764 465.503,406.074 467.18,433.385 470.534,437.592 				"/>
				<linearGradient id="SVGID_6_" gradientUnits="userSpaceOnUse" x1="465.1899" y1="436.7031" x2="471.1608" y2="436.7031">
					<stop  offset="0" style="stop-color:#FFFFFF"/>
					<stop  offset="1" style="stop-color:#E44145"/>
				</linearGradient>
				<polygon fill="url(#SVGID_6_)" points="465.503,432.713 470.963,436.895 464.653,440.693 463.391,434.799 				"/>
				<linearGradient id="SVGID_7_" gradientUnits="userSpaceOnUse" x1="456.1343" y1="437.1836" x2="464.0757" y2="437.1836">
					<stop  offset="0" style="stop-color:#FFFFFF"/>
					<stop  offset="1" style="stop-color:#E44145"/>
				</linearGradient>
				<polygon fill="url(#SVGID_7_)" points="462.134,433.262 453.741,433.697 456.668,439.422 463.812,441.105 				"/>
				<linearGradient id="SVGID_8_" gradientUnits="userSpaceOnUse" x1="453.4673" y1="441.4521" x2="456.7777" y2="441.4521">
					<stop  offset="0" style="stop-color:#FFFFFF"/>
					<stop  offset="1" style="stop-color:#E44145"/>
				</linearGradient>
				<polygon fill="url(#SVGID_8_)" points="454.163,437.592 456.668,440.279 452.47,445.312 				"/>
				<linearGradient id="SVGID_9_" gradientUnits="userSpaceOnUse" x1="518.6348" y1="410.4443" x2="545.811" y2="410.4443">
					<stop  offset="0" style="stop-color:#FFFFFF"/>
					<stop  offset="1" style="stop-color:#E44145"/>
				</linearGradient>
				<polygon fill="url(#SVGID_9_)" points="510.445,404.402 539.443,402.465 544.91,418.424 531.472,417.996 				"/>
				<linearGradient id="SVGID_10_" gradientUnits="userSpaceOnUse" x1="528.2271" y1="421.7148" x2="546.7812" y2="421.7148">
					<stop  offset="0" style="stop-color:#FFFFFF"/>
					<stop  offset="1" style="stop-color:#E44145"/>
				</linearGradient>
				<polygon fill="url(#SVGID_10_)" points="522.636,424.307 543.225,425.992 546.166,419.939 529.786,417.438 				"/>
				<linearGradient id="SVGID_11_" gradientUnits="userSpaceOnUse" x1="526.917" y1="398.042" x2="562.0416" y2="398.042">
					<stop  offset="0" style="stop-color:#FFFFFF"/>
					<stop  offset="1" style="stop-color:#E44145"/>
				</linearGradient>
				<polygon fill="url(#SVGID_11_)" points="516.332,406.664 544.074,402.465 560.877,391.945 559.191,389.42 542.391,398.254 				
					"/>
				<linearGradient id="SVGID_12_" gradientUnits="userSpaceOnUse" x1="527.4136" y1="389.7119" x2="571.1472" y2="389.7119">
					<stop  offset="0" style="stop-color:#FFFFFF"/>
					<stop  offset="1" style="stop-color:#E44145"/>
				</linearGradient>
				<polygon fill="url(#SVGID_12_)" points="514.234,401.346 539.443,396.158 569.697,382.709 566.757,378.078 537.767,392.801 				
					"/>
				<linearGradient id="SVGID_13_" gradientUnits="userSpaceOnUse" x1="551.6113" y1="376.8164" x2="586.4033" y2="376.8164">
					<stop  offset="0" style="stop-color:#FFFFFF"/>
					<stop  offset="1" style="stop-color:#E44145"/>
				</linearGradient>
				<polygon fill="url(#SVGID_13_)" points="541.127,387.742 583.564,365.891 585.25,370.535 				"/>
				<linearGradient id="SVGID_14_" gradientUnits="userSpaceOnUse" x1="549.2476" y1="393.627" x2="580.3857" y2="393.627">
					<stop  offset="0" style="stop-color:#FFFFFF"/>
					<stop  offset="1" style="stop-color:#E44145"/>
				</linearGradient>
				<polygon fill="url(#SVGID_14_)" points="574.743,378.078 539.864,399.09 547.29,403.014 564.23,396.158 569.697,409.176 
					579.354,403.715 572.646,391.119 				"/>
				<linearGradient id="SVGID_15_" gradientUnits="userSpaceOnUse" x1="431.9199" y1="356.5" x2="445.2451" y2="330.4996">
					<stop  offset="0" style="stop-color:#FFFFFF"/>
					<stop  offset="1" style="stop-color:#E44145"/>
				</linearGradient>
				<polygon fill="url(#SVGID_15_)" points="413.395,350.766 448.26,333.133 444.904,373.047 				"/>
				<linearGradient id="SVGID_16_" gradientUnits="userSpaceOnUse" x1="441.394" y1="376.1035" x2="445.2049" y2="401.8235">
					<stop  offset="0" style="stop-color:#FFFFFF"/>
					<stop  offset="1" style="stop-color:#E44145"/>
				</linearGradient>
				<polygon fill="url(#SVGID_16_)" points="430.335,372.486 453.874,389.311 438.75,394.895 				"/>
				<linearGradient id="SVGID_17_" gradientUnits="userSpaceOnUse" x1="444.4478" y1="336.751" x2="488.4978" y2="250.7991">
					<stop  offset="0.1868" style="stop-color:#FFFFFF"/>
					<stop  offset="1" style="stop-color:#E44145"/>
				</linearGradient>
				<polygon fill="url(#SVGID_17_)" points="479.784,249.932 428.94,270.109 425.578,282.705 401.634,299.941 400.798,310.428 
					407.935,315.473 407.522,311.697 416.343,304.553 427.683,304.139 437.348,300.355 441.13,302.027 411.29,352.463 
					439.024,362.551 514.656,320.105 				"/>
				<g>
					<linearGradient id="SVGID_18_" gradientUnits="userSpaceOnUse" x1="460.4805" y1="385.7988" x2="488.5334" y2="331.061">
						<stop  offset="0" style="stop-color:#FFFFFF"/>
						<stop  offset="1" style="stop-color:#E44145"/>
					</linearGradient>
					<polygon fill="url(#SVGID_18_)" points="485.665,331.883 492.381,397.969 441.41,396.854 431.319,368.283 					"/>
					<linearGradient id="SVGID_19_" gradientUnits="userSpaceOnUse" x1="494.9956" y1="380.5264" x2="512.7182" y2="345.9455">
						<stop  offset="0" style="stop-color:#FFFFFF"/>
						<stop  offset="1" style="stop-color:#E44145"/>
					</linearGradient>
					<polygon fill="url(#SVGID_19_)" points="487.903,334.676 494.058,390.135 508.073,372.766 494.628,393.496 503.027,394.615 
						521.52,388.461 					"/>
					
						<linearGradient id="SVGID_20_" gradientUnits="userSpaceOnUse" x1="1012.0078" y1="398.1592" x2="1034.9823" y2="353.3306" gradientTransform="matrix(0.9906 0.1369 -0.1369 0.9906 -429.8704 -158.8938)">
						<stop  offset="0" style="stop-color:#FFFFFF"/>
						<stop  offset="1" style="stop-color:#E44145"/>
					</linearGradient>
					<polygon fill="url(#SVGID_20_)" points="491.14,331.334 523.434,396.322 580.823,365.777 578.644,356.994 500.397,329.797 
											"/>
					<linearGradient id="SVGID_21_" gradientUnits="userSpaceOnUse" x1="522.7256" y1="367.1445" x2="545.6938" y2="322.3282">
						<stop  offset="0" style="stop-color:#FFFFFF"/>
						<stop  offset="1" style="stop-color:#E44145"/>
					</linearGradient>
					<polygon fill="url(#SVGID_21_)" points="490.134,328.521 531.044,388.461 583.713,350.359 580.336,341.959 499.112,325.707 
											"/>
					<linearGradient id="SVGID_22_" gradientUnits="userSpaceOnUse" x1="544.6621" y1="330.1758" x2="567.0571" y2="286.4779">
						<stop  offset="0" style="stop-color:#FFFFFF"/>
						<stop  offset="1" style="stop-color:#E44145"/>
					</linearGradient>
					<polygon fill="url(#SVGID_22_)" points="500.221,324.027 586.505,341.396 594.906,312.82 584.267,297.127 524.312,281.465 
						522.074,285.926 574.189,299.941 522.636,290.42 561.297,306.666 522.636,293.787 565.781,313.936 515.92,295.445 					"/>
					<linearGradient id="SVGID_23_" gradientUnits="userSpaceOnUse" x1="576.6826" y1="291.1309" x2="597.8994" y2="249.7321">
						<stop  offset="0" style="stop-color:#FFFFFF"/>
						<stop  offset="1" style="stop-color:#E44145"/>
					</linearGradient>
					<polygon fill="url(#SVGID_23_)" points="524.882,280.336 607.51,301.191 633.566,283.129 629.075,270.25 640.704,278.08 
						629.075,267.443 567.458,242.24 					"/>
					<linearGradient id="SVGID_24_" gradientUnits="userSpaceOnUse" x1="630.8291" y1="261.582" x2="645.4734" y2="233.0077">
						<stop  offset="0" style="stop-color:#FFFFFF"/>
						<stop  offset="1" style="stop-color:#E44145"/>
					</linearGradient>
					<polygon fill="url(#SVGID_24_)" points="568.582,240.553 637.483,269.129 646.443,279.779 652.598,279.213 685.668,269.129 
						683.982,260.166 694.623,274.16 698.545,271.936 666.62,245.041 654.852,240.553 					"/>
					<linearGradient id="SVGID_25_" gradientUnits="userSpaceOnUse" x1="711.626" y1="265.0293" x2="726.9491" y2="235.1303">
						<stop  offset="0" style="stop-color:#FFFFFF"/>
						<stop  offset="1" style="stop-color:#E44145"/>
					</linearGradient>
					<polygon fill="url(#SVGID_25_)" points="668.283,244.465 697.43,269.129 754.568,256.25 768,260.166 762.414,254.557 
						677.26,241.674 					"/>
				</g>
				<linearGradient id="SVGID_26_" gradientUnits="userSpaceOnUse" x1="432.0981" y1="281.6484" x2="436.8665" y2="272.3443">
					<stop  offset="0" style="stop-color:#FFFFFF"/>
					<stop  offset="1" style="stop-color:#E44145"/>
				</linearGradient>
				<polygon fill="url(#SVGID_26_)" points="429.79,270.109 443.221,275.99 427.255,282.705 				"/>
				<linearGradient id="SVGID_27_" gradientUnits="userSpaceOnUse" x1="419.6201" y1="288.5947" x2="444.4731" y2="288.5947">
					<stop  offset="0" style="stop-color:#FFFFFF"/>
					<stop  offset="1" style="stop-color:#E44145"/>
				</linearGradient>
				<polygon fill="url(#SVGID_27_)" points="427.683,283.129 443.649,279.361 443.221,288.182 436.506,294.467 431.474,291.113 
					427.683,293.211 412.131,297.828 				"/>
				<linearGradient id="SVGID_28_" gradientUnits="userSpaceOnUse" x1="413.5854" y1="300.1387" x2="428.1662" y2="300.1387">
					<stop  offset="0" style="stop-color:#FFFFFF"/>
					<stop  offset="1" style="stop-color:#E44145"/>
				</linearGradient>
				<polygon fill="url(#SVGID_28_)" points="426.428,295.725 427.683,304.139 409.191,304.553 411.29,299.521 				"/>
				<linearGradient id="SVGID_29_" gradientUnits="userSpaceOnUse" x1="444.958" y1="262.3291" x2="488.3598" y2="262.3291">
					<stop  offset="0" style="stop-color:#FFFFFF"/>
					<stop  offset="1" style="stop-color:#E44145"/>
				</linearGradient>
				<polygon fill="url(#SVGID_29_)" points="444.904,274.727 459.192,265.477 486.921,269.266 479.784,249.932 431.879,268.83 				
					"/>
				<linearGradient id="SVGID_30_" gradientUnits="userSpaceOnUse" x1="436.3633" y1="332.502" x2="498.658" y2="332.502">
					<stop  offset="0" style="stop-color:#FFFFFF"/>
					<stop  offset="1" style="stop-color:#E44145"/>
				</linearGradient>
				<polygon fill="url(#SVGID_30_)" points="446.59,302.463 496.593,299.521 486.921,330.604 431.474,365.482 417.591,349.938 				
					"/>
				<linearGradient id="SVGID_31_" gradientUnits="userSpaceOnUse" x1="491.6904" y1="272.2031" x2="508.917" y2="272.2031">
					<stop  offset="0" style="stop-color:#FFFFFF"/>
					<stop  offset="1" style="stop-color:#E44145"/>
				</linearGradient>
				<polygon fill="url(#SVGID_31_)" points="486.499,253.293 508.346,291.113 493.23,253.707 				"/>
				<linearGradient id="SVGID_32_" gradientUnits="userSpaceOnUse" x1="468.8765" y1="229.9785" x2="501.0118" y2="229.9785">
					<stop  offset="0" style="stop-color:#FFFFFF"/>
					<stop  offset="1" style="stop-color:#E44145"/>
				</linearGradient>
				<polygon fill="url(#SVGID_32_)" points="459.192,224.723 463.391,242.797 494.907,243.211 499.946,225.566 491.967,230.598 
					479.784,216.746 467.18,230.191 				"/>
				<linearGradient id="SVGID_33_" gradientUnits="userSpaceOnUse" x1="483.0981" y1="230.8975" x2="492.699" y2="230.8975">
					<stop  offset="0" style="stop-color:#FFFFFF"/>
					<stop  offset="1" style="stop-color:#E44145"/>
				</linearGradient>
				<polygon fill="url(#SVGID_33_)" points="480.205,219.273 481.041,241.939 491.547,242.521 492.381,233.965 				"/>
				<linearGradient id="SVGID_34_" gradientUnits="userSpaceOnUse" x1="470.3828" y1="230.0449" x2="480.542" y2="230.0449">
					<stop  offset="0" style="stop-color:#FFFFFF"/>
					<stop  offset="1" style="stop-color:#E44145"/>
				</linearGradient>
				<polygon fill="url(#SVGID_34_)" points="467.321,230.885 468.162,242.088 480.205,241.674 479.651,218.002 				"/>
				<linearGradient id="SVGID_35_" gradientUnits="userSpaceOnUse" x1="461.7378" y1="233.5547" x2="469.2472" y2="233.5547">
					<stop  offset="0" style="stop-color:#FFFFFF"/>
					<stop  offset="1" style="stop-color:#E44145"/>
				</linearGradient>
				<polygon fill="url(#SVGID_35_)" points="459.475,225.436 463.952,241.674 468.998,241.539 467.321,230.885 				"/>
				<linearGradient id="SVGID_36_" gradientUnits="userSpaceOnUse" x1="457.0981" y1="220.3848" x2="461.2995" y2="220.3848">
					<stop  offset="0" style="stop-color:#FFFFFF"/>
					<stop  offset="1" style="stop-color:#E44145"/>
				</linearGradient>
				<path fill="url(#SVGID_36_)" d="M461.16,220.383c0,1.469-1.206,2.674-2.676,2.674c-1.455,0-2.652-1.205-2.652-2.674
					c0-1.473,1.197-2.67,2.652-2.67C459.954,217.713,461.16,218.91,461.16,220.383z"/>
				<linearGradient id="SVGID_37_" gradientUnits="userSpaceOnUse" x1="478.5244" y1="212.3936" x2="482.7311" y2="212.3936">
					<stop  offset="0" style="stop-color:#FFFFFF"/>
					<stop  offset="1" style="stop-color:#E44145"/>
				</linearGradient>
				<path fill="url(#SVGID_37_)" d="M482.592,212.4c0,1.471-1.204,2.66-2.675,2.66c-1.463,0-2.66-1.189-2.66-2.66
					c0-1.469,1.197-2.674,2.66-2.674C481.388,209.727,482.592,210.932,482.592,212.4z"/>
				<linearGradient id="SVGID_38_" gradientUnits="userSpaceOnUse" x1="499.5386" y1="222.4824" x2="503.7268" y2="222.4824">
					<stop  offset="0" style="stop-color:#FFFFFF"/>
					<stop  offset="1" style="stop-color:#E44145"/>
				</linearGradient>
				<path fill="url(#SVGID_38_)" d="M503.588,222.486c0,1.455-1.196,2.652-2.666,2.652c-1.463,0-2.646-1.197-2.646-2.652
					c0-1.463,1.183-2.66,2.646-2.66C502.392,219.826,503.588,221.023,503.588,222.486z"/>
			</g>
		</g>
		<rect id="Espaço_Morto" x="256" y="326.727" fill="none" width="146.889" height="97.328"/>
	</g>
	<g id="Slogan">
		<path fill="#FFFFFF" d="M354.426,566.123c0.967,0,1.742,0.102,2.324,0.301c0.577,0.197,1.023,0.453,1.331,0.768
			c0.311,0.316,0.512,0.674,0.606,1.08c0.094,0.404,0.141,0.814,0.141,1.236v6.367c0,0.41-0.047,0.811-0.141,1.217
			c-0.095,0.404-0.296,0.762-0.606,1.084c-0.308,0.312-0.754,0.566-1.331,0.77c-0.582,0.197-1.357,0.297-2.324,0.297h-4.403v-13.119
			H354.426z M357.266,569.473c0-0.217-0.023-0.471-0.07-0.766c-0.047-0.283-0.163-0.555-0.352-0.814
			c-0.186-0.254-0.471-0.475-0.851-0.658c-0.38-0.182-0.901-0.27-1.567-0.27h-2.844v11.438l2.844,0.014
			c0.666,0,1.188-0.088,1.567-0.271c0.38-0.178,0.665-0.396,0.851-0.656c0.188-0.258,0.305-0.531,0.352-0.82
			c0.047-0.295,0.07-0.543,0.07-0.758V569.473z"/>
		<path fill="#FFFFFF" d="M363.782,567.018c-0.37,0.035-0.716,0.125-1.045,0.277c-0.327,0.156-0.597,0.385-0.813,0.686
			c-0.217,0.303-0.314,0.727-0.293,1.27v2.92h4.877v0.566c-0.163,0.074-0.37,0.152-0.612,0.203
			c-0.249,0.045-0.584,0.078-1.018,0.078h-3.247v3.107c-0.021,0.535,0.076,0.953,0.293,1.258s0.486,0.527,0.813,0.684
			c0.329,0.148,0.675,0.244,1.045,0.283c0.368,0.035,0.69,0.053,0.974,0.053h3.629v0.574c-0.164,0.084-0.367,0.145-0.615,0.195
			c-0.245,0.053-0.584,0.07-1.018,0.07h-2.454c-0.245,0-0.519-0.012-0.823-0.031c-0.305-0.025-0.612-0.076-0.93-0.15
			c-0.316-0.078-0.624-0.184-0.929-0.328c-0.305-0.139-0.571-0.318-0.798-0.553c-0.229-0.227-0.414-0.506-0.556-0.832
			c-0.138-0.326-0.201-0.719-0.192-1.18v-6.975c-0.009-0.457,0.055-0.844,0.192-1.176c0.142-0.33,0.327-0.605,0.556-0.832
			c0.227-0.225,0.493-0.412,0.798-0.557c0.305-0.143,0.612-0.244,0.929-0.322c0.317-0.074,0.625-0.125,0.93-0.145
			c0.305-0.029,0.578-0.039,0.823-0.039h2.454c0.434,0,0.772,0.027,1.018,0.07c0.248,0.045,0.451,0.109,0.615,0.191v0.58h-3.629
			C364.473,566.965,364.15,566.986,363.782,567.018z"/>
		<path fill="#FFFFFF" d="M373.383,566.951c-0.235,0-0.48,0.021-0.738,0.078c-0.258,0.045-0.498,0.139-0.728,0.258
			c-0.227,0.125-0.424,0.295-0.597,0.504c-0.167,0.209-0.277,0.467-0.324,0.771c-0.056,0.361-0.05,0.668,0.02,0.916
			c0.069,0.252,0.183,0.465,0.332,0.631c0.151,0.174,0.328,0.312,0.528,0.408c0.198,0.098,0.389,0.172,0.577,0.219
			c0.374,0.117,0.796,0.23,1.262,0.35c0.472,0.117,0.927,0.242,1.386,0.373c0.305,0.078,0.652,0.191,1.046,0.336
			c0.389,0.145,0.757,0.361,1.095,0.641c0.339,0.283,0.616,0.648,0.836,1.105c0.217,0.457,0.298,1.023,0.251,1.703
			c-0.044,0.818-0.229,1.49-0.553,2.008c-0.32,0.518-0.7,0.928-1.14,1.225c-0.437,0.305-0.896,0.506-1.375,0.613
			c-0.48,0.117-0.895,0.166-1.246,0.166h-4.264v-0.471c0.166-0.105,0.37-0.191,0.615-0.262c0.244-0.074,0.583-0.107,1.018-0.107
			l2.313-0.014c0.505,0,0.944-0.084,1.324-0.248c0.38-0.162,0.7-0.385,0.968-0.658c0.26-0.275,0.461-0.596,0.596-0.953
			c0.132-0.363,0.198-0.75,0.198-1.16c0-0.379-0.075-0.709-0.235-0.982c-0.157-0.268-0.346-0.488-0.559-0.668
			c-0.217-0.174-0.447-0.312-0.686-0.412c-0.241-0.098-0.442-0.162-0.605-0.201c-0.166-0.035-0.313-0.07-0.449-0.102
			c-0.134-0.037-0.279-0.076-0.437-0.117c-0.156-0.039-0.336-0.09-0.526-0.143c-0.192-0.045-0.431-0.109-0.71-0.18
			c-0.271-0.07-0.604-0.17-0.998-0.305c-0.399-0.139-0.772-0.336-1.124-0.6c-0.352-0.262-0.646-0.605-0.887-1.02
			c-0.238-0.41-0.335-0.934-0.288-1.551c0.034-0.58,0.186-1.064,0.456-1.443c0.27-0.379,0.602-0.688,0.998-0.918
			c0.398-0.223,0.835-0.387,1.306-0.482c0.478-0.092,0.939-0.137,1.397-0.137h3.491v0.457c-0.166,0.115-0.371,0.211-0.616,0.271
			c-0.244,0.064-0.586,0.1-1.017,0.1H373.383z"/>
		<path fill="#FFFFFF" d="M383.038,567.018c-0.368,0.035-0.718,0.125-1.043,0.277c-0.33,0.156-0.601,0.385-0.816,0.686
			c-0.217,0.303-0.311,0.727-0.289,1.27v2.92h4.876v0.566c-0.166,0.074-0.368,0.152-0.615,0.203
			c-0.245,0.045-0.585,0.078-1.018,0.078h-3.243v3.107c-0.021,0.535,0.072,0.953,0.289,1.258c0.216,0.305,0.486,0.527,0.816,0.684
			c0.325,0.148,0.675,0.244,1.043,0.283c0.367,0.035,0.692,0.053,0.973,0.053h3.632v0.574c-0.165,0.084-0.371,0.145-0.615,0.195
			c-0.244,0.053-0.584,0.07-1.017,0.07h-2.456c-0.244,0-0.521-0.012-0.825-0.031c-0.305-0.025-0.612-0.076-0.93-0.15
			c-0.316-0.078-0.625-0.184-0.929-0.328c-0.305-0.139-0.571-0.318-0.797-0.553c-0.227-0.227-0.412-0.506-0.554-0.832
			c-0.137-0.326-0.203-0.719-0.191-1.18v-6.975c-0.012-0.457,0.055-0.844,0.191-1.176c0.142-0.33,0.327-0.605,0.554-0.832
			c0.226-0.225,0.492-0.412,0.797-0.557c0.304-0.143,0.612-0.244,0.929-0.322c0.317-0.074,0.625-0.125,0.93-0.145
			c0.305-0.029,0.581-0.039,0.825-0.039h2.456c0.433,0,0.772,0.027,1.017,0.07c0.244,0.045,0.45,0.109,0.615,0.191v0.58h-3.632
			C383.73,566.965,383.405,566.986,383.038,567.018z"/>
		<path fill="#FFFFFF" d="M397.338,566.123v13.119h-1.542l-5.365-10.082v10.082h-1.562v-13.119h1.476l5.452,10.244v-10.244H397.338z
			"/>
		<path fill="#FFFFFF" d="M407.105,566.102l-3.577,13.141h-1.663l-3.476-13.141h1.563l2.807,10.807l2.785-10.807H407.105z"/>
		<path fill="#FFFFFF" d="M412.475,565.91c0.969,0,1.744,0.102,2.326,0.301c0.574,0.199,1.02,0.461,1.331,0.775
			c0.311,0.309,0.512,0.674,0.605,1.072c0.091,0.404,0.142,0.812,0.142,1.223v6.805c0,0.408-0.051,0.812-0.142,1.223
			c-0.094,0.396-0.295,0.758-0.605,1.076c-0.312,0.312-0.757,0.57-1.331,0.768c-0.582,0.199-1.357,0.303-2.326,0.303
			c-0.975,0-1.743-0.104-2.324-0.303c-0.577-0.197-1.023-0.455-1.334-0.768c-0.311-0.318-0.509-0.68-0.603-1.076
			c-0.094-0.41-0.142-0.814-0.142-1.223v-6.805c0-0.41,0.048-0.818,0.142-1.223c0.094-0.398,0.292-0.764,0.603-1.072
			c0.311-0.314,0.757-0.576,1.334-0.775C410.731,566.012,411.5,565.91,412.475,565.91z M415.316,569.25
			c0-0.227-0.023-0.482-0.07-0.773c-0.047-0.279-0.167-0.553-0.352-0.811c-0.185-0.262-0.471-0.479-0.851-0.658
			c-0.38-0.182-0.905-0.27-1.569-0.27c-0.666,0-1.194,0.088-1.57,0.27c-0.379,0.18-0.663,0.396-0.852,0.658
			c-0.185,0.258-0.301,0.531-0.352,0.811c-0.047,0.291-0.068,0.547-0.068,0.773v6.875c0,0.217,0.021,0.473,0.068,0.758
			c0.051,0.287,0.167,0.561,0.352,0.812c0.188,0.262,0.473,0.48,0.852,0.662c0.376,0.18,0.904,0.275,1.57,0.275
			c0.664,0,1.189-0.096,1.569-0.275c0.38-0.182,0.666-0.4,0.851-0.662c0.185-0.252,0.305-0.525,0.352-0.812
			c0.047-0.285,0.07-0.541,0.07-0.758V569.25z"/>
		<path fill="#FFFFFF" d="M422.436,578.402c0.421,0.021,0.757,0.053,1.008,0.092c0.252,0.043,0.459,0.104,0.621,0.186v0.562h-1.629
			c-0.247,0-0.519-0.012-0.825-0.031c-0.305-0.025-0.613-0.076-0.93-0.15c-0.314-0.078-0.624-0.184-0.926-0.318
			c-0.308-0.135-0.575-0.314-0.802-0.545c-0.229-0.223-0.414-0.502-0.552-0.828c-0.138-0.334-0.204-0.723-0.191-1.18v-10.066h1.561
			v10.002c-0.014,0.473,0.065,0.861,0.235,1.154c0.169,0.287,0.386,0.518,0.65,0.674c0.26,0.158,0.552,0.27,0.866,0.328
			C421.84,578.35,422.143,578.389,422.436,578.402z"/>
		<path fill="#FFFFFF" d="M433.659,566.102l-3.575,13.141h-1.667l-3.472-13.141h1.56l2.807,10.807l2.788-10.807H433.659z"/>
		<path fill="#FFFFFF" d="M434.887,566.123h1.561v13.119h-1.561V566.123z"/>
		<path fill="#FFFFFF" d="M448.127,579.242h-1.56v-9.877l-2.877,6.332h-1.246l-2.873-6.332v9.877h-1.544v-13.119h1.544l3.507,8.002
			l3.489-8.002h1.56V579.242z"/>
		<path fill="#FFFFFF" d="M453.17,567.018c-0.368,0.035-0.717,0.125-1.042,0.277c-0.328,0.156-0.601,0.385-0.817,0.686
			c-0.217,0.303-0.311,0.727-0.289,1.27v2.92h4.875v0.566c-0.162,0.074-0.367,0.152-0.612,0.203
			c-0.247,0.045-0.583,0.078-1.017,0.078h-3.246v3.107c-0.021,0.535,0.072,0.953,0.289,1.258s0.489,0.527,0.817,0.684
			c0.325,0.148,0.674,0.244,1.042,0.283c0.369,0.035,0.692,0.053,0.973,0.053h3.632v0.574c-0.163,0.084-0.367,0.145-0.615,0.195
			c-0.244,0.053-0.583,0.07-1.017,0.07h-2.455c-0.244,0-0.521-0.012-0.826-0.031c-0.301-0.025-0.612-0.076-0.93-0.15
			c-0.314-0.078-0.624-0.184-0.926-0.328c-0.305-0.139-0.572-0.318-0.8-0.553c-0.227-0.227-0.412-0.506-0.55-0.832
			c-0.141-0.326-0.204-0.719-0.195-1.18v-6.975c-0.009-0.457,0.055-0.844,0.195-1.176c0.138-0.33,0.323-0.605,0.55-0.832
			c0.228-0.225,0.495-0.412,0.8-0.557c0.302-0.143,0.611-0.244,0.926-0.322c0.317-0.074,0.629-0.125,0.93-0.145
			c0.305-0.029,0.582-0.039,0.826-0.039h2.455c0.434,0,0.772,0.027,1.017,0.07c0.248,0.045,0.452,0.109,0.615,0.191v0.58h-3.632
			C453.862,566.965,453.539,566.986,453.17,567.018z"/>
		<path fill="#FFFFFF" d="M467.47,566.123v13.119h-1.541l-5.365-10.082v10.082H459v-13.119h1.476l5.453,10.244v-10.244H467.47z"/>
		<path fill="#FFFFFF" d="M468.261,566.102h8.7v0.85h-3.576v12.291h-1.544v-12.291h-3.58V566.102z"/>
		<path fill="#FFFFFF" d="M482.066,565.91c0.969,0,1.742,0.102,2.323,0.301c0.577,0.199,1.02,0.461,1.331,0.775
			c0.311,0.309,0.512,0.674,0.606,1.072c0.094,0.404,0.141,0.812,0.141,1.223v6.805c0,0.408-0.047,0.812-0.141,1.223
			c-0.095,0.396-0.296,0.758-0.606,1.076c-0.312,0.312-0.754,0.57-1.331,0.768c-0.581,0.199-1.354,0.303-2.323,0.303
			c-0.975,0-1.749-0.104-2.323-0.303c-0.582-0.197-1.023-0.455-1.335-0.768c-0.311-0.318-0.512-0.68-0.605-1.076
			c-0.095-0.41-0.139-0.814-0.139-1.223v-6.805c0-0.41,0.044-0.818,0.139-1.223c0.094-0.398,0.295-0.764,0.605-1.072
			c0.312-0.314,0.753-0.576,1.335-0.775C480.317,566.012,481.092,565.91,482.066,565.91z M484.906,569.25
			c0-0.227-0.024-0.482-0.071-0.773c-0.047-0.279-0.164-0.553-0.352-0.811c-0.186-0.262-0.472-0.479-0.851-0.658
			c-0.38-0.182-0.901-0.27-1.566-0.27c-0.67,0-1.193,0.088-1.573,0.27c-0.378,0.18-0.663,0.396-0.848,0.658
			c-0.188,0.258-0.305,0.531-0.353,0.811c-0.047,0.291-0.068,0.547-0.068,0.773v6.875c0,0.217,0.021,0.473,0.068,0.758
			c0.048,0.287,0.164,0.561,0.353,0.812c0.185,0.262,0.47,0.48,0.848,0.662c0.38,0.18,0.903,0.275,1.573,0.275
			c0.665,0,1.187-0.096,1.566-0.275c0.379-0.182,0.665-0.4,0.851-0.662c0.188-0.252,0.305-0.525,0.352-0.812
			c0.047-0.285,0.071-0.541,0.071-0.758V569.25z"/>
		<path fill="#FFFFFF" d="M495.908,567.018c-0.368,0.035-0.716,0.125-1.042,0.277c-0.33,0.156-0.601,0.385-0.816,0.686
			c-0.217,0.303-0.318,0.727-0.305,1.27v6.875c-0.014,0.535,0.088,0.953,0.305,1.258c0.216,0.305,0.486,0.527,0.816,0.684
			c0.326,0.148,0.674,0.244,1.042,0.283c0.369,0.035,0.693,0.053,0.974,0.053h3.175v0.574c-0.164,0.084-0.366,0.145-0.613,0.195
			c-0.245,0.053-0.587,0.07-1.018,0.07h-2.019c-0.232,0-0.502-0.012-0.803-0.031c-0.305-0.025-0.616-0.076-0.93-0.15
			c-0.318-0.078-0.628-0.184-0.93-0.328c-0.305-0.139-0.575-0.318-0.8-0.553c-0.227-0.227-0.412-0.506-0.554-0.832
			c-0.138-0.326-0.204-0.719-0.191-1.18v-6.975c-0.013-0.457,0.054-0.844,0.191-1.176c0.142-0.33,0.327-0.605,0.554-0.832
			c0.225-0.225,0.495-0.412,0.8-0.557c0.302-0.143,0.611-0.244,0.93-0.322c0.313-0.074,0.625-0.125,0.93-0.145
			c0.301-0.029,0.57-0.039,0.803-0.039h2.019c0.431,0,0.772,0.027,1.018,0.07c0.247,0.045,0.449,0.109,0.613,0.191v0.58h-3.175
			C496.602,566.965,496.277,566.986,495.908,567.018z"/>
		<path fill="#FFFFFF" d="M505.528,578.402c0.42,0.021,0.757,0.053,1.007,0.092c0.254,0.043,0.459,0.104,0.625,0.186v0.562h-1.632
			c-0.246,0-0.52-0.012-0.823-0.031c-0.305-0.025-0.611-0.076-0.929-0.15c-0.317-0.078-0.628-0.184-0.93-0.318
			c-0.305-0.135-0.571-0.314-0.802-0.545c-0.225-0.223-0.41-0.502-0.549-0.828c-0.142-0.334-0.207-0.723-0.194-1.18v-10.066h1.563
			v10.002c-0.013,0.473,0.062,0.861,0.232,1.154c0.173,0.287,0.389,0.518,0.65,0.674c0.266,0.158,0.552,0.27,0.869,0.328
			C504.934,578.35,505.235,578.389,505.528,578.402z"/>
		<path fill="#FFFFFF" d="M508.564,566.123h1.56v13.119h-1.56V566.123z"/>
		<path fill="#FFFFFF" d="M515.342,567.018c-0.37,0.035-0.715,0.125-1.043,0.277c-0.329,0.156-0.602,0.385-0.817,0.686
			c-0.215,0.303-0.312,0.727-0.29,1.27v2.92h4.875v0.566c-0.162,0.074-0.366,0.152-0.611,0.203
			c-0.244,0.045-0.587,0.078-1.021,0.078h-3.243v3.107c-0.021,0.535,0.075,0.953,0.29,1.258c0.216,0.305,0.488,0.527,0.817,0.684
			c0.328,0.148,0.673,0.244,1.043,0.283c0.367,0.035,0.69,0.053,0.974,0.053h3.63v0.574c-0.164,0.084-0.367,0.145-0.613,0.195
			c-0.244,0.053-0.586,0.07-1.017,0.07h-2.458c-0.243,0-0.519-0.012-0.822-0.031c-0.305-0.025-0.613-0.076-0.93-0.15
			c-0.318-0.078-0.628-0.184-0.929-0.328c-0.305-0.139-0.573-0.318-0.799-0.553c-0.229-0.227-0.414-0.506-0.553-0.832
			c-0.138-0.326-0.207-0.719-0.194-1.18v-6.975c-0.013-0.457,0.057-0.844,0.194-1.176c0.139-0.33,0.324-0.605,0.553-0.832
			c0.226-0.225,0.494-0.412,0.799-0.557c0.301-0.143,0.61-0.244,0.929-0.322c0.316-0.074,0.625-0.125,0.93-0.145
			c0.304-0.029,0.579-0.039,0.822-0.039h2.458c0.431,0,0.772,0.027,1.017,0.07c0.246,0.045,0.449,0.109,0.613,0.191v0.58h-3.63
			C516.032,566.965,515.709,566.986,515.342,567.018z"/>
		<path fill="#FFFFFF" d="M529.644,566.123v13.119h-1.545l-5.366-10.082v10.082h-1.561v-13.119h1.474l5.453,10.244v-10.244H529.644z
			"/>
		<path fill="#FFFFFF" d="M530.43,566.102h8.704v0.85h-3.579v12.291h-1.545v-12.291h-3.58V566.102z"/>
		<path fill="#FFFFFF" d="M546.428,574.734h-6.51v-1.416h6.51V574.734z"/>
		<path fill="#FFFFFF" d="M551.602,566.951c-0.233,0-0.48,0.021-0.738,0.078c-0.258,0.045-0.496,0.139-0.729,0.258
			c-0.225,0.125-0.423,0.295-0.593,0.504c-0.173,0.209-0.279,0.467-0.326,0.771c-0.057,0.361-0.05,0.668,0.02,0.916
			c0.068,0.252,0.181,0.465,0.336,0.631c0.147,0.174,0.323,0.312,0.524,0.408c0.197,0.098,0.392,0.172,0.577,0.219
			c0.374,0.117,0.794,0.23,1.262,0.35c0.469,0.117,0.93,0.242,1.388,0.373c0.302,0.078,0.65,0.191,1.043,0.336
			c0.39,0.145,0.756,0.361,1.096,0.641c0.339,0.283,0.618,0.648,0.835,1.105c0.214,0.457,0.298,1.023,0.251,1.703
			c-0.044,0.818-0.229,1.49-0.552,2.008c-0.321,0.518-0.701,0.928-1.141,1.225c-0.437,0.305-0.895,0.506-1.375,0.613
			c-0.479,0.117-0.894,0.166-1.246,0.166h-4.261v-0.471c0.163-0.105,0.367-0.191,0.612-0.262c0.244-0.074,0.587-0.107,1.018-0.107
			l2.312-0.014c0.507,0,0.945-0.084,1.326-0.248c0.383-0.162,0.699-0.385,0.967-0.658c0.264-0.275,0.461-0.596,0.596-0.953
			c0.133-0.363,0.201-0.75,0.201-1.16c0-0.379-0.079-0.709-0.235-0.982c-0.16-0.268-0.345-0.488-0.562-0.668
			c-0.22-0.174-0.446-0.312-0.684-0.412c-0.243-0.098-0.443-0.162-0.607-0.201c-0.166-0.035-0.311-0.07-0.445-0.102
			c-0.135-0.037-0.283-0.076-0.439-0.117c-0.156-0.039-0.333-0.09-0.527-0.143c-0.191-0.045-0.431-0.109-0.71-0.18
			c-0.27-0.07-0.603-0.17-1.001-0.305c-0.396-0.139-0.769-0.336-1.121-0.6c-0.352-0.262-0.647-0.605-0.886-1.02
			c-0.237-0.41-0.335-0.934-0.288-1.551c0.038-0.58,0.188-1.064,0.455-1.443c0.27-0.379,0.603-0.688,0.997-0.918
			c0.399-0.223,0.84-0.387,1.311-0.482c0.474-0.092,0.938-0.137,1.395-0.137h3.487v0.457c-0.163,0.115-0.367,0.211-0.612,0.271
			c-0.245,0.064-0.584,0.1-1.017,0.1H551.602z"/>
		<path fill="#FFFFFF" d="M557.79,566.123h1.56v13.119h-1.56V566.123z"/>
		<path fill="#FFFFFF" d="M565.33,566.123c0.971,0,1.746,0.102,2.327,0.301c0.58,0.197,1.023,0.453,1.334,0.768
			c0.308,0.316,0.512,0.674,0.604,1.08c0.094,0.404,0.141,0.814,0.141,1.236v6.367c0,0.41-0.047,0.811-0.141,1.217
			c-0.092,0.404-0.296,0.762-0.604,1.084c-0.311,0.312-0.754,0.566-1.334,0.77c-0.581,0.197-1.356,0.297-2.327,0.297h-4.401v-13.119
			H565.33z M568.171,569.473c0-0.217-0.021-0.471-0.064-0.766c-0.05-0.283-0.167-0.555-0.353-0.814
			c-0.188-0.254-0.471-0.475-0.851-0.658c-0.383-0.182-0.904-0.27-1.573-0.27h-2.838v11.438l2.838,0.014
			c0.669,0,1.19-0.088,1.573-0.271c0.38-0.178,0.662-0.396,0.851-0.656c0.186-0.258,0.303-0.531,0.353-0.82
			c0.044-0.295,0.064-0.543,0.064-0.758V569.473z"/>
		<path fill="#FFFFFF" d="M574.69,567.018c-0.367,0.035-0.717,0.125-1.047,0.277c-0.326,0.156-0.597,0.385-0.812,0.686
			c-0.217,0.303-0.311,0.727-0.288,1.27v2.92h4.875v0.566c-0.166,0.074-0.371,0.152-0.615,0.203
			c-0.245,0.045-0.584,0.078-1.018,0.078h-3.242v3.107c-0.022,0.535,0.071,0.953,0.288,1.258c0.216,0.305,0.486,0.527,0.812,0.684
			c0.33,0.148,0.68,0.244,1.047,0.283c0.367,0.035,0.693,0.053,0.973,0.053h3.629v0.574c-0.163,0.084-0.367,0.145-0.614,0.195
			c-0.243,0.053-0.582,0.07-1.015,0.07h-2.459c-0.241,0-0.518-0.012-0.822-0.031c-0.304-0.025-0.612-0.076-0.929-0.15
			c-0.314-0.078-0.625-0.184-0.93-0.328c-0.305-0.139-0.571-0.318-0.797-0.553c-0.227-0.227-0.415-0.506-0.554-0.832
			c-0.138-0.326-0.203-0.719-0.194-1.18v-6.975c-0.009-0.457,0.057-0.844,0.194-1.176c0.139-0.33,0.327-0.605,0.554-0.832
			c0.226-0.225,0.492-0.412,0.797-0.557c0.305-0.143,0.615-0.244,0.93-0.322c0.316-0.074,0.625-0.125,0.929-0.145
			c0.305-0.029,0.581-0.039,0.822-0.039h2.459c0.433,0,0.771,0.027,1.015,0.07c0.247,0.045,0.451,0.109,0.614,0.191v0.58h-3.629
			C575.384,566.965,575.058,566.986,574.69,567.018z"/>
		<path fill="#FFFFFF" d="M585.188,566.123h1.559v13.119h-1.559V566.123z"/>
		<path fill="#FFFFFF" d="M596.796,566.123v13.119h-1.546l-5.365-10.082v10.082h-1.561v-13.119h1.473l5.453,10.244v-10.244H596.796z
			"/>
		<path fill="#FFFFFF" d="M597.583,566.102h8.699v0.85h-3.578v12.291h-1.542v-12.291h-3.579V566.102z"/>
		<path fill="#FFFFFF" d="M610.71,567.018c-0.367,0.035-0.716,0.125-1.042,0.277c-0.33,0.156-0.601,0.385-0.816,0.686
			c-0.216,0.303-0.312,0.727-0.289,1.27v2.92h4.876v0.566c-0.163,0.074-0.37,0.152-0.612,0.203c-0.249,0.045-0.587,0.078-1.02,0.078
			h-3.244v3.107c-0.022,0.535,0.073,0.953,0.289,1.258s0.486,0.527,0.816,0.684c0.326,0.148,0.675,0.244,1.042,0.283
			c0.367,0.035,0.693,0.053,0.974,0.053h3.629v0.574c-0.16,0.084-0.367,0.145-0.612,0.195c-0.245,0.053-0.584,0.07-1.017,0.07
			h-2.455c-0.245,0-0.521-0.012-0.823-0.031c-0.305-0.025-0.615-0.076-0.929-0.15c-0.317-0.078-0.625-0.184-0.93-0.328
			c-0.305-0.139-0.574-0.318-0.801-0.553c-0.229-0.227-0.411-0.506-0.552-0.832c-0.14-0.326-0.206-0.719-0.192-1.18v-6.975
			c-0.014-0.457,0.053-0.844,0.192-1.176c0.141-0.33,0.322-0.605,0.552-0.832c0.227-0.225,0.496-0.412,0.801-0.557
			c0.305-0.143,0.612-0.244,0.93-0.322c0.313-0.074,0.624-0.125,0.929-0.145c0.302-0.029,0.578-0.039,0.823-0.039h2.455
			c0.433,0,0.771,0.027,1.017,0.07c0.245,0.045,0.452,0.109,0.612,0.191v0.58h-3.629
			C611.403,566.965,611.077,566.986,610.71,567.018z"/>
		<path fill="#FFFFFF" d="M620.788,578.402c0.421,0.021,0.757,0.053,1.008,0.092c0.251,0.043,0.458,0.104,0.621,0.186v0.562h-1.629
			c-0.245,0-0.521-0.012-0.823-0.031c-0.307-0.025-0.614-0.076-0.932-0.15c-0.314-0.078-0.625-0.184-0.93-0.318
			s-0.567-0.314-0.798-0.545c-0.229-0.223-0.411-0.502-0.552-0.828c-0.139-0.334-0.205-0.723-0.194-1.18v-10.066h1.563v10.002
			c-0.014,0.473,0.065,0.861,0.235,1.154c0.169,0.287,0.385,0.518,0.649,0.674c0.262,0.158,0.553,0.27,0.87,0.328
			C620.191,578.35,620.496,578.389,620.788,578.402z"/>
		<path fill="#FFFFFF" d="M623.821,566.123h1.56v13.119h-1.56V566.123z"/>
		<path fill="#FFFFFF" d="M636.204,578.545v0.432c-0.164,0.084-0.368,0.145-0.612,0.195c-0.249,0.053-0.588,0.07-1.019,0.07h-3.456
			c-0.361,0-0.789-0.029-1.278-0.1c-0.492-0.061-0.957-0.197-1.396-0.41c-0.439-0.209-0.808-0.518-1.112-0.918
			c-0.305-0.406-0.451-0.951-0.439-1.646v-6.975c-0.012-0.678,0.135-1.223,0.439-1.629c0.305-0.416,0.673-0.723,1.112-0.936
			c0.439-0.205,0.904-0.348,1.396-0.408c0.489-0.062,0.917-0.098,1.278-0.098h2.791c0.431,0,0.77,0.027,1.014,0.07
			c0.245,0.045,0.452,0.109,0.615,0.191v0.58h-3.965c-0.279,0-0.603,0.021-0.964,0.053c-0.361,0.035-0.706,0.125-1.033,0.277
			c-0.329,0.156-0.6,0.385-0.816,0.686c-0.216,0.303-0.32,0.727-0.308,1.27v6.875c-0.013,0.535,0.092,0.953,0.308,1.258
			c0.217,0.305,0.487,0.527,0.816,0.684c0.327,0.148,0.672,0.244,1.033,0.283c0.361,0.035,0.685,0.053,0.964,0.053h3.121v-4.512
			c0-0.205-0.066-0.402-0.201-0.584c-0.131-0.18-0.317-0.279-0.549-0.289h-2.723v-0.49c0.167-0.088,0.37-0.17,0.615-0.24
			c0.245-0.074,0.584-0.117,1.018-0.117h0.911c0.737,0.016,1.327,0.242,1.772,0.68c0.443,0.436,0.667,1.031,0.667,1.779V578.545z"/>
		<path fill="#FFFFFF" d="M641.157,567.018c-0.367,0.035-0.716,0.125-1.046,0.277c-0.325,0.156-0.6,0.385-0.812,0.686
			c-0.217,0.303-0.314,0.727-0.292,1.27v2.92h4.879v0.566c-0.163,0.074-0.37,0.152-0.615,0.203
			c-0.245,0.045-0.584,0.078-1.018,0.078h-3.246v3.107c-0.022,0.535,0.075,0.953,0.292,1.258c0.213,0.305,0.487,0.527,0.812,0.684
			c0.33,0.148,0.679,0.244,1.046,0.283c0.367,0.035,0.691,0.053,0.973,0.053h3.631v0.574c-0.164,0.084-0.368,0.145-0.616,0.195
			c-0.242,0.053-0.584,0.07-1.017,0.07h-2.456c-0.245,0-0.518-0.012-0.822-0.031c-0.305-0.025-0.611-0.076-0.93-0.15
			c-0.316-0.078-0.625-0.184-0.929-0.328c-0.302-0.139-0.571-0.318-0.798-0.553c-0.229-0.227-0.411-0.506-0.555-0.832
			c-0.139-0.326-0.202-0.719-0.191-1.18v-6.975c-0.011-0.457,0.053-0.844,0.191-1.176c0.144-0.33,0.326-0.605,0.555-0.832
			c0.227-0.225,0.496-0.412,0.798-0.557c0.304-0.143,0.612-0.244,0.929-0.322c0.318-0.074,0.625-0.125,0.93-0.145
			c0.305-0.029,0.577-0.039,0.822-0.039h2.456c0.433,0,0.774,0.027,1.017,0.07c0.248,0.045,0.452,0.109,0.616,0.191v0.58h-3.631
			C641.849,566.965,641.524,566.986,641.157,567.018z"/>
		<path fill="#FFFFFF" d="M655.458,566.123v13.119h-1.544l-5.366-10.082v10.082h-1.561v-13.119h1.472l5.455,10.244v-10.244H655.458z
			"/>
		<path fill="#FFFFFF" d="M656.249,566.102h8.696v0.85h-3.575v12.291h-1.545v-12.291h-3.576V566.102z"/>
		<path fill="#FFFFFF" d="M669.373,567.018c-0.364,0.035-0.713,0.125-1.039,0.277c-0.331,0.156-0.6,0.385-0.816,0.686
			c-0.217,0.303-0.311,0.727-0.293,1.27v2.92h4.879v0.566c-0.165,0.074-0.369,0.152-0.614,0.203
			c-0.245,0.045-0.585,0.078-1.018,0.078h-3.247v3.107c-0.018,0.535,0.076,0.953,0.293,1.258s0.485,0.527,0.816,0.684
			c0.326,0.148,0.675,0.244,1.039,0.283c0.371,0.035,0.693,0.053,0.977,0.053h3.628v0.574c-0.159,0.084-0.366,0.145-0.61,0.195
			c-0.245,0.053-0.588,0.07-1.019,0.07h-2.454c-0.248,0-0.525-0.012-0.826-0.031c-0.301-0.025-0.612-0.076-0.93-0.15
			c-0.316-0.078-0.624-0.184-0.929-0.328c-0.305-0.139-0.571-0.318-0.801-0.553c-0.226-0.227-0.408-0.506-0.55-0.832
			c-0.141-0.326-0.204-0.719-0.195-1.18v-6.975c-0.009-0.457,0.055-0.844,0.195-1.176c0.142-0.33,0.324-0.605,0.55-0.832
			c0.229-0.225,0.496-0.412,0.801-0.557c0.305-0.143,0.612-0.244,0.929-0.322c0.317-0.074,0.629-0.125,0.93-0.145
			c0.301-0.029,0.578-0.039,0.826-0.039h2.454c0.431,0,0.773,0.027,1.019,0.07c0.244,0.045,0.451,0.109,0.61,0.191v0.58h-3.628
			C670.066,566.965,669.744,566.986,669.373,567.018z"/>
	</g>
</g>
</svg>
