<svg style="background-color:#ffffff00" xmlns="http://www.w3.org/2000/svg" width="320" height="170"><defs><filter id="a" x="-100%" y="-100%" width="300%" height="300%" filterRes="320"><feOffset result="out" in="SourceGraphic" dx="5.657" dy="5.657"/><feColorMatrix result="out" in="out" values="0 0 0 0 0 0 0 0 0 0 0 0 0 0 0 0 0 0 0.2902 0"/><feGaussianBlur result="out" in="out" stdDeviation="4"/><feBlend in="SourceGraphic" in2="out" result="Drop_Shadow1"/></filter></defs><path d="M212.55.5h1.493l-.048 29.951-1.495-.003L212.55.5zm7.645.011l1.363.004 22.447 27.5.046-27.466 1.449.003-.05 29.948-1.185-.004L221.64 2.783l-.044 27.68h-1.448L220.195.51zM50.6 168.117l10.67-10.03c4.016-3.736 4.96-5.861 4.97-8.027.005-3.131-2.706-5.592-6.285-5.602-3.515-.01-5.925 1.967-7.699 4.93l-.983-.624c1.896-3.203 4.529-5.384 8.76-5.384 4.399.005 7.465 2.923 7.454 6.578v.056c0 2.705-1.16 4.835-5.429 8.866l-9.468 8.927 15.203.03-.008 1.144-17.185-.025v-.839zm70.493-11.697v-.071c.01-6.894 3.92-13.01 10.42-12.994 6.545.005 10.394 6.07 10.379 13.024v.076c-.008 6.883-3.906 12.994-10.425 12.984-6.532-.01-10.377-6.065-10.375-13.02zm19.538.066v-.077c.017-6.207-3.4-11.931-9.15-11.936-5.751-.005-9.1 5.602-9.113 11.84v.066c-.007 6.202 3.407 11.936 9.15 11.947 5.73.005 9.108-5.643 9.113-11.84zm58.299-11.52l-4.757 1.906-.404-.97 5.424-2.268h.94l-.045 25.414h-1.183l.026-24.082zM255.064 165l.939-.802c1.894 2.526 4.72 4.183 8.226 4.189 3.757.015 6.92-2.44 6.935-5.928v-.071c0-4.118-3.63-5.948-8.8-5.958h-1.053l-.36-.732 9.418-10.691-13.937-.015.005-1.16 15.594.026v.87l-9.303 10.573c5.672.122 9.679 2.344 9.666 7.051v.066c-.008 4.19-3.803 7.097-8.219 7.082-4.009-.005-7.13-1.881-9.11-4.5z" fill="#fff"/><path filter="url(#a)" d="M209.538 46.068l28.14.046 35.653 85.436-30.82-.04-4.468-11.398-29.734-.04-4.376 11.377-30.334-.051 35.939-85.33zm21.497 53.933l-7.73-20.6-7.788 20.575 15.518.025z" fill="#fff"/><path filter="url(#a)" d="M119.5 91.68v-.24c.041-18.304 15.494-33.967 37.181-33.94 21.556.038 36.856 15.516 36.819 33.82v.24c-.018 18.315-15.481 33.967-37.166 33.94-21.579-.027-36.85-15.505-36.834-33.82zm47.724.087v-.256c.01-6.418-4.804-11.543-10.814-11.553-6.158-.006-10.62 5.102-10.63 11.285v.24c-.01 6.419 4.796 11.532 10.825 11.549 6.131.01 10.608-5.092 10.619-11.264z" fill="#fff"/><path filter="url(#a)" d="M52.271 47.207l38.212.06c22.574.031 37.963 10.097 37.935 30.223v.234c-.034 20.467-15.7 31.336-38.637 31.3L80.57 109l-.043 23.019L52.25 132l.021-84.793zm35.974 41.59c7.271.015 12.137-3.244 12.137-9.298v-.245c.01-6.181-4.476-9.333-11.988-9.343l-7.773-.016-.015 18.891 7.639.01z" fill="#fff"/><path d="M60.5 6.5v6h14.36v6H60.5v12h-7V.5h23.297v6H60.5zm40 24l-6.094-10H89.5v10h-7V.5h13.703c3.563 0 6.328.875 8.313 2.625 1.984 1.75 2.984 4.172 2.984 7.281v.078c0 2.438-.656 4.407-1.938 5.938-1.296 1.531-2.984 2.656-5.062 3.36l7.344 10.718H100.5zm0-20.016c0-1.328-.438-2.328-1.281-2.984-.86-.656-2.047-1-3.578-1H89.5v8h6.266c1.515 0 2.687-.36 3.5-1.078.812-.719 1.234-1.672 1.234-2.86v-.078zm42.75 10.844a14.985 14.985 0 0 1-3.438 4.766c-1.468 1.375-3.203 2.453-5.234 3.234-2.031.781-4.234 1.172-6.625 1.172-2.406 0-4.61-.39-6.61-1.172-2.015-.781-3.75-1.844-5.218-3.187a14.211 14.211 0 0 1-3.406-4.735c-.813-1.812-1.219-3.75-1.219-5.828V15.5c0-2.063.406-4 1.234-5.813a14.985 14.985 0 0 1 3.438-4.765c1.469-1.375 3.203-2.453 5.234-3.234C123.437.905 125.641.5 128.046.5c2.392 0 4.595.406 6.61 1.188 2 .78 3.735 1.843 5.203 3.187a14.196 14.196 0 0 1 3.422 4.719c.813 1.812 1.219 3.765 1.219 5.828v.078c0 2.078-.422 4.016-1.25 5.828zM137.5 15.5a8.714 8.714 0 0 0-.703-3.469 8.48 8.48 0 0 0-1.984-2.86 10.006 10.006 0 0 0-3.032-1.952 10.24 10.24 0 0 0-3.828-.719c-1.406 0-2.687.234-3.844.703-1.156.469-2.156 1.11-2.984 1.922a8.923 8.923 0 0 0-1.938 2.844c-.468 1.078-.687 2.234-.687 3.453v.078c0 1.234.219 2.39.688 3.484a8.481 8.481 0 0 0 1.984 2.86 9.608 9.608 0 0 0 3.016 1.937c1.156.485 2.437.719 3.859.719 1.375 0 2.64-.219 3.812-.688 1.172-.468 2.172-1.109 3-1.921a8.924 8.924 0 0 0 1.938-2.844 8.605 8.605 0 0 0 .703-3.469V15.5zm33.703 15L157.5 11.422V30.5h-7V.5h5.734L169.5 18.969V.5h7v30h-5.297zm26.297-24v24h-7v-24h-9.156v-6h25.312v6H197.5z" fill="#5ba2b8"/><path filter="url(#a)" d="M7.5 89.783l.21.217-.21.217L31.28 114.5l7.22-7.372L21.725 90 38.5 72.872 31.28 65.5 7.5 89.783zm299 0L282.72 65.5l-7.22 7.372L292.275 90 275.5 107.128l7.22 7.372 23.78-24.283-.21-.217.21-.217z" fill="#fff"/></svg>