<svg width="291" height="159" xmlns="http://www.w3.org/2000/svg"><path d="M40.75 3v1.176H21.375v16.099H38.25v1.175H21.375v16.7H20V3h20.75zm6.625 17.551h6.7c1.65 0 3.137-.196 4.462-.588 1.325-.391 2.45-.958 3.375-1.7a7.465 7.465 0 0 0 2.125-2.688c.492-1.049.738-2.233.738-3.549 0-2.717-.884-4.717-2.65-6-1.767-1.284-4.317-1.925-7.65-1.925h-7.1v16.45zm0 1.05v16.55H46V3h8.475c3.816 0 6.716.742 8.7 2.226 1.983 1.483 2.975 3.733 2.975 6.75 0 1.384-.259 2.641-.775 3.774a8.693 8.693 0 0 1-2.175 2.938c-.934.825-2.067 1.479-3.4 1.963-1.334.483-2.809.775-4.425.875.3.167.591.417.875.75l13.075 15.875H68.2c-.184 0-.346-.026-.488-.076-.142-.049-.279-.166-.412-.349L54.9 22.551a2.4 2.4 0 0 0-.413-.45 1.962 1.962 0 0 0-.475-.288 2.42 2.42 0 0 0-.625-.162 6.518 6.518 0 0 0-.887-.05h-5.125zm56.075-1.626c0-2.616-.362-4.962-1.087-7.037s-1.75-3.838-3.075-5.288a13.257 13.257 0 0 0-4.75-3.324c-1.842-.767-3.88-1.151-6.113-1.151-2.2 0-4.221.384-6.062 1.151a13.249 13.249 0 0 0-4.75 3.324c-1.325 1.45-2.359 3.213-3.1 5.288-.742 2.075-1.113 4.421-1.113 7.037 0 2.617.371 4.963 1.113 7.038.741 2.074 1.775 3.829 3.1 5.262a13.404 13.404 0 0 0 4.75 3.301c1.841.766 3.862 1.149 6.062 1.149 2.233 0 4.271-.383 6.113-1.149a13.413 13.413 0 0 0 4.75-3.301c1.325-1.433 2.35-3.188 3.075-5.262.725-2.075 1.087-4.421 1.087-7.038m1.45 0c0 2.75-.4 5.229-1.2 7.437-.8 2.209-1.925 4.092-3.375 5.651a14.66 14.66 0 0 1-5.2 3.587c-2.017.834-4.25 1.25-6.7 1.25-2.416 0-4.633-.416-6.65-1.25a14.66 14.66 0 0 1-5.2-3.587c-1.45-1.559-2.575-3.442-3.375-5.651-.8-2.208-1.2-4.687-1.2-7.437 0-2.733.4-5.208 1.2-7.425.8-2.217 1.925-4.103 3.375-5.662 1.45-1.559 3.184-2.763 5.2-3.613C83.792 2.425 86.009 2 88.425 2c2.45 0 4.683.421 6.7 1.263 2.016.842 3.75 2.041 5.2 3.6 1.45 1.558 2.575 3.446 3.375 5.662.8 2.217 1.2 4.7 1.2 7.45m8.05-16.913c.083.042.175.13.275.263l24 32.475c-.017-.15-.025-.3-.025-.45V3h1.2v35.15h-.575c-.217 0-.4-.1-.55-.3L113.15 5.25a8.01 8.01 0 0 1 .05.9v32H112V3h.625c.133 0 .242.021.325.062M169.2 3v1.2h-12.875v33.95h-1.375V4.2H142V3h27.2zm6.175 35.15H174V3h1.375v35.15zm9.575-35.088c.083.042.175.13.274.263l24 32.475a4.24 4.24 0 0 1-.024-.45V3h1.199v35.15h-.574c-.217 0-.4-.1-.551-.3l-24.125-32.6a9.83 9.83 0 0 1 .051.9v32H184V3h.625c.133 0 .241.021.325.062M243 2h-2l7.032 18.042-6.824 17.508h2l6.824-17.508L243 2zM9.876 3h-2L1 20.643 7.823 38.15h2L3 20.643 9.876 3zM222 37.55L235.856 2h-2L220 37.55h2zm2.903 70.742l6.398-18.97 6.367 18.97h-12.765zm-79.81 15.182c-12.645 0-22.895-10.251-22.895-22.896 0-12.645 10.25-22.896 22.895-22.896s22.896 10.251 22.896 22.896c0 12.645-10.251 22.896-22.896 22.896zM60.875 96.219v.019H55v-21h5.875v.019C66.499 75.456 71 80.066 71 85.738S66.499 96.02 60.875 96.219zm185.42-47.927h-30.03l-15.17 38.92C195.066 61.861 172.29 43 145.093 43c-18.661 0-35.24 8.885-45.761 22.647-1.715-3.146-3.963-5.98-6.722-8.45-3.527-3.157-8.096-5.069-13.967-7.01-5.196-1.715-11.328-1.949-19.299-1.949H21v107h34v-32h4.344c6.903 0 13.329-1.531 19.098-3.436 4-1.322 7.587-3.255 10.722-5.542 6.143 25.193 28.846 43.897 55.929 43.897 11.902 0 20.673-2.865 35.139-10.799l-3.703 7.934h32.288l7.488-22h29.945l8.067 22H288l-41.705-107z" fill="#FFF" fill-rule="evenodd"/></svg>