<?xml version="1.0" standalone="no"?><!-- Generator: Adobe Fireworks CS5, Export SVG Extension by Aaron Beall (http://fireworks.abeall.com) . Version: 0.6.1  --><!DOCTYPE svg PUBLIC "-//W3C//DTD SVG 1.1//EN" "http://www.w3.org/Graphics/SVG/1.1/DTD/svg11.dtd"><svg id="Untitled-Page%201" viewBox="0 0 110 110" style="background-color:#ffffff00" version="1.1"	xmlns="http://www.w3.org/2000/svg" xmlns:xlink="http://www.w3.org/1999/xlink" xml:space="preserve"	x="0px" y="0px" width="110px" height="110px">	<g id="Layer%201">		<g>			<path d="M 69.8476 64.4572 C 71.1051 62.1082 72.0818 59.2958 72.3079 56.0514 C 73.8302 56.3248 77.7545 57.3849 75.2691 60.8214 C 73.6003 63.1287 71.4496 64.074 69.8476 64.4572 ZM 59.0882 50.5012 L 54.784 50.5012 L 40.7139 50.5012 C 38.5315 50.5012 37.4404 52.4141 37.4404 52.4141 C 36.0764 65.531 47.2611 72.9098 47.2611 72.9098 L 54.784 72.9098 L 59.0882 72.9098 L 62.4222 72.9098 C 62.4222 72.9098 65.114 71.1341 67.6952 67.7773 C 70.3952 67.3001 74.5404 65.8365 77.6664 61.4323 C 82.056 55.2474 74.3779 53.6181 72.3158 53.2994 C 72.2975 53.0072 72.274 52.7124 72.243 52.4141 C 72.243 52.4141 71.1518 50.5012 68.9695 50.5012 L 59.0882 50.5012 Z" fill="#ffffff"/>			<path d="M 59.7919 74.4085 L 50.4583 74.4085 L 37.0609 74.4085 C 36.5196 76.5038 39.7669 78 39.7669 78 L 50.4583 78 L 59.7919 78 L 70.4832 78 C 70.4832 78 73.7306 76.5038 73.1893 74.4085 L 59.7919 74.4085 Z" fill="#ffffff"/>			<g>				<path d="M 52.453 30.279 C 52.453 30.279 48.472 34.1048 48.7374 36.838 C 49.0028 39.5701 55.3725 41.2101 53.5147 43.3959 C 51.6568 45.5822 49.799 48.8617 49.799 48.8617 C 49.799 48.8617 55.1071 46.4025 56.6995 43.3959 C 58.2919 40.3903 55.1071 39.2972 52.9839 36.838 C 50.8607 34.3782 51.3914 33.8319 52.453 30.279 Z" fill="#ffffff"/>				<path d="M 59.8761 27 C 59.8761 27 55.3506 31.3879 55.6524 34.523 C 55.954 37.6572 63.1948 39.5386 61.0828 42.0461 C 58.971 44.5536 56.8591 48.3149 56.8591 48.3149 C 56.8591 48.3149 62.8931 45.4938 64.7032 42.0461 C 66.5134 38.5979 62.8931 37.3441 60.4795 34.523 C 58.066 31.702 58.6693 31.0748 59.8761 27 Z" fill="#ffffff"/>			</g>		</g>	</g></svg>