<svg xmlns="http://www.w3.org/2000/svg" xmlns:xlink="http://www.w3.org/1999/xlink" preserveAspectRatio="xMidYMid" width="107" height="63" viewBox="0 0 107 63">
  <defs>
    <style>
      .cls-1 {
        fill: #fff;
        fill-rule: evenodd;
      }
    </style>
  </defs>
  <path d="M63.688,43.906 L44.000,43.906 C42.343,43.906 41.000,42.563 41.000,40.906 L41.000,21.094 C41.000,19.437 42.343,18.094 44.000,18.094 L63.688,18.094 C65.344,18.094 66.688,19.437 66.688,21.094 L66.688,40.906 C66.688,42.563 65.344,43.906 63.688,43.906 ZM59.288,26.462 C59.623,26.462 61.124,26.462 61.124,26.462 L61.124,22.769 L58.241,22.770 C55.091,22.770 54.375,25.286 54.375,26.897 L54.391,28.923 L52.555,28.923 L52.553,32.622 L54.375,32.622 C54.375,37.085 54.375,42.230 54.375,42.230 L58.064,42.231 C58.064,42.231 58.064,37.024 58.064,32.615 L60.512,32.615 L61.124,28.923 L58.064,28.923 L58.064,27.693 C58.064,26.925 58.952,26.462 59.288,26.462 Z" class="cls-1"/>
</svg>
