<svg xmlns="http://www.w3.org/2000/svg" xmlns:xlink="http://www.w3.org/1999/xlink" preserveAspectRatio="xMidYMid" width="269" height="175" viewBox="0 0 269 175">
  <defs>
    <style>
      .cls-1 {
        fill: #000;
        fill-rule: evenodd;
      }
    </style>
  </defs>
  <path d="M168.792,35.217 L156.572,15.054 L156.572,35.217 L148.676,35.217 L148.676,2.317 L156.854,2.317 L168.886,22.715 L168.886,2.317 L176.782,2.317 L176.782,35.217 L168.792,35.217 ZM137.725,2.317 L145.762,2.317 L145.762,35.217 L137.725,35.217 L137.725,2.317 ZM123.249,35.217 L115.212,35.217 L115.212,9.508 L108.115,9.508 L108.115,2.317 L130.346,2.317 L130.346,9.508 L123.249,9.508 L123.249,35.217 ZM87.013,15.054 L87.013,35.217 L79.117,35.217 L79.117,2.317 L87.295,2.317 L99.327,22.715 L99.327,2.317 L107.223,2.317 L107.223,35.217 L99.233,35.217 L87.013,15.054 ZM60.599,35.828 C50.212,35.828 43.350,28.402 43.350,18.720 C43.350,9.179 50.212,1.706 60.599,1.706 C70.986,1.706 77.848,9.179 77.848,18.720 C77.848,28.402 70.986,35.828 60.599,35.828 ZM60.599,9.226 C55.335,9.226 51.716,13.315 51.716,18.720 C51.716,24.266 55.382,28.308 60.599,28.308 C65.816,28.308 69.482,24.266 69.482,18.720 C69.482,13.315 65.863,9.226 60.599,9.226 ZM44.620,35.217 L35.737,35.217 L29.861,23.044 L27.417,23.044 L27.417,35.217 L19.380,35.217 L19.380,2.317 L30.096,2.317 C37.852,2.317 41.612,5.889 41.612,12.422 C41.612,16.041 40.061,19.472 37.053,21.117 C37.053,21.117 37.006,21.023 44.620,35.217 ZM29.438,9.226 L27.417,9.226 L27.417,16.323 L29.814,16.323 C32.024,16.323 33.387,14.960 33.387,12.704 C33.387,10.542 32.353,9.226 29.438,9.226 ZM8.054,15.524 L16.232,15.524 L16.232,22.668 L8.054,22.668 L8.054,35.217 L0.017,35.217 L0.017,2.317 L17.407,2.317 L17.407,9.508 L8.054,9.508 L8.054,15.524 Z" class="cls-1"/>
  <path d="M254.203,151.926 C255.707,151.315 256.976,151.174 258.151,151.174 C263.932,151.174 268.867,155.639 268.867,162.125 C268.867,168.799 263.556,173.828 256.600,173.828 C248.704,173.828 245.273,168.564 244.427,164.898 L252.511,162.595 C252.934,164.475 254.391,165.415 256.083,165.415 C257.822,165.415 259.420,164.193 259.420,162.125 C259.420,160.433 258.339,158.835 255.989,158.835 C254.391,158.835 253.498,159.634 252.934,160.433 L245.414,159.023 L246.072,140.317 L266.658,140.317 L266.658,148.260 L254.391,148.260 L254.203,151.926 ZM232.677,149.247 L229.622,150.093 L227.507,142.479 L234.275,140.317 L241.936,140.317 L241.936,173.217 L232.677,173.217 L232.677,149.247 ZM214.771,173.828 C206.311,173.828 202.550,168.376 202.550,156.767 C202.550,145.205 206.311,139.706 214.771,139.706 C223.184,139.706 226.991,145.205 226.991,156.767 C226.991,168.376 223.184,173.828 214.771,173.828 ZM214.771,148.260 C212.703,148.260 211.998,150.422 211.998,156.767 C211.998,163.112 212.703,165.274 214.771,165.274 C216.886,165.274 217.544,163.112 217.544,156.767 C217.544,150.422 216.886,148.260 214.771,148.260 ZM177.030,170.209 C177.030,160.339 190.895,155.169 190.895,150.469 C190.895,149.059 189.861,148.119 188.169,148.119 C186.430,148.119 185.302,149.294 184.785,150.845 L176.701,148.495 C177.641,144.829 180.931,139.706 188.592,139.706 C195.172,139.706 200.389,143.372 200.389,150.093 C200.389,157.613 190.096,161.326 188.216,165.368 L200.671,165.368 L200.671,173.217 L177.030,173.217 L177.030,170.209 Z" class="cls-1"/>
  <path d="M225.295,34.293 L195.265,34.293 L180.096,73.219 C174.066,47.864 151.290,29.000 124.093,29.000 C105.432,29.000 88.853,37.886 78.332,51.650 C76.616,48.504 74.369,45.670 71.610,43.199 C68.082,40.042 63.514,38.130 57.643,36.189 C52.447,34.473 46.315,34.239 38.344,34.239 L-0.000,34.239 L-0.000,141.254 L34.000,141.254 L34.000,109.249 L38.344,109.249 C45.246,109.249 51.672,107.718 57.442,105.812 C61.442,104.491 65.029,102.557 68.164,100.270 C74.306,125.466 97.010,144.173 124.093,144.173 C135.995,144.173 147.053,140.560 156.232,134.372 L153.657,140.980 L159.000,141.000 L188.000,141.000 L195.306,119.305 L225.250,119.305 L233.317,141.308 L267.000,141.308 L225.295,34.293 ZM39.875,82.227 L39.875,82.246 L34.000,82.246 L34.000,80.677 L34.000,62.811 L34.000,61.243 L39.875,61.243 L39.875,61.262 C45.499,61.461 50.000,66.071 50.000,71.744 C50.000,77.417 45.499,82.028 39.875,82.227 ZM124.093,109.485 C111.448,109.485 101.197,99.233 101.197,86.586 C101.197,73.940 111.448,63.687 124.093,63.687 C136.738,63.687 146.989,73.940 146.989,86.586 C146.989,99.233 136.738,109.485 124.093,109.485 ZM203.903,94.301 L210.302,75.329 L216.668,94.301 L203.903,94.301 Z" class="cls-1"/>
</svg>
