<svg xmlns="http://www.w3.org/2000/svg" xmlns:xlink="http://www.w3.org/1999/xlink" preserveAspectRatio="xMidYMid" width="107" height="63" viewBox="0 0 107 63">
  <defs>
    <style>
      .cls-1 {
        fill: #fff;
        fill-rule: evenodd;
      }
    </style>
  </defs>
  <path d="M70.199,20.736 L67.235,23.717 C67.235,23.717 67.235,23.447 67.235,24.213 C67.235,24.759 67.148,25.279 67.021,25.784 C66.952,29.884 65.654,35.321 60.319,39.612 C49.825,48.054 38.582,40.605 38.582,40.605 C47.474,40.605 47.474,37.625 47.474,37.625 C45.498,37.625 41.546,33.652 41.546,33.652 C42.534,34.645 44.510,33.652 44.510,33.652 C39.570,30.672 39.570,27.692 39.570,27.692 C40.558,28.684 42.534,27.692 42.534,27.692 C37.594,23.717 40.558,18.750 40.558,18.750 C41.546,23.717 54.391,25.705 54.391,25.705 L54.554,25.621 C54.453,25.168 54.391,24.202 54.391,23.717 C54.391,20.151 57.265,17.756 60.813,17.756 C62.765,17.756 64.493,18.651 65.670,20.033 L66.247,19.743 L69.211,17.756 L67.235,21.730 L70.199,20.736 Z" class="cls-1"/>
</svg>
