<svg style="background-color:#ffffff00" xmlns="http://www.w3.org/2000/svg" width="180" height="120"><g fill="#fff"><path d="M128.027 90l-2.242-3.728c5.105-2.516 5.01-5.312 5.01-7.316V48.063h5.726v30.335c0 7.456-4.58 9.739-8.494 11.603zm27.82-36.906c-1.337-.512-2.96-1.071-4.439-1.071-2.29 0-4.246 1.025-4.246 3.215 0 2.796 1.765 4.38 5.726 5.871 5.106 2.004 8.112 4.148 8.112 9.227 0 4.8-3.818 9.552-10.785 9.552-4.915 0-9.114-2.33-10.355-3.028l2.005-4.334c1.002.559 1.956 1.072 2.958 1.491 1.67.746 3.627 1.49 5.01 1.49 3.389 0 4.964-1.723 4.964-4.565 0-2.796-1.862-3.868-4.773-4.986-5.678-2.33-9.114-4.474-9.114-9.926 0-4.566 4.247-8.387 10.164-8.387 4.486 0 8.399 1.864 9.401 2.47l-2.338 4.053a25.776 25.776 0 0 0-2.29-1.072z"/><path d="M35.034 63.16c4.772 1.351 7.062 4.054 7.062 7.642 0 5.825-4.58 8.853-13.695 8.853-1.814 0-8.017-.046-9.401-.046V48.062c1.145 0 7.921-.093 9.926-.093 8.017 0 12.216 3.169 12.216 8.201 0 3.169-2.1 5.685-6.108 6.99zm-6.156-10.112c-.811 0-1.622 0-2.004.046v8.202h2.195c1.956 0 3.817-.979 3.817-4.1 0-2.564-1.192-4.148-4.008-4.148zm.096 13.047c-.86 0-1.67.047-2.1.094v8.387h2.338c2.577 0 4.581-.885 4.581-3.96 0-2.33-1.193-4.52-4.82-4.52zM58.89 63.44c-.43-.233-1.193-.512-2.243-.512-1.336 0-3.674 1.444-3.674 4.8V79.61h-7.54V67.494c0-7.363-2.625-9.74-2.625-9.74l6.06-1.863s1.48 1.444 2.148 4.193c1.575-2.982 3.77-4.193 6.729-4.193a9.83 9.83 0 0 1 3.101.512l-1.956 7.036zm18.561 16.542s-1.718-1.584-2.29-4.66c-1.05 2.89-3.102 4.567-6.538 4.567-6.251 0-9.21-4.613-9.21-11.602 0-7.13 4.867-12.395 11.978-12.395 3.96 0 9.4 1.35 9.496 1.35V68.38c0 7.362 2.624 9.739 2.624 9.739l-6.06 1.864zM73.348 61.67c-.43-.187-1.384-.373-1.956-.373-3.102 0-3.961 2.749-3.961 6.524 0 3.448.143 6.663 2.434 6.663 1.956 0 3.483-3.495 3.483-7.409V61.67zm28.677 12.581v5.359H83.7v-4.101l9.067-13.793c-1.194.047-2.291.093-3.341.093h-4.39l-.955-5.405h17.514v4.52l-8.59 13.42c.811-.046 1.622-.093 2.481-.093h6.538zm7.92 5.545c-3.58 0-6.061-1.957-6.061-5.265V56.217h7.54v16.216c0 1.397.43 1.817 1.336 1.817.477 0 1.097-.14 1.24-.186l.668 4.613c-.095.093-2.147 1.118-4.724 1.118zm12.405 0c-4.39 0-6.3-2.656-6.3-5.965V47.084l7.54-1.258v26.421c0 1.491.478 2.004 1.91 2.004.667 0 1.621-.14 2.337-.28l.716 4.613c-.954.42-3.435 1.212-6.203 1.212zM111.096 53.84l-3.565-2.217-3.62 2.129 1.058-3.995-3.192-2.705 4.218-.252 1.648-3.8 1.55 3.84 4.209.355-3.26 2.625.954 4.02z"/></g></svg>