<svg xmlns="http://www.w3.org/2000/svg" xmlns:xlink="http://www.w3.org/1999/xlink" width="299.104" height="180"><defs><path id="a" d="M190.979 79.982h.527v43.952h-.527z"/></defs><use xlink:href="#a" overflow="visible" fill="#FFF"/><clipPath id="b"><use xlink:href="#a" overflow="visible"/></clipPath><path clip-path="url(#b)" fill="#FFF" d="M191.104 80.293h.278v43.327h-.278z"/><path clip-path="url(#b)" fill="#FFF" d="M191.506 123.934h-.526V79.982h.526v43.952zm-.279-.623h.03V80.606h-.03v42.705z"/><path fill="#FFF" d="M159.871 106.671l-.156-.451a4.066 4.066 0 0 0-1.043-1.646l-.428-.409.508-.306c1.658-1.002 2.537-2.578 2.537-4.554v-.051c0-3.401-2.678-5.599-6.818-5.599h-6.4v16.604h3.273v-5.236h1.494c1.91 0 3.215.723 3.672 2.037v.004l1.295 3.195h3.467l-1.383-3.595-.018.007zm-1.908-7.29c0 1.749-1.408 3.557-3.764 3.557h-2.855v-7.162h2.775c2.229 0 3.844 1.494 3.844 3.556v.049zm12.221 1.176c-3.223-.744-4.096-1.152-4.096-2.631v-.051c0-.861.742-1.864 2.838-1.864 1.025 0 2.146.328 2.852.579v-2.905c-.078-.015-.158-.032-.238-.049-.715-.147-1.693-.354-2.557-.354-3.869 0-6.467 1.988-6.467 4.948v.048c0 3.063 1.994 4.062 6.184 5.025 2.865.662 3.82 1.125 3.82 2.561v.051c0 1.228-1.205 1.99-3.148 1.99-2.154 0-3.643-.734-5.404-2.016l-2.072 2.237c2.207 1.685 4.631 2.507 7.395 2.507 4.195 0 6.805-1.953 6.805-5.098v-.047c-.002-2.581-1.604-3.917-5.912-4.931M58.553 65.795H33.002c-5.599 0-11.315 3.016-13.961 4.91C6.276 79.829 0 98.278 0 98.278c1.773-3.082 14.792-26.933 32.454-26.933h18.663s.053 3.086-1.576 5.224c10.136-3.493 9.012-10.774 9.012-10.774"/><path fill="#FFF" d="M36.214 78.4c-.031.609-.162 2.354-.995 3.9h-.011v.009c8.335-.729 12.36-3.234 14.265-5.718C46.283 77.681 42 78.4 36.214 78.4"/><path fill="#FFF" d="M30.188 82.542s-1.806-.02-5.15-.096C11.634 82.139 5.292 91.887 2.194 96.63c3.098-3.233 9.155-9.259 20.136-9.051 8.511.162 11.656-2.591 12.92-5.279-1.543.14-3.217.279-5.062.242m7.966 24.906c-1.329.385-1.898.422-2.679.385-1.561-.08-2.836-.959-3.203-2.496h9.448c.024-.313.049-.516.049-.852v-.046c0-3.409-1.903-6.592-6.488-6.592-3.954 0-6.657 2.879-6.657 6.368 0 3.688 2.664 6.283 6.628 6.283.604 0 1.472-.02 2.902-.373v-2.677zm-2.826-6.799c1.686 0 2.738 1.033 2.976 2.559h-6.032c.318-1.549 1.396-2.559 3.056-2.559m52.651 3.086c0-3.316-2.019-5.904-6.287-5.904-4.275 0-6.293 2.588-6.293 5.904v6.489h3.955v-6.729c.069-1.228.551-2.677 2.338-2.677 1.781 0 2.301 1.449 2.369 2.677v6.729h3.918v-6.489z"/><path fill="#FFF" d="M79.314 103.735c0-3.316-2.019-5.904-6.289-5.904-4.273 0-6.293 2.588-6.293 5.904v6.489h3.957v-6.729c.07-1.228.551-2.677 2.336-2.677 1.783 0 2.301 1.449 2.371 2.677v6.729h3.918v-6.489zm-59.086-6.782v3.219h7.152v3.315h-7.152v6.726h-3.955V93.639h12.83v3.314zm101.334 1.15h3.935v12.121h-3.935zm0-4.479h3.935v2.688h-3.935zm-69.731 14.147c-.285.05-.579.075-.879.075-2.458 0-4.455-1.653-4.455-3.688 0-2.037 1.997-3.688 4.455-3.688.3 0 .594.025.879.072v-2.578a12.167 12.167 0 0 0-1.708-.112c-4.245 0-7.45 2.712-7.45 6.338 0 2.562 1.57 4.455 3.469 5.44 1.309.68 2.71.893 3.86.9.677.006 1.264-.047 1.829-.144v-2.615zm7.085-9.978c-3.685 0-6.671 2.838-6.671 6.338 0 3.502 2.986 6.34 6.671 6.34s6.672-2.838 6.672-6.34c0-3.5-2.987-6.338-6.672-6.338m-.004 9.876c-2.346 0-2.85-1.581-2.85-3.534 0-1.951.504-3.533 2.85-3.533 2.361 0 2.851 1.582 2.851 3.533 0 1.953-.491 3.534-2.851 3.534m60.912.102c-.285.05-.58.075-.879.075-2.459 0-4.455-1.653-4.455-3.688 0-2.037 1.996-3.688 4.455-3.688.299 0 .594.025.879.072v-2.578a12.163 12.163 0 0 0-1.707-.112c-4.246 0-7.451 2.712-7.451 6.338 0 2.562 1.57 4.455 3.47 5.44 1.31.68 2.71.893 3.86.9.678.006 1.265-.047 1.828-.144v-2.615zm13.342-9.978c-3.684 0-6.67 2.838-6.67 6.338 0 3.502 2.986 6.34 6.67 6.34 3.686 0 6.674-2.838 6.674-6.34 0-3.5-2.988-6.338-6.674-6.338m-.002 9.876c-2.347 0-2.851-1.581-2.851-3.534 0-1.951.504-3.533 2.851-3.533 2.359 0 2.851 1.582 2.851 3.533 0 1.953-.492 3.534-2.851 3.534m-22.353-9.929s-.584-.048-1.047-.048c-4.091 0-6.604 2.242-6.604 5.238v7.293h3.995l-.006-7.067c.017-1.519.517-1.94 1.373-2.301.561-.239 1.379-.409 2.289-.425v-2.69zm-12.364 9.708c-1.33.383-1.9.42-2.681.383-1.562-.082-2.836-.959-3.203-2.494h9.447c.026-.315.05-.517.05-.853v-.048c0-3.407-1.904-6.591-6.488-6.591-3.955 0-6.658 2.877-6.658 6.37 0 3.688 2.666 6.283 6.629 6.283.604 0 1.473-.022 2.904-.375v-2.675zm-2.828-6.801c1.686 0 2.738 1.031 2.977 2.559h-6.032c.317-1.549 1.395-2.559 3.055-2.559m-1.787-4.29l2.783-4.162 3.23 1.339-3.155 2.823zm175.492-39.094c-1.543-.366-3.096-.708-4.701-.943-.057-.011-.127-.015-.188-.022a47.736 47.736 0 0 0-6.27 5.535 59.097 59.097 0 0 1 6.414-.582 56.552 56.552 0 0 1 21.396 3.348c-4.715-3.246-10.405-5.809-16.651-7.336m-3.394 16.769c8.619-4.07 17.645-5.789 26.164-5.413-7.332-3.238-15.748-4.942-24.643-4.619-4.385.16-8.621.804-12.633 1.866a39.74 39.74 0 0 0-4.91 8.618 55.549 55.549 0 0 0 6.316 5.345 57.864 57.864 0 0 1 9.706-5.797"/><path fill="#FFF" d="M254.818 65.866a54.807 54.807 0 0 0-9.523 3.473c3.037 3.87 6.697 7.418 10.924 10.49h.004a55.533 55.533 0 0 1-6.316-5.345 39.881 39.881 0 0 1 4.911-8.618"/><path fill="#FFF" d="M256.227 79.833a55.711 55.711 0 0 1-6.32-5.349 36.363 36.363 0 0 0-2.787 13.829 54.66 54.66 0 0 1 9.107-8.48m42.877 26.265c-.105 0-.211.004-.32.004-4.373 0-7.541-2.8-7.541-6.656v-.086c0-3.693 3.174-6.582 7.23-6.582.215 0 .43.008.631.019v-4.431c-.188-.01-.383-.01-.578-.01-7.947 0-13.943 4.765-13.943 11.091v.079c0 6.171 6.078 11.005 13.842 11.005.238 0 .455-.006.68-.012v-4.421zm-80.348-9.291c-4.687-1-5.348-1.48-5.348-2.964v-.065c0-1.094 1.205-1.964 3.49-1.964 1.164 0 2.688.318 3.754.712V87.8c-.996-.17-2.518-.371-3.676-.371-5.543 0-9.494 2.708-9.494 6.806v.061c0 4.48 3.521 5.734 8.99 6.893 4.531.969 4.961 1.61 4.961 2.87v.063c0 1.322-1.475 2.127-3.918 2.127-3.098 0-5.152-1.062-7.59-2.738l-3.533 3.516c3.258 2.411 6.898 3.607 11.008 3.607 5.852 0 9.963-2.514 9.963-6.995v-.063c0-3.934-3.101-5.577-8.607-6.769"/><path fill="#FFF" d="M232.432 98.805c.469-2.379 2.07-3.938 4.527-3.938 2.494 0 4.057 1.588 4.41 3.938h-8.937zm4.527-8.144c-6.088 0-10.34 4.348-10.34 9.624v.067c0 5.66 4.643 9.555 10.924 9.555.184 0 .764-.021.945-.025v-4.216c-.148.007-.711.033-.869.033-2.652 0-4.523-1.238-5.111-3.619h14.426c.035-.487.076-.797.076-1.317v-.063c0-5.245-3.071-10.039-10.051-10.039"/><path fill="#FFF" d="M265.824 99.777c0-5.003-3.061-8.906-9.529-8.906-6.479 0-9.537 3.903-9.537 8.906v9.79h5.996v-10.15c.107-1.853.834-4.037 3.541-4.037 2.699 0 3.488 2.185 3.59 4.037v10.15h5.939v-9.79z"/><path fill="#FFF" d="M275.57 90.763c-.264 0-1.168.005-1.416.014v4.474c1.152.01 2.732.207 3.438.577 1.039.544 1.574 1.461 1.599 2.707a50.722 50.722 0 0 0-4.397-.313c-5.664-.145-8.463 1.727-9.027 4.724l-.031.168a6.095 6.095 0 0 0-.074.965v.069c0 3.66 3.236 5.66 7.172 5.66 2.891 0 4.883-.934 6.32-2.348v2.133h5.738v-10.86c-.001-5.005-2.851-7.97-9.322-7.97m3.641 12.226c-.516 2.703-3.305 3.109-3.939 3.143-4.512.236-4.672-2.85-3.15-3.789 2.037-1.264 7.109-.553 7.109-.553-.001.181.046.64-.02 1.199"/></svg>