<?xml version="1.0" encoding="UTF-8" standalone="no"?>
<svg width="192px" height="128px" viewBox="0 0 192 128" version="1.1" xmlns="http://www.w3.org/2000/svg" xmlns:xlink="http://www.w3.org/1999/xlink" xmlns:sketch="http://www.bohemiancoding.com/sketch/ns">
    <!-- Generator: Sketch 3.0.4 (8054) - http://www.bohemiancoding.com/sketch -->
    <title>Artboard 1</title>
    <desc>Created with Sketch.</desc>
    <defs></defs>
    <g id="Page-1" stroke="none" stroke-width="1" fill="none" fill-rule="evenodd" sketch:type="MSPage">
        <g id="Artboard-1" sketch:type="MSArtboardGroup" fill="#FFFFFF">
            <g id="grupo-rbs" sketch:type="MSLayerGroup" transform="translate(4.000000, 52.000000)">
                <g id="Group" sketch:type="MSShapeGroup">
                    <path d="M19.0588235,40.0480769 C17.7411765,40.5663462 15.2470588,41.3673077 12.1882353,41.3673077 C9.08235294,41.3673077 6.11764706,40.5663462 3.62352941,38.0692308 C1.50588235,35.9019231 0.0470588235,32.2740385 0.0470588235,27.6567308 C0.0470588235,18.9875 5.12941176,13.475 12.8941176,13.475 C15.3882353,13.475 17.4117647,14.0403846 18.4,14.5115385 L17.7882353,16.0663462 C16.6588235,15.5009615 15.0588235,15.0769231 12.8,15.0769231 C6.54117647,15.0769231 2.02352941,19.3644231 2.02352941,27.3269231 C2.02352941,35.5721154 6.25882353,39.6711538 12.4705882,39.6711538 C14.9176471,39.6711538 16.3764706,39.2942308 17.2235294,38.9173077 L17.2235294,29.0230769 L11.4823529,29.0230769 L11.4823529,27.4682692 L19.0588235,27.4682692 L19.0588235,40.0480769 L19.0588235,40.0480769 Z" id="Shape"></path>
                    <path d="M24.2823529,27.0442308 C24.2823529,25.2538462 24.1882353,23.3221154 24.1411765,21.6259615 L25.8823529,21.6259615 L25.9764706,25.3009615 L26.0705882,25.3009615 C26.7764706,23.0394231 28.7058824,21.2019231 31.1529412,21.2019231 C31.3882353,21.2019231 31.5764706,21.2490385 31.8117647,21.2490385 L31.8117647,23.1336538 C31.6235294,23.0865385 31.3411765,23.0865385 31.1058824,23.0865385 C28.4705882,23.0865385 26.6823529,25.4423077 26.3058824,28.3634615 C26.2117647,28.9288462 26.1647059,29.5413462 26.1647059,30.1538462 L26.1647059,41.0846154 L24.2823529,41.0846154 L24.2823529,27.0442308 L24.2823529,27.0442308 Z" id="Shape"></path>
                    <path d="M48.7529412,36.2788462 C48.7529412,38.1634615 48.8470588,39.6240385 48.8941176,41.0846154 L47.1529412,41.0846154 L47.0117647,38.0692308 L46.9176471,38.0692308 C46.1176471,39.5298077 44.1411765,41.4615385 41.0352941,41.4615385 C38.3529412,41.4615385 35.1058824,39.8596154 35.1058824,33.3105769 L35.1058824,21.5788462 L36.9882353,21.5788462 L36.9882353,32.9336538 C36.9882353,36.8913462 38.0235294,39.8125 41.5058824,39.8125 C44.2352941,39.8125 45.9764706,37.6923077 46.5882353,36.0432692 C46.7294118,35.4307692 46.8705882,34.7711538 46.8705882,33.9701923 L46.8705882,21.5788462 L48.7529412,21.5788462 L48.7529412,36.2788462 L48.7529412,36.2788462 Z" id="Shape"></path>
                    <path d="M54.7764706,27.7509615 C54.7764706,25.0182692 54.6823529,23.2278846 54.6352941,21.5788462 L56.4235294,21.5788462 L56.5647059,24.9240385 L56.6588235,24.9240385 C57.9764706,22.4269231 60.1411765,21.1548077 62.9176471,21.1548077 C67.2470588,21.1548077 70.3529412,24.9240385 70.3529412,31.0490385 C70.3529412,38.1634615 66.5882353,41.4144231 62.4,41.4144231 C59.8588235,41.4144231 57.8352941,40.1423077 56.7529412,38.1634615 L56.6588235,38.1634615 L56.6588235,49 L54.7764706,49 L54.7764706,27.7509615 L54.7764706,27.7509615 Z M56.6117647,33.5461538 C56.6117647,34.0644231 56.6588235,34.5826923 56.7529412,35.1009615 C57.5058824,38.3519231 59.8588235,39.8596154 62.2588235,39.8596154 C66.3058824,39.8596154 68.3764706,36.0903846 68.3764706,31.1432692 C68.3764706,26.8086538 66.3529412,22.7567308 62.4,22.7567308 C59.8588235,22.7567308 57.4588235,24.8769231 56.8,27.7980769 C56.7058824,28.3163462 56.6117647,28.8817308 56.6117647,29.4 L56.6117647,33.5461538 L56.6117647,33.5461538 Z" id="Shape"></path>
                    <path d="M81.4117647,41.4615385 C77.0352941,41.4615385 73.4588235,37.8336538 73.4588235,31.4730769 C73.4588235,24.6413462 77.3647059,21.2019231 81.6941176,21.2019231 C86.2588235,21.2019231 89.6941176,24.8769231 89.6941176,31.1903846 C89.6470588,38.3990385 85.3176471,41.4615385 81.4117647,41.4615385 L81.4117647,41.4615385 L81.4117647,41.4615385 Z M81.5058824,39.8596154 C85.3176471,39.8596154 87.7176471,35.6663462 87.7176471,31.2375 C87.7176471,27.8451923 86.1176471,22.7567308 81.5058824,22.7567308 C77.0352941,22.7567308 75.2941176,27.4682692 75.2941176,31.3317308 C75.3411765,35.7134615 77.6941176,39.8596154 81.5058824,39.8596154 L81.5058824,39.8596154 L81.5058824,39.8596154 Z" id="Shape"></path>
                    <path d="M172.705882,0 C166.917647,0 162.541176,1.97884615 160.047059,5.08846154 C159.623529,5.60673077 159.247059,6.17211538 158.964706,6.7375 C158.870588,6.87884615 158.776471,7.02019231 158.729412,7.20865385 C158.352941,8.00961538 158.070588,8.85769231 157.882353,9.75288462 C157.741176,10.5067308 157.647059,11.3076923 157.647059,12.1086538 C157.647059,13.2394231 157.788235,14.3230769 158.117647,15.2653846 C160.8,13.9461538 162.917647,12.6740385 164.517647,11.5903846 C165.082353,11.1663462 165.6,10.8365385 166.023529,10.4596154 C166.635294,9.98846154 167.058824,9.61153846 167.388235,9.32884615 C167.529412,9.23461538 167.623529,9.14038462 167.717647,9.04615385 C168.658824,8.10384615 170.258824,7.49134615 172.564706,7.49134615 C176.470588,7.49134615 178.494118,8.62211538 180.094118,9.37596154 L180.8,6.87884615 L181.929412,2.82692308 L182.117647,2.12019231 C179.670588,0.942307692 177.223529,0 172.705882,0 M124.988235,9.23461538 C124.470588,6.87884615 123.341176,4.99423077 121.6,3.58076923 C120.423529,2.63846154 119.058824,1.93173077 117.458824,1.41346154 C115.247059,0.706730769 112.611765,0.424038462 109.176471,0.424038462 C104.376471,0.424038462 100.564706,0.706730769 97.6470588,1.17788462 L97.6470588,21.5317308 C98.0705882,21.5788462 98.4941176,21.6259615 98.9647059,21.7201923 C101.835294,22.05 105.411765,22.3798077 109.552941,22.5211538 C110.729412,22.5682692 111.952941,22.6153846 113.270588,22.6153846 C114.870588,22.6625 116.564706,22.6625 118.305882,22.6153846 L118.305882,22.6153846 C120.517647,21.9557692 122.729412,20.1182692 124.047059,17.3855769 C124.329412,16.7730769 124.611765,16.1605769 124.8,15.4538462 C124.894118,15.1240385 124.988235,14.7942308 125.035294,14.4644231 C125.176471,13.6634615 125.270588,12.8625 125.270588,11.9673077 L125.270588,11.9201923 L125.270588,11.6375 C125.223529,10.8365385 125.129412,10.0355769 124.988235,9.23461538 M116.282353,13.2865385 C116,16.4903846 113.411765,18.5163462 109.129412,18.5163462 C109.129412,18.5163462 107.105882,18.5634615 106.588235,18.4221154 L106.588235,9.61153846 L106.588235,7.35 C106.823529,7.30288462 107.482353,7.25576923 107.482353,7.25576923 C108.141176,7.20865385 108.894118,7.16153846 109.694118,7.16153846 L109.882353,7.16153846 C112.423529,7.20865385 114.352941,7.9625 115.388235,9.47019231 C115.905882,10.1769231 116.188235,11.0721154 116.282353,12.1086538 L116.282353,12.5326923 L116.282353,12.7682692 L116.282353,13.2865385 M155.058824,7.49134615 C154.917647,7.11442308 154.776471,6.78461538 154.635294,6.45480769 C154.4,5.98365385 154.117647,5.55961538 153.788235,5.13557692 C153.741176,5.04134615 153.647059,4.94711538 153.6,4.85288462 C152.847059,3.91057692 151.858824,3.15673077 150.776471,2.59134615 C149.6,1.88461538 148.376471,1.36634615 146.964706,1.03653846 C145.976471,0.800961538 144.894118,0.6125 143.670588,0.518269231 C142.4,0.424038462 140.941176,0.329807692 139.294118,0.329807692 C134.776471,0.329807692 129.976471,0.706730769 127.623529,1.17788462 L127.623529,22.2384615 C129.411765,22.0971154 131.247059,21.9557692 133.129412,21.7673077 C138.117647,21.2961538 142.447059,20.4480769 146.258824,19.4586538 C147.717647,19.0817308 149.035294,18.7048077 150.352941,18.2807692 C150.541176,18.2336538 150.776471,18.1394231 150.964706,18.0923077 C154.164706,16.3019231 155.670588,13.4278846 155.670588,10.4125 C155.670588,9.94134615 155.623529,9.51730769 155.576471,9.09326923 C155.388235,8.52788462 155.247059,8.00961538 155.058824,7.49134615 M143.058824,16.1605769 C142.305882,16.3961538 141.411765,16.5375 140.423529,16.5375 L136.470588,16.5375 L136.470588,7.20865385 C137.223529,7.06730769 138.117647,6.97307692 140.047059,6.97307692 C142.070588,6.97307692 143.670588,7.39711538 144.8,8.19807692 C145.129412,8.43365385 145.411765,8.71634615 145.647059,9.04615385 C145.694118,9.14038462 145.788235,9.1875 145.835294,9.28173077 C146.258824,9.94134615 146.494118,10.6951923 146.494118,11.5903846 C146.494118,13.8519231 145.223529,15.4538462 143.058824,16.1605769" id="Shape"></path>
                    <path d="M97.6470588,41.0375 L106.588235,41.0375 L106.588235,25.0653846 C102.635294,24.8769231 99.5294118,24.5471154 97.6470588,24.3586538 L97.6470588,41.0375 L97.6470588,41.0375 Z M174.117647,16.9144231 C169.176471,15.0298077 166.917647,13.9461538 166.729412,11.6375 C164.376471,13.5692308 161.647059,15.3596154 158.729412,16.8673077 C160.376471,20.0240385 163.717647,22.2855769 168.329412,23.8403846 C173.129412,25.5836538 174.447059,26.9971154 174.447059,29.4942308 C174.447059,32.0855769 172.235294,33.8288462 168.094118,33.8288462 C164.705882,33.8288462 161.458824,32.8865385 159.058824,31.8028846 C158.305882,31.4730769 157.647059,31.1432692 157.035294,30.8134615 C157.129412,30.2009615 157.223529,29.5884615 157.223529,28.9759615 C157.223529,24.7826923 154.823529,21.7673077 151.529412,20.0711538 C147.905882,21.3903846 144,22.4269231 139.952941,23.1807692 L139.905882,23.1807692 L139.905882,23.2278846 C144.235294,23.3221154 147.717647,24.6884615 147.717647,28.5990385 C147.717647,32.7451923 144.094118,34.3471154 140,34.3471154 C138.447059,34.3471154 137.411765,34.3471154 136.517647,34.2528846 L136.517647,23.7461538 C133.458824,24.2173077 130.494118,24.5471154 127.576471,24.7826923 L127.576471,39.4826923 C127.576471,39.4826923 127.105882,38.2105769 126.635294,36.4673077 C126.023529,34.2528846 125.270588,31.7086538 124.564706,29.4 C124,27.4682692 123.2,26.1490385 122.211765,25.1125 C117.788235,25.3009615 113.647059,25.3009615 110.070588,25.2067308 L110.070588,25.2538462 C112.517647,25.8192308 114.682353,27.4682692 115.811765,31.3317308 C117.317647,36.5144231 118.211765,39.5298077 118.682353,40.9903846 L137.694118,40.9903846 C146.447059,40.9903846 150.164706,39.7182692 153.082353,37.4096154 C153.129412,37.3625 153.176471,37.3153846 153.270588,37.2682692 C154.4,38.0221154 156.376471,39.0586538 159.388235,40.0480769 C161.694118,40.7548077 164.658824,41.2730769 167.623529,41.2730769 C178.588235,41.2730769 183.764706,35.525 183.764706,28.7875 C183.670588,23.2278846 181.176471,19.5528846 174.117647,16.9144231 L174.117647,16.9144231 Z" id="Shape"></path>
                </g>
            </g>
        </g>
    </g>
</svg>