<svg xmlns="http://www.w3.org/2000/svg" width="180" height="120"><path d="M16.063 59.037c.137 1.142.137 2.282.137 3.427h.091c1.325-2.331 4.339-3.975 7.171-3.975 5.435 0 8.039 3.061 8.039 8.359v13.566h-3.015V68.583c0-4.75-1.324-7.354-5.8-7.354-.639 0-6.486.411-6.486 8.222v10.963h-3.015V63.742c0-1.142-.137-3.152-.228-4.705h3.106zm32.794 21.926c-6.623 0-11.327-4.798-11.327-11.237S42.234 58.49 48.857 58.49c6.668 0 11.373 4.797 11.373 11.236s-4.704 11.237-11.373 11.237m0-19.732c-4.933 0-8.039 3.698-8.039 8.494s3.106 8.494 8.039 8.494c4.979 0 8.084-3.698 8.084-8.494s-3.105-8.494-8.084-8.494m26.309 19.183h-3.38l-8.678-21.378h3.608l6.805 17.998h.092l6.805-17.998h3.426zm26.355-13.108v-.549c0-3.699-1.782-5.525-5.48-5.525-2.515 0-4.707.865-6.534 2.511l-1.827-2.146c1.965-2.01 5.027-3.105 9.045-3.105 4.201 0 7.809 2.374 7.809 7.579v9.548c0 1.645.186 3.653.368 4.797h-2.924c-.183-1.052-.275-2.33-.275-3.473h-.09c-1.737 2.831-4.111 4.021-7.536 4.021-3.793 0-7.355-2.103-7.355-6.258 0-6.943 8.176-7.399 13.291-7.399h1.508zm-1.553 2.465c-3.062 0-9.959.229-9.959 4.52 0 2.834 2.604 3.929 5.026 3.929 4.384 0 6.485-3.105 6.485-6.896v-1.553h-1.552zm22.652-7.993h-6.167v12.606c0 3.197 1.234 3.835 3.105 3.835 1.052 0 2.193-.318 3.106-.822l.137 2.786c-1.094.505-2.556.779-4.065.779-2.283 0-5.298-1.007-5.298-5.71V61.778h-4.521v-2.741h4.521v-6.029h3.015v6.029h6.167v2.741zm6.257 8.77c.365 4.293 3.608 7.672 7.856 7.672 3.195 0 5.661-1.78 6.85-3.698l2.329 1.918c-2.511 3.197-5.662 4.523-9.179 4.523-6.349 0-11.056-4.798-11.056-11.237 0-6.441 4.707-11.236 10.781-11.236 6.483.045 10.229 4.842 10.229 10.688v1.371h-17.81zm14.524-2.466c0-4.066-2.604-6.853-6.942-6.853-3.929 0-7.49 3.335-7.49 6.853h14.432zm24.39-4.021c-1.005-1.553-2.969-2.831-5.341-2.831-4.98-.091-8.041 3.609-8.041 8.496s3.061 8.587 8.041 8.494c2.372 0 4.336-1.278 5.341-2.831l2.466 1.873c-2.097 2.466-4.932 3.654-7.807 3.701-6.989.088-11.329-4.798-11.329-11.237 0-6.441 4.34-11.328 11.329-11.236 2.875.045 5.71 1.233 7.807 3.699l-2.466 1.872zm-49.076-17.353c.135 1.589 1.337 2.842 2.91 2.842 1.184 0 2.097-.66 2.538-1.371l.862.71c-.931 1.184-2.098 1.674-3.4 1.674-2.354 0-4.095-1.776-4.095-4.162 0-2.385 1.741-4.162 3.992-4.162 2.401.018 3.79 1.794 3.79 3.959v.507h-6.597zm5.38-.914c0-1.506-.962-2.537-2.572-2.537-1.455 0-2.771 1.235-2.771 2.537h5.343zm11.15 4.568h-1.117v-1.319h-.036c-.728 1.065-2.03 1.522-3.076 1.522-2.474 0-4.212-1.776-4.212-4.162s1.738-4.161 4.212-4.161c1.046 0 2.349.457 3.076 1.522h.036v-6.192h1.117v12.79zm-4.229-.811c1.825 0 3.161-1.371 3.161-3.147s-1.336-3.146-3.161-3.146c-1.847 0-2.997 1.37-2.997 3.146s1.15 3.147 2.997 3.147m7.475-9.339a.822.822 0 0 1-.812-.812c0-.475.405-.812.812-.812.406 0 .812.337.812.812a.822.822 0 0 1-.812.812m.558 10.15h-1.114v-7.917h1.114v7.917zm6.784-6.902h-2.285v4.669c0 1.184.46 1.421 1.151 1.421.391 0 .813-.119 1.152-.305l.047 1.031c-.404.187-.946.289-1.505.289-.846 0-1.963-.372-1.963-2.115v-4.99h-1.673v-1.015h1.673v-2.233h1.117v2.233h2.285v1.015zm5.309 7.105c-2.45 0-4.192-1.776-4.192-4.162 0-2.385 1.742-4.162 4.192-4.162 2.473 0 4.213 1.777 4.213 4.162-.001 2.386-1.741 4.162-4.213 4.162m0-7.308c-1.825 0-2.976 1.37-2.976 3.146 0 1.777 1.15 3.147 2.976 3.147 1.846 0 2.997-1.371 2.997-3.147 0-1.776-1.152-3.146-2.997-3.146m6.362 1.658c0-.71-.034-1.32-.066-2.469h1.097v1.472h.037c.319-.846 1.149-1.675 2.537-1.675.319 0 .591.034.828.102l-.222 1.1c-.136-.05-.335-.084-.642-.084-1.692 0-2.454 1.472-2.454 2.537v4.465h-1.115v-5.448zm10.573.592v-.203c0-1.371-.662-2.047-2.029-2.047-.932 0-1.744.321-2.421.931l-.675-.795c.726-.744 1.858-1.151 3.347-1.151 1.558 0 2.893.88 2.893 2.809v3.536c0 .609.067 1.354.136 1.776h-1.083a7.998 7.998 0 0 1-.1-1.286h-.035c-.643 1.049-1.521 1.489-2.79 1.489-1.403 0-2.724-.778-2.724-2.317 0-2.572 3.029-2.741 4.923-2.741h.558zm-.576.913c-1.134 0-3.688.084-3.688 1.675 0 1.048.966 1.455 1.86 1.455 1.625 0 2.403-1.151 2.403-2.555v-.575h-.575z" fill="#FFF"/></svg>